<svg width="336" height="377" viewBox="0 0 336 377" fill="none" xmlns="http://www.w3.org/2000/svg">
<g filter="url(#filter0_d_437_81)">
<rect x="20.3428" y="5" width="295.335" height="336.813" rx="3" fill="white"/>
<rect x="20.8428" y="5.5" width="294.335" height="335.813" rx="2.5" stroke="#E3E9EF"/>
</g>
<path d="M21.2656 9C21.2656 7.34315 22.6088 6 24.2656 6H311.754C313.411 6 314.754 7.34315 314.754 9V46H21.2656V9Z" fill="#4D74F5"/>
<path d="M161.025 30.5198V26.6418C160.876 26.7071 160.614 26.8004 160.241 26.9218C159.868 27.0431 159.382 27.1038 158.785 27.1038C157.628 27.1038 156.76 26.8471 156.181 26.3338C155.602 25.8204 155.313 24.9991 155.313 23.8698V20.5798H157.189V23.6598C157.189 24.2478 157.338 24.6818 157.637 24.9618C157.936 25.2324 158.458 25.3678 159.205 25.3678C159.532 25.3678 159.858 25.3351 160.185 25.2698C160.512 25.1951 160.792 25.1018 161.025 24.9898V20.5798H162.901V30.5198H161.025ZM164.284 28.3498C164.284 27.8738 164.415 27.4584 164.676 27.1038C164.947 26.7398 165.32 26.4598 165.796 26.2638C166.272 26.0678 166.818 25.9698 167.434 25.9698C167.742 25.9698 168.055 25.9978 168.372 26.0538C168.689 26.1004 168.965 26.1704 169.198 26.2638V25.8718C169.198 25.4051 169.058 25.0458 168.778 24.7938C168.507 24.5418 168.101 24.4158 167.56 24.4158C167.159 24.4158 166.776 24.4858 166.412 24.6258C166.048 24.7658 165.665 24.9711 165.264 25.2418L164.662 24.0098C165.147 23.6924 165.642 23.4544 166.146 23.2958C166.659 23.1371 167.196 23.0578 167.756 23.0578C168.801 23.0578 169.613 23.3191 170.192 23.8418C170.78 24.3644 171.074 25.1111 171.074 26.0818V28.4198C171.074 28.6251 171.107 28.7698 171.172 28.8538C171.237 28.9284 171.354 28.9751 171.522 28.9938V30.5198C171.354 30.5571 171.2 30.5804 171.06 30.5898C170.929 30.6084 170.817 30.6178 170.724 30.6178C170.351 30.6178 170.066 30.5338 169.87 30.3658C169.674 30.1978 169.557 29.9924 169.52 29.7498L169.478 29.3718C169.151 29.7918 168.75 30.1138 168.274 30.3378C167.807 30.5524 167.327 30.6598 166.832 30.6598C166.337 30.6598 165.899 30.5618 165.516 30.3658C165.133 30.1604 164.83 29.8851 164.606 29.5398C164.391 29.1851 164.284 28.7884 164.284 28.3498ZM168.848 28.7278C169.081 28.5038 169.198 28.2891 169.198 28.0838V27.3418C168.713 27.1458 168.223 27.0478 167.728 27.0478C167.233 27.0478 166.832 27.1551 166.524 27.3698C166.216 27.5751 166.062 27.8504 166.062 28.1958C166.062 28.4758 166.174 28.7278 166.398 28.9518C166.622 29.1758 166.944 29.2878 167.364 29.2878C167.644 29.2878 167.915 29.2364 168.176 29.1338C168.447 29.0311 168.671 28.8958 168.848 28.7278ZM174.439 30.5198V24.8218H172.115V23.1838H178.653V24.8218H176.315V30.5198H174.439Z" fill="white"/>
<path d="M226.805 125.243V126.426H220.181C220.172 126.13 220.22 125.845 220.324 125.571C220.493 125.12 220.762 124.676 221.131 124.238C221.505 123.801 222.042 123.295 222.744 122.721C223.833 121.827 224.569 121.121 224.952 120.602C225.335 120.077 225.526 119.583 225.526 119.118C225.526 118.631 225.351 118.22 225 117.888C224.654 117.55 224.2 117.382 223.64 117.382C223.047 117.382 222.573 117.56 222.218 117.915C221.862 118.271 221.682 118.763 221.678 119.392L220.413 119.262C220.5 118.318 220.826 117.601 221.391 117.108C221.956 116.612 222.715 116.363 223.667 116.363C224.629 116.363 225.39 116.63 225.95 117.163C226.511 117.696 226.791 118.357 226.791 119.146C226.791 119.547 226.709 119.941 226.545 120.328C226.381 120.715 226.108 121.123 225.725 121.552C225.346 121.98 224.715 122.568 223.831 123.315C223.093 123.935 222.619 124.357 222.409 124.58C222.2 124.799 222.026 125.02 221.89 125.243H226.805ZM228.131 121.483C228.131 120.299 228.252 119.346 228.493 118.626C228.739 117.901 229.102 117.343 229.58 116.951C230.063 116.559 230.669 116.363 231.399 116.363C231.936 116.363 232.408 116.473 232.814 116.691C233.219 116.906 233.554 117.218 233.818 117.628C234.083 118.034 234.29 118.53 234.441 119.118C234.591 119.701 234.666 120.49 234.666 121.483C234.666 122.659 234.545 123.609 234.304 124.334C234.062 125.054 233.7 125.612 233.217 126.009C232.738 126.401 232.132 126.597 231.399 126.597C230.432 126.597 229.674 126.25 229.122 125.558C228.461 124.724 228.131 123.366 228.131 121.483ZM229.396 121.483C229.396 123.129 229.587 124.225 229.97 124.771C230.357 125.314 230.833 125.585 231.399 125.585C231.964 125.585 232.438 125.312 232.82 124.765C233.208 124.218 233.401 123.124 233.401 121.483C233.401 119.834 233.208 118.738 232.82 118.195C232.438 117.653 231.959 117.382 231.385 117.382C230.82 117.382 230.369 117.621 230.031 118.1C229.608 118.71 229.396 119.838 229.396 121.483Z" fill="#C4C8DF"/>
<path d="M216.18 224.919H214.949V217.078C214.653 217.361 214.263 217.643 213.78 217.926C213.302 218.208 212.871 218.42 212.488 218.562V217.372C213.176 217.049 213.778 216.657 214.293 216.196C214.808 215.736 215.173 215.289 215.387 214.856H216.18V224.919ZM219.338 219.977C219.338 218.792 219.459 217.839 219.7 217.119C219.946 216.395 220.309 215.836 220.787 215.444C221.27 215.052 221.876 214.856 222.605 214.856C223.143 214.856 223.615 214.966 224.021 215.185C224.426 215.399 224.761 215.711 225.025 216.121C225.29 216.527 225.497 217.023 225.647 217.611C225.798 218.195 225.873 218.983 225.873 219.977C225.873 221.152 225.752 222.103 225.511 222.827C225.269 223.547 224.907 224.105 224.424 224.502C223.945 224.894 223.339 225.09 222.605 225.09C221.639 225.09 220.881 224.743 220.329 224.051C219.668 223.217 219.338 221.859 219.338 219.977ZM220.603 219.977C220.603 221.622 220.794 222.718 221.177 223.265C221.564 223.807 222.04 224.078 222.605 224.078C223.171 224.078 223.645 223.805 224.027 223.258C224.415 222.711 224.608 221.617 224.608 219.977C224.608 218.327 224.415 217.231 224.027 216.688C223.645 216.146 223.166 215.875 222.592 215.875C222.027 215.875 221.576 216.114 221.238 216.593C220.814 217.203 220.603 218.331 220.603 219.977ZM229.024 219.484C228.514 219.298 228.136 219.031 227.89 218.685C227.644 218.338 227.521 217.924 227.521 217.44C227.521 216.711 227.783 216.098 228.307 215.602C228.831 215.105 229.528 214.856 230.398 214.856C231.273 214.856 231.978 215.112 232.511 215.622C233.044 216.128 233.311 216.745 233.311 217.475C233.311 217.939 233.188 218.345 232.941 218.691C232.7 219.033 232.331 219.298 231.834 219.484C232.449 219.685 232.916 220.008 233.235 220.455C233.559 220.902 233.721 221.435 233.721 222.055C233.721 222.911 233.418 223.632 232.812 224.215C232.205 224.798 231.408 225.09 230.419 225.09C229.43 225.09 228.632 224.798 228.026 224.215C227.42 223.627 227.117 222.896 227.117 222.021C227.117 221.369 227.281 220.824 227.609 220.387C227.942 219.945 228.414 219.644 229.024 219.484ZM228.778 217.399C228.778 217.873 228.931 218.261 229.236 218.562C229.542 218.862 229.938 219.013 230.426 219.013C230.9 219.013 231.287 218.865 231.588 218.568C231.893 218.268 232.046 217.901 232.046 217.468C232.046 217.017 231.889 216.638 231.574 216.333C231.264 216.023 230.877 215.868 230.412 215.868C229.943 215.868 229.553 216.019 229.243 216.319C228.933 216.62 228.778 216.98 228.778 217.399ZM228.382 222.027C228.382 222.378 228.464 222.718 228.628 223.046C228.797 223.374 229.045 223.629 229.373 223.812C229.701 223.989 230.054 224.078 230.433 224.078C231.021 224.078 231.506 223.889 231.889 223.511C232.271 223.132 232.463 222.652 232.463 222.068C232.463 221.476 232.265 220.986 231.868 220.599C231.476 220.211 230.984 220.018 230.392 220.018C229.813 220.018 229.332 220.209 228.949 220.592C228.571 220.975 228.382 221.453 228.382 222.027Z" fill="#BEC2D6"/>
<path d="M229.205 318.636C229.205 317.451 229.326 316.499 229.567 315.779C229.813 315.054 230.176 314.496 230.654 314.104C231.137 313.712 231.743 313.516 232.473 313.516C233.01 313.516 233.482 313.625 233.888 313.844C234.293 314.058 234.628 314.371 234.893 314.781C235.157 315.186 235.364 315.683 235.515 316.271C235.665 316.854 235.74 317.643 235.74 318.636C235.74 319.812 235.619 320.762 235.378 321.487C235.136 322.207 234.774 322.765 234.291 323.162C233.812 323.554 233.206 323.75 232.473 323.75C231.507 323.75 230.748 323.403 230.196 322.71C229.535 321.876 229.205 320.518 229.205 318.636ZM230.47 318.636C230.47 320.281 230.661 321.377 231.044 321.924C231.431 322.467 231.908 322.738 232.473 322.738C233.038 322.738 233.512 322.464 233.895 321.917C234.282 321.371 234.476 320.277 234.476 318.636C234.476 316.986 234.282 315.89 233.895 315.348C233.512 314.806 233.033 314.535 232.459 314.535C231.894 314.535 231.443 314.774 231.105 315.252C230.682 315.863 230.47 316.991 230.47 318.636Z" fill="#C4C8DF"/>
<path d="M270.73 117.717V116.534H277.217V117.491C276.579 118.17 275.946 119.073 275.317 120.198C274.693 121.324 274.209 122.481 273.868 123.671C273.622 124.509 273.464 125.428 273.396 126.426H272.131C272.145 125.637 272.3 124.685 272.596 123.568C272.892 122.452 273.316 121.376 273.868 120.342C274.424 119.303 275.014 118.428 275.638 117.717H270.73Z" fill="#C4C8DF"/>
<path d="M270.648 222.294L271.94 222.185C272.036 222.813 272.257 223.287 272.603 223.606C272.954 223.921 273.375 224.078 273.868 224.078C274.46 224.078 274.961 223.855 275.372 223.408C275.782 222.962 275.987 222.369 275.987 221.631C275.987 220.929 275.789 220.375 275.392 219.97C275 219.564 274.485 219.361 273.847 219.361C273.451 219.361 273.093 219.452 272.774 219.635C272.455 219.812 272.204 220.045 272.022 220.332L270.867 220.182L271.837 215.034H276.821V216.21H272.822L272.282 218.903C272.883 218.484 273.514 218.274 274.175 218.274C275.05 218.274 275.789 218.577 276.39 219.184C276.992 219.79 277.292 220.569 277.292 221.521C277.292 222.428 277.028 223.212 276.5 223.873C275.857 224.684 274.98 225.09 273.868 225.09C272.956 225.09 272.211 224.835 271.632 224.324C271.058 223.814 270.73 223.137 270.648 222.294Z" fill="#BEC2D6"/>
<path d="M270.648 318.636C270.648 317.451 270.769 316.499 271.01 315.779C271.256 315.054 271.619 314.496 272.097 314.104C272.58 313.712 273.186 313.516 273.916 313.516C274.453 313.516 274.925 313.625 275.331 313.844C275.736 314.058 276.071 314.371 276.335 314.781C276.6 315.186 276.807 315.683 276.958 316.271C277.108 316.854 277.183 317.643 277.183 318.636C277.183 319.812 277.062 320.762 276.821 321.487C276.579 322.207 276.217 322.765 275.734 323.162C275.255 323.554 274.649 323.75 273.916 323.75C272.949 323.75 272.191 323.403 271.639 322.71C270.978 321.876 270.648 320.518 270.648 318.636ZM271.913 318.636C271.913 320.281 272.104 321.377 272.487 321.924C272.874 322.467 273.35 322.738 273.916 322.738C274.481 322.738 274.955 322.464 275.337 321.917C275.725 321.371 275.918 320.277 275.918 318.636C275.918 316.986 275.725 315.89 275.337 315.348C274.955 314.806 274.476 314.535 273.902 314.535C273.337 314.535 272.886 314.774 272.548 315.252C272.125 315.863 271.913 316.991 271.913 318.636Z" fill="#C4C8DF"/>
<line x1="21.3428" y1="144.16" x2="312.466" y2="144.16" stroke="#E8EAF4"/>
<line x1="21.3428" y1="242.653" x2="312.466" y2="242.653" stroke="#E8EAF4"/>
<line x1="21.3428" y1="341.313" x2="312.466" y2="341.313" stroke="#E8EAF4"/>
<g clip-path="url(#clip0_437_81)">
<path d="M252.069 116.992H243.768C242.478 116.992 241.418 118.111 241.418 119.472V122.965C241.418 124.332 242.478 125.446 243.768 125.446H248.693L251.671 127.921C251.887 128.103 252.208 127.936 252.208 127.648V125.446C253.435 125.37 254.418 124.286 254.418 122.97V119.472C254.418 118.111 253.359 116.992 252.069 116.992Z" fill="#D9DCEE"/>
</g>
<g clip-path="url(#clip1_437_81)">
<path d="M252.069 215.485H243.768C242.478 215.485 241.418 216.604 241.418 217.966V221.458C241.418 222.825 242.478 223.939 243.768 223.939H248.693L251.671 226.414C251.887 226.596 252.208 226.429 252.208 226.141V223.939C253.435 223.863 254.418 222.78 254.418 221.463V217.966C254.418 216.604 253.359 215.485 252.069 215.485Z" fill="#D9DCEE"/>
</g>
<g clip-path="url(#clip2_437_81)">
<path d="M252.069 314.145H243.768C242.478 314.145 241.418 315.264 241.418 316.625V320.118C241.418 321.485 242.478 322.599 243.768 322.599H248.693L251.671 325.074C251.887 325.256 252.208 325.089 252.208 324.801V322.599C253.435 322.523 254.418 321.439 254.418 320.123V316.625C254.418 315.264 253.359 314.145 252.069 314.145Z" fill="#D9DCEE"/>
</g>
<g clip-path="url(#clip3_437_81)">
<path d="M37.3347 30.4656C38.6429 29.2636 39.9673 28.0469 41.3024 26.8203C42.6644 28.0715 43.9942 29.2981 45.3185 30.5198C46.0076 29.8794 46.6537 29.2784 47.3159 28.6577C46.013 27.4705 44.6725 26.2538 43.3266 25.0272C44.6887 23.7858 46.0238 22.574 47.3428 21.372C46.6644 20.7562 46.0076 20.1651 45.3455 19.5641C44.0534 20.7513 42.7237 21.9779 41.367 23.2242C39.9996 21.9631 38.6644 20.7365 37.3455 19.5198C36.6779 20.1355 36.0319 20.7267 35.3912 21.3178C36.7048 22.5148 38.0453 23.7316 39.3966 24.9631C38.013 26.2291 36.6725 27.4459 35.3482 28.6577C36.0265 29.2735 36.6725 29.8597 37.3347 30.4656Z" fill="white"/>
</g>
<path d="M264.983 20.2635C265.96 20.186 266.834 20.1602 268.223 20.1602C270.383 20.1602 271.231 20.6769 271 22.434C270.846 23.5967 270.408 24.1651 269.303 24.2685V24.3202C270.588 24.4235 271 25.2762 270.794 26.6198C270.563 28.2993 269.688 28.7127 267.657 28.7127C265.883 28.7127 264.931 28.7127 263.8 28.6094L264.983 20.2635ZM267.246 27.0849C268.146 27.0849 268.403 26.8782 268.531 25.9997C268.634 25.1987 268.48 25.0178 267.708 25.0178H266.526L266.243 27.0849H267.246ZM267.76 23.5709C268.506 23.5709 268.737 23.39 268.866 22.589C268.943 21.9689 268.788 21.8138 268.171 21.8138H267.014L266.757 23.5967H267.76V23.5709Z" fill="white"/>
<path d="M279.023 25.2761C278.663 27.8858 277.711 28.816 275.217 28.816C272.8 28.816 271.668 27.8341 272.028 25.1986L272.723 20.2634H274.986L274.266 25.2761C274.06 26.6714 274.24 27.059 275.243 27.059C276.271 27.059 276.554 26.6197 276.786 25.1986L277.48 20.2634H279.743L279.023 25.2761Z" fill="white"/>
<path d="M282.494 26.258C282.468 26.6456 282.545 26.8006 282.983 26.8006H285.785L285.734 28.5318C284.654 28.661 283.24 28.661 281.98 28.661C280.797 28.661 280.051 27.8858 280.205 26.7231L281.105 20.2634H283.368L282.494 26.258Z" fill="white"/>
<path d="M291.443 24.4752C291.648 24.6044 291.906 24.9661 292.034 25.2762L293.603 28.6352H291.134L289.643 25.0694H289.128C289.154 25.3537 289.154 25.6379 289.128 25.8963L288.743 28.661H286.454L287.637 20.2893H289.926L289.591 22.6665C289.566 22.9507 289.488 23.2607 289.386 23.545H289.926L292.137 20.2893H294.683L292.24 23.7517C292.008 24.1134 291.7 24.3201 291.443 24.4235V24.4752Z" fill="white"/>
<rect x="35.3428" y="60.6602" width="70" height="70" rx="10" fill="#F5F6FA"/>
<rect x="35.3428" y="159.153" width="70" height="70" rx="10" fill="#F5F6FA"/>
<rect x="35.3428" y="257.813" width="70" height="70" rx="10" fill="#F5F6FA"/>
<rect x="119.343" y="63.6602" width="179.62" height="11" fill="#E8EAF4"/>
<rect x="119.343" y="162.153" width="179.62" height="11" fill="#E8EAF4"/>
<rect x="119.343" y="260.813" width="179.62" height="11" fill="#E8EAF4"/>
<rect x="119.343" y="82.6602" width="128" height="11" fill="#E8EAF4"/>
<rect x="119.343" y="181.153" width="128" height="11" fill="#E8EAF4"/>
<rect x="119.343" y="279.813" width="128" height="11" fill="#E8EAF4"/>
<rect x="119.343" y="115.66" width="78" height="11" fill="#F5F6FA"/>
<rect x="119.343" y="214.153" width="78" height="11" fill="#F5F6FA"/>
<rect x="119.343" y="312.813" width="78" height="11" fill="#F5F6FA"/>
<g clip-path="url(#clip4_437_81)">
<path d="M294.84 123.928C294.84 123.126 294.179 122.492 293.386 122.492H283.939C283.127 122.492 282.484 123.144 282.484 123.928V126.426H294.859V123.928H294.84Z" fill="#D9DCEE"/>
<path d="M288.644 121.28C290.282 121.28 291.61 119.97 291.61 118.353C291.61 116.736 290.282 115.426 288.644 115.426C287.006 115.426 285.677 116.736 285.677 118.353C285.677 119.97 287.006 121.28 288.644 121.28Z" fill="#D9DCEE"/>
</g>
<g clip-path="url(#clip5_437_81)">
<path d="M294.84 222.421C294.84 221.619 294.179 220.985 293.386 220.985H283.939C283.127 220.985 282.484 221.638 282.484 222.421V224.919H294.859V222.421H294.84Z" fill="#D9DCEE"/>
<path d="M288.644 219.773C290.282 219.773 291.61 218.463 291.61 216.846C291.61 215.229 290.282 213.919 288.644 213.919C287.006 213.919 285.677 215.229 285.677 216.846C285.677 218.463 287.006 219.773 288.644 219.773Z" fill="#D9DCEE"/>
</g>
<g clip-path="url(#clip6_437_81)">
<path d="M294.84 321.08C294.84 320.279 294.179 319.645 293.386 319.645H283.939C283.127 319.645 282.484 320.297 282.484 321.08V323.579H294.859V321.08H294.84Z" fill="#D9DCEE"/>
<path d="M288.644 318.433C290.282 318.433 291.61 317.122 291.61 315.506C291.61 313.889 290.282 312.579 288.644 312.579C287.006 312.579 285.677 313.889 285.677 315.506C285.677 317.122 287.006 318.433 288.644 318.433Z" fill="#D9DCEE"/>
</g>
<mask id="mask0_437_81" style="mask-type:alpha" maskUnits="userSpaceOnUse" x="35" y="60" width="71" height="71">
<rect x="35.3481" y="60.6602" width="70" height="70" rx="10" fill="#4D74F5"/>
</mask>
<g mask="url(#mask0_437_81)">
<rect x="54.0859" y="85.9495" width="50.4799" height="50.4799" rx="3" transform="rotate(45 54.0859 85.9495)" fill="#E8EAF4"/>
<rect x="79.1104" y="90.2639" width="50.4799" height="50.4799" rx="3" transform="rotate(45 79.1104 90.2639)" fill="#E8EAF4"/>
<circle cx="94.9699" cy="80.1206" r="6.58344" fill="#E8EAF4"/>
</g>
<mask id="mask1_437_81" style="mask-type:alpha" maskUnits="userSpaceOnUse" x="35" y="160" width="71" height="71">
<rect x="35.3481" y="160.16" width="70" height="70" rx="10" fill="#4D74F5"/>
</mask>
<g mask="url(#mask1_437_81)">
<rect x="54.0859" y="185.449" width="50.4799" height="50.4799" rx="3" transform="rotate(45 54.0859 185.449)" fill="#E8EAF4"/>
<rect x="79.1104" y="189.764" width="50.4799" height="50.4799" rx="3" transform="rotate(45 79.1104 189.764)" fill="#E8EAF4"/>
<circle cx="94.9699" cy="179.621" r="6.58344" fill="#E8EAF4"/>
</g>
<mask id="mask2_437_81" style="mask-type:alpha" maskUnits="userSpaceOnUse" x="35" y="257" width="71" height="71">
<rect x="35.3481" y="257.16" width="70" height="70" rx="10" fill="#4D74F5"/>
</mask>
<g mask="url(#mask2_437_81)">
<rect x="54.0859" y="282.449" width="50.4799" height="50.4799" rx="3" transform="rotate(45 54.0859 282.449)" fill="#E8EAF4"/>
<rect x="79.1104" y="286.764" width="50.4799" height="50.4799" rx="3" transform="rotate(45 79.1104 286.764)" fill="#E8EAF4"/>
<circle cx="94.9699" cy="276.621" r="6.58344" fill="#E8EAF4"/>
</g>
<defs>
<filter id="filter0_d_437_81" x="0.342773" y="0" width="335.335" height="376.813" filterUnits="userSpaceOnUse" color-interpolation-filters="sRGB">
<feFlood flood-opacity="0" result="BackgroundImageFix"/>
<feColorMatrix in="SourceAlpha" type="matrix" values="0 0 0 0 0 0 0 0 0 0 0 0 0 0 0 0 0 0 127 0" result="hardAlpha"/>
<feOffset dy="15"/>
<feGaussianBlur stdDeviation="10"/>
<feColorMatrix type="matrix" values="0 0 0 0 0.411765 0 0 0 0 0.513726 0 0 0 0 0.847059 0 0 0 0.15 0"/>
<feBlend mode="normal" in2="BackgroundImageFix" result="effect1_dropShadow_437_81"/>
<feBlend mode="normal" in="SourceGraphic" in2="effect1_dropShadow_437_81" result="shape"/>
</filter>
<clipPath id="clip0_437_81">
<rect width="13" height="11" fill="white" transform="translate(241.418 116.992)"/>
</clipPath>
<clipPath id="clip1_437_81">
<rect width="13" height="11" fill="white" transform="translate(241.418 215.485)"/>
</clipPath>
<clipPath id="clip2_437_81">
<rect width="13" height="11" fill="white" transform="translate(241.418 314.145)"/>
</clipPath>
<clipPath id="clip3_437_81">
<rect width="12" height="11" fill="white" transform="matrix(-1 0 0 1 47.3428 19.5198)"/>
</clipPath>
<clipPath id="clip4_437_81">
<rect width="12.375" height="11" fill="white" transform="translate(282.466 115.426)"/>
</clipPath>
<clipPath id="clip5_437_81">
<rect width="12.375" height="11" fill="white" transform="translate(282.466 213.919)"/>
</clipPath>
<clipPath id="clip6_437_81">
<rect width="12.375" height="11" fill="white" transform="translate(282.466 312.579)"/>
</clipPath>
</defs>
</svg>
