<svg width="434" height="373" viewBox="0 0 434 373" fill="none" xmlns="http://www.w3.org/2000/svg">
<g filter="url(#filter0_d_496_16)">
<rect x="20.1675" y="5.85327" width="393.5" height="331.947" rx="10" fill="white"/>
</g>
<rect x="92.4526" y="69.6311" width="251.92" height="33.9609" rx="4.5" fill="#F5F6FA" stroke="#BEC2D6"/>
<rect x="91.9526" y="164.683" width="294.029" height="11" fill="#E8EAF4"/>
<rect x="192.704" y="26.1399" width="110.974" height="11" fill="#E8EAF4"/>
<rect x="91.9526" y="285.87" width="294.029" height="11" fill="#E8EAF4"/>
<rect x="91.9526" y="202.335" width="294.029" height="11" fill="#E8EAF4"/>
<rect x="91.9526" y="221.335" width="198.967" height="11" fill="#E8EAF4"/>
<rect x="91.9526" y="142.75" width="100.751" height="11" fill="#4D74F5"/>
<rect x="91.9526" y="263.938" width="100.751" height="11" fill="#4D74F5"/>
<rect x="91.9526" y="183.683" width="241.262" height="11" fill="#E8EAF4"/>
<rect x="91.9526" y="304.87" width="241.262" height="11" fill="#E8EAF4"/>
<rect x="318.24" y="142.75" width="67.7408" height="11" fill="#F5F6FA"/>
<rect x="318.24" y="263.938" width="67.7408" height="11" fill="#F5F6FA"/>
<rect x="40.1675" y="141.8" width="40" height="40" rx="5" fill="#E8EAF4"/>
<rect x="40.1675" y="67.1311" width="40" height="40" rx="5" fill="#E8EAF4"/>
<rect x="40.1675" y="262.987" width="40" height="40" rx="5" fill="#E8EAF4"/>
<g clip-path="url(#clip0_496_16)">
<path d="M66.3549 164.302C66.3549 163.5 65.6936 162.866 64.9001 162.866H55.4536C54.6411 162.866 53.9988 163.519 53.9988 164.302V166.8H66.3738V164.302H66.3549Z" fill="#BEC2D6"/>
<path d="M60.1581 161.654C61.7963 161.654 63.1243 160.344 63.1243 158.727C63.1243 157.111 61.7963 155.8 60.1581 155.8C58.5199 155.8 57.1919 157.111 57.1919 158.727C57.1919 160.344 58.5199 161.654 60.1581 161.654Z" fill="#BEC2D6"/>
</g>
<g clip-path="url(#clip1_496_16)">
<path d="M66.3549 89.6329C66.3549 88.8312 65.6936 88.1973 64.9001 88.1973H55.4536C54.6411 88.1973 53.9988 88.8498 53.9988 89.6329V92.1312H66.3738V89.6329H66.3549Z" fill="#BEC2D6"/>
<path d="M60.1581 86.9853C61.7963 86.9853 63.1243 85.6748 63.1243 84.0582C63.1243 82.4416 61.7963 81.1311 60.1581 81.1311C58.5199 81.1311 57.1919 82.4416 57.1919 84.0582C57.1919 85.6748 58.5199 86.9853 60.1581 86.9853Z" fill="#BEC2D6"/>
</g>
<g clip-path="url(#clip2_496_16)">
<path d="M66.3549 285.489C66.3549 284.687 65.6936 284.053 64.9001 284.053H55.4536C54.6411 284.053 53.9988 284.706 53.9988 285.489V287.987H66.3738V285.489H66.3549Z" fill="#BEC2D6"/>
<path d="M60.1581 282.842C61.7963 282.842 63.1243 281.531 63.1243 279.914C63.1243 278.298 61.7963 276.987 60.1581 276.987C58.5199 276.987 57.1919 278.298 57.1919 279.914C57.1919 281.531 58.5199 282.842 60.1581 282.842Z" fill="#BEC2D6"/>
</g>
<path d="M383.65 49.2578H354.313C353.031 49.2578 351.981 48.2052 351.981 46.9187V17.4853C351.981 16.1988 353.031 15.1462 354.313 15.1462H383.65C384.932 15.1462 385.981 16.1988 385.981 17.4853V46.9187C385.981 48.2052 384.932 49.2578 383.65 49.2578Z" fill="#F71514"/>
<path d="M358.509 19.805C359.248 19.7465 359.908 19.7271 360.957 19.7271C362.589 19.7271 363.231 20.1169 363.056 21.4424C362.939 22.3195 362.609 22.7484 361.773 22.8263V22.8653C362.745 22.9433 363.056 23.5865 362.9 24.6001C362.725 25.8671 362.065 26.179 360.53 26.179C359.189 26.179 358.471 26.179 357.616 26.101L358.509 19.805ZM360.219 24.951C360.899 24.951 361.093 24.795 361.191 24.1323C361.268 23.528 361.152 23.3916 360.569 23.3916H359.675L359.461 24.951H360.219ZM360.608 22.3C361.171 22.3 361.346 22.1636 361.443 21.5593C361.501 21.0915 361.385 20.9746 360.919 20.9746H360.044L359.85 22.3195H360.608V22.3Z" fill="white"/>
<path d="M369.118 23.5864C368.846 25.5552 368.127 26.2569 366.242 26.2569C364.416 26.2569 363.561 25.5162 363.833 23.528L364.358 19.8049H366.067L365.523 23.5864C365.368 24.639 365.504 24.9314 366.262 24.9314C367.039 24.9314 367.252 24.6 367.427 23.528L367.952 19.8049H369.662L369.118 23.5864Z" fill="white"/>
<path d="M371.74 24.3271C371.721 24.6195 371.779 24.7365 372.109 24.7365H374.227L374.188 26.0425C373.372 26.1399 372.304 26.1399 371.352 26.1399C370.458 26.1399 369.894 25.5552 370.011 24.678L370.691 19.8049H372.401L371.74 24.3271Z" fill="white"/>
<path d="M378.501 22.9822C378.657 23.0797 378.851 23.3526 378.948 23.5865L380.133 26.1205H378.268L377.141 23.4305H376.753C376.772 23.645 376.772 23.8594 376.753 24.0543L376.461 26.14H374.732L375.626 19.8245H377.355L377.102 21.6178C377.083 21.8322 377.025 22.0661 376.947 22.2805H377.355L379.026 19.8245H380.949L379.104 22.4364C378.929 22.7093 378.696 22.8653 378.501 22.9432V22.9822Z" fill="white"/>
<path d="M360.511 30.1555C360.141 30.1555 360.025 30.253 359.967 30.5843L359.85 31.4615H362.143L361.987 32.631H359.695L359.345 35.165H357.616L358.315 30.1555C358.432 29.3173 359.034 28.8105 359.869 28.8105C360.919 28.8105 362.026 28.8105 362.842 28.9275L362.667 30.1555H360.511Z" fill="white"/>
<path d="M365.543 30.1556C365.212 30.1556 365.096 30.253 365.057 30.5844L364.94 31.3251H367.311L367.155 32.4946H364.785L364.649 33.4498C364.61 33.7421 364.707 33.8591 365.018 33.8591H367.272L367.233 35.1066C366.378 35.2041 365.251 35.2041 364.319 35.2041C363.27 35.2041 362.784 34.5413 362.92 33.5862L363.386 30.1556C363.503 29.3369 364.047 28.8301 364.96 28.8301C366.009 28.8301 367.175 28.8301 368.01 28.947L367.816 30.175H365.543V30.1556Z" fill="white"/>
<path d="M370.827 30.1556C370.497 30.1556 370.38 30.253 370.341 30.5844L370.244 31.3251H372.615L372.459 32.4946H370.069L369.933 33.4498C369.895 33.7421 369.992 33.8591 370.303 33.8591H372.556L372.517 35.1066C371.663 35.2041 370.536 35.2041 369.603 35.2041C368.554 35.2041 368.068 34.5413 368.204 33.5862L368.671 30.1556C368.787 29.3369 369.331 28.8301 370.244 28.8301C371.293 28.8301 372.459 28.8301 373.295 28.947L373.1 30.175H370.827V30.1556Z" fill="white"/>
<path d="M374.208 28.8299C374.888 28.7714 375.801 28.7324 376.617 28.7324C378.657 28.7324 379.492 29.4731 379.143 32.0461C378.773 34.6581 378.016 35.2234 375.937 35.2234C374.985 35.2234 374.111 35.1844 373.314 35.1259L374.208 28.8299ZM375.917 33.9564C376.753 33.9564 377.122 33.664 377.355 31.9292C377.569 30.3503 377.433 30.0189 376.578 30.0189H375.762L375.218 33.9174L375.917 33.9564Z" fill="white"/>
<path d="M358.509 37.8744C359.248 37.8159 359.908 37.7964 360.957 37.7964C362.589 37.7964 363.231 38.1862 363.056 39.5117C362.939 40.3889 362.609 40.8177 361.773 40.8957V40.9346C362.745 41.0126 363.056 41.6559 362.9 42.6695C362.725 43.9365 362.065 44.2483 360.53 44.2483C359.189 44.2483 358.471 44.2483 357.616 44.1704L358.509 37.8744ZM360.219 43.0203C360.899 43.0203 361.093 42.8644 361.191 42.2016C361.268 41.5974 361.152 41.4609 360.569 41.4609H359.675L359.461 43.0203H360.219ZM360.608 40.3694C361.171 40.3694 361.346 40.2329 361.443 39.6287C361.501 39.1608 361.385 39.0439 360.919 39.0439H360.044L359.85 40.3889H360.608V40.3694Z" fill="white"/>
<path d="M365.309 42.7086L364.727 44.19H362.939L365.465 38.2838C365.581 38.011 365.795 37.8745 366.067 37.8745H367.641C367.932 37.8745 368.165 38.0889 368.185 38.3423L369.079 44.1705H367.369L367.213 42.6891H365.309V42.7086ZM366.941 39.8042C366.922 39.5898 366.922 39.3559 366.922 39.1415H366.65C366.611 39.3364 366.533 39.5703 366.456 39.7848L365.815 41.4026H367.097L366.941 39.8042Z" fill="white"/>
<path d="M374.246 44.0144C373.605 44.2093 373.042 44.2872 372.148 44.2872C370.128 44.2872 369.428 43.3906 369.758 40.9541C370.108 38.459 370.846 37.7573 372.886 37.7573C373.8 37.7573 374.285 37.8353 374.868 37.9912L374.674 39.2387C374.033 39.2192 373.625 39.2192 372.809 39.2192C372.051 39.2192 371.76 39.4532 371.565 41.0905C371.371 42.4745 371.449 42.8253 372.226 42.8253C373.12 42.8253 373.625 42.8058 374.188 42.7474L374.246 44.0144Z" fill="white"/>
<path d="M378.657 41.0518C378.812 41.1493 379.007 41.4221 379.104 41.6561L380.289 44.1901H378.424L377.297 41.5001H376.908C376.928 41.7145 376.928 41.9289 376.908 42.1239L376.617 44.2095H374.907L375.801 37.894H377.53L377.278 39.6873C377.258 39.9017 377.2 40.1357 377.122 40.3501H377.53L379.201 37.894H381.124L379.279 40.506C379.104 40.7789 378.871 40.9348 378.676 41.0128L378.657 41.0518Z" fill="white"/>
<rect x="351.981" y="69.1311" width="33.9997" height="34.9609" rx="5" fill="#4D74F5"/>
<path d="M367.807 87.0418C367.043 88.1408 366.297 89.2211 365.545 90.3014C365.001 91.082 364.451 91.8626 363.913 92.6432C363.658 93.0116 363.751 93.43 364.116 93.5049C364.249 93.5361 364.416 93.4737 364.549 93.405C366.476 92.4558 368.397 91.4942 370.318 90.5387C372.273 89.5646 374.229 88.5904 376.185 87.61C376.266 87.5725 376.364 87.5476 376.416 87.4851C376.526 87.354 376.688 87.1916 376.682 87.0542C376.676 86.8981 376.538 86.6796 376.404 86.6046C375.907 86.3174 375.38 86.0738 374.865 85.8178C371.44 84.113 368.015 82.4083 364.59 80.7035C364.509 80.666 364.428 80.5973 364.353 80.6036C364.202 80.6161 364 80.6098 363.913 80.7097C363.815 80.8221 363.797 81.0345 363.797 81.2093C363.797 81.3155 363.896 81.4279 363.965 81.5278C365.244 83.3512 366.517 85.1809 367.807 87.0418Z" fill="white"/>
<path d="M45.961 35.0935V25.1535H47.879V29.1575H48.859L51.813 25.1535H53.969L50.357 29.9695L54.249 35.0935H51.911L48.831 30.9075H47.879V35.0935H45.961ZM58.2991 35.2335C57.4965 35.2335 56.8058 35.0608 56.2271 34.7155C55.6578 34.3608 55.2191 33.8942 54.9111 33.3155C54.6031 32.7368 54.4491 32.1115 54.4491 31.4395C54.4491 30.7582 54.6031 30.1282 54.9111 29.5495C55.2285 28.9708 55.6718 28.5088 56.2411 28.1635C56.8198 27.8088 57.5058 27.6315 58.2991 27.6315C59.0925 27.6315 59.7738 27.8088 60.3431 28.1635C60.9218 28.5088 61.3651 28.9708 61.6731 29.5495C61.9811 30.1282 62.1351 30.7582 62.1351 31.4395C62.1351 32.1115 61.9811 32.7368 61.6731 33.3155C61.3651 33.8942 60.9218 34.3608 60.3431 34.7155C59.7738 35.0608 59.0925 35.2335 58.2991 35.2335ZM56.3811 31.4395C56.3811 31.8688 56.4651 32.2515 56.6331 32.5875C56.8011 32.9142 57.0298 33.1708 57.3191 33.3575C57.6085 33.5442 57.9351 33.6375 58.2991 33.6375C58.6538 33.6375 58.9758 33.5442 59.2651 33.3575C59.5545 33.1615 59.7831 32.9002 59.9511 32.5735C60.1285 32.2375 60.2171 31.8548 60.2171 31.4255C60.2171 31.0055 60.1285 30.6322 59.9511 30.3055C59.7831 29.9695 59.5545 29.7082 59.2651 29.5215C58.9758 29.3255 58.6538 29.2275 58.2991 29.2275C57.9351 29.2275 57.6085 29.3255 57.3191 29.5215C57.0298 29.7082 56.8011 29.9695 56.6331 30.3055C56.4651 30.6322 56.3811 31.0102 56.3811 31.4395ZM63.4014 35.0935V27.7575H65.3614L67.6574 31.9995L69.9674 27.7575H71.8994V35.0935H70.1214V30.3475L68.2454 33.7915H67.0694L65.1794 30.3475V35.0935H63.4014ZM73.6279 35.0935V27.7575H75.5879L77.8839 31.9995L80.1939 27.7575H82.1259V35.0935H80.3479V30.3475L78.4719 33.7915H77.2959L75.4059 30.3475V35.0935H73.6279ZM87.2565 35.2335C86.4632 35.2335 85.7772 35.0608 85.1985 34.7155C84.6292 34.3702 84.1858 33.9128 83.8685 33.3435C83.5512 32.7648 83.3925 32.1395 83.3925 31.4675C83.3925 30.7768 83.5465 30.1422 83.8545 29.5635C84.1718 28.9755 84.6198 28.5088 85.1985 28.1635C85.7772 27.8088 86.4678 27.6315 87.2705 27.6315C88.0732 27.6315 88.7592 27.8088 89.3285 28.1635C89.8978 28.5088 90.3318 28.9708 90.6305 29.5495C90.9385 30.1188 91.0925 30.7348 91.0925 31.3975C91.0925 31.6402 91.0785 31.8502 91.0505 32.0275H85.3805C85.4272 32.5968 85.6372 33.0448 86.0105 33.3715C86.3932 33.6982 86.8318 33.8615 87.3265 33.8615C87.6998 33.8615 88.0498 33.7728 88.3765 33.5955C88.7125 33.4088 88.9412 33.1662 89.0625 32.8675L90.6725 33.3155C90.4018 33.8755 89.9678 34.3375 89.3705 34.7015C88.7732 35.0562 88.0685 35.2335 87.2565 35.2335ZM85.3385 30.8375H89.1745C89.1185 30.2868 88.9085 29.8435 88.5445 29.5075C88.1898 29.1622 87.7558 28.9895 87.2425 28.9895C86.7385 28.9895 86.3045 29.1622 85.9405 29.5075C85.5858 29.8435 85.3852 30.2868 85.3385 30.8375ZM92.2353 35.0935V27.7575H94.1113V30.5575H97.0793V27.7575H98.9553V35.0935H97.0793V32.1255H94.1113V35.0935H92.2353ZM102.365 35.0935V29.3955H100.041V27.7575H106.579V29.3955H104.241V35.0935H102.365ZM107.099 32.9235C107.099 32.4475 107.229 32.0322 107.491 31.6775C107.761 31.3135 108.135 31.0335 108.611 30.8375C109.087 30.6415 109.633 30.5435 110.249 30.5435C110.557 30.5435 110.869 30.5715 111.187 30.6275C111.504 30.6742 111.779 30.7442 112.013 30.8375V30.4455C112.013 29.9788 111.873 29.6195 111.593 29.3675C111.322 29.1155 110.916 28.9895 110.375 28.9895C109.973 28.9895 109.591 29.0595 109.227 29.1995C108.863 29.3395 108.48 29.5448 108.079 29.8155L107.477 28.5835C107.962 28.2662 108.457 28.0282 108.961 27.8695C109.474 27.7108 110.011 27.6315 110.571 27.6315C111.616 27.6315 112.428 27.8928 113.007 28.4155C113.595 28.9382 113.889 29.6848 113.889 30.6555V32.9935C113.889 33.1988 113.921 33.3435 113.987 33.4275C114.052 33.5022 114.169 33.5488 114.337 33.5675V35.0935C114.169 35.1308 114.015 35.1542 113.875 35.1635C113.744 35.1822 113.632 35.1915 113.539 35.1915C113.165 35.1915 112.881 35.1075 112.685 34.9395C112.489 34.7715 112.372 34.5662 112.335 34.3235L112.293 33.9455C111.966 34.3655 111.565 34.6875 111.089 34.9115C110.622 35.1262 110.141 35.2335 109.647 35.2335C109.152 35.2335 108.713 35.1355 108.331 34.9395C107.948 34.7342 107.645 34.4588 107.421 34.1135C107.206 33.7588 107.099 33.3622 107.099 32.9235ZM111.663 33.3015C111.896 33.0775 112.013 32.8628 112.013 32.6575V31.9155C111.527 31.7195 111.037 31.6215 110.543 31.6215C110.048 31.6215 109.647 31.7288 109.339 31.9435C109.031 32.1488 108.877 32.4242 108.877 32.7695C108.877 33.0495 108.989 33.3015 109.213 33.5255C109.437 33.7495 109.759 33.8615 110.179 33.8615C110.459 33.8615 110.729 33.8102 110.991 33.7075C111.261 33.6048 111.485 33.4695 111.663 33.3015ZM120.038 35.2335C119.459 35.2335 118.955 35.1028 118.526 34.8415C118.096 34.5802 117.76 34.2348 117.518 33.8055V38.0755H115.642V27.7575H117.28V29.0175C117.55 28.5882 117.9 28.2522 118.33 28.0095C118.768 27.7575 119.263 27.6315 119.814 27.6315C120.476 27.6315 121.064 27.8042 121.578 28.1495C122.091 28.4855 122.497 28.9428 122.796 29.5215C123.094 30.0908 123.244 30.7208 123.244 31.4115C123.244 32.1302 123.104 32.7788 122.824 33.3575C122.553 33.9268 122.175 34.3842 121.69 34.7295C121.214 35.0655 120.663 35.2335 120.038 35.2335ZM119.408 33.6375C119.79 33.6375 120.122 33.5348 120.402 33.3295C120.691 33.1148 120.915 32.8395 121.074 32.5035C121.242 32.1582 121.326 31.7942 121.326 31.4115C121.326 31.0008 121.237 30.6322 121.06 30.3055C120.882 29.9695 120.64 29.7082 120.332 29.5215C120.033 29.3255 119.688 29.2275 119.296 29.2275C118.941 29.2275 118.586 29.3442 118.232 29.5775C117.877 29.8108 117.639 30.1048 117.518 30.4595V32.1815C117.686 32.5922 117.942 32.9375 118.288 33.2175C118.633 33.4975 119.006 33.6375 119.408 33.6375ZM124.515 35.0935V27.7715H126.391V32.5875L129.681 27.7575H131.389V35.0935H129.513V30.3895L126.265 35.0935H124.515ZM133.101 35.0935V27.7715H134.977V32.5875L138.267 27.7575H139.975V35.0935H138.099V30.3895L134.851 35.0935H133.101Z" fill="#4D74F5"/>
<line x1="19.8726" y1="246.227" x2="413.873" y2="246.227" stroke="#E8EAF4"/>
<line x1="19.8726" y1="122.227" x2="413.873" y2="122.227" stroke="#E8EAF4"/>
<line x1="19.8726" y1="56.2271" x2="413.873" y2="56.2271" stroke="#E8EAF4"/>
<path d="M349.986 230.29H351.262C351.755 230.29 352.155 229.889 352.155 229.397V223.527C352.155 223.034 351.755 222.633 351.262 222.633H349.986C349.493 222.633 349.093 223.034 349.093 223.527V229.397C349.093 229.889 349.493 230.29 349.986 230.29Z" fill="#4D74F5"/>
<path d="M355.617 218.933C355.106 218.933 354.851 219.188 354.851 220.464C354.851 221.677 353.676 222.653 352.921 223.156V229.479C353.738 229.857 355.374 230.418 357.914 230.418H358.73C359.726 230.418 360.573 229.703 360.741 228.723L361.313 225.405C361.528 224.154 360.568 223.016 359.302 223.016H356.893C356.893 223.016 357.276 222.251 357.276 220.974C357.276 219.443 356.127 218.933 355.617 218.933Z" fill="#4D74F5"/>
<path d="M349.986 314.345H351.262C351.755 314.345 352.155 313.944 352.155 313.451V307.581C352.155 307.089 351.755 306.688 351.262 306.688H349.986C349.493 306.688 349.093 307.089 349.093 307.581V313.451C349.093 313.944 349.493 314.345 349.986 314.345Z" fill="#B0B5D1"/>
<path d="M355.617 302.987C355.106 302.987 354.851 303.243 354.851 304.519C354.851 305.731 353.676 306.707 352.921 307.21V313.534C353.738 313.912 355.374 314.472 357.914 314.472H358.73C359.726 314.472 360.573 313.758 360.741 312.778L361.313 309.46C361.528 308.209 360.568 307.071 359.302 307.071H356.893C356.893 307.071 357.276 306.305 357.276 305.029C357.276 303.498 356.127 302.987 355.617 302.987Z" fill="#B0B5D1"/>
<path d="M382.722 222.63L381.446 222.63C380.954 222.63 380.553 223.031 380.553 223.523L380.553 229.393C380.553 229.886 380.954 230.287 381.446 230.287L382.722 230.287C383.215 230.287 383.616 229.886 383.616 229.393L383.616 223.523C383.616 223.031 383.215 222.63 382.722 222.63Z" fill="#BEC2D6"/>
<path d="M377.092 233.987C377.602 233.987 377.857 233.732 377.857 232.456C377.857 231.243 379.032 230.267 379.787 229.764L379.787 223.441C378.97 223.063 377.334 222.502 374.795 222.502L373.978 222.502C372.983 222.502 372.135 223.217 371.967 224.197L371.395 227.515C371.181 228.765 372.14 229.904 373.406 229.904L375.816 229.904C375.816 229.904 375.433 230.669 375.433 231.946C375.433 233.477 376.581 233.987 377.092 233.987Z" fill="#BEC2D6"/>
<path d="M382.722 306.685L381.446 306.685C380.954 306.685 380.553 307.085 380.553 307.578L380.553 313.448C380.553 313.941 380.954 314.341 381.446 314.341L382.722 314.341C383.215 314.341 383.616 313.941 383.616 313.448L383.616 307.578C383.616 307.085 383.215 306.685 382.722 306.685Z" fill="#4D74F5"/>
<path d="M377.092 318.042C377.602 318.042 377.857 317.787 377.857 316.511C377.857 315.298 379.032 314.322 379.787 313.819L379.787 307.496C378.97 307.117 377.334 306.557 374.795 306.557L373.978 306.557C372.983 306.557 372.135 307.272 371.967 308.252L371.395 311.57C371.181 312.82 372.14 313.958 373.406 313.958L375.816 313.958C375.816 313.958 375.433 314.724 375.433 316C375.433 317.532 376.581 318.042 377.092 318.042Z" fill="#4D74F5"/>
<defs>
<filter id="filter0_d_496_16" x="0.16748" y="0.853271" width="433.5" height="371.947" filterUnits="userSpaceOnUse" color-interpolation-filters="sRGB">
<feFlood flood-opacity="0" result="BackgroundImageFix"/>
<feColorMatrix in="SourceAlpha" type="matrix" values="0 0 0 0 0 0 0 0 0 0 0 0 0 0 0 0 0 0 127 0" result="hardAlpha"/>
<feOffset dy="15"/>
<feGaussianBlur stdDeviation="10"/>
<feColorMatrix type="matrix" values="0 0 0 0 0.411765 0 0 0 0 0.513726 0 0 0 0 0.847059 0 0 0 0.15 0"/>
<feBlend mode="normal" in2="BackgroundImageFix" result="effect1_dropShadow_496_16"/>
<feBlend mode="normal" in="SourceGraphic" in2="effect1_dropShadow_496_16" result="shape"/>
</filter>
<clipPath id="clip0_496_16">
<rect width="12.375" height="11" fill="white" transform="translate(53.98 155.8)"/>
</clipPath>
<clipPath id="clip1_496_16">
<rect width="12.375" height="11" fill="white" transform="translate(53.98 81.1311)"/>
</clipPath>
<clipPath id="clip2_496_16">
<rect width="12.375" height="11" fill="white" transform="translate(53.98 276.987)"/>
</clipPath>
</defs>
</svg>
