<svg width="146" height="100" viewBox="0 0 146 100" fill="none" xmlns="http://www.w3.org/2000/svg">
<g clip-path="url(#clip0_1175_8712)">
<path d="M141.463 99.2125H68.0961C66.9407 99.2125 66.002 98.2771 66.002 97.126V83.0242C66.002 81.8731 66.9407 80.9377 68.0961 80.9377H141.463C142.618 80.9377 143.557 81.8731 143.557 83.0242V97.126C143.629 98.2771 142.69 99.2125 141.463 99.2125Z" fill="#407BFF"/>
<path opacity="0.2" d="M104.779 98.0613C104.49 98.0613 104.273 97.8455 104.273 97.5577V82.4487C104.273 82.1609 104.49 81.9451 104.779 81.9451C105.068 81.9451 105.284 82.1609 105.284 82.4487V97.5577C105.284 97.8455 105.068 98.0613 104.779 98.0613Z" fill="black"/>
<path opacity="0.2" d="M68.1676 98.0613C67.8787 98.0613 67.6621 97.8455 67.6621 97.5577V82.4487C67.6621 82.1609 67.8787 81.9451 68.1676 81.9451C68.4564 81.9451 68.6731 82.1609 68.6731 82.4487V97.5577C68.6731 97.8455 68.4564 98.0613 68.1676 98.0613Z" fill="black"/>
<path opacity="0.2" d="M71.9234 98.0613C71.6346 98.0613 71.418 97.8455 71.418 97.5577V82.4487C71.418 82.1609 71.6346 81.9451 71.9234 81.9451C72.2123 81.9451 72.4289 82.1609 72.4289 82.4487V97.5577C72.4289 97.8455 72.1401 98.0613 71.9234 98.0613Z" fill="black"/>
<path opacity="0.2" d="M77.3375 98.0613C77.0487 98.0613 76.832 97.8455 76.832 97.5577V82.4487C76.832 82.1609 77.0487 81.9451 77.3375 81.9451C77.6264 81.9451 77.843 82.1609 77.843 82.4487V97.5577C77.843 97.8455 77.5541 98.0613 77.3375 98.0613Z" fill="black"/>
<path opacity="0.2" d="M83.2594 98.0613C82.9705 98.0613 82.7539 97.8455 82.7539 97.5577V82.4487C82.7539 82.1609 82.9705 81.9451 83.2594 81.9451C83.5482 81.9451 83.7649 82.1609 83.7649 82.4487V97.5577C83.7649 97.8455 83.5482 98.0613 83.2594 98.0613Z" fill="black"/>
<path opacity="0.2" d="M89.8317 98.0613C89.5428 98.0613 89.3262 97.8455 89.3262 97.5577V82.4487C89.3262 82.1609 89.5428 81.9451 89.8317 81.9451C90.1205 81.9451 90.3371 82.1609 90.3371 82.4487V97.5577C90.3371 97.8455 90.0483 98.0613 89.8317 98.0613Z" fill="black"/>
<path opacity="0.2" d="M96.9078 98.0613C96.619 98.0613 96.4023 97.8455 96.4023 97.5577V82.4487C96.4023 82.1609 96.619 81.9451 96.9078 81.9451C97.1967 81.9451 97.4133 82.1609 97.4133 82.4487V97.5577C97.4133 97.8455 97.1967 98.0613 96.9078 98.0613Z" fill="black"/>
<path opacity="0.2" d="M141.463 81.9451C141.751 81.9451 141.968 82.1609 141.968 82.4487V97.5577C141.968 97.8455 141.751 98.0613 141.463 98.0613C141.174 98.0613 140.957 97.8455 140.957 97.5577V82.4487C140.957 82.1609 141.174 81.9451 141.463 81.9451Z" fill="black"/>
<path opacity="0.2" d="M137.707 81.9451C137.995 81.9451 138.212 82.1609 138.212 82.4487V97.5577C138.212 97.8455 137.995 98.0613 137.707 98.0613C137.418 98.0613 137.201 97.8455 137.201 97.5577V82.4487C137.201 82.1609 137.418 81.9451 137.707 81.9451Z" fill="black"/>
<path opacity="0.2" d="M132.291 81.9451C132.579 81.9451 132.796 82.1609 132.796 82.4487V97.5577C132.796 97.8455 132.579 98.0613 132.291 98.0613C132.002 98.0613 131.785 97.8455 131.785 97.5577V82.4487C131.785 82.1609 132.002 81.9451 132.291 81.9451Z" fill="black"/>
<path opacity="0.2" d="M126.298 81.9451C126.587 81.9451 126.804 82.1609 126.804 82.4487V97.5577C126.804 97.8455 126.587 98.0613 126.298 98.0613C126.01 98.0613 125.793 97.8455 125.793 97.5577V82.4487C125.793 82.1609 126.01 81.9451 126.298 81.9451Z" fill="black"/>
<path opacity="0.2" d="M119.798 81.9451C120.087 81.9451 120.304 82.1609 120.304 82.4487V97.5577C120.304 97.8455 120.087 98.0613 119.798 98.0613C119.51 98.0613 119.293 97.8455 119.293 97.5577V82.4487C119.293 82.1609 119.51 81.9451 119.798 81.9451Z" fill="black"/>
<path opacity="0.2" d="M112.722 81.9451C113.011 81.9451 113.228 82.1609 113.228 82.4487V97.5577C113.228 97.8455 113.011 98.0613 112.722 98.0613C112.433 98.0613 112.217 97.8455 112.217 97.5577V82.4487C112.217 82.1609 112.433 81.9451 112.722 81.9451Z" fill="black"/>
<path opacity="0.2" d="M143.629 82.5207V97.5577C143.629 98.4211 142.907 99.2125 141.968 99.2125H67.5907C66.8685 99.2125 66.2186 98.7089 66.0742 98.1333H106.729V82.017H113.589V98.0613H115.611V81.9451H120.666V98.0613H121.316V81.9451H126.732V98.0613H127.165V81.9451H143.412C143.557 82.1609 143.629 82.3048 143.629 82.5207Z" fill="black"/>
<path opacity="0.2" d="M141.968 80.9377H67.5905C66.724 80.9377 65.9297 81.6572 65.9297 82.5925V97.6296C65.9297 97.7735 65.9297 97.9893 66.0019 98.1332H67.5905V82.017H68.5293V98.0613H70.84V81.945H72.2843V98.0613H76.1115V81.945H78.2056V98.0613H81.3829V81.945H83.6214V98.0613H86.7987V81.945H90.2648V98.0613H91.8535V81.945H97.1249V98.0613H97.9192V81.945H143.196C143.268 81.3694 142.69 80.9377 141.968 80.9377Z" fill="white"/>
<path d="M143.267 81.1535H69.9008C68.7454 81.1535 67.8066 80.2182 67.8066 79.0671V64.8934C67.8066 63.7422 68.7454 62.8069 69.9008 62.8069H143.267C144.423 62.8069 145.361 63.7422 145.361 64.8934V78.9951C145.361 80.1463 144.423 81.1535 143.267 81.1535Z" fill="#407BFF"/>
<path opacity="0.2" d="M106.584 80.0023C106.295 80.0023 106.078 79.7864 106.078 79.4986V64.3896C106.078 64.1018 106.295 63.886 106.584 63.886C106.872 63.886 107.089 64.1018 107.089 64.3896V79.4986C107.089 79.7864 106.872 80.0023 106.584 80.0023Z" fill="black"/>
<path opacity="0.2" d="M69.9723 80.0023C69.6834 80.0023 69.4668 79.7864 69.4668 79.4986V64.3896C69.4668 64.1018 69.6834 63.886 69.9723 63.886C70.2611 63.886 70.4777 64.1018 70.4777 64.3896V79.4986C70.4777 79.7864 70.2611 80.0023 69.9723 80.0023Z" fill="black"/>
<path opacity="0.2" d="M73.6559 80.0023C73.367 80.0023 73.1504 79.7864 73.1504 79.4986V64.3896C73.1504 64.1018 73.367 63.886 73.6559 63.886C73.9447 63.886 74.1613 64.1018 74.1613 64.3896V79.4986C74.1613 79.7864 73.9447 80.0023 73.6559 80.0023Z" fill="black"/>
<path opacity="0.2" d="M79.0699 80.0023C78.7811 80.0023 78.5645 79.7864 78.5645 79.4986V64.3896C78.5645 64.1018 78.7811 63.886 79.0699 63.886C79.3588 63.886 79.5754 64.1018 79.5754 64.3896V79.4986C79.5754 79.7864 79.3588 80.0023 79.0699 80.0023Z" fill="black"/>
<path opacity="0.2" d="M85.0641 80.0023C84.7752 80.0023 84.5586 79.7864 84.5586 79.4986V64.3896C84.5586 64.1018 84.7752 63.886 85.0641 63.886C85.3529 63.886 85.5696 64.1018 85.5696 64.3896V79.4986C85.5696 79.7864 85.3529 80.0023 85.0641 80.0023Z" fill="black"/>
<path opacity="0.2" d="M91.5641 80.0023C91.2752 80.0023 91.0586 79.7864 91.0586 79.4986V64.3896C91.0586 64.1018 91.2752 63.886 91.5641 63.886C91.8529 63.886 92.0695 64.1018 92.0695 64.3896V79.4986C92.0695 79.7864 91.8529 80.0023 91.5641 80.0023Z" fill="black"/>
<path opacity="0.2" d="M98.7125 80.0023C98.4237 80.0023 98.207 79.7864 98.207 79.4986V64.3896C98.207 64.1018 98.4237 63.886 98.7125 63.886C99.0014 63.886 99.218 64.1018 99.218 64.3896V79.4986C99.218 79.7864 98.9291 80.0023 98.7125 80.0023Z" fill="black"/>
<path opacity="0.2" d="M143.195 63.886C143.484 63.886 143.7 64.1018 143.7 64.3896V79.4986C143.7 79.7864 143.484 80.0023 143.195 80.0023C142.906 80.0023 142.689 79.7864 142.689 79.4986V64.3896C142.689 64.1018 142.978 63.886 143.195 63.886Z" fill="black"/>
<path opacity="0.2" d="M139.511 63.886C139.8 63.886 140.017 64.1018 140.017 64.3896V79.4986C140.017 79.7864 139.8 80.0023 139.511 80.0023C139.222 80.0023 139.006 79.7864 139.006 79.4986V64.3896C139.006 64.1018 139.222 63.886 139.511 63.886Z" fill="black"/>
<path opacity="0.2" d="M134.095 63.886C134.384 63.886 134.601 64.1018 134.601 64.3896V79.4986C134.601 79.7864 134.384 80.0023 134.095 80.0023C133.806 80.0023 133.59 79.7864 133.59 79.4986V64.3896C133.59 64.1018 133.806 63.886 134.095 63.886Z" fill="black"/>
<path opacity="0.2" d="M128.103 63.886C128.392 63.886 128.609 64.1018 128.609 64.3896V79.4986C128.609 79.7864 128.392 80.0023 128.103 80.0023C127.814 80.0023 127.598 79.7864 127.598 79.4986V64.3896C127.598 64.1018 127.814 63.886 128.103 63.886Z" fill="black"/>
<path opacity="0.2" d="M121.603 63.886C121.892 63.886 122.109 64.1018 122.109 64.3896V79.4986C122.109 79.7864 121.892 80.0023 121.603 80.0023C121.314 80.0023 121.098 79.7864 121.098 79.4986V64.3896C121.098 64.1018 121.314 63.886 121.603 63.886Z" fill="black"/>
<path opacity="0.2" d="M114.455 63.886C114.744 63.886 114.96 64.1018 114.96 64.3896V79.4986C114.96 79.7864 114.744 80.0023 114.455 80.0023C114.166 80.0023 113.949 79.7864 113.949 79.4986V64.3896C113.949 64.1018 114.238 63.886 114.455 63.886Z" fill="black"/>
<path opacity="0.2" d="M145.361 64.4616V79.4986C145.361 80.362 144.639 81.1534 143.701 81.1534H69.3231C68.601 81.1534 67.9511 80.6498 67.8066 80.0742H108.462V63.886H115.322V80.0023H117.343V63.886H122.398V80.0023H123.048V63.886H128.464V80.0023H128.897V63.886H145.145C145.361 64.0299 145.361 64.2457 145.361 64.4616Z" fill="black"/>
<path opacity="0.2" d="M143.773 62.8069H69.3952C68.5287 62.8069 67.7344 63.5264 67.7344 64.4617V79.4987C67.7344 79.6426 67.7344 79.8585 67.8066 80.0024H69.3952V63.8861H70.4062V80.0024H72.7169V63.8861H74.1612V80.0024H77.9884V63.8861H80.0825V80.0024H83.2598V63.8861H85.4983V80.0024H88.6756V63.8861H92.1417V80.0024H93.7304V63.8861H99.0018V80.0024H99.7961V63.8861H145.072C145.072 63.2386 144.423 62.8069 143.773 62.8069Z" fill="white"/>
<path d="M136.697 63.0228H63.3304C62.1751 63.0228 61.2363 62.0874 61.2363 60.9363V46.8345C61.2363 45.6834 62.1751 44.748 63.3304 44.748H136.697C137.852 44.748 138.791 45.6834 138.791 46.8345V60.9363C138.791 62.0874 137.852 63.0228 136.697 63.0228Z" fill="#407BFF"/>
<path opacity="0.2" d="M100.013 61.9436C99.7244 61.9436 99.5078 61.7278 99.5078 61.44V46.259C99.5078 45.9712 99.7244 45.7554 100.013 45.7554C100.302 45.7554 100.519 45.9712 100.519 46.259V61.368C100.519 61.7278 100.302 61.9436 100.013 61.9436Z" fill="black"/>
<path opacity="0.2" d="M63.402 61.9436C63.1131 61.9436 62.8965 61.7278 62.8965 61.44V46.259C62.8965 45.9712 63.1131 45.7554 63.402 45.7554C63.6908 45.7554 63.9074 45.9712 63.9074 46.259V61.368C63.9074 61.7278 63.6908 61.9436 63.402 61.9436Z" fill="black"/>
<path opacity="0.2" d="M67.0856 61.9436C66.7967 61.9436 66.5801 61.7278 66.5801 61.44V46.259C66.5801 45.9712 66.7967 45.7554 67.0856 45.7554C67.3744 45.7554 67.591 45.9712 67.591 46.259V61.368C67.591 61.7278 67.3744 61.9436 67.0856 61.9436Z" fill="black"/>
<path opacity="0.2" d="M72.4996 61.9436C72.2108 61.9436 71.9941 61.7278 71.9941 61.44V46.259C71.9941 45.9712 72.2108 45.7554 72.4996 45.7554C72.7885 45.7554 73.0051 45.9712 73.0051 46.259V61.368C73.0051 61.7278 72.7885 61.9436 72.4996 61.9436Z" fill="black"/>
<path opacity="0.2" d="M78.4938 61.9436C78.2049 61.9436 77.9883 61.7278 77.9883 61.44V46.259C77.9883 45.9712 78.2049 45.7554 78.4938 45.7554C78.7826 45.7554 78.9992 45.9712 78.9992 46.259V61.368C78.9992 61.7278 78.7826 61.9436 78.4938 61.9436Z" fill="black"/>
<path opacity="0.2" d="M84.9938 61.9436C84.7049 61.9436 84.4883 61.7278 84.4883 61.44V46.259C84.4883 45.9712 84.7049 45.7554 84.9938 45.7554C85.2826 45.7554 85.4992 45.9712 85.4992 46.259V61.368C85.4992 61.7278 85.2826 61.9436 84.9938 61.9436Z" fill="black"/>
<path opacity="0.2" d="M92.1422 61.9436C91.8534 61.9436 91.6367 61.7278 91.6367 61.44V46.259C91.6367 45.9712 91.8534 45.7554 92.1422 45.7554C92.4311 45.7554 92.6477 45.9712 92.6477 46.259V61.368C92.6477 61.7278 92.4311 61.9436 92.1422 61.9436Z" fill="black"/>
<path opacity="0.2" d="M136.625 45.7554C136.913 45.7554 137.13 45.9712 137.13 46.259V61.368C137.13 61.6558 136.913 61.8717 136.625 61.8717C136.336 61.8717 136.119 61.6558 136.119 61.368V46.259C136.119 45.9712 136.408 45.7554 136.625 45.7554Z" fill="black"/>
<path opacity="0.2" d="M132.941 45.7554C133.23 45.7554 133.447 45.9712 133.447 46.259V61.368C133.447 61.6558 133.23 61.8717 132.941 61.8717C132.652 61.8717 132.436 61.6558 132.436 61.368V46.259C132.436 45.9712 132.652 45.7554 132.941 45.7554Z" fill="black"/>
<path opacity="0.2" d="M127.525 45.7554C127.814 45.7554 128.03 45.9712 128.03 46.259V61.368C128.03 61.6558 127.814 61.8717 127.525 61.8717C127.236 61.8717 127.02 61.6558 127.02 61.368V46.259C127.02 45.9712 127.236 45.7554 127.525 45.7554Z" fill="black"/>
<path opacity="0.2" d="M121.533 45.7554C121.822 45.7554 122.038 45.9712 122.038 46.259V61.368C122.038 61.6558 121.822 61.8717 121.533 61.8717C121.244 61.8717 121.027 61.6558 121.027 61.368V46.259C121.027 45.9712 121.244 45.7554 121.533 45.7554Z" fill="black"/>
<path opacity="0.2" d="M115.033 45.7554C115.322 45.7554 115.538 45.9712 115.538 46.259V61.368C115.538 61.6558 115.322 61.8717 115.033 61.8717C114.744 61.8717 114.527 61.6558 114.527 61.368V46.259C114.527 45.9712 114.744 45.7554 115.033 45.7554Z" fill="black"/>
<path opacity="0.2" d="M107.957 45.7554C108.245 45.7554 108.462 45.9712 108.462 46.259V61.368C108.462 61.6558 108.245 61.8717 107.957 61.8717C107.668 61.8717 107.451 61.6558 107.451 61.368V46.259C107.451 45.9712 107.668 45.7554 107.957 45.7554Z" fill="black"/>
<path opacity="0.2" d="M138.863 46.4029V61.44C138.863 62.3033 138.141 63.0948 137.203 63.0948H62.825C62.1029 63.0948 61.453 62.5911 61.3086 62.0155H101.963V45.7554H108.824V61.8716H110.845V45.7554H115.9V61.8716H116.55V45.7554H121.966V61.8716H122.399V45.7554H138.647C138.791 45.9712 138.863 46.1871 138.863 46.4029Z" fill="black"/>
<path opacity="0.2" d="M137.202 44.748H62.8249C61.9584 44.748 61.1641 45.4675 61.1641 46.4028V61.4399C61.1641 61.5838 61.1641 61.7996 61.2363 61.9435H62.8249V45.7553H63.7637V61.8716H66.0744V45.7553H67.5186V61.8716H71.3458V45.7553H73.44V61.8716H76.6172V45.7553H78.8558V61.8716H82.0331V45.7553H85.4992V61.8716H87.0879V45.7553H92.3593V61.8716H93.1536V45.7553H138.43C138.502 45.1797 137.852 44.748 137.202 44.748Z" fill="white"/>
<path d="M141.463 44.9639H68.0961C66.9407 44.9639 66.002 44.0286 66.002 42.8774V28.7757C66.002 27.6245 66.9407 26.6892 68.0961 26.6892H141.463C142.618 26.6892 143.557 27.6245 143.557 28.7757V42.8774C143.629 44.0286 142.69 44.9639 141.463 44.9639Z" fill="#407BFF"/>
<path opacity="0.2" d="M104.779 43.8128C104.49 43.8128 104.273 43.597 104.273 43.3092V28.2002C104.273 27.9124 104.49 27.6965 104.779 27.6965C105.068 27.6965 105.284 27.9124 105.284 28.2002V43.3092C105.284 43.597 105.068 43.8128 104.779 43.8128Z" fill="black"/>
<path opacity="0.2" d="M68.1676 43.8128C67.8787 43.8128 67.6621 43.597 67.6621 43.3092V28.2002C67.6621 27.9124 67.8787 27.6965 68.1676 27.6965C68.4564 27.6965 68.6731 27.9124 68.6731 28.2002V43.3092C68.6731 43.597 68.4564 43.8128 68.1676 43.8128Z" fill="black"/>
<path opacity="0.2" d="M71.9234 43.8128C71.6346 43.8128 71.418 43.597 71.418 43.3092V28.2002C71.418 27.9124 71.6346 27.6965 71.9234 27.6965C72.2123 27.6965 72.4289 27.9124 72.4289 28.2002V43.3092C72.4289 43.597 72.1401 43.8128 71.9234 43.8128Z" fill="black"/>
<path opacity="0.2" d="M77.3375 43.8128C77.0487 43.8128 76.832 43.597 76.832 43.3092V28.2002C76.832 27.9124 77.0487 27.6965 77.3375 27.6965C77.6264 27.6965 77.843 27.9124 77.843 28.2002V43.3092C77.843 43.597 77.5541 43.8128 77.3375 43.8128Z" fill="black"/>
<path opacity="0.2" d="M83.2594 43.8128C82.9705 43.8128 82.7539 43.597 82.7539 43.3092V28.2002C82.7539 27.9124 82.9705 27.6965 83.2594 27.6965C83.5482 27.6965 83.7649 27.9124 83.7649 28.2002V43.3092C83.7649 43.597 83.5482 43.8128 83.2594 43.8128Z" fill="black"/>
<path opacity="0.2" d="M89.8317 43.8128C89.5428 43.8128 89.3262 43.597 89.3262 43.3092V28.2002C89.3262 27.9124 89.5428 27.6965 89.8317 27.6965C90.1205 27.6965 90.3371 27.9124 90.3371 28.2002V43.3092C90.3371 43.597 90.0483 43.8128 89.8317 43.8128Z" fill="black"/>
<path opacity="0.2" d="M96.9078 43.8128C96.619 43.8128 96.4023 43.597 96.4023 43.3092V28.2002C96.4023 27.9124 96.619 27.6965 96.9078 27.6965C97.1967 27.6965 97.4133 27.9124 97.4133 28.2002V43.3092C97.4133 43.597 97.1967 43.8128 96.9078 43.8128Z" fill="black"/>
<path opacity="0.2" d="M141.463 27.6965C141.751 27.6965 141.968 27.9124 141.968 28.2002V43.3092C141.968 43.597 141.751 43.8128 141.463 43.8128C141.174 43.8128 140.957 43.597 140.957 43.3092V28.2002C140.957 27.9124 141.174 27.6965 141.463 27.6965Z" fill="black"/>
<path opacity="0.2" d="M137.707 27.6965C137.995 27.6965 138.212 27.9124 138.212 28.2002V43.3092C138.212 43.597 137.995 43.8128 137.707 43.8128C137.418 43.8128 137.201 43.597 137.201 43.3092V28.2002C137.201 27.9124 137.418 27.6965 137.707 27.6965Z" fill="black"/>
<path opacity="0.2" d="M132.291 27.6965C132.579 27.6965 132.796 27.9124 132.796 28.2002V43.3092C132.796 43.597 132.579 43.8128 132.291 43.8128C132.002 43.8128 131.785 43.597 131.785 43.3092V28.2002C131.785 27.9124 132.002 27.6965 132.291 27.6965Z" fill="black"/>
<path opacity="0.2" d="M126.298 27.6965C126.587 27.6965 126.804 27.9124 126.804 28.2002V43.3092C126.804 43.597 126.587 43.8128 126.298 43.8128C126.01 43.8128 125.793 43.597 125.793 43.3092V28.2002C125.793 27.9124 126.01 27.6965 126.298 27.6965Z" fill="black"/>
<path opacity="0.2" d="M119.798 27.6965C120.087 27.6965 120.304 27.9124 120.304 28.2002V43.3092C120.304 43.597 120.087 43.8128 119.798 43.8128C119.51 43.8128 119.293 43.597 119.293 43.3092V28.2002C119.293 27.9124 119.51 27.6965 119.798 27.6965Z" fill="black"/>
<path opacity="0.2" d="M112.722 27.6965C113.011 27.6965 113.228 27.9124 113.228 28.2002V43.3092C113.228 43.597 113.011 43.8128 112.722 43.8128C112.433 43.8128 112.217 43.597 112.217 43.3092V28.2002C112.217 27.9124 112.433 27.6965 112.722 27.6965Z" fill="black"/>
<path opacity="0.2" d="M143.629 28.2721V43.3092C143.629 44.1725 142.907 44.964 141.968 44.964H67.5907C66.8685 44.964 66.2186 44.4603 66.0742 43.8848H106.729V27.6965H113.589V43.8128H115.611V27.6965H120.666V43.8128H121.316V27.6965H126.732V43.8128H127.165V27.6965H143.412C143.557 27.8404 143.629 28.0563 143.629 28.2721Z" fill="black"/>
<path opacity="0.2" d="M141.968 26.6892H67.5905C66.724 26.6892 65.9297 27.4087 65.9297 28.344V43.3811C65.9297 43.525 65.9297 43.7408 66.0019 43.8847H67.5905V27.6965H68.5293V43.8128H70.84V27.6965H72.2843V43.8128H76.1115V27.6965H78.2056V43.8128H81.3829V27.6965H83.6214V43.8128H86.7987V27.6965H90.2648V43.8128H91.8535V27.6965H97.1249V43.8128H97.9192V27.6965H143.196C143.268 27.0489 142.69 26.6892 141.968 26.6892Z" fill="white"/>
<path d="M100.593 18.3433L65.2814 24.0271L28.0204 29.9988C26.9372 30.2146 25.8541 29.4232 25.6374 28.2721L24.2654 19.8542L23.3267 14.2423C23.11 13.163 23.9044 12.0838 25.0597 11.868L97.632 0.284408C98.7151 0.0685653 99.7983 0.85999 100.015 1.93921L102.253 15.969C102.47 17.1202 101.676 18.1994 100.593 18.3433Z" fill="#407BFF"/>
<path opacity="0.2" d="M64.1258 23.0918C63.8369 23.1637 63.6203 22.9479 63.5481 22.6601L61.1651 7.69499C61.0207 7.4072 61.2373 7.19136 61.5262 7.11941C61.815 7.04747 62.0316 7.26331 62.1039 7.5511L64.4868 22.5162C64.559 22.804 64.3424 23.0198 64.1258 23.0918Z" fill="black"/>
<path opacity="0.2" d="M27.9492 28.8475C27.6604 28.9194 27.4437 28.7036 27.3715 28.4158L24.9163 13.5226C24.8441 13.2348 25.0608 13.019 25.3496 12.9471C25.6384 12.8751 25.8551 13.0909 25.9273 13.3787L28.3103 28.2719C28.3825 28.5597 28.1658 28.8475 27.9492 28.8475Z" fill="black"/>
<path opacity="0.2" d="M31.6329 28.272C31.344 28.3439 31.1274 28.1281 31.0552 27.8403L28.6722 12.8752C28.6 12.5874 28.8166 12.3715 29.1055 12.2996C29.3943 12.2276 29.6109 12.4435 29.6832 12.7313L32.0661 27.6964C32.0661 27.9842 31.9217 28.272 31.6329 28.272Z" fill="black"/>
<path opacity="0.2" d="M36.9747 27.4087C36.6858 27.4806 36.4692 27.2648 36.397 26.977L34.014 12.0119C33.9418 11.7241 34.1584 11.5083 34.4473 11.4363C34.7361 11.3644 34.9527 11.5802 35.025 11.868L37.3357 26.8331C37.4079 27.1209 37.1913 27.4087 36.9747 27.4087Z" fill="black"/>
<path opacity="0.2" d="M42.8243 26.4734C42.5354 26.5453 42.3188 26.3295 42.2466 26.0417L39.8636 11.0766C39.7914 10.7888 40.008 10.573 40.2969 10.501C40.5857 10.4291 40.8023 10.6449 40.8746 10.9327L43.2575 25.8978C43.3297 26.1856 43.1131 26.4734 42.8243 26.4734Z" fill="black"/>
<path opacity="0.2" d="M49.3243 25.4661C49.0354 25.538 48.8188 25.3222 48.7466 25.0344L46.3636 10.0693C46.2914 9.78147 46.508 9.56563 46.7969 9.49368C47.0857 9.42173 47.3023 9.63758 47.3746 9.92537L49.7575 24.8905C49.7575 25.1783 49.5409 25.3941 49.3243 25.4661Z" fill="black"/>
<path opacity="0.2" d="M56.3282 24.3149C56.0393 24.3869 55.8227 24.171 55.7505 23.8833L53.3675 8.91814C53.2953 8.63035 53.5119 8.41451 53.8008 8.34256C54.0896 8.27061 54.3063 8.48645 54.3785 8.77424L56.6892 23.7394C56.7614 24.0272 56.5448 24.3149 56.3282 24.3149Z" fill="black"/>
<path opacity="0.2" d="M97.7051 1.36355C97.9939 1.29161 98.2106 1.50745 98.2828 1.79524L100.666 16.7604C100.738 17.0481 100.521 17.264 100.232 17.3359C99.9436 17.4079 99.727 17.192 99.6548 16.9043L97.2718 1.93914C97.1996 1.65134 97.4162 1.36355 97.7051 1.36355Z" fill="black"/>
<path opacity="0.2" d="M94.0215 1.93924C94.3103 1.86729 94.527 2.08313 94.5992 2.37092L96.9821 17.336C97.0543 17.6238 96.8377 17.8397 96.5489 17.9116C96.26 17.9836 96.0434 17.7677 95.9712 17.4799L93.5882 2.51482C93.516 2.22703 93.7326 1.93924 94.0215 1.93924Z" fill="black"/>
<path opacity="0.2" d="M88.6797 2.80252C88.9685 2.73057 89.1852 2.94641 89.2574 3.2342L91.6403 18.1993C91.7126 18.4871 91.4959 18.703 91.2071 18.7749C90.9182 18.8468 90.7016 18.631 90.6294 18.3432L88.2464 3.3781C88.1742 3.09031 88.3908 2.80252 88.6797 2.80252Z" fill="black"/>
<path opacity="0.2" d="M82.7575 3.73782C83.0463 3.66587 83.263 3.88172 83.3352 4.16951L85.7181 19.1346C85.7903 19.4224 85.5737 19.6383 85.2849 19.7102C84.996 19.7822 84.7794 19.5663 84.7072 19.2785L82.3242 4.3134C82.3242 4.02561 82.4686 3.73782 82.7575 3.73782Z" fill="black"/>
<path opacity="0.2" d="M76.3301 4.74515C76.6189 4.6732 76.8356 4.88904 76.9078 5.17683L79.2907 20.1419C79.3629 20.4297 79.1463 20.6456 78.8575 20.7175C78.5686 20.7895 78.352 20.5736 78.2798 20.2858L75.8968 5.32073C75.8246 5.03294 76.0412 4.81709 76.3301 4.74515Z" fill="black"/>
<path opacity="0.2" d="M69.3262 5.89627C69.615 5.82432 69.8316 6.04016 69.9039 6.32795L72.2868 21.2931C72.359 21.5809 72.1424 21.7967 71.8536 21.8687C71.5647 21.9406 71.3481 21.7248 71.2759 21.437L68.8929 6.47185C68.8207 6.18406 69.0373 5.89627 69.3262 5.89627Z" fill="black"/>
<path opacity="0.2" d="M99.9422 1.57949L102.325 16.4007C102.47 17.2641 101.892 18.1275 100.953 18.2713L27.5866 30.0708C26.8645 30.2147 26.2146 29.8549 25.8535 29.2074L66.0029 22.7321L63.4755 6.83167L70.2634 5.75245L72.863 21.7248L74.8127 21.437L72.2131 5.39271L77.2679 4.60129L79.8675 20.5737L80.5174 20.5017L77.8456 4.52934L83.1892 3.66597L85.7888 19.6384L86.222 19.5664L83.6224 3.59402L99.7255 1.00391C99.7977 1.1478 99.8699 1.36364 99.9422 1.57949Z" fill="black"/>
<path opacity="0.2" d="M98.0653 0.212434L24.6265 12.0119C23.76 12.1557 23.1101 13.0191 23.2545 13.8825L25.6375 28.7037C25.6375 28.8476 25.7097 29.0634 25.7819 29.2073L27.3706 28.9196L24.771 12.9472L25.7097 12.8033L28.3093 28.7757L30.6201 28.4159L28.0205 12.4435L29.4647 12.2277L32.1365 28.2001L35.9637 27.6245L33.3641 11.6521L35.4582 11.2924L38.0578 27.2648L41.2351 26.7611L38.6355 10.7887L40.874 10.429L43.4736 26.4014L46.6509 25.8978L44.0513 9.92537L47.5175 9.34979L50.1171 25.3222L51.7057 25.0344L49.1061 9.062L54.3775 8.19863L56.9771 24.171L57.7715 24.0271L55.1719 8.05473L99.8706 0.859963C99.3651 0.428277 98.7152 0.140487 98.0653 0.212434Z" fill="white"/>
<path opacity="0.2" d="M65.2093 24.0272L27.9483 29.9988C26.8652 30.2147 25.782 29.4232 25.5654 28.2721L24.1934 19.8542C45.7845 11.5802 59.649 19.4945 65.2093 24.0272Z" fill="black"/>
<path d="M65.8575 46.3308L18.487 94.0321L14.1543 98.421C13.36 99.2124 12.0602 99.2124 11.2659 98.421L1.15629 88.4202C0.361966 87.6288 0.361966 86.3337 1.15629 85.5423L13.8655 72.7356L52.7873 33.4522C53.5816 32.6608 54.8814 32.6608 55.6757 33.4522L65.7853 43.4529C66.6518 44.2444 66.6518 45.5394 65.8575 46.3308Z" fill="#407BFF"/>
<path opacity="0.2" d="M39.2124 71.5845C38.9957 71.8004 38.7069 71.8004 38.4902 71.5845L27.6586 60.9363C27.4419 60.7204 27.4419 60.4327 27.6586 60.2168C27.8752 60.001 28.164 60.001 28.3807 60.2168L39.2124 70.8651C39.429 71.0809 39.429 71.3687 39.2124 71.5845Z" fill="black"/>
<path opacity="0.2" d="M13.5053 97.5575C13.2887 97.7733 12.9998 97.7733 12.7832 97.5575L1.95154 86.9092C1.7349 86.6933 1.7349 86.4056 1.95154 86.1897C2.16817 85.9739 2.45702 85.9739 2.67365 86.1897L13.5053 96.838C13.6497 97.0538 13.6497 97.3416 13.5053 97.5575Z" fill="black"/>
<path opacity="0.2" d="M16.1049 94.8953C15.8883 95.1112 15.5995 95.1112 15.3828 94.8953L4.55115 84.2471C4.33451 84.0312 4.33451 83.7434 4.55115 83.5276C4.76778 83.3118 5.05663 83.3118 5.27326 83.5276L16.1049 94.1759C16.3216 94.3917 16.3216 94.7514 16.1049 94.8953Z" fill="black"/>
<path opacity="0.2" d="M19.9331 91.0821C19.7164 91.298 19.4276 91.298 19.2109 91.0821L8.37927 80.4338C8.16264 80.218 8.16264 79.9302 8.37927 79.7144C8.59591 79.4985 8.88475 79.4985 9.10138 79.7144L19.9331 90.3626C20.0775 90.5785 20.0775 90.8663 19.9331 91.0821Z" fill="black"/>
<path opacity="0.2" d="M24.1206 86.8372C23.9039 87.0531 23.6151 87.0531 23.3984 86.8372L12.5668 76.189C12.3501 75.9731 12.3501 75.6853 12.5668 75.4695C12.7834 75.2537 13.0723 75.2537 13.2889 75.4695L24.1206 86.1178C24.265 86.3336 24.265 86.6214 24.1206 86.8372Z" fill="black"/>
<path opacity="0.2" d="M28.6694 82.2325C28.4528 82.4483 28.1639 82.4483 27.9473 82.2325L17.1156 71.5842C16.899 71.3684 16.899 71.0806 17.1156 70.8648C17.3322 70.6489 17.6211 70.6489 17.8377 70.8648L28.6694 81.513C28.886 81.7289 28.886 82.0167 28.6694 82.2325Z" fill="black"/>
<path opacity="0.2" d="M33.6518 77.1964C33.4352 77.4122 33.1463 77.4122 32.9297 77.1964L22.098 66.5481C21.8814 66.3323 21.8814 66.0445 22.098 65.8286C22.3147 65.6128 22.6035 65.6128 22.8201 65.8286L33.6518 76.4769C33.8684 76.6927 33.8684 76.9805 33.6518 77.1964Z" fill="black"/>
<path opacity="0.2" d="M53.4384 34.3154C53.655 34.0996 53.9439 34.0996 54.1605 34.3154L64.9922 44.9637C65.2088 45.1795 65.2088 45.4673 64.9922 45.6832C64.7755 45.899 64.4867 45.899 64.2701 45.6832L53.4384 35.0349C53.294 34.8191 53.294 34.4593 53.4384 34.3154Z" fill="black"/>
<path opacity="0.2" d="M50.8383 36.9055C51.0549 36.6897 51.3437 36.6897 51.5604 36.9055L62.392 47.5538C62.6087 47.7696 62.6087 48.0574 62.392 48.2733C62.1754 48.4891 61.8866 48.4891 61.6699 48.2733L50.8383 37.625C50.6216 37.4811 50.6216 37.1214 50.8383 36.9055Z" fill="black"/>
<path opacity="0.2" d="M47.0107 40.7908C47.2273 40.5749 47.5161 40.5749 47.7328 40.7908L58.5644 51.439C58.7811 51.6549 58.7811 51.9427 58.5644 52.1585C58.3478 52.3744 58.059 52.3744 57.8423 52.1585L47.0107 41.5103C46.8662 41.2944 46.8662 40.9347 47.0107 40.7908Z" fill="black"/>
<path opacity="0.2" d="M42.8226 44.9636C43.0393 44.7478 43.3281 44.7478 43.5447 44.9636L54.3764 55.6119C54.5931 55.8277 54.5931 56.1155 54.3764 56.3314C54.1598 56.5472 53.8709 56.5472 53.6543 56.3314L42.8226 45.6831C42.606 45.5392 42.606 45.1795 42.8226 44.9636Z" fill="black"/>
<path opacity="0.2" d="M38.2738 49.6404C38.4904 49.4246 38.7793 49.4246 38.9959 49.6404L49.8276 60.2887C50.0442 60.5045 50.0442 60.7923 49.8276 61.0081C49.611 61.224 49.3221 61.224 49.1055 61.0081L38.2738 50.3599C38.0572 50.144 38.0572 49.7843 38.2738 49.6404Z" fill="black"/>
<path opacity="0.2" d="M33.2914 54.6765C33.508 54.4607 33.7969 54.4607 34.0135 54.6765L44.8452 65.3248C45.0618 65.5406 45.0618 65.8284 44.8452 66.0443C44.6285 66.2601 44.3397 66.2601 44.1231 66.0443L33.2914 55.396C33.0747 55.1802 33.0747 54.8204 33.2914 54.6765Z" fill="black"/>
<path opacity="0.2" d="M55.3872 33.1643L66.1466 43.7406C66.7965 44.3881 66.7965 45.3954 66.1466 46.0429L13.8658 98.7086C13.3603 99.2122 12.566 99.3561 11.9883 98.9964L40.5839 70.1454L29.0301 58.7776L33.8683 53.8852L45.422 65.2529L46.7941 63.814L35.2403 52.4462L38.8508 48.8488L50.4046 60.2166L50.8379 59.7129L39.3563 48.4891L43.1835 44.6759L54.7373 56.0436L55.0261 55.7558L43.4723 44.3881L54.9539 32.8765C55.0983 32.8765 55.2428 33.0204 55.3872 33.1643Z" fill="black"/>
<path opacity="0.2" d="M53.077 33.1644L0.868285 85.902C0.218384 86.5495 0.218384 87.5568 0.868285 88.2043L11.6277 98.7806C11.7722 98.9245 11.9166 98.9965 12.061 99.0684L13.2164 97.9173L1.5904 86.5495L2.2403 85.902L13.7941 97.2697L15.4549 95.615L3.90115 84.2472L4.91211 83.24L16.4659 94.6077L19.1377 91.8737L7.58392 80.5059L9.02815 78.995L20.5819 90.3628L22.8205 88.0604L11.2667 76.6927L12.8553 75.1099L24.4091 86.4776L26.6477 84.1753L15.0939 72.8075L17.5491 70.3613L29.1028 81.729L30.2582 80.5779L18.7767 69.2821L22.5316 65.5408L34.0854 76.9086L34.6631 76.333L23.0371 64.9652L54.8822 32.8766C54.3045 32.5888 53.5824 32.6607 53.077 33.1644Z" fill="white"/>
<path opacity="0.2" d="M65.8592 46.3308L18.4886 94.0321C15.2391 86.1179 14.156 78.4914 13.7949 72.7356L52.7167 33.4522C53.5111 32.6608 54.8109 32.6608 55.6052 33.4522L65.7147 43.4529C66.6535 44.2444 66.6535 45.5394 65.8592 46.3308Z" fill="black"/>
<path opacity="0.2" d="M101.963 81.1536H100.519C100.519 81.1536 100.591 92.8091 97.703 98.9966L96.8364 99.1405H68.0242C66.8688 99.1405 66.0023 98.2052 66.0023 97.126V82.9523C66.0023 81.8011 66.941 80.9377 68.0242 80.9377H68.9629C68.2408 80.578 67.8075 79.9305 67.8075 79.0671V64.8934C67.8075 64.102 68.313 63.3825 68.9629 63.0228H63.2582C62.1029 63.0228 61.2363 62.0875 61.2363 61.0082V46.7626C61.2363 45.6114 62.1751 44.7481 63.2582 44.7481H67.1576C66.4355 44.3883 66.0023 43.7408 66.0023 42.8774V28.7037C66.0023 27.5526 66.941 26.6892 68.0242 26.6892H73.1512C73.1512 26.6892 89.4709 33.3803 96.0421 45.0359H92.576C92.576 45.0359 99.2194 53.7415 98.9305 62.8789H101.963C101.963 62.8069 104.346 71.5126 101.963 81.1536Z" fill="black"/>
<path d="M83.6939 60.0728C83.6939 60.2167 83.6939 60.4326 83.6939 60.5764C83.6939 61.0801 83.6939 61.5837 83.6939 62.0154C83.6217 63.886 83.4772 65.6847 83.1884 67.4834C83.1162 67.8432 83.1162 68.2029 83.044 68.4907C83.044 68.6346 82.9718 68.7785 82.9718 68.9224C82.8274 69.5699 82.7551 70.2894 82.5385 70.9369C82.2497 72.232 81.9608 73.4551 81.5998 74.6782C81.5275 75.0379 81.3831 75.3977 81.3109 75.6855C81.2387 75.8293 81.2387 75.9732 81.1665 76.0452C81.0943 76.261 81.0221 76.4769 80.9499 76.6927C80.3722 78.2756 79.7945 79.7865 79.0724 81.1535C78.9279 81.5132 78.7835 81.801 78.5669 82.0888V82.1607C78.4947 82.3046 78.4225 82.4485 78.3503 82.5205C77.4837 84.1753 76.545 85.6862 75.4618 87.1251C75.2452 87.4849 74.9563 87.8446 74.6675 88.1324C73.3677 89.7872 71.9957 91.2262 70.4792 92.5932C70.046 92.9529 69.6849 93.3126 69.2517 93.6004C67.8796 94.6796 66.5076 95.543 65.0634 96.3344C64.3413 96.6942 63.6192 97.0539 62.8249 97.3417C60.153 98.4209 57.2646 98.9965 54.3039 98.9965C50.91 98.9965 47.6605 98.2051 44.6277 96.8381C33.1461 91.5139 24.8418 76.9805 24.8418 59.9289C24.8418 42.8054 33.0739 28.2719 44.6277 23.0198C45.4942 22.5881 46.3607 22.3003 47.2273 22.0125C49.4658 21.293 51.8488 20.8613 54.2317 20.8613C57.1924 20.8613 60.0808 21.4369 62.7527 22.5161C62.7527 22.5161 62.7527 22.5161 62.8249 22.5161C63.547 22.8039 64.1969 23.0917 64.8468 23.4514C64.919 23.4514 64.919 23.5234 64.919 23.5234C66.1466 24.1709 67.3742 24.9623 68.5295 25.8257C68.7462 25.9696 68.9628 26.1135 69.1072 26.2574C69.5405 26.5452 69.9016 26.9049 70.3348 27.2647C71.6346 28.4158 72.8622 29.7109 74.0898 31.1498C74.2342 31.3657 74.3786 31.5096 74.5231 31.7254C74.8119 32.0852 75.0285 32.373 75.3174 32.7327C75.4618 32.8766 75.6062 33.0924 75.6784 33.2363C76.4006 34.2436 77.1227 35.3228 77.7004 36.474C77.917 36.9057 78.1336 37.2654 78.3503 37.6971C78.4947 38.0568 78.7113 38.3446 78.8557 38.7044C79.3612 39.7836 79.8667 40.8628 80.3 41.942C80.5888 42.7334 80.8777 43.4529 81.1665 44.2443C81.3109 44.6041 81.3831 44.8918 81.4553 45.2516C81.4553 45.3235 81.4553 45.3955 81.5275 45.3955C81.672 45.8991 81.8164 46.4747 81.9608 46.9783C82.3219 48.4173 82.6107 49.8562 82.8996 51.2952C82.9718 51.6549 82.9718 51.9427 83.044 52.3025C83.1162 52.5903 83.1162 52.8061 83.1162 53.0939C83.405 55.1084 83.5495 57.123 83.5495 59.2814C83.6939 59.785 83.6939 59.9289 83.6939 60.0728Z" fill="#407BFF"/>
<path d="M83.6932 60.0727C83.6932 60.2166 83.6932 60.4324 83.6932 60.5763C83.6932 61.08 83.6932 61.5836 83.6932 62.0153C83.621 63.8859 83.4766 65.6846 83.1877 67.4833C83.1155 67.8431 83.1155 68.2028 83.0433 68.4906C83.0433 68.6345 82.9711 68.7784 82.9711 68.9223C82.8267 69.5698 82.7544 70.2893 82.5378 70.9368C82.249 72.2319 81.9601 73.455 81.5991 74.6781C81.5269 75.0378 81.3824 75.3976 81.3102 75.6854C81.238 75.8292 81.238 75.9731 81.1658 76.0451C81.0936 76.2609 81.0214 76.4768 80.9492 76.6926C80.3715 78.2755 79.7938 79.7864 79.0717 81.1534C78.9273 81.5131 78.7828 81.8009 78.5662 82.0887V82.1606C78.494 82.3045 78.4218 82.4484 78.3496 82.5204C77.483 84.1752 76.5443 85.6861 75.4611 87.125C75.2445 87.4848 74.9556 87.8445 74.6668 88.1323C73.367 89.7871 71.995 91.226 70.4785 92.593C70.0453 92.9528 69.6842 93.3125 69.251 93.6003C67.8789 94.6795 66.5069 95.5429 65.0627 96.3343C64.3406 96.6941 63.6185 97.0538 62.8242 97.3416C60.1524 98.4208 57.2639 98.9964 54.3032 98.9964H46.4322C45.5657 98.9964 44.8436 98.4208 44.6992 97.5574C44.6992 97.4135 44.627 97.3416 44.627 97.1977V22.8038C44.627 22.6599 44.627 22.588 44.6992 22.4441C44.6992 22.4441 44.6992 22.4441 44.6992 22.3721C44.9158 21.5807 45.5657 21.0051 46.4322 21.0051H54.3032C57.2639 21.0051 60.1524 21.5807 62.8242 22.6599C62.8242 22.6599 62.8242 22.6599 62.8964 22.6599C63.6185 22.9477 64.2684 23.2355 64.9183 23.5952C64.9905 23.5952 64.9905 23.6672 64.9905 23.6672C66.2181 24.3147 67.4457 25.1061 68.6011 25.9695C68.8177 26.1134 69.0343 26.2573 69.1787 26.4012C69.612 26.689 69.9731 27.0487 70.4063 27.4085C71.7061 28.5596 72.9337 29.8547 74.1613 31.2936C74.3057 31.5095 74.4502 31.6534 74.5946 31.8692C74.8834 32.229 75.1001 32.5168 75.3889 32.8765C75.5333 33.0204 75.6778 33.2362 75.75 33.3801C76.4721 34.3874 77.1942 35.4666 77.7719 36.6178C77.9885 37.0495 78.2051 37.4092 78.4218 37.8409C78.5662 38.2006 78.7828 38.4884 78.9273 38.8481C79.4327 39.9274 79.9382 41.0066 80.3715 42.0858C80.6603 42.8772 80.9492 43.5967 81.238 44.3881C81.3824 44.7479 81.4546 45.0356 81.5269 45.3954C81.5269 45.4673 81.5269 45.5393 81.5991 45.5393C81.7435 46.0429 81.8879 46.6185 82.0323 47.1221C82.3934 48.5611 82.6822 50 82.9711 51.439C83.0433 51.7987 83.0433 52.0865 83.1155 52.4463C83.1877 52.734 83.1877 52.9499 83.1877 53.2377C83.4766 55.2522 83.621 57.2668 83.621 59.4252C83.6932 59.7849 83.6932 59.9288 83.6932 60.0727Z" fill="#407BFF"/>
<path opacity="0.2" d="M83.6933 60.0727C83.6933 60.2166 83.6933 60.4325 83.6933 60.5764H47.8043C47.5155 60.5764 47.2988 60.3605 47.2988 60.0727C47.2988 59.7849 47.5155 59.5691 47.8043 59.5691H83.6933C83.6933 59.7849 83.6933 59.9288 83.6933 60.0727Z" fill="black"/>
<path opacity="0.2" d="M64.9906 23.6672H47.8043C47.7321 23.6672 47.6599 23.6672 47.5877 23.5952C47.4433 23.5233 47.2988 23.3794 47.2988 23.1635C47.2988 22.9477 47.4433 22.7319 47.6599 22.6599C47.7321 22.6599 47.7321 22.6599 47.8043 22.6599H62.8242C62.8242 22.6599 62.8242 22.6599 62.8964 22.6599C63.6185 22.9477 64.2685 23.2355 64.9184 23.5952C64.9184 23.6672 64.9906 23.6672 64.9906 23.6672Z" fill="black"/>
<path opacity="0.2" d="M70.4786 27.4804H47.8043C47.5155 27.4804 47.2988 27.2646 47.2988 26.9768C47.2988 26.689 47.5155 26.4731 47.8043 26.4731H69.251C69.6843 26.7609 70.0453 27.1207 70.4786 27.4804Z" fill="black"/>
<path opacity="0.2" d="M75.389 32.9484H47.8043C47.5155 32.9484 47.2988 32.7326 47.2988 32.4448C47.2988 32.157 47.5155 31.9412 47.8043 31.9412H74.6669C74.8835 32.229 75.1723 32.5887 75.389 32.9484Z" fill="black"/>
<path opacity="0.2" d="M78.9995 38.9201H47.8043C47.5155 38.9201 47.2988 38.7043 47.2988 38.4165C47.2988 38.1287 47.5155 37.9128 47.8043 37.9128H78.494C78.6385 38.2726 78.8551 38.5604 78.9995 38.9201Z" fill="black"/>
<path opacity="0.2" d="M81.5991 45.5393H47.8043C47.5155 45.5393 47.2988 45.3234 47.2988 45.0356C47.2988 44.7478 47.5155 44.532 47.8043 44.532H81.2381C81.3825 44.8198 81.4547 45.1795 81.5991 45.5393Z" fill="black"/>
<path opacity="0.2" d="M83.1155 52.6621H47.732C47.6598 52.6621 47.6598 52.6621 47.5876 52.6621C47.371 52.5901 47.2266 52.4462 47.2266 52.1584C47.2266 51.8706 47.4432 51.6548 47.732 51.6548H82.9711C83.0433 51.9426 83.1155 52.3023 83.1155 52.6621Z" fill="black"/>
<path opacity="0.2" d="M64.9906 96.4783C64.2684 96.838 63.5463 97.1977 62.752 97.4855H47.8043C47.5155 97.4855 47.2988 97.2697 47.2988 96.9819C47.2988 96.6941 47.5155 96.4783 47.8043 96.4783H64.9906Z" fill="black"/>
<path opacity="0.2" d="M70.4786 92.7371C70.0453 93.0968 69.6843 93.4565 69.251 93.7443H47.8043C47.5155 93.7443 47.2988 93.5285 47.2988 93.2407C47.2988 92.9529 47.5155 92.7371 47.8043 92.7371H70.4786Z" fill="black"/>
<path opacity="0.2" d="M75.389 87.269C75.1723 87.6288 74.8835 87.9885 74.5946 88.2763H47.8043C47.5155 88.2763 47.2988 88.0605 47.2988 87.7727C47.2988 87.4849 47.5155 87.269 47.8043 87.269H75.389Z" fill="black"/>
<path opacity="0.2" d="M78.9995 81.2974C78.8551 81.6571 78.7107 81.9449 78.494 82.2327V82.3046H47.8043C47.7321 82.3046 47.6599 82.3046 47.5877 82.2327C47.4433 82.1607 47.2988 81.9449 47.2988 81.801C47.2988 81.5132 47.5155 81.2974 47.8043 81.2974H78.9995Z" fill="black"/>
<path opacity="0.2" d="M81.5991 74.678C81.5269 75.0377 81.3825 75.3975 81.3103 75.6852H47.8043C47.5155 75.6852 47.2988 75.4694 47.2988 75.1816C47.2988 74.8938 47.5155 74.678 47.8043 74.678H81.5991Z" fill="black"/>
<path opacity="0.2" d="M83.1156 67.5552C83.0434 67.9149 83.0434 68.2747 82.9711 68.5624H47.8043C47.5155 68.5624 47.2988 68.3466 47.2988 68.0588C47.2988 67.771 47.5155 67.5552 47.8043 67.5552H83.1156Z" fill="black"/>
<path opacity="0.2" d="M47.2988 22.7319V21.0771C47.6599 21.0051 48.0931 21.0051 48.5264 21.0051H54.3033C57.264 21.0051 60.1524 21.5807 62.8242 22.6599C62.8242 22.6599 62.8242 22.6599 62.8964 22.6599H47.2988V22.7319Z" fill="white"/>
<path opacity="0.2" d="M68.6733 25.9695H47.2988V23.5952H64.9184C64.9906 23.5952 64.9906 23.6672 64.9906 23.6672C66.2904 24.3147 67.4457 25.1061 68.6733 25.9695Z" fill="white"/>
<path opacity="0.2" d="M74.1614 31.3656H47.2988V27.4805H70.4786C71.7784 28.6316 73.006 29.9267 74.1614 31.3656Z" fill="white"/>
<path opacity="0.2" d="M77.8441 36.6898H47.2988V33.4521H75.8222C76.4721 34.4594 77.1942 35.5386 77.8441 36.6898Z" fill="white"/>
<path opacity="0.2" d="M80.4437 42.1578H47.2988V38.9202H78.9995C79.505 39.9994 80.0105 41.0786 80.4437 42.1578Z" fill="white"/>
<path opacity="0.2" d="M82.0324 47.266H47.2988V45.6831H81.6713C81.7435 46.1867 81.888 46.7623 82.0324 47.266Z" fill="white"/>
<path opacity="0.2" d="M83.26 53.4535H47.2988V52.6621H83.1878C83.1878 52.878 83.1878 53.1657 83.26 53.4535Z" fill="white"/>
<path opacity="0.2" d="M83.4766 64.3896C83.4766 64.1737 83.4766 64.0298 83.5488 63.814C83.621 63.2384 83.621 62.7348 83.621 62.1592V62.0872C83.621 61.4397 83.6932 60.7922 83.6932 60.1447C83.6932 38.5604 70.5508 21.0051 54.3032 21.0051C54.0866 21.0051 53.87 21.0051 53.7256 21.0051C69.6842 21.4368 82.5378 38.7762 82.5378 60.0727C82.5378 60.7202 82.5378 61.3678 82.4656 62.0153H47.2988V21.0771C45.999 21.2929 44.9158 21.7246 44.6992 22.3721C44.6992 22.3721 44.6992 22.3721 44.6992 22.4441C44.6992 22.516 44.627 22.588 44.627 22.6599V97.5574C44.627 97.6294 44.627 97.7013 44.6992 97.7733C44.988 98.5647 46.5767 99.2122 48.5264 99.2122H54.3032C54.7365 99.2122 55.242 99.2122 55.6753 99.1403C55.8197 99.1403 55.9641 99.1403 56.0363 99.1403C56.3974 99.1403 56.6862 99.0683 57.0473 99.0683C57.1917 99.0683 57.2639 99.0684 57.4083 98.9964C57.8416 98.9245 58.2749 98.8525 58.7081 98.7806C58.7803 98.7806 58.8526 98.7086 58.9248 98.7086C59.2858 98.6367 59.6469 98.5647 60.0079 98.4928C60.1524 98.4928 60.2968 98.4208 60.4412 98.3489C60.8023 98.2769 61.0911 98.133 61.4522 98.0611C61.5244 98.0611 61.6688 97.9891 61.741 97.9891C62.1021 97.8452 62.4631 97.7013 62.8242 97.5574C62.8964 97.5574 62.8964 97.5574 62.9686 97.4855C63.113 97.4136 63.2574 97.3416 63.3296 97.3416C63.6185 97.1977 63.9073 97.0538 64.1962 96.9819C64.3406 96.9099 64.485 96.838 64.6294 96.766C64.7739 96.6941 64.9183 96.6221 65.0627 96.5502C65.2071 96.4782 65.3516 96.4063 65.496 96.2624C65.6404 96.1904 65.7848 96.1185 65.857 96.0465C66.1459 95.9026 66.4347 95.6868 66.7236 95.471C66.7958 95.399 66.9402 95.3271 67.0124 95.2551C67.3735 95.0393 67.8067 94.7515 68.1678 94.4637C68.3122 94.3917 68.3844 94.2479 68.5288 94.1759C68.7455 94.032 68.9621 93.8881 69.1787 93.6723L69.251 93.6003C69.5398 93.3845 69.8286 93.1686 70.1175 92.8809C70.1897 92.8089 70.3341 92.737 70.4063 92.665L70.4785 92.5931C70.6952 92.3772 70.9118 92.2333 71.0562 92.0175C71.2729 91.8736 71.4173 91.6577 71.6339 91.5138C71.7783 91.3699 71.9228 91.2261 72.0672 91.0822C72.2838 90.8663 72.5005 90.6505 72.7171 90.3627C72.8615 90.2188 73.0059 90.0749 73.0781 89.931C73.2948 89.6432 73.5114 89.4274 73.7281 89.1396C73.8725 88.9957 73.9447 88.8518 74.0891 88.7079C74.2335 88.564 74.3779 88.4201 74.5224 88.2043C74.5946 88.0604 74.739 87.9165 74.8112 87.8445C74.8834 87.7006 75.0279 87.5567 75.1001 87.4128C75.1723 87.3409 75.2445 87.2689 75.2445 87.197C75.3889 87.0531 75.4611 86.8372 75.6055 86.6933C75.6777 86.5495 75.8222 86.4056 75.8944 86.2617C76.1832 85.83 76.4721 85.3983 76.7609 84.9666L76.8331 84.8947C77.122 84.463 77.3386 84.0313 77.6275 83.5996C77.6997 83.5277 77.6997 83.3838 77.7719 83.3118C77.9163 83.096 77.9885 82.8801 78.1329 82.6643C78.2051 82.5204 78.2774 82.3765 78.3496 82.2326C78.3496 82.2326 78.3496 82.1606 78.4218 82.1606C78.494 82.0168 78.5662 81.8729 78.6384 81.729C78.7106 81.5851 78.7828 81.4412 78.855 81.2973C78.9272 81.2253 78.9273 81.0814 78.9995 81.0095C79.2161 80.5059 79.5049 80.0022 79.7216 79.4266C79.7938 79.2827 79.866 79.1388 79.9382 78.923C80.2271 78.2035 80.5159 77.556 80.7325 76.8365C80.7325 76.8365 80.7325 76.8365 80.7325 76.7646C80.8047 76.5487 80.877 76.3329 80.9492 76.117C81.0214 75.9731 81.0214 75.8293 81.0936 75.7573C81.0936 75.6854 81.1658 75.6134 81.1658 75.6134C81.238 75.4695 81.3102 75.2537 81.3102 75.1098C81.3102 75.0378 81.3824 74.8939 81.3824 74.822C81.4546 74.6781 81.4546 74.5342 81.5269 74.3903C81.5991 74.0306 81.7435 73.6708 81.8157 73.3111C81.8879 73.0233 81.9601 72.7355 82.0323 72.5197C82.1045 72.088 82.249 71.7282 82.3212 71.2966C82.3212 71.2246 82.3212 71.1526 82.3934 71.1526C82.5378 70.5051 82.6822 69.7856 82.7544 69.1381C82.7544 68.9942 82.8267 68.8503 82.8267 68.7064C82.8267 68.5625 82.8989 68.4186 82.8989 68.2747C82.8989 68.1308 82.9711 68.0589 82.9711 67.915C82.9711 67.8431 82.9711 67.7711 83.0433 67.6272C83.1155 67.1955 83.1877 66.6919 83.2599 66.1883C83.2599 66.0444 83.2599 65.9724 83.3321 65.8285C83.4043 65.3249 83.4766 64.8932 83.4766 64.3896ZM77.0498 82.6643H47.2988V82.2326H77.3386C77.1942 82.3765 77.122 82.5204 77.0498 82.6643ZM79.6494 76.7646H47.2988V76.117H79.9382C79.7938 76.3329 79.7216 76.5487 79.6494 76.7646ZM81.3102 71.0088H47.2988V68.9942H81.7435C81.5991 69.6418 81.4546 70.3612 81.3102 71.0088Z" fill="black"/>
<path d="M46.3606 99.1403C62.5923 99.1403 75.7506 81.6491 75.7506 60.0727C75.7506 38.4963 62.5923 21.0051 46.3606 21.0051C30.129 21.0051 16.9707 38.4963 16.9707 60.0727C16.9707 81.6491 30.129 99.1403 46.3606 99.1403Z" fill="#407BFF"/>
<path opacity="0.2" d="M46.3603 92.8809C59.9996 92.8809 71.0565 78.1922 71.0565 60.0728C71.0565 41.9534 59.9996 27.2646 46.3603 27.2646C32.7209 27.2646 21.6641 41.9534 21.6641 60.0728C21.6641 78.1922 32.7209 92.8809 46.3603 92.8809Z" fill="black"/>
<path opacity="0.2" d="M74.884 50.5756C71.7068 33.596 60.153 21.0051 46.3606 21.0051C30.1131 21.0051 16.9707 38.4884 16.9707 60.0727C16.9707 67.1955 18.4149 73.8147 20.8701 79.5705C25.9249 91.298 35.4568 99.1403 46.3606 99.1403C62.6082 99.1403 75.7506 81.657 75.7506 60.0727C75.8228 56.8351 75.4617 53.6694 74.884 50.5756ZM46.3606 97.9172C36.6844 97.9172 28.0912 91.4419 22.9642 81.5851C19.7869 75.4695 17.9817 68.1309 17.9817 60.1447C17.9817 39.2798 30.6908 22.3721 46.4329 22.3721C60.514 22.3721 72.2845 36.0422 74.4508 54.0291C74.6674 56.0436 74.8118 58.1301 74.8118 60.2166C74.8118 81.0095 62.1027 97.9172 46.3606 97.9172Z" fill="black"/>
<path opacity="0.2" d="M68.6736 46.043C64.5575 35.5386 56.3255 28.4158 46.7936 28.4158C33.1457 28.4158 22.0974 43.0931 22.0974 61.224C22.0974 66.2603 22.9639 71.0088 24.4804 75.3257C22.7473 70.721 21.7363 65.6128 21.7363 60.0728C21.7363 41.942 32.7846 27.2646 46.4325 27.2646C56.2533 27.2646 64.7742 34.9631 68.6736 46.043Z" fill="black"/>
<path opacity="0.2" d="M75.8219 60.0728C75.8219 81.6571 62.6795 99.1404 46.4319 99.1404C35.5281 99.1404 25.9962 91.2261 20.9414 79.5706C21.5913 80.2181 22.3134 80.8657 23.0355 81.5132C28.1625 91.37 36.7556 97.8453 46.4319 97.8453C62.1018 97.8453 74.8831 80.9376 74.8831 60.0728C74.8831 57.9863 74.7387 55.8998 74.5221 53.8853C74.7387 52.7341 74.8831 51.583 75.0276 50.5757C75.4608 53.6694 75.8219 56.8351 75.8219 60.0728Z" fill="black"/>
<g opacity="0.2">
<path opacity="0.2" d="M48.5276 77.8438V83.2399H45.5669L44.7004 82.1607L45.5669 77.9877C42.0286 77.6999 37.7681 75.0379 35.8906 72.8794L38.3458 69.1381C40.0789 71.0807 42.8229 72.4477 45.5669 72.8075V63.0945C43.184 62.3031 38.7069 60.0727 37.5515 57.2668C37.5515 57.2668 37.2626 56.0437 37.2626 53.3816C37.2626 48.4892 39.9344 44.2443 45.5669 43.5248L47.661 36.9775L48.5276 38.0568V43.3809C50.9828 43.5248 55.0266 45.1796 55.0266 45.1796L55.8931 46.2588L54.4489 51.0793C52.5714 49.5684 50.5495 48.777 48.5998 48.4892V58.2021C51.1272 58.9935 54.2323 60.7203 54.2323 60.7203C55.8931 62.5909 56.9763 65.3249 56.9763 67.8431C56.9041 72.8075 54.16 77.0524 48.5276 77.8438ZM45.5669 57.3387V48.777C43.0395 49.2806 41.9564 51.0073 41.9564 53.1658C41.9564 55.4681 43.4728 56.4754 45.5669 57.3387ZM52.2826 68.3467C52.2826 65.9724 50.6939 64.8932 48.5276 64.1018V72.5916C51.1272 72.088 52.2826 70.4332 52.2826 68.3467Z" fill="black"/>
</g>
<path d="M47.661 76.6927V82.0888H44.7004V76.7647C41.162 76.4769 37.7681 74.966 35.8906 72.8076L37.4793 67.9871C39.2123 69.9296 41.9564 71.2967 44.7004 71.6564V62.0154C40.7288 60.7203 36.3961 58.9936 36.3961 52.3025C36.3961 47.41 39.0679 43.1651 44.7004 42.4456V37.0496H47.661V42.3737C50.3329 42.5895 53.0047 43.5968 54.9544 45.3235L53.5101 50.144C51.6326 48.6331 49.6107 47.8417 47.661 47.5539V57.2669C51.6327 58.5619 56.0375 60.2167 56.0375 66.9078C56.0375 71.7283 53.3657 75.9733 47.661 76.6927ZM44.7004 56.1876V47.6259C42.173 48.1295 41.0898 49.8562 41.0898 52.0147C41.0898 54.317 42.6063 55.3962 44.7004 56.1876ZM51.416 67.2676C51.416 64.8933 49.8274 63.8141 47.661 63.0227V71.5125C50.3329 70.9369 51.416 69.3541 51.416 67.2676Z" fill="#407BFF"/>
<path opacity="0.1" d="M75.8229 60.0727C75.8229 73.5989 70.6237 85.5422 62.7527 92.5931L19.7148 43.5967C24.4086 30.2144 34.5903 21.0051 46.3608 21.0051C62.6083 21.0051 75.8229 38.4884 75.8229 60.0727Z" fill="white"/>
</g>
<defs>
<clipPath id="clip0_1175_8712">
<rect width="145" height="99" fill="white" transform="translate(0.363281 0.212402)"/>
</clipPath>
</defs>
</svg>
