<svg width="11" height="9" viewBox="0 0 11 9" fill="none" xmlns="http://www.w3.org/2000/svg">
<path d="M1.04671 5.3156C1.64951 6.66492 3.27707 7.33959 5.92959 7.33959L7.17957 7.33959L7.17957 8.62529C7.17957 8.7124 7.21493 8.78774 7.28559 8.85133C7.35628 8.91496 7.43992 8.94678 7.53669 8.94678C7.63347 8.94678 7.71719 8.91496 7.78784 8.85133L10.645 6.27994C10.7156 6.21626 10.751 6.14096 10.751 6.0539C10.751 5.96686 10.7156 5.89155 10.645 5.82791L7.78782 3.25645C7.71709 3.1929 7.63338 3.16097 7.53667 3.16097C7.43998 3.16097 7.35628 3.19288 7.28557 3.25645C7.21489 3.32002 7.17955 3.39538 7.17955 3.48246L7.17955 4.76824L5.92957 4.76824C5.56507 4.76824 5.23866 4.75825 4.95037 4.73819C4.66209 4.71809 4.37548 4.6821 4.091 4.63013C3.80634 4.57824 3.5589 4.50716 3.34869 4.41667C3.13851 4.32618 2.94226 4.20987 2.75994 4.06763C2.5776 3.92525 2.42878 3.75628 2.31339 3.56033C2.19815 3.36444 2.10791 3.13268 2.04276 2.86481C1.97776 2.59692 1.94509 2.29388 1.94509 1.95581C1.94509 1.7717 1.95446 1.56571 1.97301 1.33805C1.97301 1.31805 1.97762 1.27868 1.98698 1.22005C1.99623 1.16142 2.0009 1.11711 2.0009 1.08703C2.0009 1.03688 1.9851 0.994995 1.95354 0.961502C1.92184 0.928045 1.87809 0.911351 1.82231 0.911351C1.76278 0.911351 1.71075 0.93976 1.66606 0.996719C1.64011 1.02682 1.61601 1.06367 1.59355 1.10724C1.57121 1.15071 1.54606 1.20091 1.51822 1.25785C1.49026 1.3148 1.47073 1.35483 1.45963 1.37832C0.987217 2.33241 0.750952 3.0874 0.750952 3.64324C0.750991 4.30945 0.849519 4.86699 1.04671 5.3156Z" fill="#4D74F5"/>
</svg>
