<svg width="11" height="10" viewBox="0 0 11 10" fill="none" xmlns="http://www.w3.org/2000/svg">
<path d="M10.3263 4.04173C9.81893 3.53413 9.31156 3.03368 8.80419 2.53324C8.03956 1.78257 7.28208 1.02475 6.51745 0.274076C6.07439 -0.154879 5.52415 -0.069088 5.33835 0.452807C5.23116 0.774522 5.38123 1.0033 5.59561 1.21063C6.41026 2.01134 7.21776 2.81921 8.03241 3.61992C8.13246 3.72001 8.2325 3.82725 8.38257 3.98453C6.77471 3.98453 5.2526 3.98453 3.73049 3.98453C2.71575 3.98453 1.70815 3.97738 0.693415 3.98453C0.228921 3.98453 -0.0497751 4.30625 0.00739335 4.74235C0.0574157 5.08551 0.32182 5.27854 0.772021 5.27854C2.7086 5.27854 4.65233 5.27854 6.58891 5.27854C7.1606 5.27854 7.72513 5.27854 8.29682 5.27854C8.31111 5.30714 8.3254 5.33574 8.33969 5.36433C8.21107 5.48587 8.07529 5.60026 7.94666 5.7218C7.1606 6.50106 6.36738 7.27318 5.58846 8.0596C5.20258 8.44566 5.20972 8.89606 5.59561 9.15343C5.90289 9.35361 6.19588 9.31072 6.51745 8.989C7.78945 7.73788 9.06145 6.47962 10.3263 5.22135C10.7694 4.7924 10.7622 4.47783 10.3263 4.04173Z" fill="black"/>
</svg>
