<svg width="296" height="337" viewBox="0 0 296 337" fill="none" xmlns="http://www.w3.org/2000/svg">
<rect x="0.970215" y="0.5" width="294.335" height="335.813" rx="2.5" fill="white" stroke="#E3E9EF"/>
<path d="M1.39307 4C1.39307 2.34315 2.73621 1 4.39307 1H291.882C293.539 1 294.882 2.34315 294.882 4V41H1.39307V4Z" fill="#4D74F5"/>
<path d="M141.153 25.5198V21.6418C141.003 21.7071 140.742 21.8004 140.369 21.9218C139.995 22.0431 139.51 22.1038 138.913 22.1038C137.755 22.1038 136.887 21.8471 136.309 21.3338C135.73 20.8204 135.441 19.9991 135.441 18.8698V15.5798H137.317V18.6598C137.317 19.2478 137.466 19.6818 137.765 19.9618C138.063 20.2324 138.586 20.3678 139.333 20.3678C139.659 20.3678 139.986 20.3351 140.313 20.2698C140.639 20.1951 140.919 20.1018 141.153 19.9898V15.5798H143.029V25.5198H141.153ZM144.412 23.3498C144.412 22.8738 144.542 22.4584 144.804 22.1038C145.074 21.7398 145.448 21.4598 145.924 21.2638C146.4 21.0678 146.946 20.9698 147.562 20.9698C147.87 20.9698 148.182 20.9978 148.5 21.0538C148.817 21.1004 149.092 21.1704 149.326 21.2638V20.8718C149.326 20.4051 149.186 20.0458 148.906 19.7938C148.635 19.5418 148.229 19.4158 147.688 19.4158C147.286 19.4158 146.904 19.4858 146.54 19.6258C146.176 19.7658 145.793 19.9711 145.392 20.2418L144.79 19.0098C145.275 18.6924 145.77 18.4544 146.274 18.2958C146.787 18.1371 147.324 18.0578 147.884 18.0578C148.929 18.0578 149.741 18.3191 150.32 18.8418C150.908 19.3644 151.202 20.1111 151.202 21.0818V23.4198C151.202 23.6251 151.234 23.7698 151.3 23.8538C151.365 23.9284 151.482 23.9751 151.65 23.9938V25.5198C151.482 25.5571 151.328 25.5804 151.188 25.5898C151.057 25.6084 150.945 25.6178 150.852 25.6178C150.478 25.6178 150.194 25.5338 149.998 25.3658C149.802 25.1978 149.685 24.9924 149.648 24.7498L149.606 24.3718C149.279 24.7918 148.878 25.1138 148.402 25.3378C147.935 25.5524 147.454 25.6598 146.96 25.6598C146.465 25.6598 146.026 25.5618 145.644 25.3658C145.261 25.1604 144.958 24.8851 144.734 24.5398C144.519 24.1851 144.412 23.7884 144.412 23.3498ZM148.976 23.7278C149.209 23.5038 149.326 23.2891 149.326 23.0838V22.3418C148.84 22.1458 148.35 22.0478 147.856 22.0478C147.361 22.0478 146.96 22.1551 146.652 22.3698C146.344 22.5751 146.19 22.8504 146.19 23.1958C146.19 23.4758 146.302 23.7278 146.526 23.9518C146.75 24.1758 147.072 24.2878 147.492 24.2878C147.772 24.2878 148.042 24.2364 148.304 24.1338C148.574 24.0311 148.798 23.8958 148.976 23.7278ZM154.567 25.5198V19.8218H152.243V18.1838H158.781V19.8218H156.443V25.5198H154.567Z" fill="white"/>
<path d="M206.932 120.243V121.426H200.308C200.299 121.13 200.347 120.845 200.452 120.571C200.62 120.12 200.889 119.676 201.258 119.238C201.632 118.801 202.17 118.295 202.872 117.721C203.961 116.827 204.697 116.121 205.08 115.602C205.463 115.077 205.654 114.583 205.654 114.118C205.654 113.631 205.478 113.22 205.128 112.888C204.781 112.55 204.328 112.382 203.767 112.382C203.175 112.382 202.701 112.56 202.345 112.915C201.99 113.271 201.81 113.763 201.805 114.392L200.541 114.262C200.627 113.318 200.953 112.601 201.518 112.108C202.083 111.612 202.842 111.363 203.795 111.363C204.756 111.363 205.517 111.63 206.078 112.163C206.638 112.696 206.919 113.357 206.919 114.146C206.919 114.547 206.837 114.941 206.672 115.328C206.508 115.715 206.235 116.123 205.852 116.552C205.474 116.98 204.843 117.568 203.959 118.315C203.22 118.935 202.746 119.357 202.537 119.58C202.327 119.799 202.154 120.02 202.017 120.243H206.932ZM208.258 116.483C208.258 115.299 208.379 114.346 208.621 113.626C208.867 112.901 209.229 112.343 209.708 111.951C210.191 111.559 210.797 111.363 211.526 111.363C212.064 111.363 212.535 111.473 212.941 111.691C213.347 111.906 213.682 112.218 213.946 112.628C214.21 113.034 214.418 113.53 214.568 114.118C214.718 114.701 214.794 115.49 214.794 116.483C214.794 117.659 214.673 118.609 214.431 119.334C214.19 120.054 213.827 120.612 213.344 121.009C212.866 121.401 212.26 121.597 211.526 121.597C210.56 121.597 209.801 121.25 209.25 120.558C208.589 119.724 208.258 118.366 208.258 116.483ZM209.523 116.483C209.523 118.129 209.714 119.225 210.097 119.771C210.485 120.314 210.961 120.585 211.526 120.585C212.091 120.585 212.565 120.312 212.948 119.765C213.335 119.218 213.529 118.124 213.529 116.483C213.529 114.834 213.335 113.738 212.948 113.195C212.565 112.653 212.087 112.382 211.512 112.382C210.947 112.382 210.496 112.621 210.159 113.1C209.735 113.71 209.523 114.838 209.523 116.483Z" fill="#C4C8DF"/>
<path d="M196.307 219.919H195.077V212.078C194.78 212.361 194.391 212.643 193.908 212.926C193.429 213.208 192.999 213.42 192.616 213.562V212.372C193.304 212.049 193.905 211.657 194.42 211.196C194.935 210.736 195.3 210.289 195.514 209.856H196.307V219.919ZM199.465 214.977C199.465 213.792 199.586 212.839 199.828 212.119C200.074 211.395 200.436 210.836 200.915 210.444C201.398 210.052 202.004 209.856 202.733 209.856C203.271 209.856 203.742 209.966 204.148 210.185C204.554 210.399 204.889 210.711 205.153 211.121C205.417 211.527 205.625 212.023 205.775 212.611C205.925 213.195 206 213.983 206 214.977C206 216.152 205.88 217.103 205.638 217.827C205.397 218.547 205.034 219.105 204.551 219.502C204.073 219.894 203.467 220.09 202.733 220.09C201.767 220.09 201.008 219.743 200.457 219.051C199.796 218.217 199.465 216.859 199.465 214.977ZM200.73 214.977C200.73 216.622 200.921 217.718 201.304 218.265C201.692 218.807 202.168 219.078 202.733 219.078C203.298 219.078 203.772 218.805 204.155 218.258C204.542 217.711 204.736 216.617 204.736 214.977C204.736 213.327 204.542 212.231 204.155 211.688C203.772 211.146 203.293 210.875 202.719 210.875C202.154 210.875 201.703 211.114 201.366 211.593C200.942 212.203 200.73 213.331 200.73 214.977ZM209.152 214.484C208.641 214.298 208.263 214.031 208.017 213.685C207.771 213.338 207.648 212.924 207.648 212.44C207.648 211.711 207.91 211.098 208.434 210.602C208.958 210.105 209.655 209.856 210.526 209.856C211.401 209.856 212.105 210.112 212.638 210.622C213.171 211.128 213.438 211.745 213.438 212.475C213.438 212.939 213.315 213.345 213.069 213.691C212.827 214.033 212.458 214.298 211.961 214.484C212.577 214.685 213.044 215.008 213.363 215.455C213.686 215.902 213.848 216.435 213.848 217.055C213.848 217.911 213.545 218.632 212.939 219.215C212.333 219.798 211.535 220.09 210.546 220.09C209.557 220.09 208.76 219.798 208.154 219.215C207.548 218.627 207.245 217.896 207.245 217.021C207.245 216.369 207.409 215.824 207.737 215.387C208.069 214.945 208.541 214.644 209.152 214.484ZM208.906 212.399C208.906 212.873 209.058 213.261 209.364 213.562C209.669 213.862 210.066 214.013 210.553 214.013C211.027 214.013 211.415 213.865 211.715 213.568C212.021 213.268 212.173 212.901 212.173 212.468C212.173 212.017 212.016 211.638 211.702 211.333C211.392 211.023 211.004 210.868 210.54 210.868C210.07 210.868 209.681 211.019 209.371 211.319C209.061 211.62 208.906 211.98 208.906 212.399ZM208.509 217.027C208.509 217.378 208.591 217.718 208.755 218.046C208.924 218.374 209.172 218.629 209.5 218.812C209.829 218.989 210.182 219.078 210.56 219.078C211.148 219.078 211.633 218.889 212.016 218.511C212.399 218.132 212.59 217.652 212.59 217.068C212.59 216.476 212.392 215.986 211.996 215.599C211.604 215.211 211.111 215.018 210.519 215.018C209.94 215.018 209.459 215.209 209.077 215.592C208.698 215.975 208.509 216.453 208.509 217.027Z" fill="#BEC2D6"/>
<path d="M209.333 313.636C209.333 312.451 209.453 311.499 209.695 310.779C209.941 310.054 210.303 309.496 210.782 309.104C211.265 308.712 211.871 308.516 212.6 308.516C213.138 308.516 213.61 308.625 214.015 308.844C214.421 309.058 214.756 309.371 215.02 309.781C215.284 310.186 215.492 310.683 215.642 311.271C215.792 311.854 215.868 312.643 215.868 313.636C215.868 314.812 215.747 315.762 215.505 316.487C215.264 317.207 214.902 317.765 214.418 318.162C213.94 318.554 213.334 318.75 212.6 318.75C211.634 318.75 210.875 318.403 210.324 317.71C209.663 316.876 209.333 315.518 209.333 313.636ZM210.597 313.636C210.597 315.281 210.789 316.377 211.171 316.924C211.559 317.467 212.035 317.738 212.6 317.738C213.165 317.738 213.639 317.464 214.022 316.917C214.409 316.371 214.603 315.277 214.603 313.636C214.603 311.986 214.409 310.89 214.022 310.348C213.639 309.806 213.161 309.535 212.586 309.535C212.021 309.535 211.57 309.774 211.233 310.252C210.809 310.863 210.597 311.991 210.597 313.636Z" fill="#C4C8DF"/>
<path d="M250.857 112.717V111.534H257.345V112.491C256.707 113.17 256.073 114.073 255.444 115.198C254.82 116.324 254.337 117.481 253.995 118.671C253.749 119.509 253.592 120.428 253.523 121.426H252.259C252.272 120.637 252.427 119.685 252.724 118.568C253.02 117.452 253.444 116.376 253.995 115.342C254.551 114.303 255.141 113.428 255.766 112.717H250.857Z" fill="#C4C8DF"/>
<path d="M250.775 217.294L252.067 217.185C252.163 217.813 252.384 218.287 252.73 218.606C253.081 218.921 253.503 219.078 253.995 219.078C254.588 219.078 255.089 218.855 255.499 218.408C255.909 217.962 256.114 217.369 256.114 216.631C256.114 215.929 255.916 215.375 255.52 214.97C255.128 214.564 254.613 214.361 253.975 214.361C253.578 214.361 253.22 214.452 252.901 214.635C252.582 214.812 252.332 215.045 252.149 215.332L250.994 215.182L251.965 210.034H256.948V211.21H252.949L252.409 213.903C253.011 213.484 253.642 213.274 254.303 213.274C255.178 213.274 255.916 213.577 256.518 214.184C257.119 214.79 257.42 215.569 257.42 216.521C257.42 217.428 257.156 218.212 256.627 218.873C255.984 219.684 255.107 220.09 253.995 220.09C253.084 220.09 252.339 219.835 251.76 219.324C251.186 218.814 250.857 218.137 250.775 217.294Z" fill="#BEC2D6"/>
<path d="M250.775 313.636C250.775 312.451 250.896 311.499 251.138 310.779C251.384 310.054 251.746 309.496 252.225 309.104C252.708 308.712 253.314 308.516 254.043 308.516C254.581 308.516 255.052 308.625 255.458 308.844C255.864 309.058 256.199 309.371 256.463 309.781C256.727 310.186 256.935 310.683 257.085 311.271C257.235 311.854 257.311 312.643 257.311 313.636C257.311 314.812 257.19 315.762 256.948 316.487C256.707 317.207 256.344 317.765 255.861 318.162C255.383 318.554 254.777 318.75 254.043 318.75C253.077 318.75 252.318 318.403 251.767 317.71C251.106 316.876 250.775 315.518 250.775 313.636ZM252.04 313.636C252.04 315.281 252.231 316.377 252.614 316.924C253.002 317.467 253.478 317.738 254.043 317.738C254.608 317.738 255.082 317.464 255.465 316.917C255.852 316.371 256.046 315.277 256.046 313.636C256.046 311.986 255.852 310.89 255.465 310.348C255.082 309.806 254.604 309.535 254.029 309.535C253.464 309.535 253.013 309.774 252.676 310.252C252.252 310.863 252.04 311.991 252.04 313.636Z" fill="#C4C8DF"/>
<line x1="1.47021" y1="139.16" x2="292.593" y2="139.16" stroke="#E8EAF4"/>
<line x1="1.47021" y1="237.653" x2="292.593" y2="237.653" stroke="#E8EAF4"/>
<line x1="1.47021" y1="336.312" x2="292.593" y2="336.312" stroke="#E8EAF4"/>
<g clip-path="url(#clip0_530_537)">
<path d="M232.196 111.992H223.896C222.606 111.992 221.546 113.111 221.546 114.472V117.965C221.546 119.332 222.606 120.446 223.896 120.446H228.82L231.798 122.921C232.014 123.103 232.335 122.936 232.335 122.648V120.446C233.563 120.37 234.546 119.286 234.546 117.97V114.472C234.546 113.111 233.486 111.992 232.196 111.992Z" fill="#D9DCEE"/>
</g>
<g clip-path="url(#clip1_530_537)">
<path d="M232.196 210.485H223.896C222.606 210.485 221.546 211.604 221.546 212.966V216.459C221.546 217.825 222.606 218.939 223.896 218.939H228.82L231.798 221.414C232.014 221.597 232.335 221.43 232.335 221.141V218.939C233.563 218.863 234.546 217.78 234.546 216.464V212.966C234.546 211.604 233.486 210.485 232.196 210.485Z" fill="#D9DCEE"/>
</g>
<g clip-path="url(#clip2_530_537)">
<path d="M232.196 309.145H223.896C222.606 309.145 221.546 310.263 221.546 311.625V315.118C221.546 316.485 222.606 317.598 223.896 317.598H228.82L231.798 320.074C232.014 320.256 232.335 320.089 232.335 319.8V317.598C233.563 317.522 234.546 316.439 234.546 315.123V311.625C234.546 310.263 233.486 309.145 232.196 309.145Z" fill="#D9DCEE"/>
</g>
<g clip-path="url(#clip3_530_537)">
<path d="M17.4621 25.4656C18.7703 24.2636 20.0947 23.0469 21.4298 21.8203C22.7919 23.0715 24.1216 24.2981 25.446 25.5198C26.1351 24.8794 26.7811 24.2784 27.4433 23.6577C26.1405 22.4705 24.8 21.2538 23.4541 20.0272C24.8161 18.7858 26.1512 17.574 27.4702 16.372C26.7919 15.7562 26.1351 15.1651 25.4729 14.5641C24.1808 15.7513 22.8511 16.9779 21.4944 18.2242C20.127 16.9631 18.7919 15.7365 17.4729 14.5198C16.8053 15.1355 16.1593 15.7267 15.5187 16.3178C16.8323 17.5148 18.1728 18.7316 19.524 19.9631C18.1405 21.2291 16.8 22.4459 15.4756 23.6577C16.1539 24.2735 16.8 24.8597 17.4621 25.4656Z" fill="white"/>
</g>
<path d="M245.11 15.2635C246.087 15.186 246.962 15.1602 248.35 15.1602C250.51 15.1602 251.359 15.6769 251.127 17.434C250.973 18.5967 250.536 19.1651 249.43 19.2685V19.3202C250.716 19.4235 251.127 20.2762 250.922 21.6198C250.69 23.2993 249.816 23.7127 247.784 23.7127C246.01 23.7127 245.059 23.7127 243.927 23.6094L245.11 15.2635ZM247.373 22.0849C248.273 22.0849 248.53 21.8782 248.659 20.9997C248.762 20.1987 248.607 20.0178 247.836 20.0178H246.653L246.37 22.0849H247.373ZM247.887 18.5709C248.633 18.5709 248.864 18.39 248.993 17.589C249.07 16.9689 248.916 16.8138 248.299 16.8138H247.142L246.884 18.5967H247.887V18.5709Z" fill="white"/>
<path d="M259.15 20.2761C258.79 22.8858 257.839 23.816 255.344 23.816C252.927 23.816 251.796 22.8341 252.156 20.1986L252.85 15.2634H255.113L254.393 20.2761C254.187 21.6714 254.367 22.059 255.37 22.059C256.399 22.059 256.682 21.6197 256.913 20.1986L257.607 15.2634H259.87L259.15 20.2761Z" fill="white"/>
<path d="M262.621 21.258C262.596 21.6456 262.673 21.8006 263.11 21.8006H265.913L265.861 23.5318C264.781 23.661 263.367 23.661 262.107 23.661C260.924 23.661 260.179 22.8858 260.333 21.7231L261.233 15.2634H263.496L262.621 21.258Z" fill="white"/>
<path d="M271.57 19.4752C271.776 19.6044 272.033 19.9661 272.162 20.2762L273.73 23.6352H271.262L269.77 20.0694H269.256C269.282 20.3537 269.282 20.6379 269.256 20.8963L268.87 23.661H266.582L267.764 15.2893H270.053L269.719 17.6665C269.693 17.9507 269.616 18.2607 269.513 18.545H270.053L272.264 15.2893H274.81L272.367 18.7517C272.136 19.1134 271.827 19.3201 271.57 19.4235V19.4752Z" fill="white"/>
<rect x="15.4702" y="55.6602" width="70" height="70" rx="10" fill="#F5F6FA"/>
<rect x="15.4702" y="154.153" width="70" height="70" rx="10" fill="#F5F6FA"/>
<rect x="15.4702" y="252.813" width="70" height="70" rx="10" fill="#F5F6FA"/>
<rect x="99.4702" y="58.6602" width="179.62" height="11" fill="#E8EAF4"/>
<rect x="99.4702" y="157.153" width="179.62" height="11" fill="#E8EAF4"/>
<rect x="99.4702" y="255.813" width="179.62" height="11" fill="#E8EAF4"/>
<rect x="99.4702" y="77.6602" width="128" height="11" fill="#E8EAF4"/>
<rect x="99.4702" y="176.153" width="128" height="11" fill="#E8EAF4"/>
<rect x="99.4702" y="274.813" width="128" height="11" fill="#E8EAF4"/>
<rect x="99.4702" y="110.66" width="78" height="11" fill="#F5F6FA"/>
<rect x="99.4702" y="209.153" width="78" height="11" fill="#F5F6FA"/>
<rect x="99.4702" y="307.813" width="78" height="11" fill="#F5F6FA"/>
<g clip-path="url(#clip4_530_537)">
<path d="M274.968 118.928C274.968 118.126 274.307 117.492 273.513 117.492H264.067C263.254 117.492 262.612 118.144 262.612 118.928V121.426H274.987V118.928H274.968Z" fill="#D9DCEE"/>
<path d="M268.771 116.28C270.409 116.28 271.737 114.97 271.737 113.353C271.737 111.736 270.409 110.426 268.771 110.426C267.133 110.426 265.805 111.736 265.805 113.353C265.805 114.97 267.133 116.28 268.771 116.28Z" fill="#D9DCEE"/>
</g>
<g clip-path="url(#clip5_530_537)">
<path d="M274.968 217.42C274.968 216.619 274.307 215.985 273.513 215.985H264.067C263.254 215.985 262.612 216.637 262.612 217.42V219.919H274.987V217.42H274.968Z" fill="#D9DCEE"/>
<path d="M268.771 214.773C270.409 214.773 271.737 213.463 271.737 211.846C271.737 210.229 270.409 208.919 268.771 208.919C267.133 208.919 265.805 210.229 265.805 211.846C265.805 213.463 267.133 214.773 268.771 214.773Z" fill="#D9DCEE"/>
</g>
<g clip-path="url(#clip6_530_537)">
<path d="M274.968 316.08C274.968 315.278 274.307 314.645 273.513 314.645H264.067C263.254 314.645 262.612 315.297 262.612 316.08V318.578H274.987V316.08H274.968Z" fill="#D9DCEE"/>
<path d="M268.771 313.433C270.409 313.433 271.737 312.122 271.737 310.506C271.737 308.889 270.409 307.579 268.771 307.579C267.133 307.579 265.805 308.889 265.805 310.506C265.805 312.122 267.133 313.433 268.771 313.433Z" fill="#D9DCEE"/>
</g>
<mask id="mask0_530_537" style="mask-type:alpha" maskUnits="userSpaceOnUse" x="15" y="55" width="71" height="71">
<rect x="15.4756" y="55.6602" width="70" height="70" rx="10" fill="#4D74F5"/>
</mask>
<g mask="url(#mask0_530_537)">
<rect x="34.2134" y="80.9495" width="50.4799" height="50.4799" rx="3" transform="rotate(45 34.2134 80.9495)" fill="#E8EAF4"/>
<rect x="59.2378" y="85.2639" width="50.4799" height="50.4799" rx="3" transform="rotate(45 59.2378 85.2639)" fill="#E8EAF4"/>
<circle cx="75.0974" cy="75.1206" r="6.58344" fill="#E8EAF4"/>
</g>
<mask id="mask1_530_537" style="mask-type:alpha" maskUnits="userSpaceOnUse" x="15" y="155" width="71" height="71">
<rect x="15.4756" y="155.16" width="70" height="70" rx="10" fill="#4D74F5"/>
</mask>
<g mask="url(#mask1_530_537)">
<rect x="34.2134" y="180.449" width="50.4799" height="50.4799" rx="3" transform="rotate(45 34.2134 180.449)" fill="#E8EAF4"/>
<rect x="59.2378" y="184.764" width="50.4799" height="50.4799" rx="3" transform="rotate(45 59.2378 184.764)" fill="#E8EAF4"/>
<circle cx="75.0974" cy="174.621" r="6.58344" fill="#E8EAF4"/>
</g>
<mask id="mask2_530_537" style="mask-type:alpha" maskUnits="userSpaceOnUse" x="15" y="252" width="71" height="71">
<rect x="15.4756" y="252.16" width="70" height="70" rx="10" fill="#4D74F5"/>
</mask>
<g mask="url(#mask2_530_537)">
<rect x="34.2134" y="277.449" width="50.4799" height="50.4799" rx="3" transform="rotate(45 34.2134 277.449)" fill="#E8EAF4"/>
<rect x="59.2378" y="281.764" width="50.4799" height="50.4799" rx="3" transform="rotate(45 59.2378 281.764)" fill="#E8EAF4"/>
<circle cx="75.0974" cy="271.621" r="6.58344" fill="#E8EAF4"/>
</g>
<defs>
<clipPath id="clip0_530_537">
<rect width="13" height="11" fill="white" transform="translate(221.546 111.992)"/>
</clipPath>
<clipPath id="clip1_530_537">
<rect width="13" height="11" fill="white" transform="translate(221.546 210.485)"/>
</clipPath>
<clipPath id="clip2_530_537">
<rect width="13" height="11" fill="white" transform="translate(221.546 309.145)"/>
</clipPath>
<clipPath id="clip3_530_537">
<rect width="12" height="11" fill="white" transform="matrix(-1 0 0 1 27.4702 14.5198)"/>
</clipPath>
<clipPath id="clip4_530_537">
<rect width="12.375" height="11" fill="white" transform="translate(262.593 110.426)"/>
</clipPath>
<clipPath id="clip5_530_537">
<rect width="12.375" height="11" fill="white" transform="translate(262.593 208.919)"/>
</clipPath>
<clipPath id="clip6_530_537">
<rect width="12.375" height="11" fill="white" transform="translate(262.593 307.579)"/>
</clipPath>
</defs>
</svg>
