<svg width="394" height="332" viewBox="0 0 394 332" fill="none" xmlns="http://www.w3.org/2000/svg">
<rect x="0.294922" width="393.5" height="331.947" rx="10" fill="white"/>
<rect x="72.5801" y="63.7778" width="251.92" height="33.9609" rx="4.5" fill="#F5F6FA" stroke="#BEC2D6"/>
<rect x="72.0801" y="158.83" width="294.029" height="11" fill="#E8EAF4"/>
<rect x="172.831" y="20.2866" width="110.974" height="11" fill="#E8EAF4"/>
<rect x="72.0801" y="280.017" width="294.029" height="11" fill="#E8EAF4"/>
<rect x="72.0801" y="196.482" width="294.029" height="11" fill="#E8EAF4"/>
<rect x="72.0801" y="215.482" width="198.967" height="11" fill="#E8EAF4"/>
<rect x="72.0801" y="136.897" width="100.751" height="11" fill="#4D74F5"/>
<rect x="72.0801" y="258.084" width="100.751" height="11" fill="#4D74F5"/>
<rect x="72.0801" y="177.83" width="241.262" height="11" fill="#E8EAF4"/>
<rect x="72.0801" y="299.017" width="241.262" height="11" fill="#E8EAF4"/>
<rect x="298.368" y="136.897" width="67.7408" height="11" fill="#F5F6FA"/>
<rect x="298.368" y="258.084" width="67.7408" height="11" fill="#F5F6FA"/>
<rect x="20.2949" y="135.947" width="40" height="40" rx="5" fill="#E8EAF4"/>
<rect x="20.2949" y="61.2778" width="40" height="40" rx="5" fill="#E8EAF4"/>
<rect x="20.2949" y="257.134" width="40" height="40" rx="5" fill="#E8EAF4"/>
<g clip-path="url(#clip0_541_816)">
<path d="M46.4823 158.448C46.4823 157.647 45.8211 157.013 45.0276 157.013H35.581C34.7686 157.013 34.1262 157.665 34.1262 158.448V160.947H46.5012V158.448H46.4823Z" fill="#BEC2D6"/>
<path d="M40.2856 155.801C41.9238 155.801 43.2518 154.49 43.2518 152.874C43.2518 151.257 41.9238 149.947 40.2856 149.947C38.6474 149.947 37.3193 151.257 37.3193 152.874C37.3193 154.49 38.6474 155.801 40.2856 155.801Z" fill="#BEC2D6"/>
</g>
<g clip-path="url(#clip1_541_816)">
<path d="M46.4823 83.7796C46.4823 82.9779 45.8211 82.344 45.0276 82.344H35.581C34.7686 82.344 34.1262 82.9965 34.1262 83.7796V86.2779H46.5012V83.7796H46.4823Z" fill="#BEC2D6"/>
<path d="M40.2856 81.1321C41.9238 81.1321 43.2518 79.8216 43.2518 78.205C43.2518 76.5883 41.9238 75.2778 40.2856 75.2778C38.6474 75.2778 37.3193 76.5883 37.3193 78.205C37.3193 79.8216 38.6474 81.1321 40.2856 81.1321Z" fill="#BEC2D6"/>
</g>
<g clip-path="url(#clip2_541_816)">
<path d="M46.4823 279.635C46.4823 278.834 45.8211 278.2 45.0276 278.2H35.581C34.7686 278.2 34.1262 278.852 34.1262 279.635V282.134H46.5012V279.635H46.4823Z" fill="#BEC2D6"/>
<path d="M40.2856 276.988C41.9238 276.988 43.2518 275.678 43.2518 274.061C43.2518 272.444 41.9238 271.134 40.2856 271.134C38.6474 271.134 37.3193 272.444 37.3193 274.061C37.3193 275.678 38.6474 276.988 40.2856 276.988Z" fill="#BEC2D6"/>
</g>
<path d="M363.777 43.4045H334.44C333.158 43.4045 332.109 42.3519 332.109 41.0654V11.632C332.109 10.3456 333.158 9.29297 334.44 9.29297H363.777C365.06 9.29297 366.109 10.3456 366.109 11.632V41.0654C366.109 42.3519 365.06 43.4045 363.777 43.4045Z" fill="#F71514"/>
<path d="M338.637 13.9517C339.375 13.8933 340.036 13.8738 341.085 13.8738C342.717 13.8738 343.358 14.2636 343.183 15.5891C343.067 16.4663 342.736 16.8951 341.901 16.9731V17.012C342.872 17.09 343.183 17.7333 343.028 18.7469C342.853 20.0139 342.192 20.3257 340.657 20.3257C339.317 20.3257 338.598 20.3257 337.743 20.2478L338.637 13.9517ZM340.347 19.0977C341.027 19.0977 341.221 18.9418 341.318 18.279C341.396 17.6748 341.279 17.5383 340.696 17.5383H339.803L339.589 19.0977H340.347ZM340.735 16.4468C341.299 16.4468 341.473 16.3103 341.571 15.7061C341.629 15.2382 341.512 15.1213 341.046 15.1213H340.172L339.977 16.4663H340.735V16.4468Z" fill="white"/>
<path d="M349.245 17.7332C348.973 19.7019 348.254 20.4036 346.369 20.4036C344.543 20.4036 343.688 19.6629 343.96 17.6747L344.485 13.9517H346.194L345.65 17.7332C345.495 18.7857 345.631 19.0781 346.389 19.0781C347.166 19.0781 347.38 18.7468 347.554 17.6747L348.079 13.9517H349.789L349.245 17.7332Z" fill="white"/>
<path d="M351.868 18.4739C351.848 18.7663 351.907 18.8832 352.237 18.8832H354.355L354.316 20.1892C353.5 20.2867 352.431 20.2867 351.479 20.2867C350.586 20.2867 350.022 19.7019 350.139 18.8247L350.819 13.9517H352.528L351.868 18.4739Z" fill="white"/>
<path d="M358.629 17.1289C358.784 17.2264 358.979 17.4993 359.076 17.7332L360.261 20.2672H358.396L357.269 17.5773H356.88C356.9 17.7917 356.9 18.0061 356.88 18.201L356.589 20.2867H354.86L355.754 13.9712H357.483L357.23 15.7645C357.211 15.9789 357.152 16.2128 357.075 16.4272H357.483L359.154 13.9712H361.077L359.231 16.5832C359.056 16.856 358.823 17.012 358.629 17.09V17.1289Z" fill="white"/>
<path d="M340.638 24.3022C340.269 24.3022 340.152 24.3997 340.094 24.7311L339.977 25.6082H342.27L342.115 26.7778H339.822L339.472 29.3118H337.743L338.443 24.3022C338.559 23.4641 339.161 22.9573 339.997 22.9573C341.046 22.9573 342.153 22.9573 342.969 23.0742L342.795 24.3022H340.638Z" fill="white"/>
<path d="M345.67 24.3023C345.34 24.3023 345.223 24.3997 345.184 24.7311L345.068 25.4718H347.438L347.283 26.6414H344.912L344.776 27.5965C344.738 27.8889 344.835 28.0058 345.146 28.0058H347.399L347.36 29.2533C346.506 29.3508 345.379 29.3508 344.446 29.3508C343.397 29.3508 342.911 28.688 343.047 27.7329L343.514 24.3023C343.63 23.4836 344.174 22.9768 345.087 22.9768C346.136 22.9768 347.302 22.9768 348.138 23.0938L347.943 24.3218H345.67V24.3023Z" fill="white"/>
<path d="M350.955 24.3023C350.625 24.3023 350.508 24.3997 350.469 24.7311L350.372 25.4718H352.742L352.587 26.6414H350.197L350.061 27.5965C350.022 27.8889 350.119 28.0058 350.43 28.0058H352.684L352.645 29.2533C351.79 29.3508 350.663 29.3508 349.731 29.3508C348.682 29.3508 348.196 28.688 348.332 27.7329L348.798 24.3023C348.915 23.4836 349.459 22.9768 350.372 22.9768C351.421 22.9768 352.587 22.9768 353.422 23.0938L353.228 24.3218H350.955V24.3023Z" fill="white"/>
<path d="M354.335 22.9766C355.015 22.9181 355.928 22.8792 356.744 22.8792C358.784 22.8792 359.62 23.6199 359.27 26.1928C358.901 28.8048 358.143 29.3701 356.064 29.3701C355.112 29.3701 354.238 29.3311 353.441 29.2726L354.335 22.9766ZM356.045 28.1031C356.88 28.1031 357.249 27.8107 357.483 26.0759C357.696 24.497 357.56 24.1656 356.705 24.1656H355.889L355.345 28.0641L356.045 28.1031Z" fill="white"/>
<path d="M338.637 32.0211C339.375 31.9626 340.036 31.9431 341.085 31.9431C342.717 31.9431 343.358 32.333 343.183 33.6584C343.067 34.5356 342.736 34.9644 341.901 35.0424V35.0814C342.872 35.1593 343.183 35.8026 343.028 36.8162C342.853 38.0832 342.192 38.3951 340.657 38.3951C339.317 38.3951 338.598 38.3951 337.743 38.3171L338.637 32.0211ZM340.347 37.1671C341.027 37.1671 341.221 37.0111 341.318 36.3484C341.396 35.7441 341.279 35.6077 340.696 35.6077H339.803L339.589 37.1671H340.347ZM340.735 34.5161C341.299 34.5161 341.473 34.3797 341.571 33.7754C341.629 33.3076 341.512 33.1906 341.046 33.1906H340.172L339.977 34.5356H340.735V34.5161Z" fill="white"/>
<path d="M345.437 36.8553L344.854 38.3367H343.066L345.592 32.4306C345.709 32.1577 345.922 32.0212 346.194 32.0212H347.768C348.06 32.0212 348.293 32.2357 348.312 32.4891L349.206 38.3173H347.496L347.341 36.8358H345.437V36.8553ZM347.069 33.951C347.049 33.7366 347.049 33.5027 347.049 33.2882H346.777C346.738 33.4832 346.661 33.7171 346.583 33.9315L345.942 35.5493H347.224L347.069 33.951Z" fill="white"/>
<path d="M354.374 38.1613C353.733 38.3562 353.169 38.4342 352.276 38.4342C350.255 38.4342 349.556 37.5376 349.886 35.101C350.236 32.606 350.974 31.9043 353.014 31.9043C353.927 31.9043 354.413 31.9823 354.996 32.1382L354.801 33.3857C354.16 33.3662 353.752 33.3662 352.936 33.3662C352.178 33.3662 351.887 33.6001 351.693 35.2375C351.498 36.6214 351.576 36.9723 352.353 36.9723C353.247 36.9723 353.752 36.9528 354.316 36.8943L354.374 38.1613Z" fill="white"/>
<path d="M358.784 35.1983C358.94 35.2957 359.134 35.5686 359.231 35.8025L360.416 38.3365H358.551L357.424 35.6466H357.036C357.055 35.861 357.055 36.0754 357.036 36.2704L356.744 38.356H355.035L355.928 32.0405H357.658L357.405 33.8338C357.386 34.0482 357.327 34.2821 357.25 34.4966H357.658L359.328 32.0405H361.252L359.406 34.6525C359.231 34.9254 358.998 35.0813 358.804 35.1593L358.784 35.1983Z" fill="white"/>
<rect x="332.109" y="63.2778" width="33.9997" height="34.9609" rx="5" fill="#4D74F5"/>
<path d="M347.934 81.1885C347.171 82.2875 346.424 83.3678 345.672 84.4482C345.128 85.2287 344.579 86.0093 344.04 86.7899C343.786 87.1583 343.878 87.5767 344.243 87.6516C344.376 87.6829 344.544 87.6204 344.677 87.5517C346.604 86.6026 348.524 85.6409 350.445 84.6855C352.401 83.7113 354.356 82.7371 356.312 81.7567C356.393 81.7193 356.491 81.6943 356.543 81.6319C356.653 81.5007 356.815 81.3384 356.81 81.201C356.804 81.0449 356.665 80.8263 356.532 80.7514C356.034 80.4641 355.508 80.2206 354.993 79.9645C351.568 78.2598 348.143 76.555 344.717 74.8502C344.636 74.8127 344.555 74.7441 344.48 74.7503C344.33 74.7628 344.127 74.7565 344.04 74.8565C343.942 74.9689 343.925 75.1812 343.925 75.356C343.925 75.4622 344.023 75.5746 344.093 75.6745C345.371 77.4979 346.644 79.3276 347.934 81.1885Z" fill="white"/>
<path d="M26.0884 29.2402V19.3002H28.0064V23.3042H28.9864L31.9404 19.3002H34.0964L30.4844 24.1162L34.3764 29.2402H32.0384L28.9584 25.0542H28.0064V29.2402H26.0884ZM38.4266 29.3802C37.6239 29.3802 36.9332 29.2076 36.3546 28.8622C35.7852 28.5076 35.3466 28.0409 35.0386 27.4622C34.7306 26.8836 34.5766 26.2582 34.5766 25.5862C34.5766 24.9049 34.7306 24.2749 35.0386 23.6962C35.3559 23.1176 35.7992 22.6556 36.3686 22.3102C36.9472 21.9556 37.6332 21.7782 38.4266 21.7782C39.2199 21.7782 39.9012 21.9556 40.4706 22.3102C41.0492 22.6556 41.4926 23.1176 41.8006 23.6962C42.1086 24.2749 42.2626 24.9049 42.2626 25.5862C42.2626 26.2582 42.1086 26.8836 41.8006 27.4622C41.4926 28.0409 41.0492 28.5076 40.4706 28.8622C39.9012 29.2076 39.2199 29.3802 38.4266 29.3802ZM36.5086 25.5862C36.5086 26.0156 36.5926 26.3982 36.7606 26.7342C36.9286 27.0609 37.1572 27.3176 37.4466 27.5042C37.7359 27.6909 38.0626 27.7842 38.4266 27.7842C38.7812 27.7842 39.1032 27.6909 39.3926 27.5042C39.6819 27.3082 39.9106 27.0469 40.0786 26.7202C40.2559 26.3842 40.3446 26.0016 40.3446 25.5722C40.3446 25.1522 40.2559 24.7789 40.0786 24.4522C39.9106 24.1162 39.6819 23.8549 39.3926 23.6682C39.1032 23.4722 38.7812 23.3742 38.4266 23.3742C38.0626 23.3742 37.7359 23.4722 37.4466 23.6682C37.1572 23.8549 36.9286 24.1162 36.7606 24.4522C36.5926 24.7789 36.5086 25.1569 36.5086 25.5862ZM43.5288 29.2402V21.9042H45.4888L47.7848 26.1462L50.0948 21.9042H52.0268V29.2402H50.2488V24.4942L48.3728 27.9382H47.1968L45.3068 24.4942V29.2402H43.5288ZM53.7554 29.2402V21.9042H55.7154L58.0114 26.1462L60.3214 21.9042H62.2534V29.2402H60.4754V24.4942L58.5994 27.9382H57.4234L55.5334 24.4942V29.2402H53.7554ZM67.3839 29.3802C66.5906 29.3802 65.9046 29.2076 65.3259 28.8622C64.7566 28.5169 64.3133 28.0596 63.9959 27.4902C63.6786 26.9116 63.5199 26.2862 63.5199 25.6142C63.5199 24.9236 63.6739 24.2889 63.9819 23.7102C64.2993 23.1222 64.7473 22.6556 65.3259 22.3102C65.9046 21.9556 66.5953 21.7782 67.3979 21.7782C68.2006 21.7782 68.8866 21.9556 69.4559 22.3102C70.0253 22.6556 70.4593 23.1176 70.7579 23.6962C71.0659 24.2656 71.2199 24.8816 71.2199 25.5442C71.2199 25.7869 71.2059 25.9969 71.1779 26.1742H65.5079C65.5546 26.7436 65.7646 27.1916 66.1379 27.5182C66.5206 27.8449 66.9593 28.0082 67.4539 28.0082C67.8273 28.0082 68.1773 27.9196 68.5039 27.7422C68.8399 27.5556 69.0686 27.3129 69.1899 27.0142L70.7999 27.4622C70.5293 28.0222 70.0953 28.4842 69.4979 28.8482C68.9006 29.2029 68.1959 29.3802 67.3839 29.3802ZM65.4659 24.9842H69.3019C69.2459 24.4336 69.0359 23.9902 68.6719 23.6542C68.3173 23.3089 67.8833 23.1362 67.3699 23.1362C66.8659 23.1362 66.4319 23.3089 66.0679 23.6542C65.7133 23.9902 65.5126 24.4336 65.4659 24.9842ZM72.3628 29.2402V21.9042H74.2388V24.7042H77.2068V21.9042H79.0828V29.2402H77.2068V26.2722H74.2388V29.2402H72.3628ZM82.4923 29.2402V23.5422H80.1683V21.9042H86.7063V23.5422H84.3683V29.2402H82.4923ZM87.226 27.0702C87.226 26.5942 87.3566 26.1789 87.618 25.8242C87.8886 25.4602 88.262 25.1802 88.738 24.9842C89.214 24.7882 89.76 24.6902 90.376 24.6902C90.684 24.6902 90.9966 24.7182 91.314 24.7742C91.6313 24.8209 91.9066 24.8909 92.14 24.9842V24.5922C92.14 24.1256 92 23.7662 91.72 23.5142C91.4493 23.2622 91.0433 23.1362 90.502 23.1362C90.1006 23.1362 89.718 23.2062 89.354 23.3462C88.99 23.4862 88.6073 23.6916 88.206 23.9622L87.604 22.7302C88.0893 22.4129 88.584 22.1749 89.088 22.0162C89.6013 21.8576 90.138 21.7782 90.698 21.7782C91.7433 21.7782 92.5553 22.0396 93.134 22.5622C93.722 23.0849 94.016 23.8316 94.016 24.8022V27.1402C94.016 27.3456 94.0486 27.4902 94.114 27.5742C94.1793 27.6489 94.296 27.6956 94.464 27.7142V29.2402C94.296 29.2776 94.142 29.3009 94.002 29.3102C93.8713 29.3289 93.7593 29.3382 93.666 29.3382C93.2926 29.3382 93.008 29.2542 92.812 29.0862C92.616 28.9182 92.4993 28.7129 92.462 28.4702L92.42 28.0922C92.0933 28.5122 91.692 28.8342 91.216 29.0582C90.7493 29.2729 90.2686 29.3802 89.774 29.3802C89.2793 29.3802 88.8406 29.2822 88.458 29.0862C88.0753 28.8809 87.772 28.6056 87.548 28.2602C87.3333 27.9056 87.226 27.5089 87.226 27.0702ZM91.79 27.4482C92.0233 27.2242 92.14 27.0096 92.14 26.8042V26.0622C91.6546 25.8662 91.1646 25.7682 90.67 25.7682C90.1753 25.7682 89.774 25.8756 89.466 26.0902C89.158 26.2956 89.004 26.5709 89.004 26.9162C89.004 27.1962 89.116 27.4482 89.34 27.6722C89.564 27.8962 89.886 28.0082 90.306 28.0082C90.586 28.0082 90.8566 27.9569 91.118 27.8542C91.3886 27.7516 91.6126 27.6162 91.79 27.4482ZM100.165 29.3802C99.5864 29.3802 99.0824 29.2496 98.653 28.9882C98.2237 28.7269 97.8877 28.3816 97.645 27.9522V32.2222H95.769V21.9042H97.407V23.1642C97.6777 22.7349 98.0277 22.3989 98.457 22.1562C98.8957 21.9042 99.3904 21.7782 99.941 21.7782C100.604 21.7782 101.192 21.9509 101.705 22.2962C102.218 22.6322 102.624 23.0896 102.923 23.6682C103.222 24.2376 103.371 24.8676 103.371 25.5582C103.371 26.2769 103.231 26.9256 102.951 27.5042C102.68 28.0736 102.302 28.5309 101.817 28.8762C101.341 29.2122 100.79 29.3802 100.165 29.3802ZM99.535 27.7842C99.9177 27.7842 100.249 27.6816 100.529 27.4762C100.818 27.2616 101.042 26.9862 101.201 26.6502C101.369 26.3049 101.453 25.9409 101.453 25.5582C101.453 25.1476 101.364 24.7789 101.187 24.4522C101.01 24.1162 100.767 23.8549 100.459 23.6682C100.16 23.4722 99.815 23.3742 99.423 23.3742C99.0684 23.3742 98.7137 23.4909 98.359 23.7242C98.0044 23.9576 97.7664 24.2516 97.645 24.6062V26.3282C97.813 26.7389 98.0697 27.0842 98.415 27.3642C98.7604 27.6442 99.1337 27.7842 99.535 27.7842ZM104.642 29.2402V21.9182H106.518V26.7342L109.808 21.9042H111.516V29.2402H109.64V24.5362L106.392 29.2402H104.642ZM113.228 29.2402V21.9182H115.104V26.7342L118.394 21.9042H120.102V29.2402H118.226V24.5362L114.978 29.2402H113.228Z" fill="#4D74F5"/>
<line y1="240.374" x2="394" y2="240.374" stroke="#E8EAF4"/>
<line y1="116.374" x2="394" y2="116.374" stroke="#E8EAF4"/>
<line y1="50.3738" x2="394" y2="50.3738" stroke="#E8EAF4"/>
<path d="M330.113 224.436H331.389C331.882 224.436 332.282 224.036 332.282 223.543V217.673C332.282 217.18 331.882 216.78 331.389 216.78H330.113C329.62 216.78 329.22 217.18 329.22 217.673V223.543C329.22 224.036 329.62 224.436 330.113 224.436Z" fill="#4D74F5"/>
<path d="M335.744 213.079C335.233 213.079 334.978 213.334 334.978 214.61C334.978 215.823 333.803 216.799 333.048 217.302V223.625C333.865 224.004 335.501 224.564 338.041 224.564H338.857C339.853 224.564 340.7 223.85 340.868 222.869L341.44 219.552C341.654 218.301 340.695 217.163 339.429 217.163H337.02C337.02 217.163 337.402 216.397 337.402 215.121C337.402 213.59 336.254 213.079 335.744 213.079V213.079Z" fill="#4D74F5"/>
<path d="M330.113 308.491H331.389C331.882 308.491 332.282 308.09 332.282 307.598V301.728C332.282 301.235 331.882 300.834 331.389 300.834H330.113C329.62 300.834 329.22 301.235 329.22 301.728V307.598C329.22 308.09 329.62 308.491 330.113 308.491Z" fill="#B0B5D1"/>
<path d="M335.744 297.134C335.233 297.134 334.978 297.389 334.978 298.665C334.978 299.878 333.803 300.854 333.048 301.357V307.68C333.865 308.058 335.501 308.619 338.041 308.619H338.857C339.853 308.619 340.7 307.904 340.868 306.924L341.44 303.606C341.654 302.356 340.695 301.217 339.429 301.217H337.02C337.02 301.217 337.402 300.452 337.402 299.176C337.402 297.644 336.254 297.134 335.744 297.134V297.134Z" fill="#B0B5D1"/>
<path d="M362.85 216.776L361.574 216.776C361.081 216.776 360.68 217.177 360.68 217.67L360.68 223.54C360.68 224.032 361.081 224.433 361.574 224.433L362.85 224.433C363.342 224.433 363.743 224.032 363.743 223.54L363.743 217.67C363.743 217.177 363.342 216.776 362.85 216.776Z" fill="#BEC2D6"/>
<path d="M357.219 228.134C357.73 228.134 357.985 227.879 357.985 226.602C357.985 225.39 359.16 224.414 359.915 223.911L359.915 217.587C359.098 217.209 357.462 216.649 354.922 216.649L354.106 216.649C353.11 216.649 352.263 217.363 352.094 218.343L351.523 221.661C351.308 222.912 352.268 224.05 353.534 224.05L355.943 224.05C355.943 224.05 355.56 224.816 355.56 226.092C355.56 227.623 356.709 228.134 357.219 228.134V228.134Z" fill="#BEC2D6"/>
<path d="M362.85 300.831L361.574 300.831C361.081 300.831 360.68 301.232 360.68 301.724L360.68 307.595C360.68 308.087 361.081 308.488 361.574 308.488L362.85 308.488C363.342 308.488 363.743 308.087 363.743 307.595L363.743 301.724C363.743 301.232 363.342 300.831 362.85 300.831Z" fill="#4D74F5"/>
<path d="M357.219 312.188C357.73 312.188 357.985 311.933 357.985 310.657C357.985 309.444 359.16 308.468 359.915 307.966L359.915 301.642C359.098 301.264 357.462 300.703 354.922 300.703L354.106 300.703C353.11 300.703 352.263 301.418 352.094 302.398L351.523 305.716C351.308 306.967 352.268 308.105 353.534 308.105L355.943 308.105C355.943 308.105 355.56 308.871 355.56 310.147C355.56 311.678 356.709 312.188 357.219 312.188V312.188Z" fill="#4D74F5"/>
<defs>
<clipPath id="clip0_541_816">
<rect width="12.375" height="11" fill="white" transform="translate(34.1074 149.947)"/>
</clipPath>
<clipPath id="clip1_541_816">
<rect width="12.375" height="11" fill="white" transform="translate(34.1074 75.2778)"/>
</clipPath>
<clipPath id="clip2_541_816">
<rect width="12.375" height="11" fill="white" transform="translate(34.1074 271.134)"/>
</clipPath>
</defs>
</svg>
