<svg width="12" height="13" viewBox="0 0 12 13" fill="none" xmlns="http://www.w3.org/2000/svg">
<path d="M6.25997 6.17172C6.42563 7.29962 6.59116 8.40577 6.7531 9.5153C6.86986 10.3172 6.98302 11.1225 7.10337 11.921C7.15981 12.2983 7.46107 12.5044 7.73124 12.3386C7.83213 12.2805 7.90002 12.1439 7.9427 12.0237C8.58704 10.3114 9.22051 8.5948 9.85762 6.88204C10.5054 5.13741 11.1531 3.39278 11.7973 1.64426C11.8258 1.57379 11.8724 1.50097 11.8683 1.43183C11.8603 1.28629 11.8663 1.09102 11.7827 1.00902C11.6882 0.915374 11.4746 0.860446 11.3482 0.891402C10.8717 1.00276 10.4026 1.15814 9.93344 1.29902C6.81177 2.23499 3.6901 3.17095 0.568434 4.10692C0.49627 4.13083 0.405917 4.13533 0.362814 4.18303C0.276607 4.27842 0.147126 4.39251 0.1514 4.50516C0.155758 4.63231 0.26866 4.77437 0.37052 4.88302C0.432364 4.94899 0.558969 4.96155 0.660321 4.98319C2.51718 5.37143 4.37409 5.76693 6.25997 6.17172Z" fill="black"/>
</svg>
