<svg width="15" height="15" viewBox="0 0 15 15" fill="none" xmlns="http://www.w3.org/2000/svg">
<path d="M8.86163 2.72202L1.15119 10.433C1.1124 10.4719 1.08439 10.521 1.07105 10.5738L0.216421 14.0041C0.190857 14.1074 0.221201 14.2172 0.29656 14.2926C0.35358 14.3496 0.431273 14.3812 0.510745 14.3812C0.535087 14.3812 0.559985 14.3782 0.584215 14.372L4.01451 13.5173C4.06798 13.504 4.11655 13.4761 4.15534 13.4373L11.8665 5.72683L8.86163 2.72202Z" fill="black"/>
<path d="M13.7767 1.67064L12.9184 0.812348C12.3447 0.238705 11.3449 0.239261 10.772 0.812348L9.72061 1.86371L12.7253 4.86842L13.7767 3.81705C14.0632 3.53062 14.221 3.14938 14.221 2.7439C14.221 2.33843 14.0632 1.95719 13.7767 1.67064Z" fill="black"/>
</svg>
