<svg width="19" height="18" viewBox="0 0 19 18" fill="none" xmlns="http://www.w3.org/2000/svg">
<path d="M16.6006 11.8149C15.4986 11.8149 14.4165 11.6426 13.3911 11.3037C12.8887 11.1323 12.271 11.2896 11.9643 11.6045L9.94042 13.1324C7.59325 11.8794 6.14744 10.4341 4.91162 8.10455L6.39451 6.13336C6.77978 5.74861 6.91797 5.18658 6.75241 4.65923C6.41209 3.62845 6.23922 2.54691 6.23922 1.44441C6.23927 0.647953 5.59131 0 4.79491 0H1.48928C0.692875 0 0.0449219 0.647953 0.0449219 1.44436C0.0449219 10.5733 7.4717 18 16.6006 18C17.397 18 18.045 17.352 18.045 16.5556V13.2593C18.0449 12.4629 17.397 11.8149 16.6006 11.8149Z" fill="#4D74F5"/>
</svg>
