<svg width="394" height="332" viewBox="0 0 394 332" fill="none" xmlns="http://www.w3.org/2000/svg">
<rect x="0.00585938" width="393.5" height="331.947" rx="10" fill="white"/>
<path d="M10.0059 9.13428H383.006V78.9468C383.006 84.4696 378.529 88.9468 373.006 88.9468H20.0059C14.483 88.9468 10.0059 84.4696 10.0059 78.9468V9.13428Z" fill="#F5F6FA"/>
<rect x="61.791" y="160.83" width="318.715" height="11" fill="#E8EAF4"/>
<rect x="61.791" y="198.482" width="318.715" height="11" fill="#E8EAF4"/>
<rect x="61.791" y="217.482" width="198.967" height="11" fill="#E8EAF4"/>
<rect x="61.791" y="118.897" width="100.751" height="11" fill="#4D74F5"/>
<rect x="82.0059" y="60.9468" width="29" height="11" fill="#E8EAF4"/>
<rect x="61.791" y="179.83" width="241.262" height="11" fill="#E8EAF4"/>
<rect x="307.078" y="118.897" width="73.4283" height="11" fill="#F5F6FA"/>
<rect x="61.791" y="242.947" width="70" height="70" rx="10" fill="#F5F6FA"/>
<mask id="mask0_541_880" style="mask-type:alpha" maskUnits="userSpaceOnUse" x="61" y="242" width="71" height="71">
<rect x="61.7964" y="242.947" width="70" height="70" rx="10" fill="#4D74F5"/>
</mask>
<g mask="url(#mask0_541_880)">
<rect x="80.5342" y="268.236" width="50.4799" height="50.4799" rx="3" transform="rotate(45 80.5342 268.236)" fill="#E8EAF4"/>
<rect x="105.559" y="272.551" width="50.4799" height="50.4799" rx="3" transform="rotate(45 105.559 272.551)" fill="#E8EAF4"/>
<circle cx="121.418" cy="262.407" r="6.58344" fill="#E8EAF4"/>
</g>
<rect x="138.843" y="242.947" width="70" height="70" rx="10" fill="#F5F6FA"/>
<mask id="mask1_541_880" style="mask-type:alpha" maskUnits="userSpaceOnUse" x="138" y="242" width="71" height="71">
<rect x="138.848" y="242.947" width="70" height="70" rx="10" fill="#4D74F5"/>
</mask>
<g mask="url(#mask1_541_880)">
<rect x="157.586" y="268.236" width="50.4799" height="50.4799" rx="3" transform="rotate(45 157.586 268.236)" fill="#E8EAF4"/>
<rect x="182.61" y="272.551" width="50.4799" height="50.4799" rx="3" transform="rotate(45 182.61 272.551)" fill="#E8EAF4"/>
<circle cx="198.47" cy="262.407" r="6.58344" fill="#E8EAF4"/>
</g>
<path d="M22.1348 48.9204L23.873 34.3892H40.4941V39.5063H29.2246L28.5801 45.1509C29.0488 44.8774 29.6608 44.6366 30.416 44.4282C31.1842 44.2199 31.9329 44.1157 32.6621 44.1157C35.4876 44.1157 37.6556 44.9556 39.166 46.6353C40.6895 48.3019 41.4512 50.6457 41.4512 53.6665C41.4512 55.4894 41.041 57.1431 40.2207 58.6274C39.4134 60.0988 38.2741 61.2316 36.8027 62.0259C35.3314 62.8201 33.5931 63.2173 31.5879 63.2173C29.804 63.2173 28.1309 62.8527 26.5684 62.1235C25.0059 61.3813 23.7819 60.3722 22.8965 59.0962C22.0111 57.8071 21.5749 56.3553 21.5879 54.7407H28.1895C28.2546 55.7824 28.5866 56.6092 29.1855 57.2212C29.7845 57.8332 30.5723 58.1392 31.5488 58.1392C33.7624 58.1392 34.8691 56.4985 34.8691 53.2173C34.8691 50.1834 33.515 48.6665 30.8066 48.6665C29.2702 48.6665 28.1243 49.1613 27.3691 50.1509L22.1348 48.9204ZM47.0879 56.4399C48.1296 56.4399 48.9954 56.7524 49.6855 57.3774C50.3757 57.9894 50.7207 58.7772 50.7207 59.7407C50.7207 60.7043 50.3757 61.4985 49.6855 62.1235C48.9954 62.7355 48.1296 63.0415 47.0879 63.0415C46.0332 63.0415 45.1608 62.729 44.4707 62.104C43.7936 61.479 43.4551 60.6912 43.4551 59.7407C43.4551 58.7902 43.7936 58.0024 44.4707 57.3774C45.1608 56.7524 46.0332 56.4399 47.0879 56.4399ZM72.7637 51.2056C72.7637 55.0467 71.8978 58.009 70.166 60.0923C68.4473 62.1756 66.0189 63.2173 62.8809 63.2173C59.7168 63.2173 57.2689 62.1691 55.5371 60.0728C53.8053 57.9764 52.9395 55.0207 52.9395 51.2056V46.0103C52.9395 42.1691 53.7988 39.2069 55.5176 37.1235C57.2493 35.0402 59.6908 33.9985 62.8418 33.9985C65.9928 33.9985 68.4342 35.0467 70.166 37.1431C71.8978 39.2394 72.7637 42.2017 72.7637 46.0298V51.2056ZM66.1816 45.1704C66.1816 43.1261 65.9147 41.6027 65.3809 40.6001C64.847 39.5845 64.0007 39.0767 62.8418 39.0767C61.709 39.0767 60.8822 39.5454 60.3613 40.4829C59.8535 41.4204 59.5801 42.8397 59.541 44.7407V52.0063C59.541 54.1287 59.8079 55.6847 60.3418 56.6743C60.8757 57.6509 61.722 58.1392 62.8809 58.1392C64.0007 58.1392 64.8275 57.6639 65.3613 56.7134C65.8952 55.7498 66.1686 54.2459 66.1816 52.2017V45.1704Z" fill="#4D74F5"/>
<path d="M104.434 53.2944C104.084 53.1379 103.721 53.0075 103.397 52.8119C101.258 51.5469 99.132 50.2819 97.006 48.9777C96.6171 48.743 96.3319 48.756 95.9559 48.9777C93.778 50.3079 91.5872 51.6121 89.4093 52.9162C88.8389 53.2553 88.2296 53.3727 87.6463 52.9684C87.0499 52.5511 86.8555 51.9772 87.0111 51.26C87.1148 50.7905 87.1925 50.321 87.2963 49.8645C87.7759 47.7518 88.2426 45.6521 88.7482 43.5525C88.8389 43.1873 88.7611 42.9917 88.5148 42.77C86.6221 41.1137 84.7554 39.4444 82.8627 37.8012C82.2793 37.3056 81.8515 36.7579 82.059 35.9623C82.2664 35.1277 82.8757 34.8277 83.7053 34.7625C86.2332 34.5408 88.7741 34.267 91.302 34.0452C91.6909 34.0061 91.8465 33.8627 91.9891 33.5366C92.8965 31.3065 93.8558 29.0765 94.8022 26.8594C94.854 26.742 94.9059 26.6116 94.9577 26.4942C95.2559 25.8161 95.6707 25.2944 96.4874 25.2944C97.3041 25.2944 97.7319 25.8161 98.0171 26.4942C98.5875 27.8245 99.1579 29.1677 99.7283 30.498C100.169 31.5282 100.584 32.5716 101.051 33.6018C101.141 33.7975 101.414 34.0061 101.634 34.0322C104.227 34.3061 106.819 34.5669 109.425 34.8017C110.177 34.8669 110.696 35.2059 110.929 35.9232C111.162 36.6405 110.838 37.2013 110.32 37.6577C108.518 39.2488 106.729 40.8529 104.901 42.4048C104.33 42.8874 104.136 43.3177 104.343 44.0872C104.94 46.3825 105.432 48.7169 105.938 51.0252C106.21 52.3163 105.575 53.2553 104.434 53.2944Z" fill="#FFD200"/>
<path d="M72.2494 149.679C72.0863 149.606 71.9171 149.545 71.7661 149.454C70.7691 148.865 69.7783 148.275 68.7874 147.667C68.6062 147.558 68.4732 147.564 68.298 147.667C67.283 148.287 66.2619 148.895 65.2469 149.503C64.981 149.661 64.6971 149.716 64.4252 149.527C64.1473 149.333 64.0566 149.065 64.1291 148.731C64.1775 148.512 64.2137 148.293 64.2621 148.081C64.4856 147.096 64.7031 146.117 64.9387 145.139C64.981 144.969 64.9448 144.877 64.83 144.774C63.9479 144.002 63.0778 143.224 62.1957 142.458C61.9238 142.227 61.7245 141.972 61.8211 141.601C61.9178 141.212 62.2018 141.073 62.5885 141.042C63.7666 140.939 64.9508 140.811 66.129 140.708C66.3102 140.69 66.3827 140.623 66.4492 140.471C66.8721 139.431 67.3192 138.392 67.7603 137.359C67.7845 137.304 67.8086 137.243 67.8328 137.189C67.9718 136.873 68.1651 136.629 68.5457 136.629C68.9264 136.629 69.1258 136.873 69.2587 137.189C69.5245 137.809 69.7904 138.435 70.0562 139.055C70.2616 139.535 70.455 140.021 70.6725 140.501C70.7148 140.592 70.8416 140.69 70.9444 140.702C72.1527 140.829 73.3611 140.951 74.5755 141.06C74.9259 141.091 75.1676 141.249 75.2764 141.583C75.3851 141.917 75.2341 142.179 74.9924 142.391C74.1526 143.133 73.3188 143.881 72.4669 144.604C72.2011 144.829 72.1104 145.029 72.2071 145.388C72.485 146.458 72.7146 147.546 72.9503 148.622C73.0771 149.223 72.7811 149.661 72.2494 149.679Z" fill="#B0B5D1"/>
<path d="M87.7655 149.679C87.6024 149.606 87.4332 149.545 87.2822 149.454C86.2853 148.865 85.2944 148.275 84.3035 147.667C84.1223 147.558 83.9893 147.564 83.8141 147.667C82.7991 148.287 81.778 148.895 80.763 149.503C80.4971 149.661 80.2132 149.716 79.9413 149.527C79.6634 149.333 79.5727 149.065 79.6452 148.731C79.6936 148.512 79.7298 148.293 79.7782 148.081C80.0017 147.096 80.2192 146.117 80.4549 145.139C80.4971 144.969 80.4609 144.877 80.3461 144.774C79.464 144.002 78.594 143.224 77.7118 142.458C77.44 142.227 77.2406 141.972 77.3373 141.601C77.4339 141.212 77.7179 141.073 78.1046 141.042C79.2827 140.939 80.4669 140.811 81.6451 140.708C81.8264 140.69 81.8989 140.623 81.9653 140.471C82.3883 139.431 82.8354 138.392 83.2764 137.359C83.3006 137.304 83.3247 137.243 83.3489 137.189C83.4879 136.873 83.6812 136.629 84.0618 136.629C84.4425 136.629 84.6419 136.873 84.7748 137.189C85.0406 137.809 85.3065 138.435 85.5723 139.055C85.7777 139.535 85.9711 140.021 86.1886 140.501C86.2309 140.592 86.3578 140.69 86.4605 140.702C87.6688 140.829 88.8772 140.951 90.0916 141.06C90.4421 141.091 90.6837 141.249 90.7925 141.583C90.9012 141.917 90.7502 142.179 90.5085 142.391C89.6687 143.133 88.8349 143.881 87.983 144.604C87.7172 144.829 87.6266 145.029 87.7232 145.388C88.0011 146.458 88.2307 147.546 88.4664 148.622C88.5932 149.223 88.2972 149.661 87.7655 149.679Z" fill="#B0B5D1"/>
<path d="M103.281 149.679C103.118 149.606 102.949 149.545 102.798 149.454C101.801 148.865 100.81 148.275 99.8191 147.667C99.6379 147.558 99.505 147.564 99.3298 147.667C98.3147 148.287 97.2936 148.895 96.2786 149.503C96.0128 149.661 95.7288 149.716 95.4569 149.527C95.179 149.333 95.0884 149.065 95.1609 148.731C95.2092 148.512 95.2455 148.293 95.2938 148.081C95.5173 147.096 95.7348 146.117 95.9705 145.139C96.0128 144.969 95.9765 144.877 95.8617 144.774C94.9796 144.002 94.1096 143.224 93.2275 142.458C92.9556 142.227 92.7562 141.972 92.8529 141.601C92.9495 141.212 93.2335 141.073 93.6202 141.042C94.7984 140.939 95.9826 140.811 97.1607 140.708C97.342 140.69 97.4145 140.623 97.4809 140.471C97.9039 139.431 98.351 138.392 98.792 137.359C98.8162 137.304 98.8404 137.243 98.8645 137.189C99.0035 136.873 99.1968 136.629 99.5775 136.629C99.9581 136.629 100.157 136.873 100.29 137.189C100.556 137.809 100.822 138.435 101.088 139.055C101.293 139.535 101.487 140.021 101.704 140.501C101.747 140.592 101.873 140.69 101.976 140.702C103.184 140.829 104.393 140.951 105.607 141.06C105.958 141.091 106.199 141.249 106.308 141.583C106.417 141.917 106.266 142.179 106.024 142.391C105.184 143.133 104.351 143.881 103.499 144.604C103.233 144.829 103.142 145.029 103.239 145.388C103.517 146.458 103.746 147.546 103.982 148.622C104.109 149.223 103.813 149.661 103.281 149.679Z" fill="#B0B5D1"/>
<path d="M118.797 149.679C118.634 149.606 118.464 149.545 118.313 149.454C117.317 148.865 116.326 148.275 115.335 147.667C115.154 147.558 115.021 147.564 114.845 147.667C113.83 148.287 112.809 148.895 111.794 149.503C111.528 149.661 111.244 149.716 110.973 149.527C110.695 149.333 110.604 149.065 110.676 148.731C110.725 148.512 110.761 148.293 110.809 148.081C111.033 147.096 111.25 146.117 111.486 145.139C111.528 144.969 111.492 144.877 111.377 144.774C110.495 144.002 109.625 143.224 108.743 142.458C108.471 142.227 108.272 141.972 108.369 141.601C108.465 141.212 108.749 141.073 109.136 141.042C110.314 140.939 111.498 140.811 112.676 140.708C112.858 140.69 112.93 140.623 112.997 140.471C113.42 139.431 113.867 138.392 114.308 137.359C114.332 137.304 114.356 137.243 114.38 137.189C114.519 136.873 114.712 136.629 115.093 136.629C115.474 136.629 115.673 136.873 115.806 137.189C116.072 137.809 116.338 138.435 116.604 139.055C116.809 139.535 117.002 140.021 117.22 140.501C117.262 140.592 117.389 140.69 117.492 140.702C118.7 140.829 119.908 140.951 121.123 141.06C121.473 141.091 121.715 141.249 121.824 141.583C121.932 141.917 121.781 142.179 121.54 142.391C120.7 143.133 119.866 143.881 119.014 144.604C118.748 144.829 118.658 145.029 118.754 145.388C119.032 146.458 119.262 147.546 119.498 148.622C119.624 149.223 119.328 149.661 118.797 149.679Z" fill="#B0B5D1"/>
<path d="M134.313 149.679C134.15 149.606 133.981 149.545 133.83 149.454C132.833 148.865 131.842 148.275 130.851 147.667C130.67 147.558 130.537 147.564 130.361 147.667C129.346 148.287 128.325 148.895 127.31 149.503C127.045 149.661 126.761 149.716 126.489 149.527C126.211 149.333 126.12 149.065 126.193 148.731C126.241 148.512 126.277 148.293 126.326 148.081C126.549 147.096 126.767 146.117 127.002 145.139C127.045 144.969 127.008 144.877 126.893 144.774C126.011 144.002 125.141 143.224 124.259 142.458C123.987 142.227 123.788 141.972 123.885 141.601C123.981 141.212 124.265 141.073 124.652 141.042C125.83 140.939 127.014 140.811 128.192 140.708C128.374 140.69 128.446 140.623 128.513 140.471C128.936 139.431 129.383 138.392 129.824 137.359C129.848 137.304 129.872 137.243 129.896 137.189C130.035 136.873 130.229 136.629 130.609 136.629C130.99 136.629 131.189 136.873 131.322 137.189C131.588 137.809 131.854 138.435 132.12 139.055C132.325 139.535 132.518 140.021 132.736 140.501C132.778 140.592 132.905 140.69 133.008 140.702C134.216 140.829 135.425 140.951 136.639 141.06C136.989 141.091 137.231 141.249 137.34 141.583C137.449 141.917 137.298 142.179 137.056 142.391C136.216 143.133 135.382 143.881 134.53 144.604C134.265 144.829 134.174 145.029 134.271 145.388C134.549 146.458 134.778 147.546 135.014 148.622C135.141 149.223 134.845 149.661 134.313 149.679Z" fill="#B0B5D1"/>
<rect x="172.551" y="27.1709" width="47.6227" height="4.48945" fill="#E8EAF4"/>
<rect x="172.551" y="36.7642" width="23.1782" height="4.48945" fill="#E8EAF4"/>
<rect x="172.551" y="57.4048" width="13.5955" height="4.48945" fill="#E8EAF4"/>
<rect x="172.551" y="47.1123" width="32.2892" height="4.48945" fill="#E8EAF4"/>
<rect x="172.551" y="66.9978" width="6.6089" height="4.48945" fill="#E8EAF4"/>
<path d="M130.288 32.0418C130.204 32.0039 130.116 31.9723 130.037 31.9248C129.518 31.6179 129.002 31.3111 128.487 30.9948C128.392 30.9378 128.323 30.941 128.232 30.9948C127.704 31.3174 127.172 31.6338 126.644 31.9501C126.506 32.0324 126.358 32.0608 126.216 31.9628C126.072 31.8615 126.024 31.7223 126.062 31.5484C126.087 31.4345 126.106 31.3206 126.131 31.2099C126.248 30.6974 126.361 30.1881 126.484 29.6788C126.506 29.5902 126.487 29.5427 126.427 29.489C125.968 29.0872 125.515 28.6823 125.056 28.2837C124.914 28.1635 124.811 28.0306 124.861 27.8377C124.911 27.6352 125.059 27.5625 125.26 27.5466C125.874 27.4929 126.49 27.4264 127.103 27.3726C127.197 27.3632 127.235 27.3284 127.27 27.2493C127.49 26.7083 127.723 26.1674 127.952 25.6296C127.965 25.6011 127.977 25.5695 127.99 25.541C128.062 25.3765 128.163 25.25 128.361 25.25C128.559 25.25 128.663 25.3765 128.732 25.541C128.87 25.8637 129.009 26.1895 129.147 26.5122C129.254 26.7621 129.355 27.0152 129.468 27.2651C129.49 27.3125 129.556 27.3632 129.609 27.3695C130.238 27.4359 130.867 27.4992 131.499 27.5561C131.681 27.5719 131.807 27.6542 131.864 27.8282C131.92 28.0022 131.842 28.1382 131.716 28.2489C131.279 28.6349 130.845 29.024 130.402 29.4004C130.263 29.5174 130.216 29.6218 130.266 29.8085C130.411 30.3652 130.531 30.9315 130.653 31.4914C130.719 31.8046 130.565 32.0324 130.288 32.0418Z" fill="#4D74F5"/>
<path d="M138.364 32.0418C138.279 32.0039 138.191 31.9723 138.112 31.9248C137.593 31.6179 137.078 31.3111 136.562 30.9948C136.468 30.9378 136.398 30.941 136.307 30.9948C135.779 31.3174 135.247 31.6338 134.719 31.9501C134.581 32.0324 134.433 32.0608 134.292 31.9628C134.147 31.8615 134.1 31.7223 134.137 31.5484C134.163 31.4345 134.181 31.3206 134.207 31.2099C134.323 30.6974 134.436 30.1881 134.559 29.6788C134.581 29.5902 134.562 29.5427 134.502 29.489C134.043 29.0872 133.59 28.6823 133.131 28.2837C132.99 28.1635 132.886 28.0306 132.936 27.8377C132.987 27.6352 133.134 27.5625 133.336 27.5466C133.949 27.4929 134.565 27.4264 135.178 27.3726C135.273 27.3632 135.31 27.3284 135.345 27.2493C135.565 26.7083 135.798 26.1674 136.027 25.6296C136.04 25.6011 136.052 25.5695 136.065 25.541C136.137 25.3765 136.238 25.25 136.436 25.25C136.634 25.25 136.738 25.3765 136.807 25.541C136.945 25.8637 137.084 26.1895 137.222 26.5122C137.329 26.7621 137.43 27.0152 137.543 27.2651C137.565 27.3125 137.631 27.3632 137.684 27.3695C138.313 27.4359 138.942 27.4992 139.574 27.5561C139.757 27.5719 139.882 27.6542 139.939 27.8282C139.996 28.0022 139.917 28.1382 139.791 28.2489C139.354 28.6349 138.92 29.024 138.477 29.4004C138.339 29.5174 138.291 29.6218 138.342 29.8085C138.486 30.3652 138.606 30.9315 138.728 31.4914C138.794 31.8046 138.64 32.0324 138.364 32.0418Z" fill="#4D74F5"/>
<path d="M146.439 32.0418C146.354 32.0039 146.266 31.9723 146.188 31.9248C145.669 31.6179 145.153 31.3111 144.638 30.9948C144.543 30.9378 144.474 30.941 144.383 30.9948C143.855 31.3174 143.323 31.6338 142.795 31.9501C142.656 32.0324 142.509 32.0608 142.367 31.9628C142.223 31.8615 142.175 31.7223 142.213 31.5484C142.238 31.4345 142.257 31.3206 142.282 31.2099C142.399 30.6974 142.512 30.1881 142.634 29.6788C142.656 29.5902 142.638 29.5427 142.578 29.489C142.119 29.0872 141.666 28.6823 141.207 28.2837C141.065 28.1635 140.962 28.0306 141.012 27.8377C141.062 27.6352 141.21 27.5625 141.411 27.5466C142.024 27.4929 142.641 27.4264 143.254 27.3726C143.348 27.3632 143.386 27.3284 143.421 27.2493C143.641 26.7083 143.873 26.1674 144.103 25.6296C144.116 25.6011 144.128 25.5695 144.141 25.541C144.213 25.3765 144.314 25.25 144.512 25.25C144.71 25.25 144.814 25.3765 144.883 25.541C145.021 25.8637 145.16 26.1895 145.298 26.5122C145.405 26.7621 145.505 27.0152 145.619 27.2651C145.641 27.3125 145.707 27.3632 145.76 27.3695C146.389 27.4359 147.018 27.4992 147.65 27.5561C147.832 27.5719 147.958 27.6542 148.015 27.8282C148.071 28.0022 147.993 28.1382 147.867 28.2489C147.43 28.6349 146.996 29.024 146.553 29.4004C146.414 29.5174 146.367 29.6218 146.417 29.8085C146.562 30.3652 146.681 30.9315 146.804 31.4914C146.87 31.8046 146.716 32.0324 146.439 32.0418Z" fill="#4D74F5"/>
<path d="M154.515 32.0418C154.43 32.0039 154.342 31.9723 154.263 31.9248C153.744 31.6179 153.228 31.3111 152.713 30.9948C152.618 30.9378 152.549 30.941 152.458 30.9948C151.93 31.3174 151.398 31.6338 150.87 31.9501C150.732 32.0324 150.584 32.0608 150.442 31.9628C150.298 31.8615 150.251 31.7223 150.288 31.5484C150.313 31.4345 150.332 31.3206 150.357 31.2099C150.474 30.6974 150.587 30.1881 150.71 29.6788C150.732 29.5902 150.713 29.5427 150.653 29.489C150.194 29.0872 149.741 28.6823 149.282 28.2837C149.141 28.1635 149.037 28.0306 149.087 27.8377C149.137 27.6352 149.285 27.5625 149.486 27.5466C150.1 27.4929 150.716 27.4264 151.329 27.3726C151.423 27.3632 151.461 27.3284 151.496 27.2493C151.716 26.7083 151.949 26.1674 152.178 25.6296C152.191 25.6011 152.203 25.5695 152.216 25.541C152.288 25.3765 152.389 25.25 152.587 25.25C152.785 25.25 152.889 25.3765 152.958 25.541C153.096 25.8637 153.235 26.1895 153.373 26.5122C153.48 26.7621 153.581 27.0152 153.694 27.2651C153.716 27.3125 153.782 27.3632 153.835 27.3695C154.464 27.4359 155.093 27.4992 155.725 27.5561C155.908 27.5719 156.033 27.6542 156.09 27.8282C156.147 28.0022 156.068 28.1382 155.942 28.2489C155.505 28.6349 155.071 29.024 154.628 29.4004C154.489 29.5174 154.442 29.6218 154.493 29.8085C154.637 30.3652 154.757 30.9315 154.879 31.4914C154.945 31.8046 154.791 32.0324 154.515 32.0418Z" fill="#4D74F5"/>
<path d="M162.59 32.0418C162.505 32.0039 162.417 31.9723 162.338 31.9248C161.819 31.6179 161.304 31.3111 160.788 30.9948C160.694 30.9378 160.624 30.941 160.533 30.9948C160.005 31.3174 159.474 31.6338 158.945 31.9501C158.807 32.0324 158.659 32.0608 158.518 31.9628C158.373 31.8615 158.326 31.7223 158.364 31.5484C158.389 31.4345 158.408 31.3206 158.433 31.2099C158.549 30.6974 158.662 30.1881 158.785 29.6788C158.807 29.5902 158.788 29.5427 158.728 29.489C158.269 29.0872 157.816 28.6823 157.357 28.2837C157.216 28.1635 157.112 28.0306 157.162 27.8377C157.213 27.6352 157.36 27.5625 157.562 27.5466C158.175 27.4929 158.791 27.4264 159.404 27.3726C159.499 27.3632 159.536 27.3284 159.571 27.2493C159.791 26.7083 160.024 26.1674 160.253 25.6296C160.266 25.6011 160.279 25.5695 160.291 25.541C160.363 25.3765 160.464 25.25 160.662 25.25C160.86 25.25 160.964 25.3765 161.033 25.541C161.172 25.8637 161.31 26.1895 161.448 26.5122C161.555 26.7621 161.656 27.0152 161.769 27.2651C161.791 27.3125 161.857 27.3632 161.911 27.3695C162.539 27.4359 163.168 27.4992 163.8 27.5561C163.983 27.5719 164.109 27.6542 164.165 27.8282C164.222 28.0022 164.143 28.1382 164.017 28.2489C163.58 28.6349 163.146 29.024 162.703 29.4004C162.565 29.5174 162.517 29.6218 162.568 29.8085C162.712 30.3652 162.832 30.9315 162.955 31.4914C163.021 31.8046 162.866 32.0324 162.59 32.0418Z" fill="#4D74F5"/>
<path d="M130.288 41.974C130.204 41.936 130.116 41.9044 130.037 41.8569C129.518 41.5501 129.002 41.2432 128.487 40.9269C128.392 40.8699 128.323 40.8731 128.232 40.9269C127.704 41.2496 127.172 41.5659 126.644 41.8822C126.506 41.9645 126.358 41.993 126.216 41.8949C126.072 41.7937 126.024 41.6545 126.062 41.4805C126.087 41.3666 126.106 41.2527 126.131 41.142C126.248 40.6295 126.361 40.1202 126.484 39.6109C126.506 39.5223 126.487 39.4749 126.427 39.4211C125.968 39.0193 125.515 38.6144 125.056 38.2158C124.914 38.0956 124.811 37.9628 124.861 37.7698C124.911 37.5673 125.059 37.4946 125.26 37.4788C125.874 37.425 126.49 37.3586 127.103 37.3048C127.197 37.2953 127.235 37.2605 127.27 37.1814C127.49 36.6405 127.723 36.0995 127.952 35.5617C127.965 35.5333 127.977 35.5016 127.99 35.4732C128.062 35.3087 128.163 35.1821 128.361 35.1821C128.559 35.1821 128.663 35.3087 128.732 35.4732C128.87 35.7958 129.009 36.1217 129.147 36.4443C129.254 36.6942 129.355 36.9473 129.468 37.1972C129.49 37.2447 129.556 37.2953 129.609 37.3016C130.238 37.368 130.867 37.4313 131.499 37.4883C131.681 37.5041 131.807 37.5863 131.864 37.7603C131.92 37.9343 131.842 38.0703 131.716 38.181C131.279 38.567 130.845 38.9561 130.402 39.3325C130.263 39.4496 130.216 39.554 130.266 39.7406C130.411 40.2974 130.531 40.8636 130.653 41.4235C130.719 41.7367 130.565 41.9645 130.288 41.974Z" fill="#4D74F5"/>
<path d="M138.364 41.9735C138.279 41.9355 138.191 41.9039 138.112 41.8564C137.593 41.5496 137.078 41.2427 136.562 40.9264C136.468 40.8695 136.398 40.8726 136.307 40.9264C135.779 41.2491 135.247 41.5654 134.719 41.8817C134.581 41.964 134.433 41.9925 134.292 41.8944C134.147 41.7932 134.1 41.654 134.137 41.48C134.163 41.3661 134.181 41.2522 134.207 41.1415C134.323 40.629 134.436 40.1197 134.559 39.6104C134.581 39.5218 134.562 39.4744 134.502 39.4206C134.043 39.0189 133.59 38.6139 133.131 38.2154C132.99 38.0951 132.886 37.9623 132.936 37.7693C132.987 37.5669 133.134 37.4941 133.336 37.4783C133.949 37.4245 134.565 37.3581 135.178 37.3043C135.273 37.2948 135.31 37.26 135.345 37.1809C135.565 36.64 135.798 36.099 136.027 35.5613C136.04 35.5328 136.052 35.5011 136.065 35.4727C136.137 35.3082 136.238 35.1816 136.436 35.1816C136.634 35.1816 136.738 35.3082 136.807 35.4727C136.945 35.7953 137.084 36.1212 137.222 36.4438C137.329 36.6938 137.43 36.9468 137.543 37.1967C137.565 37.2442 137.631 37.2948 137.684 37.3011C138.313 37.3676 138.942 37.4308 139.574 37.4878C139.757 37.5036 139.882 37.5858 139.939 37.7598C139.996 37.9338 139.917 38.0698 139.791 38.1806C139.354 38.5665 138.92 38.9556 138.477 39.332C138.339 39.4491 138.291 39.5535 138.342 39.7401C138.486 40.2969 138.606 40.8631 138.728 41.4231C138.794 41.7362 138.64 41.964 138.364 41.9735Z" fill="#4D74F5"/>
<path d="M146.439 41.9735C146.354 41.9355 146.266 41.9039 146.188 41.8564C145.669 41.5496 145.153 41.2427 144.638 40.9264C144.543 40.8695 144.474 40.8726 144.383 40.9264C143.855 41.2491 143.323 41.5654 142.795 41.8817C142.656 41.964 142.509 41.9925 142.367 41.8944C142.223 41.7932 142.175 41.654 142.213 41.48C142.238 41.3661 142.257 41.2522 142.282 41.1415C142.399 40.629 142.512 40.1197 142.634 39.6104C142.656 39.5218 142.638 39.4744 142.578 39.4206C142.119 39.0189 141.666 38.6139 141.207 38.2154C141.065 38.0951 140.962 37.9623 141.012 37.7693C141.062 37.5669 141.21 37.4941 141.411 37.4783C142.024 37.4245 142.641 37.3581 143.254 37.3043C143.348 37.2948 143.386 37.26 143.421 37.1809C143.641 36.64 143.873 36.099 144.103 35.5613C144.116 35.5328 144.128 35.5011 144.141 35.4727C144.213 35.3082 144.314 35.1816 144.512 35.1816C144.71 35.1816 144.814 35.3082 144.883 35.4727C145.021 35.7953 145.16 36.1212 145.298 36.4438C145.405 36.6938 145.505 36.9468 145.619 37.1967C145.641 37.2442 145.707 37.2948 145.76 37.3011C146.389 37.3676 147.018 37.4308 147.65 37.4878C147.832 37.5036 147.958 37.5858 148.015 37.7598C148.071 37.9338 147.993 38.0698 147.867 38.1806C147.43 38.5665 146.996 38.9556 146.553 39.332C146.414 39.4491 146.367 39.5535 146.417 39.7401C146.562 40.2969 146.681 40.8631 146.804 41.4231C146.87 41.7362 146.716 41.964 146.439 41.9735Z" fill="#4D74F5"/>
<path d="M154.515 41.9735C154.43 41.9355 154.342 41.9039 154.263 41.8564C153.744 41.5496 153.228 41.2427 152.713 40.9264C152.618 40.8695 152.549 40.8726 152.458 40.9264C151.93 41.2491 151.398 41.5654 150.87 41.8817C150.732 41.964 150.584 41.9925 150.442 41.8944C150.298 41.7932 150.251 41.654 150.288 41.48C150.313 41.3661 150.332 41.2522 150.357 41.1415C150.474 40.629 150.587 40.1197 150.71 39.6104C150.732 39.5218 150.713 39.4744 150.653 39.4206C150.194 39.0189 149.741 38.6139 149.282 38.2154C149.141 38.0951 149.037 37.9623 149.087 37.7693C149.137 37.5669 149.285 37.4941 149.486 37.4783C150.1 37.4245 150.716 37.3581 151.329 37.3043C151.423 37.2948 151.461 37.26 151.496 37.1809C151.716 36.64 151.949 36.099 152.178 35.5613C152.191 35.5328 152.203 35.5011 152.216 35.4727C152.288 35.3082 152.389 35.1816 152.587 35.1816C152.785 35.1816 152.889 35.3082 152.958 35.4727C153.096 35.7953 153.235 36.1212 153.373 36.4438C153.48 36.6938 153.581 36.9468 153.694 37.1967C153.716 37.2442 153.782 37.2948 153.835 37.3011C154.464 37.3676 155.093 37.4308 155.725 37.4878C155.908 37.5036 156.033 37.5858 156.09 37.7598C156.147 37.9338 156.068 38.0698 155.942 38.1806C155.505 38.5665 155.071 38.9556 154.628 39.332C154.489 39.4491 154.442 39.5535 154.493 39.7401C154.637 40.2969 154.757 40.8631 154.879 41.4231C154.945 41.7362 154.791 41.964 154.515 41.9735Z" fill="#4D74F5"/>
<path d="M162.59 41.9735C162.505 41.9355 162.417 41.9039 162.338 41.8564C161.819 41.5496 161.304 41.2427 160.788 40.9264C160.694 40.8695 160.624 40.8726 160.533 40.9264C160.005 41.2491 159.474 41.5654 158.945 41.8817C158.807 41.964 158.659 41.9925 158.518 41.8944C158.373 41.7932 158.326 41.654 158.364 41.48C158.389 41.3661 158.408 41.2522 158.433 41.1415C158.549 40.629 158.662 40.1197 158.785 39.6104C158.807 39.5218 158.788 39.4744 158.728 39.4206C158.269 39.0189 157.816 38.6139 157.357 38.2154C157.216 38.0951 157.112 37.9623 157.162 37.7693C157.213 37.5669 157.36 37.4941 157.562 37.4783C158.175 37.4245 158.791 37.3581 159.404 37.3043C159.499 37.2948 159.536 37.26 159.571 37.1809C159.791 36.64 160.024 36.099 160.253 35.5613C160.266 35.5328 160.279 35.5011 160.291 35.4727C160.363 35.3082 160.464 35.1816 160.662 35.1816C160.86 35.1816 160.964 35.3082 161.033 35.4727C161.172 35.7953 161.31 36.1212 161.448 36.4438C161.555 36.6938 161.656 36.9468 161.769 37.1967C161.791 37.2442 161.857 37.2948 161.911 37.3011C162.539 37.3676 163.168 37.4308 163.8 37.4878C163.983 37.5036 164.109 37.5858 164.165 37.7598C164.222 37.9338 164.143 38.0698 164.017 38.1806C163.58 38.5665 163.146 38.9556 162.703 39.332C162.565 39.4491 162.517 39.5535 162.568 39.7401C162.712 40.2969 162.832 40.8631 162.955 41.4231C163.021 41.7362 162.866 41.964 162.59 41.9735Z" fill="#E8EAF4"/>
<path d="M130.288 51.9041C130.204 51.8662 130.116 51.8346 130.037 51.7871C129.518 51.4803 129.002 51.1734 128.487 50.8571C128.392 50.8001 128.323 50.8033 128.232 50.8571C127.704 51.1797 127.172 51.4961 126.644 51.8124C126.506 51.8947 126.358 51.9231 126.216 51.8251C126.072 51.7238 126.024 51.5846 126.062 51.4107C126.087 51.2968 126.106 51.1829 126.131 51.0722C126.248 50.5597 126.361 50.0504 126.484 49.5411C126.506 49.4525 126.487 49.4051 126.427 49.3513C125.968 48.9495 125.515 48.5446 125.056 48.146C124.914 48.0258 124.811 47.8929 124.861 47.7C124.911 47.4975 125.059 47.4248 125.26 47.4089C125.874 47.3552 126.49 47.2887 127.103 47.235C127.197 47.2255 127.235 47.1907 127.27 47.1116C127.49 46.5706 127.723 46.0297 127.952 45.4919C127.965 45.4634 127.977 45.4318 127.99 45.4033C128.062 45.2388 128.163 45.1123 128.361 45.1123C128.559 45.1123 128.663 45.2388 128.732 45.4033C128.87 45.726 129.009 46.0518 129.147 46.3745C129.254 46.6244 129.355 46.8775 129.468 47.1274C129.49 47.1748 129.556 47.2255 129.609 47.2318C130.238 47.2982 130.867 47.3615 131.499 47.4184C131.681 47.4342 131.807 47.5165 131.864 47.6905C131.92 47.8645 131.842 48.0005 131.716 48.1112C131.279 48.4972 130.845 48.8863 130.402 49.2627C130.263 49.3797 130.216 49.4841 130.266 49.6708C130.411 50.2275 130.531 50.7938 130.653 51.3537C130.719 51.6669 130.565 51.8947 130.288 51.9041Z" fill="#4D74F5"/>
<path d="M138.364 51.9041C138.279 51.8662 138.191 51.8346 138.112 51.7871C137.593 51.4803 137.078 51.1734 136.562 50.8571C136.468 50.8001 136.398 50.8033 136.307 50.8571C135.779 51.1797 135.247 51.4961 134.719 51.8124C134.581 51.8947 134.433 51.9231 134.292 51.8251C134.147 51.7238 134.1 51.5846 134.137 51.4107C134.163 51.2968 134.181 51.1829 134.207 51.0722C134.323 50.5597 134.436 50.0504 134.559 49.5411C134.581 49.4525 134.562 49.4051 134.502 49.3513C134.043 48.9495 133.59 48.5446 133.131 48.146C132.99 48.0258 132.886 47.8929 132.936 47.7C132.987 47.4975 133.134 47.4248 133.336 47.4089C133.949 47.3552 134.565 47.2887 135.178 47.235C135.273 47.2255 135.31 47.1907 135.345 47.1116C135.565 46.5706 135.798 46.0297 136.027 45.4919C136.04 45.4634 136.052 45.4318 136.065 45.4033C136.137 45.2388 136.238 45.1123 136.436 45.1123C136.634 45.1123 136.738 45.2388 136.807 45.4033C136.945 45.726 137.084 46.0518 137.222 46.3745C137.329 46.6244 137.43 46.8775 137.543 47.1274C137.565 47.1748 137.631 47.2255 137.684 47.2318C138.313 47.2982 138.942 47.3615 139.574 47.4184C139.757 47.4342 139.882 47.5165 139.939 47.6905C139.996 47.8645 139.917 48.0005 139.791 48.1112C139.354 48.4972 138.92 48.8863 138.477 49.2627C138.339 49.3797 138.291 49.4841 138.342 49.6708C138.486 50.2275 138.606 50.7938 138.728 51.3537C138.794 51.6669 138.64 51.8947 138.364 51.9041Z" fill="#4D74F5"/>
<path d="M146.439 51.9041C146.354 51.8662 146.266 51.8346 146.188 51.7871C145.669 51.4803 145.153 51.1734 144.638 50.8571C144.543 50.8001 144.474 50.8033 144.383 50.8571C143.855 51.1797 143.323 51.4961 142.795 51.8124C142.656 51.8947 142.509 51.9231 142.367 51.8251C142.223 51.7238 142.175 51.5846 142.213 51.4107C142.238 51.2968 142.257 51.1829 142.282 51.0722C142.399 50.5597 142.512 50.0504 142.634 49.5411C142.656 49.4525 142.638 49.4051 142.578 49.3513C142.119 48.9495 141.666 48.5446 141.207 48.146C141.065 48.0258 140.962 47.8929 141.012 47.7C141.062 47.4975 141.21 47.4248 141.411 47.4089C142.024 47.3552 142.641 47.2887 143.254 47.235C143.348 47.2255 143.386 47.1907 143.421 47.1116C143.641 46.5706 143.873 46.0297 144.103 45.4919C144.116 45.4634 144.128 45.4318 144.141 45.4033C144.213 45.2388 144.314 45.1123 144.512 45.1123C144.71 45.1123 144.814 45.2388 144.883 45.4033C145.021 45.726 145.16 46.0518 145.298 46.3745C145.405 46.6244 145.505 46.8775 145.619 47.1274C145.641 47.1748 145.707 47.2255 145.76 47.2318C146.389 47.2982 147.018 47.3615 147.65 47.4184C147.832 47.4342 147.958 47.5165 148.015 47.6905C148.071 47.8645 147.993 48.0005 147.867 48.1112C147.43 48.4972 146.996 48.8863 146.553 49.2627C146.414 49.3797 146.367 49.4841 146.417 49.6708C146.562 50.2275 146.681 50.7938 146.804 51.3537C146.87 51.6669 146.716 51.8947 146.439 51.9041Z" fill="#4D74F5"/>
<path d="M154.515 51.9041C154.43 51.8662 154.342 51.8346 154.263 51.7871C153.744 51.4803 153.228 51.1734 152.713 50.8571C152.618 50.8001 152.549 50.8033 152.458 50.8571C151.93 51.1797 151.398 51.4961 150.87 51.8124C150.732 51.8947 150.584 51.9231 150.442 51.8251C150.298 51.7238 150.251 51.5846 150.288 51.4107C150.313 51.2968 150.332 51.1829 150.357 51.0722C150.474 50.5597 150.587 50.0504 150.71 49.5411C150.732 49.4525 150.713 49.4051 150.653 49.3513C150.194 48.9495 149.741 48.5446 149.282 48.146C149.141 48.0258 149.037 47.8929 149.087 47.7C149.137 47.4975 149.285 47.4248 149.486 47.4089C150.1 47.3552 150.716 47.2887 151.329 47.235C151.423 47.2255 151.461 47.1907 151.496 47.1116C151.716 46.5706 151.949 46.0297 152.178 45.4919C152.191 45.4634 152.203 45.4318 152.216 45.4033C152.288 45.2388 152.389 45.1123 152.587 45.1123C152.785 45.1123 152.889 45.2388 152.958 45.4033C153.096 45.726 153.235 46.0518 153.373 46.3745C153.48 46.6244 153.581 46.8775 153.694 47.1274C153.716 47.1748 153.782 47.2255 153.835 47.2318C154.464 47.2982 155.093 47.3615 155.725 47.4184C155.908 47.4342 156.033 47.5165 156.09 47.6905C156.147 47.8645 156.068 48.0005 155.942 48.1112C155.505 48.4972 155.071 48.8863 154.628 49.2627C154.489 49.3797 154.442 49.4841 154.493 49.6708C154.637 50.2275 154.757 50.7938 154.879 51.3537C154.945 51.6669 154.791 51.8947 154.515 51.9041Z" fill="#E8EAF4"/>
<path d="M162.59 51.9041C162.505 51.8662 162.417 51.8346 162.338 51.7871C161.819 51.4803 161.304 51.1734 160.788 50.8571C160.694 50.8001 160.624 50.8033 160.533 50.8571C160.005 51.1797 159.474 51.4961 158.945 51.8124C158.807 51.8947 158.659 51.9231 158.518 51.8251C158.373 51.7238 158.326 51.5846 158.364 51.4107C158.389 51.2968 158.408 51.1829 158.433 51.0722C158.549 50.5597 158.662 50.0504 158.785 49.5411C158.807 49.4525 158.788 49.4051 158.728 49.3513C158.269 48.9495 157.816 48.5446 157.357 48.146C157.216 48.0258 157.112 47.8929 157.162 47.7C157.213 47.4975 157.36 47.4248 157.562 47.4089C158.175 47.3552 158.791 47.2887 159.404 47.235C159.499 47.2255 159.536 47.1907 159.571 47.1116C159.791 46.5706 160.024 46.0297 160.253 45.4919C160.266 45.4634 160.279 45.4318 160.291 45.4033C160.363 45.2388 160.464 45.1123 160.662 45.1123C160.86 45.1123 160.964 45.2388 161.033 45.4033C161.172 45.726 161.31 46.0518 161.448 46.3745C161.555 46.6244 161.656 46.8775 161.769 47.1274C161.791 47.1748 161.857 47.2255 161.911 47.2318C162.539 47.2982 163.168 47.3615 163.8 47.4184C163.983 47.4342 164.109 47.5165 164.165 47.6905C164.222 47.8645 164.143 48.0005 164.017 48.1112C163.58 48.4972 163.146 48.8863 162.703 49.2627C162.565 49.3797 162.517 49.4841 162.568 49.6708C162.712 50.2275 162.832 50.7938 162.955 51.3537C163.021 51.6669 162.866 51.8947 162.59 51.9041Z" fill="#E8EAF4"/>
<path d="M130.288 62.1861C130.204 62.1482 130.116 62.1165 130.037 62.0691C129.518 61.7622 129.002 61.4554 128.487 61.139C128.392 61.0821 128.323 61.0853 128.232 61.139C127.704 61.4617 127.172 61.7781 126.644 62.0944C126.506 62.1766 126.358 62.2051 126.216 62.107C126.072 62.0058 126.024 61.8666 126.062 61.6926C126.087 61.5788 126.106 61.4649 126.131 61.3542C126.248 60.8417 126.361 60.3324 126.484 59.8231C126.506 59.7345 126.487 59.687 126.427 59.6333C125.968 59.2315 125.515 58.8266 125.056 58.428C124.914 58.3078 124.811 58.1749 124.861 57.982C124.911 57.7795 125.059 57.7067 125.26 57.6909C125.874 57.6371 126.49 57.5707 127.103 57.5169C127.197 57.5074 127.235 57.4726 127.27 57.3936C127.49 56.8526 127.723 56.3117 127.952 55.7739C127.965 55.7454 127.977 55.7138 127.99 55.6853C128.062 55.5208 128.163 55.3943 128.361 55.3943C128.559 55.3943 128.663 55.5208 128.732 55.6853C128.87 56.008 129.009 56.3338 129.147 56.6565C129.254 56.9064 129.355 57.1595 129.468 57.4094C129.49 57.4568 129.556 57.5074 129.609 57.5138C130.238 57.5802 130.867 57.6435 131.499 57.7004C131.681 57.7162 131.807 57.7985 131.864 57.9725C131.92 58.1465 131.842 58.2825 131.716 58.3932C131.279 58.7791 130.845 59.1682 130.402 59.5447C130.263 59.6617 130.216 59.7661 130.266 59.9528C130.411 60.5095 130.531 61.0758 130.653 61.6357C130.719 61.9489 130.565 62.1766 130.288 62.1861Z" fill="#4D74F5"/>
<path d="M138.364 62.1861C138.279 62.1482 138.191 62.1165 138.112 62.0691C137.593 61.7622 137.078 61.4554 136.562 61.139C136.468 61.0821 136.398 61.0853 136.307 61.139C135.779 61.4617 135.247 61.7781 134.719 62.0944C134.581 62.1766 134.433 62.2051 134.292 62.107C134.147 62.0058 134.1 61.8666 134.137 61.6926C134.163 61.5788 134.181 61.4649 134.207 61.3542C134.323 60.8417 134.436 60.3324 134.559 59.8231C134.581 59.7345 134.562 59.687 134.502 59.6333C134.043 59.2315 133.59 58.8266 133.131 58.428C132.99 58.3078 132.886 58.1749 132.936 57.982C132.987 57.7795 133.134 57.7067 133.336 57.6909C133.949 57.6371 134.565 57.5707 135.178 57.5169C135.273 57.5074 135.31 57.4726 135.345 57.3936C135.565 56.8526 135.798 56.3117 136.027 55.7739C136.04 55.7454 136.052 55.7138 136.065 55.6853C136.137 55.5208 136.238 55.3943 136.436 55.3943C136.634 55.3943 136.738 55.5208 136.807 55.6853C136.945 56.008 137.084 56.3338 137.222 56.6565C137.329 56.9064 137.43 57.1595 137.543 57.4094C137.565 57.4568 137.631 57.5074 137.684 57.5138C138.313 57.5802 138.942 57.6435 139.574 57.7004C139.757 57.7162 139.882 57.7985 139.939 57.9725C139.996 58.1465 139.917 58.2825 139.791 58.3932C139.354 58.7791 138.92 59.1682 138.477 59.5447C138.339 59.6617 138.291 59.7661 138.342 59.9528C138.486 60.5095 138.606 61.0758 138.728 61.6357C138.794 61.9489 138.64 62.1766 138.364 62.1861Z" fill="#4D74F5"/>
<path d="M146.439 62.1861C146.354 62.1482 146.266 62.1165 146.188 62.0691C145.669 61.7622 145.153 61.4554 144.638 61.139C144.543 61.0821 144.474 61.0853 144.383 61.139C143.855 61.4617 143.323 61.7781 142.795 62.0944C142.656 62.1766 142.509 62.2051 142.367 62.107C142.223 62.0058 142.175 61.8666 142.213 61.6926C142.238 61.5788 142.257 61.4649 142.282 61.3542C142.399 60.8417 142.512 60.3324 142.634 59.8231C142.656 59.7345 142.638 59.687 142.578 59.6333C142.119 59.2315 141.666 58.8266 141.207 58.428C141.065 58.3078 140.962 58.1749 141.012 57.982C141.062 57.7795 141.21 57.7067 141.411 57.6909C142.024 57.6371 142.641 57.5707 143.254 57.5169C143.348 57.5074 143.386 57.4726 143.421 57.3936C143.641 56.8526 143.873 56.3117 144.103 55.7739C144.116 55.7454 144.128 55.7138 144.141 55.6853C144.213 55.5208 144.314 55.3943 144.512 55.3943C144.71 55.3943 144.814 55.5208 144.883 55.6853C145.021 56.008 145.16 56.3338 145.298 56.6565C145.405 56.9064 145.505 57.1595 145.619 57.4094C145.641 57.4568 145.707 57.5074 145.76 57.5138C146.389 57.5802 147.018 57.6435 147.65 57.7004C147.832 57.7162 147.958 57.7985 148.015 57.9725C148.071 58.1465 147.993 58.2825 147.867 58.3932C147.43 58.7791 146.996 59.1682 146.553 59.5447C146.414 59.6617 146.367 59.7661 146.417 59.9528C146.562 60.5095 146.681 61.0758 146.804 61.6357C146.87 61.9489 146.716 62.1766 146.439 62.1861Z" fill="#E8EAF4"/>
<path d="M154.515 62.1861C154.43 62.1482 154.342 62.1165 154.263 62.0691C153.744 61.7622 153.228 61.4554 152.713 61.139C152.618 61.0821 152.549 61.0853 152.458 61.139C151.93 61.4617 151.398 61.7781 150.87 62.0944C150.732 62.1766 150.584 62.2051 150.442 62.107C150.298 62.0058 150.251 61.8666 150.288 61.6926C150.313 61.5788 150.332 61.4649 150.357 61.3542C150.474 60.8417 150.587 60.3324 150.71 59.8231C150.732 59.7345 150.713 59.687 150.653 59.6333C150.194 59.2315 149.741 58.8266 149.282 58.428C149.141 58.3078 149.037 58.1749 149.087 57.982C149.137 57.7795 149.285 57.7067 149.486 57.6909C150.1 57.6371 150.716 57.5707 151.329 57.5169C151.423 57.5074 151.461 57.4726 151.496 57.3936C151.716 56.8526 151.949 56.3117 152.178 55.7739C152.191 55.7454 152.203 55.7138 152.216 55.6853C152.288 55.5208 152.389 55.3943 152.587 55.3943C152.785 55.3943 152.889 55.5208 152.958 55.6853C153.096 56.008 153.235 56.3338 153.373 56.6565C153.48 56.9064 153.581 57.1595 153.694 57.4094C153.716 57.4568 153.782 57.5074 153.835 57.5138C154.464 57.5802 155.093 57.6435 155.725 57.7004C155.908 57.7162 156.033 57.7985 156.09 57.9725C156.147 58.1465 156.068 58.2825 155.942 58.3932C155.505 58.7791 155.071 59.1682 154.628 59.5447C154.489 59.6617 154.442 59.7661 154.493 59.9528C154.637 60.5095 154.757 61.0758 154.879 61.6357C154.945 61.9489 154.791 62.1766 154.515 62.1861Z" fill="#E8EAF4"/>
<path d="M162.59 62.1861C162.505 62.1482 162.417 62.1165 162.338 62.0691C161.819 61.7622 161.304 61.4554 160.788 61.139C160.694 61.0821 160.624 61.0853 160.533 61.139C160.005 61.4617 159.474 61.7781 158.945 62.0944C158.807 62.1766 158.659 62.2051 158.518 62.107C158.373 62.0058 158.326 61.8666 158.364 61.6926C158.389 61.5788 158.408 61.4649 158.433 61.3542C158.549 60.8417 158.662 60.3324 158.785 59.8231C158.807 59.7345 158.788 59.687 158.728 59.6333C158.269 59.2315 157.816 58.8266 157.357 58.428C157.216 58.3078 157.112 58.1749 157.162 57.982C157.213 57.7795 157.36 57.7067 157.562 57.6909C158.175 57.6371 158.791 57.5707 159.404 57.5169C159.499 57.5074 159.536 57.4726 159.571 57.3936C159.791 56.8526 160.024 56.3117 160.253 55.7739C160.266 55.7454 160.279 55.7138 160.291 55.6853C160.363 55.5208 160.464 55.3943 160.662 55.3943C160.86 55.3943 160.964 55.5208 161.033 55.6853C161.172 56.008 161.31 56.3338 161.448 56.6565C161.555 56.9064 161.656 57.1595 161.769 57.4094C161.791 57.4568 161.857 57.5074 161.911 57.5138C162.539 57.5802 163.168 57.6435 163.8 57.7004C163.983 57.7162 164.109 57.7985 164.165 57.9725C164.222 58.1465 164.143 58.2825 164.017 58.3932C163.58 58.7791 163.146 59.1682 162.703 59.5447C162.565 59.6617 162.517 59.7661 162.568 59.9528C162.712 60.5095 162.832 61.0758 162.955 61.6357C163.021 61.9489 162.866 62.1766 162.59 62.1861Z" fill="#E8EAF4"/>
<path d="M130.288 71.827C130.204 71.789 130.116 71.7574 130.037 71.71C129.518 71.4031 129.002 71.0963 128.487 70.7799C128.392 70.723 128.323 70.7261 128.232 70.7799C127.704 71.1026 127.172 71.4189 126.644 71.7353C126.506 71.8175 126.358 71.846 126.216 71.7479C126.072 71.6467 126.024 71.5075 126.062 71.3335C126.087 71.2196 126.106 71.1057 126.131 70.995C126.248 70.4826 126.361 69.9732 126.484 69.4639C126.506 69.3754 126.487 69.3279 126.427 69.2741C125.968 68.8724 125.515 68.4675 125.056 68.0689C124.914 67.9487 124.811 67.8158 124.861 67.6228C124.911 67.4204 125.059 67.3476 125.26 67.3318C125.874 67.278 126.49 67.2116 127.103 67.1578C127.197 67.1483 127.235 67.1135 127.27 67.0344C127.49 66.4935 127.723 65.9525 127.952 65.4148C127.965 65.3863 127.977 65.3547 127.99 65.3262C128.062 65.1617 128.163 65.0352 128.361 65.0352C128.559 65.0352 128.663 65.1617 128.732 65.3262C128.87 65.6489 129.009 65.9747 129.147 66.2974C129.254 66.5473 129.355 66.8003 129.468 67.0502C129.49 67.0977 129.556 67.1483 129.609 67.1546C130.238 67.2211 130.867 67.2843 131.499 67.3413C131.681 67.3571 131.807 67.4393 131.864 67.6133C131.92 67.7873 131.842 67.9234 131.716 68.0341C131.279 68.42 130.845 68.8091 130.402 69.1856C130.263 69.3026 130.216 69.407 130.266 69.5936C130.411 70.1504 130.531 70.7166 130.653 71.2766C130.719 71.5897 130.565 71.8175 130.288 71.827Z" fill="#4D74F5"/>
<path d="M138.364 71.827C138.279 71.789 138.191 71.7574 138.112 71.71C137.593 71.4031 137.078 71.0963 136.562 70.7799C136.468 70.723 136.398 70.7261 136.307 70.7799C135.779 71.1026 135.247 71.4189 134.719 71.7353C134.581 71.8175 134.433 71.846 134.292 71.7479C134.147 71.6467 134.1 71.5075 134.137 71.3335C134.163 71.2196 134.181 71.1057 134.207 70.995C134.323 70.4826 134.436 69.9732 134.559 69.4639C134.581 69.3754 134.562 69.3279 134.502 69.2741C134.043 68.8724 133.59 68.4675 133.131 68.0689C132.99 67.9487 132.886 67.8158 132.936 67.6228C132.987 67.4204 133.134 67.3476 133.336 67.3318C133.949 67.278 134.565 67.2116 135.178 67.1578C135.273 67.1483 135.31 67.1135 135.345 67.0344C135.565 66.4935 135.798 65.9525 136.027 65.4148C136.04 65.3863 136.052 65.3547 136.065 65.3262C136.137 65.1617 136.238 65.0352 136.436 65.0352C136.634 65.0352 136.738 65.1617 136.807 65.3262C136.945 65.6489 137.084 65.9747 137.222 66.2974C137.329 66.5473 137.43 66.8003 137.543 67.0502C137.565 67.0977 137.631 67.1483 137.684 67.1546C138.313 67.2211 138.942 67.2843 139.574 67.3413C139.757 67.3571 139.882 67.4393 139.939 67.6133C139.996 67.7873 139.917 67.9234 139.791 68.0341C139.354 68.42 138.92 68.8091 138.477 69.1856C138.339 69.3026 138.291 69.407 138.342 69.5936C138.486 70.1504 138.606 70.7166 138.728 71.2766C138.794 71.5897 138.64 71.8175 138.364 71.827Z" fill="#E8EAF4"/>
<path d="M146.439 71.827C146.354 71.789 146.266 71.7574 146.188 71.71C145.669 71.4031 145.153 71.0963 144.638 70.7799C144.543 70.723 144.474 70.7261 144.383 70.7799C143.855 71.1026 143.323 71.4189 142.795 71.7353C142.656 71.8175 142.509 71.846 142.367 71.7479C142.223 71.6467 142.175 71.5075 142.213 71.3335C142.238 71.2196 142.257 71.1057 142.282 70.995C142.399 70.4826 142.512 69.9732 142.634 69.4639C142.656 69.3754 142.638 69.3279 142.578 69.2741C142.119 68.8724 141.666 68.4675 141.207 68.0689C141.065 67.9487 140.962 67.8158 141.012 67.6228C141.062 67.4204 141.21 67.3476 141.411 67.3318C142.024 67.278 142.641 67.2116 143.254 67.1578C143.348 67.1483 143.386 67.1135 143.421 67.0344C143.641 66.4935 143.873 65.9525 144.103 65.4148C144.116 65.3863 144.128 65.3547 144.141 65.3262C144.213 65.1617 144.314 65.0352 144.512 65.0352C144.71 65.0352 144.814 65.1617 144.883 65.3262C145.021 65.6489 145.16 65.9747 145.298 66.2974C145.405 66.5473 145.505 66.8003 145.619 67.0502C145.641 67.0977 145.707 67.1483 145.76 67.1546C146.389 67.2211 147.018 67.2843 147.65 67.3413C147.832 67.3571 147.958 67.4393 148.015 67.6133C148.071 67.7873 147.993 67.9234 147.867 68.0341C147.43 68.42 146.996 68.8091 146.553 69.1856C146.414 69.3026 146.367 69.407 146.417 69.5936C146.562 70.1504 146.681 70.7166 146.804 71.2766C146.87 71.5897 146.716 71.8175 146.439 71.827Z" fill="#E8EAF4"/>
<path d="M154.515 71.827C154.43 71.789 154.342 71.7574 154.263 71.71C153.744 71.4031 153.228 71.0963 152.713 70.7799C152.618 70.723 152.549 70.7261 152.458 70.7799C151.93 71.1026 151.398 71.4189 150.87 71.7353C150.732 71.8175 150.584 71.846 150.442 71.7479C150.298 71.6467 150.251 71.5075 150.288 71.3335C150.313 71.2196 150.332 71.1057 150.357 70.995C150.474 70.4826 150.587 69.9732 150.71 69.4639C150.732 69.3754 150.713 69.3279 150.653 69.2741C150.194 68.8724 149.741 68.4675 149.282 68.0689C149.141 67.9487 149.037 67.8158 149.087 67.6228C149.137 67.4204 149.285 67.3476 149.486 67.3318C150.1 67.278 150.716 67.2116 151.329 67.1578C151.423 67.1483 151.461 67.1135 151.496 67.0344C151.716 66.4935 151.949 65.9525 152.178 65.4148C152.191 65.3863 152.203 65.3547 152.216 65.3262C152.288 65.1617 152.389 65.0352 152.587 65.0352C152.785 65.0352 152.889 65.1617 152.958 65.3262C153.096 65.6489 153.235 65.9747 153.373 66.2974C153.48 66.5473 153.581 66.8003 153.694 67.0502C153.716 67.0977 153.782 67.1483 153.835 67.1546C154.464 67.2211 155.093 67.2843 155.725 67.3413C155.908 67.3571 156.033 67.4393 156.09 67.6133C156.147 67.7873 156.068 67.9234 155.942 68.0341C155.505 68.42 155.071 68.8091 154.628 69.1856C154.489 69.3026 154.442 69.407 154.493 69.5936C154.637 70.1504 154.757 70.7166 154.879 71.2766C154.945 71.5897 154.791 71.8175 154.515 71.827Z" fill="#E8EAF4"/>
<path d="M162.59 71.827C162.505 71.789 162.417 71.7574 162.338 71.71C161.819 71.4031 161.304 71.0963 160.788 70.7799C160.694 70.723 160.624 70.7261 160.533 70.7799C160.005 71.1026 159.474 71.4189 158.945 71.7353C158.807 71.8175 158.659 71.846 158.518 71.7479C158.373 71.6467 158.326 71.5075 158.364 71.3335C158.389 71.2196 158.408 71.1057 158.433 70.995C158.549 70.4826 158.662 69.9732 158.785 69.4639C158.807 69.3754 158.788 69.3279 158.728 69.2741C158.269 68.8724 157.816 68.4675 157.357 68.0689C157.216 67.9487 157.112 67.8158 157.162 67.6228C157.213 67.4204 157.36 67.3476 157.562 67.3318C158.175 67.278 158.791 67.2116 159.404 67.1578C159.499 67.1483 159.536 67.1135 159.571 67.0344C159.791 66.4935 160.024 65.9525 160.253 65.4148C160.266 65.3863 160.279 65.3547 160.291 65.3262C160.363 65.1617 160.464 65.0352 160.662 65.0352C160.86 65.0352 160.964 65.1617 161.033 65.3262C161.172 65.6489 161.31 65.9747 161.448 66.2974C161.555 66.5473 161.656 66.8003 161.769 67.0502C161.791 67.0977 161.857 67.1483 161.911 67.1546C162.539 67.2211 163.168 67.2843 163.8 67.3413C163.983 67.3571 164.109 67.4393 164.165 67.6133C164.222 67.7873 164.143 67.9234 164.017 68.0341C163.58 68.42 163.146 68.8091 162.703 69.1856C162.565 69.3026 162.517 69.407 162.568 69.5936C162.712 70.1504 162.832 70.7166 162.955 71.2766C163.021 71.5897 162.866 71.8175 162.59 71.827Z" fill="#E8EAF4"/>
<rect x="10.0059" y="117.947" width="40" height="40" rx="5" fill="#E8EAF4"/>
<g clip-path="url(#clip0_541_880)">
<path d="M36.1935 140.448C36.1935 139.647 35.5322 139.013 34.7387 139.013H25.2922C24.4798 139.013 23.8374 139.665 23.8374 140.448V142.947H36.2124V140.448H36.1935Z" fill="#BEC2D6"/>
<path d="M29.9965 137.801C31.6347 137.801 32.9627 136.49 32.9627 134.874C32.9627 133.257 31.6347 131.947 29.9965 131.947C28.3583 131.947 27.0303 133.257 27.0303 134.874C27.0303 136.49 28.3583 137.801 29.9965 137.801Z" fill="#BEC2D6"/>
</g>
<g clip-path="url(#clip1_541_880)">
<path d="M368.106 71.1741H329.277C327.58 71.1741 326.191 69.7788 326.191 68.0735V29.0572C326.191 27.3518 327.58 25.9565 329.277 25.9565H368.106C369.803 25.9565 371.191 27.3518 371.191 29.0572V68.0735C371.191 69.7788 369.803 71.1741 368.106 71.1741Z" fill="#F71514"/>
<path d="M334.831 32.1319C335.808 32.0544 336.683 32.0286 338.071 32.0286C340.231 32.0286 341.08 32.5453 340.848 34.3024C340.694 35.4651 340.257 36.0336 339.151 36.1369V36.1886C340.437 36.2919 340.848 37.1446 340.643 38.4882C340.411 40.1677 339.537 40.5811 337.506 40.5811C335.731 40.5811 334.78 40.5811 333.648 40.4778L334.831 32.1319ZM337.094 38.9533C337.994 38.9533 338.251 38.7466 338.38 37.8681C338.483 37.0671 338.328 36.8862 337.557 36.8862H336.374L336.091 38.9533H337.094ZM337.608 35.4393C338.354 35.4393 338.586 35.2584 338.714 34.4574C338.791 33.8373 338.637 33.6822 338.02 33.6822H336.863L336.606 35.4651H337.608V35.4393Z" fill="white"/>
<path d="M348.871 37.1445C348.511 39.7542 347.56 40.6844 345.066 40.6844C342.648 40.6844 341.517 39.7026 341.877 37.067L342.571 32.1318H344.834L344.114 37.1445C343.908 38.5398 344.088 38.9274 345.091 38.9274C346.12 38.9274 346.403 38.4881 346.634 37.067L347.328 32.1318H349.591L348.871 37.1445Z" fill="white"/>
<path d="M352.343 38.1264C352.317 38.514 352.394 38.669 352.831 38.669H355.634L355.583 40.4002C354.503 40.5294 353.089 40.5294 351.829 40.5294C350.646 40.5294 349.9 39.7542 350.054 38.5915L350.954 32.1318H353.217L352.343 38.1264Z" fill="white"/>
<path d="M361.291 36.3436C361.497 36.4728 361.754 36.8345 361.883 37.1446L363.451 40.5036H360.983L359.491 36.9379H358.977C359.003 37.2221 359.003 37.5063 358.977 37.7647L358.591 40.5294H356.303L357.486 32.1577H359.774L359.44 34.5349C359.414 34.8191 359.337 35.1292 359.234 35.4134H359.774L361.986 32.1577H364.531L362.088 35.6201C361.857 35.9818 361.548 36.1885 361.291 36.2919V36.3436Z" fill="white"/>
<path d="M337.48 45.8522C336.991 45.8522 336.837 45.9814 336.76 46.4207L336.606 47.5834H339.64L339.434 49.1337H336.4L335.937 52.4927H333.648L334.574 45.8522C334.728 44.7411 335.526 44.0693 336.631 44.0693C338.02 44.0693 339.486 44.0693 340.566 44.2244L340.334 45.8522H337.48Z" fill="white"/>
<path d="M344.14 45.8522C343.703 45.8522 343.548 45.9814 343.497 46.4207L343.343 47.4026H346.48L346.274 48.9529H343.137L342.957 50.219C342.905 50.6065 343.034 50.7616 343.445 50.7616H346.428L346.377 52.4153C345.245 52.5444 343.754 52.5444 342.52 52.5444C341.131 52.5444 340.488 51.6659 340.668 50.3998L341.285 45.8522C341.44 44.767 342.16 44.0952 343.368 44.0952C344.757 44.0952 346.3 44.0952 347.405 44.2502L347.148 45.8781H344.14V45.8522Z" fill="white"/>
<path d="M351.134 45.8522C350.697 45.8522 350.543 45.9814 350.492 46.4207L350.363 47.4026H353.5L353.294 48.9529H350.132L349.952 50.219C349.9 50.6065 350.029 50.7616 350.44 50.7616H353.423L353.372 52.4153C352.24 52.5444 350.749 52.5444 349.514 52.5444C348.126 52.5444 347.483 51.6659 347.663 50.3998L348.28 45.8522C348.434 44.767 349.154 44.0952 350.363 44.0952C351.752 44.0952 353.294 44.0952 354.4 44.2502L354.143 45.8781H351.134V45.8522Z" fill="white"/>
<path d="M355.609 44.0953C356.509 44.0177 357.717 43.9661 358.797 43.9661C361.497 43.9661 362.603 44.9479 362.14 48.3586C361.651 51.821 360.649 52.5703 357.897 52.5703C356.637 52.5703 355.48 52.5186 354.426 52.4411L355.609 44.0953ZM357.871 50.8908C358.977 50.8908 359.466 50.5032 359.774 48.2036C360.057 46.1107 359.877 45.6714 358.746 45.6714H357.666L356.946 50.8391L357.871 50.8908Z" fill="white"/>
<path d="M334.831 56.0843C335.808 56.0068 336.683 55.981 338.071 55.981C340.231 55.981 341.08 56.4977 340.848 58.2548C340.694 59.4175 340.257 59.9859 339.151 60.0893V60.141C340.437 60.2443 340.848 61.097 340.643 62.4406C340.411 64.1201 339.537 64.5335 337.506 64.5335C335.731 64.5335 334.78 64.5335 333.648 64.4302L334.831 56.0843ZM337.094 62.9057C337.994 62.9057 338.251 62.699 338.38 61.8205C338.483 61.0195 338.328 60.8386 337.557 60.8386H336.374L336.091 62.9057H337.094ZM337.608 59.3917C338.354 59.3917 338.586 59.2108 338.714 58.4098C338.791 57.7897 338.637 57.6346 338.02 57.6346H336.863L336.606 59.4175H337.608V59.3917Z" fill="white"/>
<path d="M343.831 62.4922L343.06 64.4559H340.694L344.037 56.6268C344.191 56.2651 344.474 56.0842 344.834 56.0842H346.917C347.303 56.0842 347.611 56.3685 347.637 56.7044L348.82 64.4301H346.557L346.351 62.4664H343.831V62.4922ZM345.991 58.6423C345.966 58.358 345.966 58.048 345.966 57.7637H345.606C345.554 58.0221 345.451 58.3322 345.349 58.6164L344.5 60.761H346.197L345.991 58.6423Z" fill="white"/>
<path d="M355.66 64.2234C354.811 64.4818 354.066 64.5851 352.883 64.5851C350.208 64.5851 349.283 63.3966 349.72 60.1667C350.183 56.8594 351.16 55.9292 353.86 55.9292C355.068 55.9292 355.711 56.0326 356.483 56.2393L356.226 57.8929C355.377 57.8671 354.837 57.8671 353.757 57.8671C352.754 57.8671 352.368 58.1772 352.111 60.3476C351.854 62.1822 351.957 62.6472 352.986 62.6472C354.168 62.6472 354.837 62.6214 355.583 62.5439L355.66 64.2234Z" fill="white"/>
<path d="M361.497 60.296C361.703 60.4252 361.96 60.7869 362.088 61.097L363.657 64.456H361.188L359.697 60.8903H359.183C359.208 61.1745 359.208 61.4587 359.183 61.7171L358.797 64.4818H356.534L357.717 56.1101H360.006L359.671 58.4873C359.646 58.7715 359.568 59.0816 359.466 59.3658H360.006L362.217 56.1101H364.763L362.32 59.5725C362.088 59.9342 361.78 60.1409 361.523 60.2443L361.497 60.296Z" fill="white"/>
</g>
<rect x="230.16" y="24.4033" width="81.1896" height="51.0967" rx="9" stroke="#B0B5D1" stroke-opacity="0.2" stroke-width="2"/>
<rect x="270.754" y="39.5776" width="35.7512" height="9.30732" fill="#E8EAF4"/>
<rect x="270.754" y="52.6018" width="25.5034" height="9.30732" fill="#E8EAF4"/>
<path d="M241.361 58.1605H243.653C244.537 58.1605 245.257 57.4409 245.257 56.5563V46.0144C245.257 45.1298 244.537 44.4102 243.653 44.4102H241.361C240.476 44.4102 239.757 45.1298 239.757 46.0144V56.5563C239.757 57.4409 240.476 58.1605 241.361 58.1605Z" fill="#4D74F5"/>
<path d="M251.473 37.7642C250.556 37.7642 250.098 38.2225 250.098 40.5142C250.098 42.6923 247.989 44.445 246.632 45.3479V56.7039C248.099 57.3831 251.037 58.3897 255.598 58.3897H257.065C258.852 58.3897 260.374 57.1063 260.676 55.3462L261.703 49.3878C262.088 47.1419 260.365 45.0977 258.091 45.0977H253.765C253.765 45.0977 254.452 43.7226 254.452 41.4309C254.452 38.6808 252.39 37.7642 251.473 37.7642V37.7642Z" fill="#4D74F5"/>
<defs>
<clipPath id="clip0_541_880">
<rect width="12.375" height="11" fill="white" transform="translate(23.8184 131.947)"/>
</clipPath>
<clipPath id="clip1_541_880">
<rect width="45" height="57" fill="white" transform="translate(326.191 25.9565)"/>
</clipPath>
</defs>
</svg>
