<svg width="18" height="18" viewBox="0 0 18 18" fill="none" xmlns="http://www.w3.org/2000/svg">
<g clip-path="url(#clip0_439_215)">
<path d="M14.6089 13.2649C13.6852 13.2649 12.8769 13.2649 12.0332 13.2649C12.0332 12.6294 12.0332 12.038 12.0332 11.4025C13.8895 11.4025 15.7636 11.4025 17.6554 11.4025C17.6554 13.2561 17.6554 15.1185 17.6554 16.9986C17.0426 16.9986 16.4475 16.9986 15.808 16.9986C15.808 16.3013 15.808 15.6393 15.808 14.8625C12.8503 17.9165 9.43964 18.8522 5.54935 17.1398C2.90254 15.9747 1.38373 13.8034 0.735352 10.97C1.33044 10.7935 1.91665 10.6258 2.5295 10.4404C3.38216 13.7681 5.38948 15.8246 8.90672 16.0453C11.2249 16.1954 13.1079 15.2068 14.6089 13.2649Z" fill="#727BB0"/>
<path d="M0.664062 1.97529C1.27692 1.97529 1.86312 1.97529 2.50262 1.97529C2.50262 2.65494 2.50262 3.33458 2.50262 4.12897C5.4603 1.0838 8.83543 0.130532 12.708 1.79876C15.3992 2.95504 16.9357 5.13521 17.6019 8.00385C17.0068 8.18038 16.4206 8.34808 15.8077 8.53344C14.9551 5.19699 12.9389 3.1404 9.43052 2.91973C7.10346 2.77851 5.22937 3.76709 3.73721 5.70011C4.64316 5.70011 5.4603 5.70011 6.30408 5.70011C6.30408 6.35327 6.30408 6.95348 6.30408 7.58017C4.43888 7.58017 2.57368 7.58017 0.672944 7.58017C0.664062 5.71776 0.664062 3.85535 0.664062 1.97529Z" fill="#727BB0"/>
</g>
<defs>
<clipPath id="clip0_439_215">
<rect width="17" height="17" fill="white" transform="translate(0.664062 0.987305)"/>
</clipPath>
</defs>
</svg>
