<svg width="18" height="18" viewBox="0 0 18 18" fill="none" xmlns="http://www.w3.org/2000/svg">
<path d="M14.6087 13.265C13.685 13.265 12.8767 13.265 12.0329 13.265C12.0329 12.6295 12.0329 12.0381 12.0329 11.4026C13.8892 11.4026 15.7633 11.4026 17.6552 11.4026C17.6552 13.2562 17.6552 15.1186 17.6552 16.9986C17.0423 16.9986 16.4472 16.9986 15.8077 16.9986C15.8077 16.3013 15.8077 15.6393 15.8077 14.8626C12.85 17.9166 9.43939 18.8522 5.54911 17.1399C2.9023 15.9748 1.38349 13.8034 0.735107 10.9701C1.3302 10.7936 1.9164 10.6258 2.52926 10.4405C3.38192 13.7681 5.38924 15.8247 8.90648 16.0454C11.2247 16.1954 13.1076 15.2068 14.6087 13.265Z" fill="black"/>
<path d="M0.664062 1.97535C1.27692 1.97535 1.86312 1.97535 2.50262 1.97535C2.50262 2.655 2.50262 3.33464 2.50262 4.12904C5.4603 1.08386 8.83543 0.130593 12.708 1.79882C15.3992 2.9551 16.9357 5.13527 17.6019 8.00391C17.0068 8.18044 16.4206 8.34814 15.8077 8.5335C14.9551 5.19705 12.9389 3.14046 9.43052 2.91979C7.10346 2.77857 5.22937 3.76715 3.73721 5.70017C4.64316 5.70017 5.4603 5.70017 6.30408 5.70017C6.30408 6.35334 6.30408 6.95354 6.30408 7.58023C4.43888 7.58023 2.57368 7.58023 0.672944 7.58023C0.664062 5.71782 0.664062 3.85541 0.664062 1.97535Z" fill="black"/>
</svg>
