<svg width="17" height="19" viewBox="0 0 17 19" fill="none" xmlns="http://www.w3.org/2000/svg">
<g clip-path="url(#clip0_522_167)">
<path d="M0.380436 16.2975H3.04349V18.6171C3.04349 18.7304 3.07956 18.8237 3.15171 18.8937C3.22387 18.967 3.3157 19.0037 3.42392 19.0037H5.40809C5.50976 19.0037 5.60159 18.967 5.67702 18.8937C5.75245 18.8204 5.78853 18.7304 5.78853 18.6171V16.2975H11.7902C11.9017 16.2975 11.9936 16.2608 12.0624 16.1875C12.1346 16.1142 12.1707 16.0209 12.1707 15.9109V14.3645C12.1707 14.2512 12.1346 14.1579 12.0624 14.0879C11.9903 14.0146 11.8985 13.9779 11.7902 13.9779H5.78853V12.5515H9.82902C11.4131 12.5515 12.7052 12.0616 13.7088 11.0784C14.7124 10.0986 15.2109 8.8288 15.2109 7.27574C15.2109 5.72268 14.7091 4.45624 13.7088 3.47308C12.7052 2.48991 11.4098 2 9.82574 2H3.42064C3.31242 2 3.22059 2.03666 3.14843 2.10998C3.07628 2.1833 3.04021 2.27662 3.04021 2.3866V9.98194H0.380436C0.268929 9.98194 0.177099 10.0186 0.108227 10.0952C0.0360758 10.1719 0 10.2619 0 10.3685V12.1682C0 12.2815 0.0360758 12.3748 0.108227 12.4448C0.180379 12.5182 0.268929 12.5548 0.380436 12.5548H3.04349V13.9812H0.380436C0.268929 13.9812 0.177099 14.0179 0.108227 14.0912C0.0360758 14.1645 0 14.2579 0 14.3678V15.9142C0 16.0275 0.0360758 16.1209 0.108227 16.1908C0.177099 16.2608 0.268929 16.2975 0.380436 16.2975ZM5.78525 4.57288H9.58633C10.4259 4.57288 11.1015 4.82284 11.6197 5.32275C12.1346 5.82266 12.3904 6.47255 12.3904 7.27908C12.3904 8.0856 12.1313 8.73549 11.6197 9.2354C11.1048 9.73531 10.4259 9.98527 9.58633 9.98527H5.78525V4.57288Z" fill="black"/>
</g>
<defs>
<clipPath id="clip0_522_167">
<rect width="17" height="19" fill="white"/>
</clipPath>
</defs>
</svg>
