<svg width="14" height="14" viewBox="0 0 14 14" fill="none" xmlns="http://www.w3.org/2000/svg">
<path d="M9.40847 8.4266C10.969 6.22303 10.4471 3.17172 8.2435 1.61158C6.03992 0.0514448 2.98861 0.572982 1.42848 2.77693C-0.131661 4.98051 0.389876 8.03144 2.59383 9.59158C4.16664 10.7051 6.24607 10.7909 7.905 9.81115L11.5095 13.3941C11.8987 13.8038 12.5463 13.8202 12.956 13.431C13.3657 13.0421 13.3821 12.3946 12.9932 11.9849C12.9809 11.9719 12.969 11.9599 12.956 11.9476L9.40847 8.4266ZM5.41549 8.76062C3.67418 8.761 2.26241 7.35035 2.26129 5.60904C2.26092 3.86772 3.67157 2.45596 5.41326 2.45521C7.15233 2.45447 8.56335 3.86288 8.56671 5.60195C8.56969 7.34364 7.15979 8.75764 5.41773 8.76062C5.41698 8.76062 5.41661 8.76062 5.41549 8.76062Z" fill="#BEC0CF"/>
</svg>
