<svg width="17" height="16" viewBox="0 0 17 16" fill="none" xmlns="http://www.w3.org/2000/svg">
<path d="M8.83572 15.9999C8.35778 15.9999 7.87984 15.9999 7.4019 15.9999C6.96808 15.9999 6.86513 15.9071 6.79896 15.5002C6.70337 14.9147 6.62249 14.3293 6.51219 13.7438C6.49013 13.6296 6.38719 13.5082 6.28425 13.4368C6.11513 13.3226 5.87984 13.2869 5.74013 13.1512C5.30631 12.73 4.85778 12.78 4.35778 13.0227C3.96808 13.2155 3.5416 13.3369 3.13719 13.5082C2.86513 13.6224 2.6666 13.5653 2.51955 13.3154C1.99749 12.4301 1.46808 11.5448 0.938663 10.6595C0.769546 10.381 0.87984 10.1883 1.10778 10.0169C1.57102 9.66707 2.03425 9.31008 2.50484 8.97452C2.68866 8.83887 2.76219 8.70321 2.72543 8.4676C2.68131 8.16774 2.68131 7.84645 2.72543 7.54659C2.76219 7.2967 2.68866 7.14677 2.49013 7.01111C2.0269 6.67555 1.58572 6.3257 1.12249 5.99014C0.872487 5.79737 0.798957 5.59032 0.975428 5.29045C1.49013 4.44083 1.99749 3.58407 2.49749 2.72731C2.6666 2.42745 2.87984 2.37033 3.19602 2.50598C3.71072 2.72017 4.24013 2.90581 4.75484 3.12714C5.00484 3.23423 5.20337 3.23423 5.42396 3.06288C5.62984 2.89867 5.86513 2.74873 6.11513 2.6702C6.44602 2.55596 6.5416 2.34177 6.57837 2.04191C6.63719 1.52071 6.74013 1.00666 6.79896 0.4926C6.83572 0.135616 7.0269 -3.72033e-05 7.37984 0.00710246C8.37249 0.0142421 9.36513 0.0142421 10.3578 0.00710246C10.7107 0.00710246 10.8945 0.142756 10.9387 0.499739C11.0122 1.08519 11.1078 1.67778 11.2181 2.2561C11.2401 2.37747 11.3578 2.50598 11.4754 2.57738C11.674 2.71303 11.9313 2.77729 12.1078 2.92722C12.4534 3.22709 12.7843 3.24137 13.196 3.0486C13.6519 2.82727 14.1519 2.68448 14.6225 2.49171C14.8872 2.38461 15.071 2.45601 15.2034 2.68448C15.7328 3.57693 16.2695 4.47653 16.799 5.36899C16.9534 5.63316 16.8357 5.81879 16.6225 5.97586C16.1372 6.33998 15.6445 6.69697 15.1813 7.07537C15.0784 7.16105 15.0195 7.34668 15.0122 7.48947C14.9901 7.83217 14.9901 8.17488 15.0122 8.51758C15.0195 8.66037 15.0784 8.83887 15.1813 8.93168C15.6445 9.31722 16.1298 9.68135 16.6151 10.0455C16.8725 10.2382 16.9166 10.4524 16.7475 10.7237C16.2328 11.5876 15.7181 12.4515 15.2034 13.3154C15.0563 13.5653 14.8725 13.6296 14.5931 13.5153C14.0195 13.2797 13.4387 13.0513 12.8578 12.8514C12.7254 12.8085 12.5269 12.8371 12.3945 12.9013C12.0857 13.0441 11.8137 13.2512 11.5048 13.394C11.2769 13.4939 11.1813 13.6367 11.1519 13.8723C11.0857 14.4292 10.9901 14.979 10.9313 15.5287C10.8945 15.8643 10.7181 16.0071 10.3798 16.0071C9.86513 15.9928 9.35043 15.9999 8.83572 15.9999ZM8.85778 10.7951C10.4607 10.8023 11.7401 9.56711 11.7475 7.99639C11.7548 6.46136 10.4828 5.21906 8.89455 5.20478C7.28425 5.1905 5.99749 6.42566 5.99013 7.98211C5.98278 9.54569 7.25484 10.788 8.85778 10.7951Z" fill="black"/>
</svg>
