<svg width="16" height="16" viewBox="0 0 16 16" fill="none" xmlns="http://www.w3.org/2000/svg">
<path d="M7.96316 15.9999C7.48522 15.9999 7.00728 15.9999 6.52934 15.9999C6.09552 15.9999 5.99258 15.9071 5.9264 15.5002C5.83081 14.9147 5.74993 14.3293 5.63963 13.7438C5.61758 13.6296 5.51463 13.5082 5.41169 13.4368C5.24258 13.3226 5.00728 13.2869 4.86758 13.1512C4.43375 12.73 3.98522 12.78 3.48522 13.0227C3.09552 13.2155 2.66905 13.3369 2.26463 13.5082C1.99258 13.6224 1.79405 13.5653 1.64699 13.3154C1.12493 12.4301 0.595517 11.5448 0.0661048 10.6595C-0.103013 10.381 0.00728124 10.1883 0.235222 10.0169C0.698458 9.66707 1.16169 9.31008 1.63228 8.97452C1.8161 8.83887 1.88963 8.70321 1.85287 8.4676C1.80875 8.16774 1.80875 7.84645 1.85287 7.54659C1.88963 7.2967 1.8161 7.14677 1.61758 7.01111C1.15434 6.67555 0.713164 6.3257 0.249928 5.99014C-7.17342e-05 5.79737 -0.0736011 5.59032 0.102869 5.29045C0.617575 4.44083 1.12493 3.58407 1.62493 2.72731C1.79405 2.42745 2.00728 2.37033 2.32346 2.50598C2.83816 2.72017 3.36758 2.90581 3.88228 3.12714C4.13228 3.23423 4.33081 3.23423 4.5514 3.06288C4.75728 2.89867 4.99258 2.74873 5.24258 2.6702C5.57346 2.55596 5.66905 2.34177 5.70581 2.04191C5.76463 1.52071 5.86758 1.00666 5.9264 0.4926C5.96316 0.135616 6.15434 -3.72034e-05 6.50728 0.00710246C7.49993 0.0142421 8.49258 0.0142421 9.48522 0.00710246C9.83816 0.00710246 10.022 0.142756 10.0661 0.499739C10.1396 1.08519 10.2352 1.67778 10.3455 2.2561C10.3676 2.37747 10.4852 2.50598 10.6029 2.57738C10.8014 2.71303 11.0588 2.77729 11.2352 2.92722C11.5808 3.22709 11.9117 3.24137 12.3235 3.0486C12.7793 2.82727 13.2793 2.68448 13.7499 2.49171C14.0146 2.38461 14.1985 2.45601 14.3308 2.68448C14.8602 3.57693 15.397 4.47653 15.9264 5.36899C16.0808 5.63316 15.9632 5.81879 15.7499 5.97586C15.2646 6.33998 14.772 6.69697 14.3088 7.07537C14.2058 7.16104 14.147 7.34668 14.1396 7.48947C14.1176 7.83217 14.1176 8.17488 14.1396 8.51758C14.147 8.66037 14.2058 8.83887 14.3088 8.93168C14.772 9.31722 15.2573 9.68135 15.7426 10.0455C15.9999 10.2382 16.044 10.4524 15.8749 10.7237C15.3602 11.5876 14.8455 12.4515 14.3308 13.3154C14.1838 13.5653 13.9999 13.6296 13.7205 13.5153C13.147 13.2797 12.5661 13.0513 11.9852 12.8514C11.8529 12.8085 11.6543 12.8371 11.522 12.9013C11.2132 13.0441 10.9411 13.2512 10.6323 13.394C10.4043 13.4939 10.3088 13.6367 10.2793 13.8723C10.2132 14.4292 10.1176 14.979 10.0588 15.5287C10.022 15.8643 9.84552 16.0071 9.50728 16.0071C8.99258 15.9928 8.47787 15.9999 7.96316 15.9999ZM7.98522 10.7951C9.58816 10.8023 10.8676 9.56711 10.8749 7.99639C10.8823 6.46136 9.61022 5.21906 8.02199 5.20478C6.41169 5.1905 5.12493 6.42566 5.11758 7.98211C5.11022 9.54569 6.38228 10.788 7.98522 10.7951Z" fill="#4D74F5"/>
</svg>
