<svg width="21" height="21" viewBox="0 0 21 21" fill="none" xmlns="http://www.w3.org/2000/svg">
<path d="M6.22716 14.4061H7.80649V15.7707C7.80649 15.8362 7.82812 15.8908 7.87139 15.9345C7.91466 15.9782 7.96875 16 8.03365 16H9.20192C9.26683 16 9.32091 15.9782 9.36418 15.9345C9.40745 15.8908 9.42909 15.8362 9.42909 15.7707V14.4061H12.9772C13.0421 14.4061 13.0962 14.3843 13.1394 14.3406C13.1827 14.2969 13.2043 14.2424 13.2043 14.1769V13.2707C13.2043 13.2052 13.1827 13.1507 13.1394 13.107C13.0962 13.0633 13.0421 13.0415 12.9772 13.0415H9.42909V12.2009H11.8197C12.7608 12.2009 13.518 11.917 14.113 11.3384C14.7079 10.7598 15 10.0175 15 9.10044C15 8.18341 14.7079 7.44105 14.113 6.86245C13.518 6.28384 12.7608 6 11.8197 6H8.03365C7.96875 6 7.91466 6.02183 7.87139 6.0655C7.82812 6.10917 7.80649 6.16376 7.80649 6.22926V10.6943H6.22716C6.16226 10.6943 6.10817 10.7162 6.0649 10.7598C6.02163 10.8035 6 10.8581 6 10.9236V11.9825C6 12.048 6.02163 12.1026 6.0649 12.1463C6.10817 12.19 6.16226 12.2118 6.22716 12.2118H7.80649V13.0524H6.22716C6.16226 13.0524 6.10817 13.0742 6.0649 13.1179C6.02163 13.1616 6 13.2162 6 13.2817V14.1878C6 14.2533 6.02163 14.3079 6.0649 14.3515C6.10817 14.3843 6.16226 14.4061 6.22716 14.4061ZM9.42909 7.51747H11.6791C12.1767 7.51747 12.5769 7.65939 12.8798 7.95415C13.1827 8.24891 13.3341 8.631 13.3341 9.10044C13.3341 9.56987 13.1827 9.95197 12.8798 10.2467C12.5769 10.5415 12.1767 10.6834 11.6791 10.6834H9.42909V7.51747Z" fill="#4D74F5"/>
<path d="M10.5 21C4.7135 21 0 16.2865 0 10.5C0 4.7135 4.7135 0 10.5 0C16.2865 0 21 4.7135 21 10.5C21 16.2865 16.2865 21 10.5 21ZM10.5 2.0438C5.83759 2.0438 2.0438 5.83759 2.0438 10.5C2.0438 15.1624 5.83759 18.9562 10.5 18.9562C15.1624 18.9562 18.9562 15.1624 18.9562 10.5C18.9562 5.83759 15.1624 2.0438 10.5 2.0438Z" fill="#4D74F5"/>
</svg>
