<svg width="18" height="18" viewBox="0 0 18 18" fill="none" xmlns="http://www.w3.org/2000/svg">
<path d="M9 0C4.02944 0 0 4.02944 0 9C0 13.9706 4.02944 18 9 18C13.9706 18 18 13.9706 18 9C17.9909 4.02944 13.9614 0 9 0ZM13.8426 6.80711C12.5269 8.11371 11.2203 9.42944 9.91371 10.736C9.27411 11.3756 8.63452 12.0152 7.99492 12.6548C7.87614 12.7736 7.73909 12.8558 7.57462 12.8924C7.52893 12.9015 7.49239 12.9107 7.4467 12.9198C7.40102 12.9198 7.36447 12.9198 7.31878 12.9198C7.2731 12.9107 7.22741 12.9015 7.19086 12.8924C7.03553 12.8558 6.89848 12.7827 6.78883 12.664C5.90254 11.7777 5.02538 10.9005 4.14822 10.0142C3.81015 9.67614 3.81929 9.16447 4.14822 8.8264C4.23959 8.73503 4.33096 8.64365 4.43147 8.54315C4.76954 8.21421 5.28122 8.20508 5.61929 8.54315C6.19492 9.11878 6.77056 9.69442 7.34619 10.2701C7.35533 10.2792 7.3736 10.2975 7.38274 10.3157C7.40102 10.2975 7.41929 10.2792 7.43756 10.2701C9.0731 8.63452 10.7086 6.99898 12.335 5.36345C12.4995 5.19898 12.6822 5.0802 12.9198 5.06193C12.9289 5.06193 12.9289 5.06193 12.9289 5.05279C12.9563 5.05279 12.9929 5.05279 13.0203 5.05279C13.0386 5.05279 13.0477 5.06193 13.066 5.06193C13.2487 5.0802 13.4041 5.1533 13.5411 5.27208C13.6599 5.38173 13.7787 5.50051 13.8883 5.61929C14.0254 5.76548 14.0985 5.94822 14.1076 6.15838C14.1076 6.42335 14.0162 6.6335 13.8426 6.80711Z" fill="#4D74F5"/>
</svg>
