<svg width="21" height="19" viewBox="0 0 21 19" fill="none" xmlns="http://www.w3.org/2000/svg">
<path d="M11.261 0C5.95771 0 1.63779 4.2646 1.63779 9.5C1.63779 10.7135 1.87193 11.8577 2.29339 12.9209L0.923657 17.0931C0.677808 17.8558 1.35682 18.6071 2.1529 18.4337L6.19185 17.5785C7.66695 18.4799 9.3996 19 11.2493 19C16.5526 19 20.8726 14.7354 20.8726 9.5C20.8726 4.2646 16.5643 0 11.261 0ZM11.261 17.1509C10.5937 17.1509 9.94983 17.07 9.32936 16.9082C8.32254 16.6539 7.39768 16.2032 6.58989 15.6022L4.33042 16.0876L3.14801 16.3418L3.53434 15.163L4.2953 12.8516C3.8036 11.8461 3.52263 10.7135 3.52263 9.52312C3.52263 9.40754 3.52263 9.29197 3.53434 9.1764C3.70995 5.09672 7.10501 1.84915 11.261 1.84915C15.5341 1.84915 19.0111 5.28163 19.0111 9.5C19.0111 13.7184 15.5341 17.1509 11.261 17.1509Z" fill="black"/>
<path d="M10.4726 11.5C10.4726 9.5 12.917 9.16667 12.917 7.75C12.917 7.08333 12.2948 6.58333 11.4948 6.58333C10.6503 6.58333 9.93923 7.16667 9.93923 7.16667L8.87256 6C8.87256 6 9.89478 5 11.6281 5C13.2726 5 14.8726 5.95833 14.8726 7.58333C14.8726 9.875 12.2948 10.125 12.2948 11.625V12.1667H10.517V11.5H10.4726ZM10.4726 13.375H12.2503V15H10.4726V13.375V13.375Z" fill="black"/>
</svg>
