<svg width="19" height="18" viewBox="0 0 19 18" fill="none" xmlns="http://www.w3.org/2000/svg">
<path d="M9.87256 0C4.902 0 0.872559 4.02944 0.872559 9C0.872559 13.9706 4.902 18 9.87256 18C14.8431 18 18.8726 13.9706 18.8726 9C18.8634 4.02944 14.834 0 9.87256 0ZM14.7152 6.80711C13.3995 8.11371 12.0929 9.42944 10.7863 10.736C10.1467 11.3756 9.50708 12.0152 8.86748 12.6548C8.7487 12.7736 8.61165 12.8558 8.44718 12.8924C8.40149 12.9015 8.36494 12.9107 8.31926 12.9198C8.27357 12.9198 8.23703 12.9198 8.19134 12.9198C8.14566 12.9107 8.09997 12.9015 8.06342 12.8924C7.90809 12.8558 7.77104 12.7827 7.66139 12.664C6.7751 11.7777 5.89794 10.9005 5.02078 10.0142C4.68271 9.67614 4.69185 9.16447 5.02078 8.8264C5.11215 8.73503 5.20352 8.64365 5.30403 8.54315C5.6421 8.21421 6.15378 8.20508 6.49185 8.54315C7.06748 9.11878 7.64312 9.69442 8.21875 10.2701C8.22789 10.2792 8.24616 10.2975 8.2553 10.3157C8.27357 10.2975 8.29185 10.2792 8.31012 10.2701C9.94566 8.63452 11.5812 6.99898 13.2076 5.36345C13.3721 5.19898 13.5548 5.0802 13.7924 5.06193C13.8015 5.06193 13.8015 5.06193 13.8015 5.05279C13.8289 5.05279 13.8655 5.05279 13.8929 5.05279C13.9111 5.05279 13.9203 5.06193 13.9385 5.06193C14.1213 5.0802 14.2766 5.1533 14.4137 5.27208C14.5325 5.38173 14.6512 5.50051 14.7609 5.61929C14.8979 5.76548 14.971 5.94822 14.9802 6.15838C14.9802 6.42335 14.8888 6.6335 14.7152 6.80711Z" fill="black"/>
</svg>
