<svg width="22" height="21" viewBox="0 0 22 21" fill="none" xmlns="http://www.w3.org/2000/svg">
<path d="M6.40282 14.4061H7.98215V15.7707C7.98215 15.8362 8.00378 15.8908 8.04705 15.9345C8.09032 15.9782 8.14441 16 8.20931 16H9.37758C9.44249 16 9.49657 15.9782 9.53984 15.9345C9.58311 15.8908 9.60475 15.8362 9.60475 15.7707V14.4061H13.1528C13.2177 14.4061 13.2718 14.3843 13.3151 14.3406C13.3584 14.2969 13.38 14.2424 13.38 14.1769V13.2707C13.38 13.2052 13.3584 13.1507 13.3151 13.107C13.2718 13.0633 13.2177 13.0415 13.1528 13.0415H9.60475V12.2009H11.9954C12.9365 12.2009 13.6937 11.917 14.2886 11.3384C14.8836 10.7598 15.1757 10.0175 15.1757 9.10044C15.1757 8.18341 14.8836 7.44105 14.2886 6.86245C13.6937 6.28384 12.9365 6 11.9954 6H8.20931C8.14441 6 8.09032 6.02183 8.04705 6.0655C8.00378 6.10917 7.98215 6.16376 7.98215 6.22926V10.6943H6.40282C6.33792 10.6943 6.28383 10.7162 6.24056 10.7598C6.19729 10.8035 6.17566 10.8581 6.17566 10.9236V11.9825C6.17566 12.048 6.19729 12.1026 6.24056 12.1463C6.28383 12.19 6.33792 12.2118 6.40282 12.2118H7.98215V13.0524H6.40282C6.33792 13.0524 6.28383 13.0742 6.24056 13.1179C6.19729 13.1616 6.17566 13.2162 6.17566 13.2817V14.1878C6.17566 14.2533 6.19729 14.3079 6.24056 14.3515C6.28383 14.3843 6.33792 14.4061 6.40282 14.4061ZM9.60475 7.51747H11.8547C12.3523 7.51747 12.7526 7.65939 13.0555 7.95415C13.3584 8.24891 13.5098 8.631 13.5098 9.10044C13.5098 9.56987 13.3584 9.95197 13.0555 10.2467C12.7526 10.5415 12.3523 10.6834 11.8547 10.6834H9.60475V7.51747Z" fill="#B0B5D1"/>
<path d="M10.6757 21C4.88916 21 0.175659 16.2865 0.175659 10.5C0.175659 4.7135 4.88916 0 10.6757 0C16.4622 0 21.1757 4.7135 21.1757 10.5C21.1757 16.2865 16.4622 21 10.6757 21ZM10.6757 2.0438C6.01325 2.0438 2.21945 5.83759 2.21945 10.5C2.21945 15.1624 6.01325 18.9562 10.6757 18.9562C15.3381 18.9562 19.1319 15.1624 19.1319 10.5C19.1319 5.83759 15.3381 2.0438 10.6757 2.0438Z" fill="#C4C8DF"/>
</svg>
