<svg width="16" height="20" viewBox="0 0 16 20" fill="none" xmlns="http://www.w3.org/2000/svg">
<path d="M15.5032 13.5304C14.2936 12.508 13.6 11.0136 13.6 9.4304V7.2C13.6 4.3848 11.5088 2.0544 8.8 1.664V0.8C8.8 0.3576 8.4416 0 8 0C7.5584 0 7.2 0.3576 7.2 0.8V1.664C4.4904 2.0544 2.4 4.3848 2.4 7.2V9.4304C2.4 11.0136 1.7064 12.508 0.4896 13.5368C0.1784 13.8032 0 14.1904 0 14.6C0 15.372 0.628 16 1.4 16H14.6C15.372 16 16 15.372 16 14.6C16 14.1904 15.8216 13.8032 15.5032 13.5304Z" fill="#4D74F5"/>
<path d="M8.00023 19.2C9.44903 19.2 10.661 18.1672 10.9394 16.8H5.06104C5.33944 18.1672 6.55143 19.2 8.00023 19.2Z" fill="#4D74F5"/>
</svg>
