<svg width="20" height="19" viewBox="0 0 20 19" fill="none" xmlns="http://www.w3.org/2000/svg">
<path d="M10.3885 0C5.08515 0 0.765231 4.2646 0.765231 9.5C0.765231 10.7135 0.999374 11.8577 1.42083 12.9209L0.0510982 17.0931C-0.194751 17.8558 0.484261 18.6071 1.28034 18.4337L5.31929 17.5785C6.79439 18.4799 8.52704 19 10.3768 19C15.6801 19 20 14.7354 20 9.5C20 4.2646 15.6918 0 10.3885 0ZM10.3885 17.1509C9.72116 17.1509 9.07727 17.07 8.4568 16.9082C7.44999 16.6539 6.52513 16.2032 5.71734 15.6022L3.45786 16.0876L2.27545 16.3418L2.66178 15.163L3.42274 12.8516C2.93105 11.8461 2.65007 10.7135 2.65007 9.52312C2.65007 9.40754 2.65007 9.29197 2.66178 9.1764C2.83739 5.09672 6.23245 1.84915 10.3885 1.84915C14.6616 1.84915 18.1386 5.28163 18.1386 9.5C18.1386 13.7184 14.6616 17.1509 10.3885 17.1509Z" fill="#4D74F5"/>
<path d="M9.6 11.5C9.6 9.5 12.0444 9.16667 12.0444 7.75C12.0444 7.08333 11.4222 6.58333 10.6222 6.58333C9.77778 6.58333 9.06667 7.16667 9.06667 7.16667L8 6C8 6 9.02222 5 10.7556 5C12.4 5 14 5.95833 14 7.58333C14 9.875 11.4222 10.125 11.4222 11.625V12.1667H9.64444V11.5H9.6ZM9.6 13.375H11.3778V15H9.6V13.375V13.375Z" fill="#4D74F5"/>
</svg>
