<svg width="51" height="51" viewBox="0 0 51 51" fill="none" xmlns="http://www.w3.org/2000/svg">
<rect x="0.980469" y="0.141235" width="50" height="50" rx="10" fill="#E8EAF4"/>
<path d="M30.8989 12.3912H27.0627C23.1762 12.3912 19.2546 15.2612 19.2546 21.6728C19.2546 24.9939 20.6622 27.5805 23.2424 29.0515L18.5198 37.5993C18.2959 38.0035 18.2901 38.4617 18.5042 38.8248C18.7132 39.1795 19.0952 39.3912 19.5261 39.3912H21.9149C22.4576 39.3912 22.8808 39.1289 23.0836 38.6694L27.5115 30.0087H27.8347V38.3118C27.8347 38.897 28.3285 39.3912 28.9128 39.3912H30.9998C31.6552 39.3912 32.1128 38.9336 32.1128 38.2783V13.5727C32.1129 12.8771 31.6138 12.3912 30.8989 12.3912ZM27.8348 26.1616H27.2647C25.0544 26.1616 23.7347 24.3573 23.7347 21.3352C23.7347 17.5773 25.4017 16.2385 26.9618 16.2385H27.8348V26.1616Z" fill="#B0B5D1"/>
</svg>
