<svg width="51" height="51" viewBox="0 0 51 51" fill="none" xmlns="http://www.w3.org/2000/svg">
<rect x="0.480469" y="0.783325" width="50" height="50" rx="10" fill="#146AC8"/>
<path d="M31.8891 11.7894L28.1285 11.7833C23.9036 11.7833 21.1732 14.5846 21.1732 18.9203V22.2109H17.3921C17.0654 22.2109 16.8008 22.4758 16.8008 22.8025V27.5702C16.8008 27.8969 17.0657 28.1615 17.3921 28.1615H21.1732V40.192C21.1732 40.5187 21.4378 40.7833 21.7645 40.7833H26.6978C27.0246 40.7833 27.2892 40.5184 27.2892 40.192V28.1615H31.7102C32.0369 28.1615 32.3015 27.8969 32.3015 27.5702L32.3033 22.8025C32.3033 22.6456 32.2409 22.4954 32.1301 22.3843C32.0194 22.2733 31.8686 22.2109 31.7117 22.2109H27.2892V19.4214C27.2892 18.0806 27.6087 17.4 29.3552 17.4L31.8885 17.3991C32.2149 17.3991 32.4795 17.1342 32.4795 16.8078V12.3807C32.4795 12.0546 32.2152 11.79 31.8891 11.7894Z" fill="white"/>
</svg>
