<svg width="51" height="51" viewBox="0 0 51 51" fill="none" xmlns="http://www.w3.org/2000/svg">
<rect x="0.230469" y="0.783325" width="50" height="50" rx="10" fill="#4D74F5"/>
<path d="M25.2305 9.78333C16.4082 9.78333 9.23047 16.961 9.23047 25.7833C9.23047 34.6056 16.4082 41.7833 25.2305 41.7833C28.044 41.7833 30.8105 41.0431 33.2324 39.6417L31.2305 36.1788C29.416 37.2286 27.3408 37.7833 25.2305 37.7833C18.6133 37.7833 13.2305 32.4005 13.2305 25.7833C13.2305 19.1662 18.6133 13.7833 25.2305 13.7833C31.8476 13.7833 37.2305 19.1662 37.2305 25.7833V27.5255C37.2305 28.8341 36.3897 29.7833 35.2305 29.7833C34.1279 29.7833 33.2304 28.8858 33.2304 27.7833V19.7833H30.4657C29.0587 18.5542 27.241 17.7833 25.2305 17.7833C20.8193 17.7833 17.2304 21.3722 17.2304 25.7833C17.2304 30.1945 20.8193 33.7834 25.2305 33.7834C27.3311 33.7834 29.2302 32.9527 30.6592 31.6237C31.7607 32.9327 33.3898 33.7834 35.2305 33.7834C38.5947 33.7834 41.2305 31.0344 41.2305 27.5255V25.7833C41.2305 16.961 34.0528 9.78333 25.2305 9.78333V9.78333ZM25.2305 29.7833C23.0244 29.7833 21.2305 27.9893 21.2305 25.7833C21.2305 23.5772 23.0244 21.7833 25.2305 21.7833C27.4366 21.7833 29.2305 23.5773 29.2305 25.7833C29.2305 27.9894 27.4366 29.7833 25.2305 29.7833V29.7833Z" fill="white"/>
</svg>
