<svg width="51" height="51" viewBox="0 0 51 51" fill="none" xmlns="http://www.w3.org/2000/svg">
<rect x="0.980469" y="0.141235" width="50" height="50" rx="10" fill="#E8EAF4"/>
<path d="M26.7305 35.894C23.7912 35.894 21.0301 34.8015 18.9503 32.8206C18.6118 32.4975 18.2912 32.1489 17.9973 31.7833C16.5143 29.9426 15.7305 27.7321 15.7305 25.394C15.7305 23.056 16.5143 20.8455 18.0017 19.0048C18.2957 18.6392 18.6163 18.2906 18.9548 17.9675C21.0301 15.9866 23.7912 14.894 26.7305 14.894C29.6697 14.894 32.4309 15.9866 34.5106 17.9675L34.6977 18.1461L31.4867 21.211L31.2997 21.0325C30.075 19.872 28.454 19.2301 26.7305 19.2301C24.4681 19.2301 22.3438 20.3864 21.1815 22.244C20.5892 23.1963 20.273 24.2845 20.273 25.394C20.273 26.5036 20.5892 27.5918 21.1815 28.544C22.3438 30.4017 24.4681 31.558 26.7305 31.558C27.8973 31.558 29.0374 31.2604 30.0349 30.6951C31.0948 30.0957 31.9454 29.2242 32.4977 28.1742L32.7916 27.6216H27.1313V23.2855H37.5122L37.5523 23.4938C37.6726 24.1187 37.7305 24.7564 37.7305 25.3983C37.7305 28.204 36.5859 30.8396 34.5106 32.8248C34.1722 33.1479 33.807 33.454 33.424 33.7345C31.4956 35.1459 29.1799 35.894 26.7305 35.894Z" fill="#B0B5D1"/>
</svg>
