<svg width="51" height="51" viewBox="0 0 51 51" fill="none" xmlns="http://www.w3.org/2000/svg">
<rect x="0.855469" y="0.391235" width="50" height="50" rx="10" fill="#E8EAF4"/>
<path d="M36.2395 27.2864C35.706 26.6214 35.8587 26.3255 36.2395 25.7311C36.2464 25.7243 40.6507 19.7176 41.1045 17.6805L41.1072 17.6792C41.3327 16.9368 41.1072 16.3912 40.0168 16.3912H36.4087C35.4901 16.3912 35.0666 16.8594 34.8397 17.3833C34.8397 17.3833 33.0027 21.7234 30.4038 24.5368C29.5651 25.3497 29.1773 25.6103 28.7194 25.6103C28.4939 25.6103 28.1433 25.3497 28.1433 24.6074V17.6792C28.1433 16.7889 27.8861 16.3912 27.1257 16.3912H21.4523C20.8761 16.3912 20.5337 16.8065 20.5337 17.1933C20.5337 18.0374 21.8332 18.2315 21.9679 20.6065V25.7596C21.9679 26.8887 21.7603 27.0964 21.2997 27.0964C20.0731 27.0964 17.0961 22.7386 15.3319 17.7511C14.9758 16.7834 14.6279 16.3926 13.7025 16.3926H10.093C9.0631 16.3926 8.85547 16.8608 8.85547 17.3847C8.85547 18.3102 10.082 22.9123 14.5592 28.9923C17.543 33.1424 21.7452 35.3912 25.5678 35.3912C27.8655 35.3912 28.146 34.8918 28.146 34.0327C28.146 30.0672 27.9384 29.6926 29.0893 29.6926C29.6228 29.6926 30.5413 29.9532 32.6864 31.9549C35.1381 34.3286 35.541 35.3912 36.9133 35.3912H40.5214C41.55 35.3912 42.0711 34.8918 41.7714 33.9065C41.0852 31.8342 36.4486 27.5714 36.2395 27.2864V27.2864Z" fill="#B0B5D1"/>
</svg>
