<svg width="51" height="51" viewBox="0 0 51 51" fill="none" xmlns="http://www.w3.org/2000/svg">
<rect x="0.980469" y="0.783325" width="50" height="50" rx="10" fill="#F4F4F8"/>
<mask id="mask0_632_302" style="mask-type:alpha" maskUnits="userSpaceOnUse" x="11" y="12" width="30" height="28">
<path d="M26.0037 39.6691C22.2566 39.6691 18.7366 38.2764 16.0852 35.7509C15.6538 35.3391 15.245 34.8947 14.8703 34.4286C12.9797 32.0821 11.9805 29.264 11.9805 26.2834C11.9805 23.3027 12.9797 20.4847 14.8759 18.1381C15.2507 17.672 15.6594 17.2276 16.0909 16.8158C18.7366 14.2904 22.2566 12.8976 26.0037 12.8976C29.7507 12.8976 33.2707 14.2904 35.9221 16.8158L36.1605 17.0434L32.0671 20.9507L31.8287 20.7231C30.2674 19.2436 28.2008 18.4253 26.0037 18.4253C23.1195 18.4253 20.4114 19.8994 18.9296 22.2676C18.1745 23.4816 17.7714 24.8689 17.7714 26.2834C17.7714 27.6978 18.1745 29.0852 18.9296 30.2991C20.4114 32.6673 23.1195 34.1414 26.0037 34.1414C27.4911 34.1414 28.9446 33.7621 30.2163 33.0413C31.5675 32.2772 32.6519 31.1662 33.3559 29.8276L33.7306 29.1231H26.5146V23.5954H39.7487L39.7998 23.8609C39.953 24.6576 40.0269 25.4705 40.0269 26.2888C40.0269 29.8655 38.5678 33.2255 35.9221 35.7564C35.4906 36.1682 35.0251 36.5584 34.5368 36.9161C32.0785 38.7153 29.1262 39.6691 26.0037 39.6691Z" fill="white"/>
</mask>
<g mask="url(#mask0_632_302)">
<path d="M18.2773 26.1978C18.2773 24.8061 18.6607 23.5025 19.3268 22.3862V17.6512H14.5918C12.7125 20.0919 11.6938 23.0664 11.6938 26.1978C11.6938 29.3292 12.7125 32.3038 14.5918 34.7445H19.3268V30.0094C18.6607 28.8932 18.2773 27.5895 18.2773 26.1978V26.1978Z" fill="#FBBD00"/>
<path d="M25.7385 33.659L22.4468 36.9507L25.7385 40.2424C28.8699 40.2424 31.8444 39.2238 34.2851 37.3445V32.6145H29.5552C28.4291 33.283 27.12 33.659 25.7385 33.659V33.659Z" fill="#0F9D58"/>
<path d="M19.3268 30.0095L14.5918 34.7445C14.9639 35.2277 15.369 35.6904 15.8074 36.1289C18.4601 38.7815 21.987 40.2424 25.7384 40.2424V33.659C23.016 33.659 20.6299 32.1931 19.3268 30.0095Z" fill="#31AA52"/>
<path d="M39.7831 26.1978C39.7831 25.3434 39.7058 24.4873 39.5532 23.6535L39.4297 22.9788H25.7385V29.5622H32.4016C31.7546 30.8493 30.7597 31.8994 29.5551 32.6146L34.2851 37.3445C34.7683 36.9725 35.2311 36.5673 35.6695 36.1289C38.3222 33.4762 39.7831 29.9493 39.7831 26.1978V26.1978Z" fill="#3C79E6"/>
<path d="M31.0144 20.9219L31.5962 21.5038L36.2514 16.8487L35.6696 16.2668C33.0169 13.6141 29.49 12.1532 25.7385 12.1532L22.4468 15.4449L25.7385 18.7366C27.7314 18.7366 29.6051 19.5127 31.0144 20.9219Z" fill="#CF2D48"/>
<path d="M25.7385 18.7366V12.1532C21.9871 12.1532 18.4602 13.6141 15.8074 16.2667C15.369 16.7051 14.9639 17.1679 14.5918 17.6512L19.3268 22.3862C20.6299 20.2025 23.016 18.7366 25.7385 18.7366V18.7366Z" fill="#EB4132"/>
</g>
</svg>
