<svg width="51" height="51" viewBox="0 0 51 51" fill="none" xmlns="http://www.w3.org/2000/svg">
<rect x="0.480469" y="0.141235" width="50" height="50" rx="10" fill="#E8EAF4"/>
<path d="M31.8891 11.1473L28.1285 11.1412C23.9036 11.1412 21.1732 13.9425 21.1732 18.2782V21.5688H17.3921C17.0654 21.5688 16.8008 21.8337 16.8008 22.1604V26.9281C16.8008 27.2549 17.0657 27.5194 17.3921 27.5194H21.1732V39.5499C21.1732 39.8766 21.4378 40.1412 21.7645 40.1412H26.6978C27.0246 40.1412 27.2892 39.8763 27.2892 39.5499V27.5194H31.7102C32.0369 27.5194 32.3015 27.2549 32.3015 26.9281L32.3033 22.1604C32.3033 22.0035 32.2409 21.8533 32.1301 21.7423C32.0194 21.6312 31.8686 21.5688 31.7117 21.5688H27.2892V18.7793C27.2892 17.4386 27.6087 16.7579 29.3552 16.7579L31.8885 16.757C32.2149 16.757 32.4795 16.4921 32.4795 16.1657V11.7386C32.4795 11.4125 32.2152 11.1479 31.8891 11.1473Z" fill="#B0B5D1"/>
</svg>
