<svg width="51" height="51" viewBox="0 0 51 51" fill="none" xmlns="http://www.w3.org/2000/svg">
<rect x="0.230469" y="0.141235" width="50" height="50" rx="10" fill="#E8EAF4"/>
<path d="M24.2305 9.64124C15.4082 9.64124 8.23047 16.8189 8.23047 25.6412C8.23047 34.4635 15.4082 41.6412 24.2305 41.6412C27.044 41.6412 29.8105 40.901 32.2324 39.4996L30.2305 36.0367C28.416 37.0865 26.3408 37.6413 24.2305 37.6413C17.6133 37.6413 12.2305 32.2584 12.2305 25.6412C12.2305 19.0241 17.6133 13.6412 24.2305 13.6412C30.8476 13.6412 36.2305 19.0241 36.2305 25.6412V27.3834C36.2305 28.692 35.3897 29.6412 34.2305 29.6412C33.1279 29.6412 32.2304 28.7438 32.2304 27.6412V19.6412H29.4657C28.0587 18.4121 26.241 17.6412 24.2305 17.6412C19.8193 17.6412 16.2304 21.2301 16.2304 25.6412C16.2304 30.0524 19.8193 33.6413 24.2305 33.6413C26.3311 33.6413 28.2302 32.8106 29.6592 31.4816C30.7607 32.7906 32.3898 33.6413 34.2305 33.6413C37.5947 33.6413 40.2305 30.8923 40.2305 27.3834V25.6412C40.2305 16.8189 33.0528 9.64124 24.2305 9.64124V9.64124ZM24.2305 29.6412C22.0244 29.6412 20.2305 27.8473 20.2305 25.6412C20.2305 23.4351 22.0244 21.6413 24.2305 21.6413C26.4366 21.6413 28.2305 23.4352 28.2305 25.6412C28.2305 27.8473 26.4366 29.6412 24.2305 29.6412V29.6412Z" fill="#B0B5D1"/>
</svg>
