<svg width="51" height="51" viewBox="0 0 51 51" fill="none" xmlns="http://www.w3.org/2000/svg">
<rect x="0.480469" y="0.783325" width="50" height="50" rx="10" fill="#00B3FF"/>
<path d="M40.4805 16.669C39.3648 17.1583 38.1761 17.4827 36.9367 17.6402C38.2117 16.879 39.1848 15.6827 39.6423 14.2408C38.4536 14.9496 37.1411 15.4502 35.7423 15.7296C34.6136 14.5277 33.0048 13.7833 31.2498 13.7833C27.8448 13.7833 25.1036 16.5471 25.1036 19.9352C25.1036 20.4227 25.1448 20.8914 25.2461 21.3377C20.133 21.0883 15.6086 18.6377 12.5692 14.9046C12.0386 15.8252 11.7273 16.879 11.7273 18.0133C11.7273 20.1433 12.8242 22.0314 14.4592 23.1246C13.4711 23.1058 12.5017 22.819 11.6805 22.3671C11.6805 22.3858 11.6805 22.4102 11.6805 22.4346C11.6805 25.4233 13.8123 27.9058 16.608 28.4777C16.1073 28.6146 15.5617 28.6802 14.9955 28.6802C14.6017 28.6802 14.2042 28.6577 13.8311 28.5752C14.628 31.0108 16.8892 32.8014 19.578 32.8596C17.4855 34.4964 14.8286 35.4827 11.9523 35.4827C11.448 35.4827 10.9642 35.4602 10.4805 35.3983C13.2048 37.1552 16.4336 38.1583 19.9155 38.1583C31.233 38.1583 37.4205 28.7833 37.4205 20.6571C37.4205 20.3852 37.4111 20.1227 37.398 19.8621C38.6186 18.9958 39.6442 17.914 40.4805 16.669Z" fill="white"/>
</svg>
