<svg width="12" height="12" viewBox="0 0 12 12" fill="none" xmlns="http://www.w3.org/2000/svg">
<path d="M9.2808 12.0002C9.13597 11.9331 8.98577 11.8772 8.85166 11.7934C7.96654 11.2512 7.08679 10.709 6.20704 10.1501C6.04611 10.0495 5.9281 10.0551 5.77253 10.1501C4.87133 10.7202 3.96475 11.2791 3.06355 11.8381C2.82752 11.9834 2.57539 12.0337 2.334 11.8604C2.08724 11.6816 2.00678 11.4356 2.07115 11.1282C2.11406 10.927 2.14625 10.7258 2.18916 10.5302C2.38764 9.62474 2.58076 8.72488 2.78997 7.82502C2.82752 7.66853 2.79533 7.58469 2.69341 7.48967C1.91022 6.77985 1.13775 6.06443 0.354563 5.36019C0.113168 5.1478 -0.0638547 4.91305 0.0219746 4.57211C0.107804 4.21441 0.359927 4.08585 0.703244 4.05791C1.74929 3.96289 2.8007 3.84552 3.84674 3.7505C4.00767 3.73373 4.07204 3.67225 4.13105 3.53252C4.50655 2.57677 4.90351 1.62102 5.29511 0.670856C5.31657 0.620553 5.33802 0.564661 5.35948 0.514358C5.48286 0.22372 5.65452 0.000152588 5.99247 0.000152588C6.33042 0.000152588 6.50745 0.22372 6.62546 0.514358C6.86149 1.08446 7.09752 1.66014 7.33355 2.23024C7.51594 2.67179 7.6876 3.11892 7.88071 3.56047C7.91826 3.64431 8.03091 3.73373 8.12211 3.74491C9.19497 3.86229 10.2678 3.97407 11.3461 4.07468C11.6572 4.10262 11.8718 4.24794 11.9683 4.55535C12.0649 4.86275 11.9308 5.10309 11.7162 5.29871C10.9706 5.98059 10.2303 6.66806 9.47392 7.33318C9.23789 7.53998 9.15742 7.72442 9.24325 8.05418C9.49001 9.03788 9.69386 10.0383 9.90306 11.0276C10.0157 11.581 9.75286 11.9834 9.2808 12.0002Z" fill="black"/>
</svg>
