<svg width="25" height="25" viewBox="0 0 25 25" fill="none" xmlns="http://www.w3.org/2000/svg">
<circle cx="12.6987" cy="12.5322" r="12" fill="#F5F6FA"/>
<g clip-path="url(#clip0_714_21)">
<path d="M12.205 9.02714C12.739 8.40835 13.3019 7.89454 14.0854 7.67907C16.1399 7.11554 18.1189 8.30891 18.589 10.3255C18.9546 11.9001 18.3684 13.1984 17.3122 14.3531C16.1108 15.6736 14.6425 16.7288 13.2787 17.878C13.0988 18.0327 12.9131 18.1763 12.7274 18.3255C12.3966 18.5907 12.0019 18.5962 11.6769 18.3255C10.3711 17.2316 9.0537 16.1542 7.77111 15.0327C6.88896 14.2647 6.16352 13.3697 5.84432 12.2371C5.3162 10.3918 6.28539 8.42493 8.04968 7.75642C9.44834 7.22603 10.9921 7.62382 11.9845 8.773C12.0483 8.85587 12.118 8.92769 12.205 9.02714ZM12.205 17.8338C13.2381 16.9774 14.2363 16.1542 15.2345 15.32C15.9774 14.7012 16.6912 14.0548 17.2483 13.2702C17.8809 12.3807 18.1131 11.4194 17.8287 10.3642C17.4166 8.82824 15.9251 7.94979 14.3582 8.35863C13.6037 8.552 13.0814 9.06029 12.6577 9.6625C12.3675 10.0713 12.0483 10.0603 11.7407 9.67355C11.5086 9.38073 11.2649 9.08791 10.9805 8.84482C10.4349 8.38073 9.76753 8.18736 9.04789 8.25918C7.50995 8.41388 6.51173 9.6625 6.4537 11.0934C6.40727 12.2371 6.91798 13.1818 7.72468 13.9553C8.71128 14.9001 9.76753 15.7785 10.8006 16.6791C11.2532 17.0658 11.7233 17.436 12.205 17.8338Z" fill="#727BB0"/>
</g>
<defs>
<clipPath id="clip0_714_21">
<rect width="13" height="11" fill="white" transform="translate(5.69873 7.53223)"/>
</clipPath>
</defs>
</svg>
