<svg width="25" height="25" viewBox="0 0 25 25" fill="none" xmlns="http://www.w3.org/2000/svg">
<circle cx="12.3945" cy="12.5322" r="12" fill="#F5F6FA"/>
<g clip-path="url(#clip0_714_19)">
<path d="M20.0733 11.9559C19.1577 10.8534 18.1206 9.87726 16.9262 9.06968C15.5529 8.15676 14.0652 7.55985 12.3772 7.53176C11.5261 7.51771 10.7179 7.69328 9.93825 7.99524C7.72815 8.84496 6.01156 10.3337 4.55962 12.1455C4.33789 12.4194 4.34505 12.6511 4.55962 12.925C5.69686 14.3646 7.03436 15.5795 8.65081 16.4854C10.9897 17.7986 13.3786 17.9039 15.7961 16.6539C17.5341 15.7551 18.9503 14.491 20.1591 12.9882C20.5024 12.5669 20.4738 12.4475 20.0733 11.9559ZM17.6629 14.0978C16.7045 14.9545 15.6602 15.6708 14.4371 16.1273C12.9566 16.682 11.4975 16.6259 10.0598 16.0219C8.25743 15.2635 6.85555 13.9924 5.56096 12.5388C6.70535 11.2326 7.94272 10.109 9.45904 9.32249C11.3902 8.3253 13.3285 8.30423 15.2668 9.30142C16.7545 10.0598 17.9633 11.1624 19.0791 12.3773C19.1148 12.4194 19.1434 12.4686 19.2221 12.5739C18.7071 13.0865 18.2065 13.6132 17.6629 14.0978Z" fill="#848BBA"/>
<path d="M12.4125 9.44235C10.653 9.43533 9.24394 10.7977 9.23678 12.5112C9.22963 14.2457 10.6172 15.6221 12.3624 15.6291C14.129 15.6291 15.5309 14.2738 15.5381 12.5603C15.5381 10.8258 14.1577 9.44937 12.4125 9.44235ZM12.4053 14.6179C11.2752 14.653 10.3025 13.7261 10.2596 12.5673C10.2167 11.4508 11.2109 10.4606 12.3767 10.4536C13.5282 10.4466 14.4867 11.3806 14.501 12.5252C14.5224 13.6418 13.5855 14.5828 12.4053 14.6179Z" fill="#848BBA"/>
</g>
<defs>
<clipPath id="clip0_714_19">
<rect width="16" height="10" fill="white" transform="translate(4.39453 7.53223)"/>
</clipPath>
</defs>
</svg>
