<svg width="25" height="25" viewBox="0 0 25 25" fill="none" xmlns="http://www.w3.org/2000/svg">
<circle cx="12.957" cy="12.5322" r="12" fill="#F5F6FA"/>
<g clip-path="url(#clip0_714_22)">
<path d="M10.285 16.4928C11.1571 15.6187 12.04 14.7337 12.9301 13.8417C13.8381 14.7517 14.7246 15.6437 15.6075 16.5322C16.0669 16.0665 16.4976 15.6294 16.9391 15.178C16.0705 14.3146 15.1769 13.4297 14.2796 12.5376C15.1876 11.6348 16.0777 10.7535 16.957 9.87929C16.5048 9.43147 16.0669 9.00155 15.6255 8.56447C14.7641 9.42788 13.8776 10.32 12.9732 11.2264C12.0616 10.3092 11.1715 9.41713 10.2922 8.53223C9.84712 8.98005 9.41643 9.40997 8.98933 9.83988C9.86506 10.7105 10.7587 11.5954 11.6596 12.491C10.7372 13.4118 9.84353 14.2967 8.96062 15.178C9.41284 15.6258 9.84353 16.0522 10.285 16.4928Z" fill="#848BBA"/>
</g>
<defs>
<clipPath id="clip0_714_22">
<rect width="8" height="8" fill="white" transform="matrix(-1 0 0 1 16.957 8.53223)"/>
</clipPath>
</defs>
</svg>
