<svg width="18" height="17" viewBox="0 0 18 17" fill="none" xmlns="http://www.w3.org/2000/svg">
<g clip-path="url(#clip0_648_24)">
<path d="M16.7803 2.99808C16.714 2.93572 16.6291 2.90438 16.5259 2.90438H13.1058L12.331 1.16489C12.2204 0.907888 12.0211 0.68912 11.7335 0.508553C11.4457 0.328022 11.1541 0.237793 10.859 0.237793H7.31725C7.0222 0.237793 6.73068 0.328022 6.44292 0.508553C6.15512 0.68912 5.9559 0.907851 5.84519 1.16489L5.07045 2.90438H1.65051C1.54712 2.90438 1.46238 2.93572 1.39594 2.99808C1.32969 3.06058 1.29639 3.14048 1.29639 3.23768V3.90442C1.29639 4.00161 1.32953 4.08152 1.39594 4.14391C1.46238 4.20637 1.54728 4.2376 1.65051 4.2376H2.71293V14.1544C2.71293 14.731 2.88633 15.2222 3.2331 15.6283C3.57993 16.0348 3.99682 16.2378 4.48384 16.2378H13.6924C14.1795 16.2378 14.5964 16.0277 14.9432 15.6077C15.2899 15.1874 15.4632 14.6892 15.4632 14.1129V4.2376H16.5258C16.629 4.2376 16.714 4.20637 16.7802 4.14391C16.8465 4.08155 16.8799 4.00161 16.8799 3.90442V3.23768C16.88 3.14048 16.8465 3.06058 16.7803 2.99808ZM7.15129 1.68547C7.20289 1.62301 7.26565 1.5847 7.33942 1.5709H10.8479C10.9217 1.58481 10.9845 1.62308 11.0361 1.68547L11.5675 2.90423H6.60895L7.15129 1.68547ZM14.0467 14.1129C14.0467 14.2657 14.0209 14.4064 13.9692 14.5348C13.9175 14.6631 13.8638 14.7569 13.8086 14.8159C13.7532 14.8751 13.7147 14.9045 13.6924 14.9045H4.48388C4.46174 14.9045 4.42321 14.8751 4.36774 14.8159C4.31234 14.7569 4.2588 14.6631 4.20713 14.5348C4.15553 14.4064 4.12971 14.2655 4.12971 14.1129V4.2376H14.0466V14.1129H14.0467Z" fill="black"/>
<path d="M5.90064 12.9045H6.60893C6.71232 12.9045 6.79725 12.8733 6.86351 12.8108C6.92976 12.7482 6.96306 12.6685 6.96306 12.5711V6.57092C6.96306 6.47376 6.92976 6.39385 6.86351 6.33132C6.79706 6.26896 6.71236 6.23773 6.60893 6.23773H5.90064C5.79725 6.23773 5.71247 6.26893 5.64606 6.33132C5.57973 6.39385 5.54651 6.47376 5.54651 6.57092V12.5711C5.54651 12.6685 5.57962 12.7482 5.64606 12.8108C5.71247 12.8733 5.79725 12.9045 5.90064 12.9045Z" fill="black"/>
<path d="M8.73389 12.9045H9.44218C9.54553 12.9045 9.63043 12.8733 9.69664 12.8108C9.76324 12.7482 9.79623 12.6685 9.79623 12.5711V6.57092C9.79623 6.47376 9.7632 6.39385 9.69664 6.33132C9.63043 6.26896 9.54553 6.23773 9.44218 6.23773H8.73389C8.63062 6.23773 8.54572 6.26893 8.47931 6.33132C8.41287 6.39385 8.37976 6.47376 8.37976 6.57092V12.5711C8.37976 12.6685 8.41287 12.7482 8.47931 12.8108C8.54568 12.8733 8.63062 12.9045 8.73389 12.9045Z" fill="black"/>
<path d="M11.5673 12.9045H12.2755C12.379 12.9045 12.4639 12.8733 12.5302 12.8108C12.5965 12.7482 12.6295 12.6685 12.6295 12.5711V6.57092C12.6295 6.47376 12.5965 6.39385 12.5302 6.33132C12.4639 6.26896 12.379 6.23773 12.2755 6.23773H11.5673C11.4638 6.23773 11.3792 6.26893 11.3126 6.33132C11.2463 6.39385 11.2131 6.47376 11.2131 6.57092V12.5711C11.2131 12.6685 11.2463 12.7482 11.3126 12.8108C11.3792 12.8733 11.4638 12.9045 11.5673 12.9045Z" fill="black"/>
</g>
<defs>
<clipPath id="clip0_648_24">
<rect width="17" height="16" fill="white" transform="translate(0.587891 0.237793)"/>
</clipPath>
</defs>
</svg>
