<svg width="13" height="15" viewBox="0 0 13 15" fill="none" xmlns="http://www.w3.org/2000/svg">
<path d="M6.79252 14.7001C3.36963 14.7001 0.584961 11.9155 0.584961 8.49257C0.584961 6.49353 1.55694 4.60507 3.18493 3.44074C3.62534 3.12591 4.23749 3.22756 4.55227 3.66797C4.86721 4.10831 4.76557 4.72049 4.32519 5.03532C3.21068 5.83237 2.54519 7.12482 2.54519 8.49257C2.54519 10.8347 4.45051 12.7399 6.79252 12.7399C9.13453 12.7399 11.0398 10.8347 11.0398 8.49257C11.0398 7.12482 10.3744 5.83237 9.25984 5.03532C8.81946 4.72053 8.71782 4.10835 9.03276 3.66797C9.34755 3.2276 9.95973 3.12591 10.4001 3.44074C12.0281 4.60503 13.0001 6.49353 13.0001 8.49257C13.0001 11.9155 10.2154 14.7001 6.79252 14.7001Z" fill="black"/>
<path d="M6.79261 8.21458C6.25131 8.21458 5.8125 7.77577 5.8125 7.23431V1.68019C5.8125 1.13901 6.25131 0.700195 6.79261 0.700195C7.3339 0.700195 7.77271 1.13901 7.77271 1.68019V7.23435C7.77271 7.77577 7.3339 8.21458 6.79261 8.21458Z" fill="black"/>
</svg>
