<svg width="4" height="14" viewBox="0 0 4 14" fill="none" xmlns="http://www.w3.org/2000/svg">
<path d="M0.451172 11.5459C0.451172 12.3459 1.15117 13.0459 1.95117 13.0459C2.75117 13.0459 3.45117 12.3459 3.45117 11.5459C3.45117 10.7459 2.75117 10.0459 1.95117 10.0459C1.15117 10.0459 0.451172 10.7459 0.451172 11.5459ZM0.451172 6.5459C0.451172 7.3459 1.15117 8.0459 1.95117 8.0459C2.75117 8.0459 3.45117 7.3459 3.45117 6.5459C3.45117 5.7459 2.75117 5.0459 1.95117 5.0459C1.15117 5.0459 0.451172 5.7459 0.451172 6.5459ZM0.451171 1.5459C0.451171 2.3459 1.15117 3.0459 1.95117 3.0459C2.75117 3.0459 3.45117 2.3459 3.45117 1.5459C3.45117 0.745899 2.75117 0.0458993 1.95117 0.0458993C1.15117 0.0458994 0.451171 0.745899 0.451171 1.5459Z" fill="#454545"/>
</svg>
