<svg width="24" height="14" viewBox="0 0 24 14" fill="none" xmlns="http://www.w3.org/2000/svg">
<path d="M19.6857 8.16697C19.3207 7.71197 19.4251 7.50954 19.6857 7.10283C19.6904 7.09819 22.7038 2.98833 23.0143 1.59455L23.0162 1.59362C23.1705 1.08569 23.0162 0.712402 22.2701 0.712402H19.8014C19.1729 0.712402 18.8832 1.03276 18.7279 1.39119C18.7279 1.39119 17.471 4.36076 15.6928 6.28569C15.1189 6.8419 14.8536 7.02019 14.5403 7.02019C14.386 7.02019 14.1461 6.8419 14.1461 6.33397V1.59362C14.1461 0.984474 13.9702 0.712402 13.4499 0.712402H9.56809C9.17389 0.712402 8.93962 0.996545 8.93962 1.26119C8.93962 1.83876 9.8287 1.97155 9.9209 3.59654V7.12233C9.9209 7.8949 9.77883 8.03697 9.46366 8.03697C8.62445 8.03697 6.58757 5.05533 5.38049 1.64283C5.13682 0.980759 4.89879 0.713331 4.26562 0.713331H1.79596C1.09128 0.713331 0.949219 1.03369 0.949219 1.39212C0.949219 2.0254 1.78843 5.17419 4.85175 9.33419C6.89333 12.1738 9.76849 13.7124 12.384 13.7124C13.9561 13.7124 14.148 13.3707 14.148 12.7829C14.148 10.0696 14.0059 9.81333 14.7934 9.81333C15.1585 9.81333 15.7869 9.99162 17.2546 11.3613C18.9321 12.9853 19.2078 13.7124 20.1467 13.7124H22.6154C23.3191 13.7124 23.6757 13.3707 23.4706 12.6965C23.0011 11.2786 19.8287 8.36197 19.6857 8.16697Z" fill="#4D74F5"/>
</svg>
