<svg width="46" height="57" viewBox="0 0 46 57" fill="none" xmlns="http://www.w3.org/2000/svg">
<g clip-path="url(#clip0_423_924)">
<path d="M42.7868 45.2176H3.95827C2.26113 45.2176 0.872559 43.8223 0.872559 42.117V3.10063C0.872559 1.39529 2.26113 0 3.95827 0H42.7868C44.484 0 45.8726 1.39529 45.8726 3.10063V42.117C45.8726 43.8223 44.484 45.2176 42.7868 45.2176Z" fill="#F71514"/>
<path d="M9.51245 6.17538C10.4896 6.09786 11.3639 6.07202 12.7524 6.07202C14.9124 6.07202 15.761 6.58879 15.5296 8.34582C15.3753 9.50856 14.9382 10.077 13.8324 10.1804V10.232C15.1182 10.3354 15.5296 11.1881 15.3239 12.5317C15.0924 14.2112 14.2182 14.6246 12.1867 14.6246C10.4124 14.6246 9.46102 14.6246 8.32959 14.5213L9.51245 6.17538ZM11.7753 12.9968C12.6753 12.9968 12.9324 12.7901 13.061 11.9115C13.1639 11.1106 13.0096 10.9297 12.2382 10.9297H11.0553L10.7724 12.9968H11.7753ZM12.2896 9.48272C13.0353 9.48272 13.2667 9.30185 13.3953 8.50085C13.4724 7.88073 13.3182 7.72569 12.701 7.72569H11.5439L11.2867 9.50856H12.2896V9.48272Z" fill="white"/>
<path d="M23.5525 11.188C23.1925 13.7977 22.2411 14.7279 19.7468 14.7279C17.3296 14.7279 16.1982 13.746 16.5582 11.1105L17.2525 6.17529H19.5154L18.7954 11.188C18.5896 12.5833 18.7696 12.9709 19.7725 12.9709C20.8011 12.9709 21.0839 12.5316 21.3154 11.1105L22.0096 6.17529H24.2725L23.5525 11.188Z" fill="white"/>
<path d="M27.024 12.1699C26.9983 12.5574 27.0755 12.7125 27.5126 12.7125H30.3155L30.264 14.4437C29.184 14.5728 27.7698 14.5728 26.5098 14.5728C25.3269 14.5728 24.5812 13.7977 24.7355 12.6349L25.6355 6.17529H27.8983L27.024 12.1699Z" fill="white"/>
<path d="M35.9725 10.387C36.1782 10.5162 36.4353 10.878 36.5639 11.188L38.1325 14.547H35.6639L34.1725 10.9813H33.6582C33.6839 11.2655 33.6839 11.5498 33.6582 11.8082L33.2725 14.5729H30.9839L32.1667 6.20117H34.4553L34.121 8.57832C34.0953 8.86255 34.0182 9.17261 33.9153 9.45684H34.4553L36.6667 6.20117H39.2125L36.7696 9.66355C36.5382 10.0253 36.2296 10.232 35.9725 10.3353V10.387Z" fill="white"/>
<path d="M12.161 19.8957C11.6724 19.8957 11.5182 20.0249 11.441 20.4641L11.2867 21.6268H14.321L14.1153 23.1772H11.081L10.6182 26.5362H8.32959L9.2553 19.8957C9.40959 18.7846 10.2067 18.1128 11.3124 18.1128C12.701 18.1128 14.1667 18.1128 15.2467 18.2678L15.0153 19.8957H12.161Z" fill="white"/>
<path d="M18.8209 19.8957C18.3837 19.8957 18.2295 20.0249 18.178 20.4641L18.0237 21.446H21.1609L20.9552 22.9963H17.818L17.638 24.2624C17.5866 24.65 17.7152 24.805 18.1266 24.805H21.1095L21.058 26.4587C19.9266 26.5879 18.4352 26.5879 17.2009 26.5879C15.8123 26.5879 15.1695 25.7094 15.3495 24.4433L15.9666 19.8957C16.1209 18.8105 16.8409 18.1387 18.0495 18.1387C19.438 18.1387 20.9809 18.1387 22.0866 18.2937L21.8295 19.9215H18.8209V19.8957Z" fill="white"/>
<path d="M25.8155 19.8957C25.3784 19.8957 25.2241 20.0249 25.1727 20.4641L25.0441 21.446H28.1812L27.9755 22.9963H24.8127L24.6327 24.2624C24.5812 24.65 24.7098 24.805 25.1212 24.805H28.1041L28.0527 26.4587C26.9212 26.5879 25.4298 26.5879 24.1955 26.5879C22.8069 26.5879 22.1641 25.7094 22.3441 24.4433L22.9612 19.8957C23.1155 18.8105 23.8355 18.1387 25.0441 18.1387C26.4327 18.1387 27.9755 18.1387 29.0812 18.2937L28.8241 19.9215H25.8155V19.8957Z" fill="white"/>
<path d="M30.2898 18.1387C31.1898 18.0612 32.3984 18.0095 33.4784 18.0095C36.1784 18.0095 37.2841 18.9914 36.8212 22.4021C36.3326 25.8645 35.3298 26.6138 32.5784 26.6138C31.3184 26.6138 30.1612 26.5621 29.1069 26.4846L30.2898 18.1387ZM32.5526 24.9343C33.6584 24.9343 34.1469 24.5467 34.4555 22.2471C34.7384 20.1541 34.5584 19.7149 33.4269 19.7149H32.3469L31.6269 24.8826L32.5526 24.9343Z" fill="white"/>
<path d="M9.51245 30.1278C10.4896 30.0503 11.3639 30.0244 12.7524 30.0244C14.9124 30.0244 15.761 30.5412 15.5296 32.2982C15.3753 33.461 14.9382 34.0294 13.8324 34.1328V34.1844C15.1182 34.2878 15.5296 35.1405 15.3239 36.4841C15.0924 38.1636 14.2182 38.577 12.1867 38.577C10.4124 38.577 9.46102 38.577 8.32959 38.4736L9.51245 30.1278ZM11.7753 36.9492C12.6753 36.9492 12.9324 36.7425 13.061 35.8639C13.1639 35.0629 13.0096 34.8821 12.2382 34.8821H11.0553L10.7724 36.9492H11.7753ZM12.2896 33.4351C13.0353 33.4351 13.2667 33.2542 13.3953 32.4532C13.4724 31.8331 13.3182 31.6781 12.701 31.6781H11.5439L11.2867 33.461H12.2896V33.4351Z" fill="white"/>
<path d="M18.5126 36.5357L17.7412 38.4994H15.3755L18.7183 30.6703C18.8726 30.3086 19.1555 30.1277 19.5155 30.1277H21.5983C21.9841 30.1277 22.2926 30.4119 22.3183 30.7478L23.5012 38.4736H21.2383L21.0326 36.5098H18.5126V36.5357ZM20.6726 32.6857C20.6469 32.4015 20.6469 32.0914 20.6469 31.8072H20.2869C20.2355 32.0656 20.1326 32.3756 20.0298 32.6599L19.1812 34.8045H20.8783L20.6726 32.6857Z" fill="white"/>
<path d="M30.341 38.2669C29.4924 38.5252 28.7467 38.6286 27.5638 38.6286C24.8896 38.6286 23.9638 37.44 24.401 34.2102C24.8638 30.9028 25.841 29.9727 28.541 29.9727C29.7496 29.9727 30.3924 30.076 31.1638 30.2827L30.9067 31.9364C30.0581 31.9106 29.5181 31.9106 28.4381 31.9106C27.4353 31.9106 27.0496 32.2206 26.7924 34.3911C26.5353 36.2256 26.6381 36.6907 27.6667 36.6907C28.8496 36.6907 29.5181 36.6649 30.2638 36.5873L30.341 38.2669Z" fill="white"/>
<path d="M36.1782 34.3394C36.3839 34.4686 36.641 34.8304 36.7696 35.1404L38.3382 38.4994H35.8696L34.3782 34.9337H33.8639C33.8896 35.2179 33.8896 35.5022 33.8639 35.7605L33.4782 38.5253H31.2153L32.3982 30.1536H34.6868L34.3525 32.5307C34.3268 32.8149 34.2496 33.125 34.1468 33.4092H34.6868L36.8982 30.1536H39.4439L37.001 33.6159C36.7696 33.9777 36.461 34.1844 36.2039 34.2877L36.1782 34.3394Z" fill="white"/>
<path d="M9.61555 54.7781C10.1298 54.7781 10.4127 55.0623 10.3355 55.5791L10.2584 56.1217C10.207 56.6126 9.94983 56.8452 9.43555 56.8452H8.97269C8.43269 56.8452 8.17555 56.5609 8.25269 56.0442L8.32983 55.5016C8.40698 55.0106 8.66412 54.7781 9.1784 54.7781H9.61555Z" fill="#798196"/>
<path d="M17.5871 56.6126C16.7385 56.8709 15.9928 56.9743 14.8099 56.9743C12.1357 56.9743 11.2099 55.7857 11.6471 52.5559C12.1099 49.2485 13.1128 48.3184 15.7871 48.3184C16.9956 48.3184 17.6385 48.4217 18.4099 48.6284L18.1528 50.2821C17.3042 50.2563 16.7642 50.2563 15.6842 50.2563C14.6814 50.2563 14.2956 50.5663 14.0385 52.7368C13.7814 54.5713 13.8842 55.0364 14.9128 55.0364C16.0956 55.0364 16.7642 55.0106 17.5099 54.933L17.5871 56.6126Z" fill="#798196"/>
<path d="M26.0982 52.7367C25.6354 56.1216 24.504 57.0001 21.9582 57.0001C19.2325 57.0001 18.2554 55.9665 18.7182 52.5559C19.1811 49.2227 20.2611 48.2925 22.8325 48.2925C25.4554 48.2925 26.5611 49.3002 26.0982 52.7367ZM21.084 52.7367C20.7754 54.778 20.9811 55.2689 22.0097 55.2689C23.0897 55.2689 23.3982 54.7521 23.7325 52.5817C24.0411 50.5146 23.8097 50.0495 22.7811 50.0495C21.7268 50.0495 21.4182 50.5404 21.084 52.7367Z" fill="#798196"/>
<path d="M36.6153 48.4734C37.1553 48.4734 37.4382 48.8093 37.3867 49.3261L36.641 56.8451H34.5582L35.2525 50.2046H35.0725L33.401 54.933C33.2467 55.3981 32.9639 55.6048 32.4753 55.6048H31.2153C30.7267 55.6048 30.4182 55.3206 30.3925 54.8555L30.0067 50.2304H29.801L28.6439 56.8709H26.561L27.9239 49.2744C28.0267 48.7576 28.2582 48.4992 28.7725 48.4992H30.7782C31.241 48.4992 31.5496 48.7835 31.5753 49.2485L31.8839 52.9693C31.9096 53.3827 31.9096 53.7703 31.8839 54.1837H32.0382C32.141 53.7186 32.2439 53.3827 32.3725 52.9951L33.6325 49.1969C33.761 48.7059 34.0439 48.5251 34.5582 48.5251H36.6153V48.4734Z" fill="#798196"/>
</g>
<defs>
<clipPath id="clip0_423_924">
<rect width="45" height="57" fill="white" transform="translate(0.872559)"/>
</clipPath>
</defs>
</svg>
