<svg width="145" height="100" viewBox="0 0 145 100" fill="none" xmlns="http://www.w3.org/2000/svg">
<g clip-path="url(#clip0_1175_9018)">
<path d="M141.099 99.2125H67.7328C66.5774 99.2125 65.6387 98.2771 65.6387 97.126V83.0242C65.6387 81.8731 66.5774 80.9377 67.7328 80.9377H141.099C142.255 80.9377 143.193 81.8731 143.193 83.0242V97.126C143.266 98.2771 142.327 99.2125 141.099 99.2125Z" fill="#FFD200"/>
<path opacity="0.2" d="M104.416 98.0613C104.127 98.0613 103.91 97.8455 103.91 97.5577V82.4487C103.91 82.1609 104.127 81.9451 104.416 81.9451C104.704 81.9451 104.921 82.1609 104.921 82.4487V97.5577C104.921 97.8455 104.704 98.0613 104.416 98.0613Z" fill="#BC6060"/>
<path opacity="0.2" d="M67.8043 98.0613C67.5155 98.0613 67.2988 97.8455 67.2988 97.5577V82.4487C67.2988 82.1609 67.5155 81.9451 67.8043 81.9451C68.0932 81.9451 68.3098 82.1609 68.3098 82.4487V97.5577C68.3098 97.8455 68.0932 98.0613 67.8043 98.0613Z" fill="#BC6060"/>
<path opacity="0.2" d="M71.5602 98.0613C71.2713 98.0613 71.0547 97.8455 71.0547 97.5577V82.4487C71.0547 82.1609 71.2713 81.9451 71.5602 81.9451C71.849 81.9451 72.0657 82.1609 72.0657 82.4487V97.5577C72.0657 97.8455 71.7768 98.0613 71.5602 98.0613Z" fill="#BC6060"/>
<path opacity="0.2" d="M76.9742 98.0613C76.6854 98.0613 76.4688 97.8455 76.4688 97.5577V82.4487C76.4688 82.1609 76.6854 81.9451 76.9742 81.9451C77.2631 81.9451 77.4797 82.1609 77.4797 82.4487V97.5577C77.4797 97.8455 77.1909 98.0613 76.9742 98.0613Z" fill="#BC6060"/>
<path opacity="0.2" d="M82.8961 98.0613C82.6073 98.0613 82.3906 97.8455 82.3906 97.5577V82.4487C82.3906 82.1609 82.6073 81.9451 82.8961 81.9451C83.185 81.9451 83.4016 82.1609 83.4016 82.4487V97.5577C83.4016 97.8455 83.185 98.0613 82.8961 98.0613Z" fill="#BC6060"/>
<path opacity="0.2" d="M89.4684 98.0613C89.1795 98.0613 88.9629 97.8455 88.9629 97.5577V82.4487C88.9629 82.1609 89.1795 81.9451 89.4684 81.9451C89.7572 81.9451 89.9739 82.1609 89.9739 82.4487V97.5577C89.9739 97.8455 89.685 98.0613 89.4684 98.0613Z" fill="#BC6060"/>
<path opacity="0.2" d="M96.5445 98.0613C96.2557 98.0613 96.0391 97.8455 96.0391 97.5577V82.4487C96.0391 82.1609 96.2557 81.9451 96.5445 81.9451C96.8334 81.9451 97.05 82.1609 97.05 82.4487V97.5577C97.05 97.8455 96.8334 98.0613 96.5445 98.0613Z" fill="#BC6060"/>
<path opacity="0.2" d="M141.099 81.9451C141.388 81.9451 141.605 82.1609 141.605 82.4487V97.5577C141.605 97.8455 141.388 98.0613 141.099 98.0613C140.81 98.0613 140.594 97.8455 140.594 97.5577V82.4487C140.594 82.1609 140.81 81.9451 141.099 81.9451Z" fill="#BC6060"/>
<path opacity="0.2" d="M137.343 81.9451C137.632 81.9451 137.849 82.1609 137.849 82.4487V97.5577C137.849 97.8455 137.632 98.0613 137.343 98.0613C137.055 98.0613 136.838 97.8455 136.838 97.5577V82.4487C136.838 82.1609 137.055 81.9451 137.343 81.9451Z" fill="#BC6060"/>
<path opacity="0.2" d="M131.927 81.9451C132.216 81.9451 132.433 82.1609 132.433 82.4487V97.5577C132.433 97.8455 132.216 98.0613 131.927 98.0613C131.639 98.0613 131.422 97.8455 131.422 97.5577V82.4487C131.422 82.1609 131.639 81.9451 131.927 81.9451Z" fill="#BC6060"/>
<path opacity="0.2" d="M125.935 81.9451C126.224 81.9451 126.441 82.1609 126.441 82.4487V97.5577C126.441 97.8455 126.224 98.0613 125.935 98.0613C125.646 98.0613 125.43 97.8455 125.43 97.5577V82.4487C125.43 82.1609 125.646 81.9451 125.935 81.9451Z" fill="#BC6060"/>
<path opacity="0.2" d="M119.435 81.9451C119.724 81.9451 119.941 82.1609 119.941 82.4487V97.5577C119.941 97.8455 119.724 98.0613 119.435 98.0613C119.146 98.0613 118.93 97.8455 118.93 97.5577V82.4487C118.93 82.1609 119.146 81.9451 119.435 81.9451Z" fill="#BC6060"/>
<path opacity="0.2" d="M112.359 81.9451C112.648 81.9451 112.864 82.1609 112.864 82.4487V97.5577C112.864 97.8455 112.648 98.0613 112.359 98.0613C112.07 98.0613 111.854 97.8455 111.854 97.5577V82.4487C111.854 82.1609 112.07 81.9451 112.359 81.9451Z" fill="#BC6060"/>
<path opacity="0.2" d="M143.266 82.5207V97.5577C143.266 98.4211 142.544 99.2125 141.605 99.2125H67.2274C66.5053 99.2125 65.8554 98.7089 65.7109 98.1333H106.366V82.017H113.226V98.0613H115.248V81.9451H120.303V98.0613H120.952V81.9451H126.368V98.0613H126.802V81.9451H143.049C143.194 82.1609 143.266 82.3048 143.266 82.5207Z" fill="#BC6060"/>
<path opacity="0.2" d="M141.605 80.9377H67.2273C66.3607 80.9377 65.5664 81.6572 65.5664 82.5925V97.6296C65.5664 97.7735 65.5664 97.9893 65.6386 98.1332H67.2273V82.017H68.166V98.0613H70.4768V81.945H71.921V98.0613H75.7482V81.945H77.8423V98.0613H81.0196V81.945H83.2581V98.0613H86.4354V81.945H89.9016V98.0613H91.4902V81.945H96.7616V98.0613H97.5559V81.945H142.832C142.905 81.3694 142.327 80.9377 141.605 80.9377Z" fill="white"/>
<path d="M142.904 81.1535H69.5375C68.3821 81.1535 67.4434 80.2182 67.4434 79.0671V64.8934C67.4434 63.7422 68.3821 62.8069 69.5375 62.8069H142.904C144.059 62.8069 144.998 63.7422 144.998 64.8934V78.9951C144.998 80.1463 144.059 81.1535 142.904 81.1535Z" fill="#FFD200"/>
<path opacity="0.2" d="M106.22 80.0023C105.931 80.0023 105.715 79.7864 105.715 79.4986V64.3896C105.715 64.1018 105.931 63.886 106.22 63.886C106.509 63.886 106.726 64.1018 106.726 64.3896V79.4986C106.726 79.7864 106.509 80.0023 106.22 80.0023Z" fill="#BC6060"/>
<path opacity="0.2" d="M69.609 80.0023C69.3202 80.0023 69.1035 79.7864 69.1035 79.4986V64.3896C69.1035 64.1018 69.3202 63.886 69.609 63.886C69.8978 63.886 70.1145 64.1018 70.1145 64.3896V79.4986C70.1145 79.7864 69.8978 80.0023 69.609 80.0023Z" fill="#BC6060"/>
<path opacity="0.2" d="M73.2926 80.0023C73.0037 80.0023 72.7871 79.7864 72.7871 79.4986V64.3896C72.7871 64.1018 73.0037 63.886 73.2926 63.886C73.5814 63.886 73.7981 64.1018 73.7981 64.3896V79.4986C73.7981 79.7864 73.5814 80.0023 73.2926 80.0023Z" fill="#BC6060"/>
<path opacity="0.2" d="M78.7066 80.0023C78.4178 80.0023 78.2012 79.7864 78.2012 79.4986V64.3896C78.2012 64.1018 78.4178 63.886 78.7066 63.886C78.9955 63.886 79.2121 64.1018 79.2121 64.3896V79.4986C79.2121 79.7864 78.9955 80.0023 78.7066 80.0023Z" fill="#BC6060"/>
<path opacity="0.2" d="M84.7008 80.0023C84.412 80.0023 84.1953 79.7864 84.1953 79.4986V64.3896C84.1953 64.1018 84.412 63.886 84.7008 63.886C84.9896 63.886 85.2063 64.1018 85.2063 64.3896V79.4986C85.2063 79.7864 84.9896 80.0023 84.7008 80.0023Z" fill="#BC6060"/>
<path opacity="0.2" d="M91.2008 80.0023C90.9119 80.0023 90.6953 79.7864 90.6953 79.4986V64.3896C90.6953 64.1018 90.9119 63.886 91.2008 63.886C91.4896 63.886 91.7063 64.1018 91.7063 64.3896V79.4986C91.7063 79.7864 91.4896 80.0023 91.2008 80.0023Z" fill="#BC6060"/>
<path opacity="0.2" d="M98.3492 80.0023C98.0604 80.0023 97.8438 79.7864 97.8438 79.4986V64.3896C97.8438 64.1018 98.0604 63.886 98.3492 63.886C98.6381 63.886 98.8547 64.1018 98.8547 64.3896V79.4986C98.8547 79.7864 98.5659 80.0023 98.3492 80.0023Z" fill="#BC6060"/>
<path opacity="0.2" d="M142.832 63.886C143.12 63.886 143.337 64.1018 143.337 64.3896V79.4986C143.337 79.7864 143.12 80.0023 142.832 80.0023C142.543 80.0023 142.326 79.7864 142.326 79.4986V64.3896C142.326 64.1018 142.615 63.886 142.832 63.886Z" fill="#BC6060"/>
<path opacity="0.2" d="M139.148 63.886C139.437 63.886 139.654 64.1018 139.654 64.3896V79.4986C139.654 79.7864 139.437 80.0023 139.148 80.0023C138.859 80.0023 138.643 79.7864 138.643 79.4986V64.3896C138.643 64.1018 138.859 63.886 139.148 63.886Z" fill="#BC6060"/>
<path opacity="0.2" d="M133.732 63.886C134.021 63.886 134.238 64.1018 134.238 64.3896V79.4986C134.238 79.7864 134.021 80.0023 133.732 80.0023C133.443 80.0023 133.227 79.7864 133.227 79.4986V64.3896C133.227 64.1018 133.443 63.886 133.732 63.886Z" fill="#BC6060"/>
<path opacity="0.2" d="M127.74 63.886C128.029 63.886 128.245 64.1018 128.245 64.3896V79.4986C128.245 79.7864 128.029 80.0023 127.74 80.0023C127.451 80.0023 127.234 79.7864 127.234 79.4986V64.3896C127.234 64.1018 127.451 63.886 127.74 63.886Z" fill="#BC6060"/>
<path opacity="0.2" d="M121.24 63.886C121.529 63.886 121.745 64.1018 121.745 64.3896V79.4986C121.745 79.7864 121.529 80.0023 121.24 80.0023C120.951 80.0023 120.734 79.7864 120.734 79.4986V64.3896C120.734 64.1018 120.951 63.886 121.24 63.886Z" fill="#BC6060"/>
<path opacity="0.2" d="M114.091 63.886C114.38 63.886 114.597 64.1018 114.597 64.3896V79.4986C114.597 79.7864 114.38 80.0023 114.091 80.0023C113.803 80.0023 113.586 79.7864 113.586 79.4986V64.3896C113.586 64.1018 113.875 63.886 114.091 63.886Z" fill="#BC6060"/>
<path opacity="0.2" d="M144.998 64.4616V79.4986C144.998 80.362 144.276 81.1534 143.337 81.1534H68.9598C68.2377 81.1534 67.5878 80.6498 67.4434 80.0742H108.098V63.886H114.958V80.0023H116.98V63.886H122.035V80.0023H122.685V63.886H128.101V80.0023H128.534V63.886H144.782C144.998 64.0299 144.998 64.2457 144.998 64.4616Z" fill="#BC6060"/>
<path opacity="0.2" d="M143.409 62.8069H69.0319C68.1654 62.8069 67.3711 63.5264 67.3711 64.4617V79.4987C67.3711 79.6426 67.3711 79.8585 67.4433 80.0024H69.0319V63.8861H70.0429V80.0024H72.3537V63.8861H73.7979V80.0024H77.6251V63.8861H79.7192V80.0024H82.8965V63.8861H85.135V80.0024H88.3123V63.8861H91.7785V80.0024H93.3671V63.8861H98.6385V80.0024H99.4328V63.8861H144.709C144.709 63.2386 144.059 62.8069 143.409 62.8069Z" fill="white"/>
<path d="M136.334 63.0228H62.9672C61.8118 63.0228 60.873 62.0874 60.873 60.9363V46.8345C60.873 45.6834 61.8118 44.748 62.9672 44.748H136.334C137.489 44.748 138.428 45.6834 138.428 46.8345V60.9363C138.428 62.0874 137.489 63.0228 136.334 63.0228Z" fill="#FFD200"/>
<path opacity="0.2" d="M99.65 61.9436C99.3612 61.9436 99.1445 61.7278 99.1445 61.44V46.259C99.1445 45.9712 99.3612 45.7554 99.65 45.7554C99.9389 45.7554 100.155 45.9712 100.155 46.259V61.368C100.155 61.7278 99.9389 61.9436 99.65 61.9436Z" fill="#BC6060"/>
<path opacity="0.2" d="M63.0387 61.9436C62.7498 61.9436 62.5332 61.7278 62.5332 61.44V46.259C62.5332 45.9712 62.7498 45.7554 63.0387 45.7554C63.3275 45.7554 63.5442 45.9712 63.5442 46.259V61.368C63.5442 61.7278 63.3275 61.9436 63.0387 61.9436Z" fill="#BC6060"/>
<path opacity="0.2" d="M66.7223 61.9436C66.4334 61.9436 66.2168 61.7278 66.2168 61.44V46.259C66.2168 45.9712 66.4334 45.7554 66.7223 45.7554C67.0111 45.7554 67.2278 45.9712 67.2278 46.259V61.368C67.2278 61.7278 67.0111 61.9436 66.7223 61.9436Z" fill="#BC6060"/>
<path opacity="0.2" d="M72.1363 61.9436C71.8475 61.9436 71.6309 61.7278 71.6309 61.44V46.259C71.6309 45.9712 71.8475 45.7554 72.1363 45.7554C72.4252 45.7554 72.6418 45.9712 72.6418 46.259V61.368C72.6418 61.7278 72.4252 61.9436 72.1363 61.9436Z" fill="#BC6060"/>
<path opacity="0.2" d="M78.1305 61.9436C77.8416 61.9436 77.625 61.7278 77.625 61.44V46.259C77.625 45.9712 77.8416 45.7554 78.1305 45.7554C78.4193 45.7554 78.636 45.9712 78.636 46.259V61.368C78.636 61.7278 78.4193 61.9436 78.1305 61.9436Z" fill="#BC6060"/>
<path opacity="0.2" d="M84.6305 61.9436C84.3416 61.9436 84.125 61.7278 84.125 61.44V46.259C84.125 45.9712 84.3416 45.7554 84.6305 45.7554C84.9193 45.7554 85.136 45.9712 85.136 46.259V61.368C85.136 61.7278 84.9193 61.9436 84.6305 61.9436Z" fill="#BC6060"/>
<path opacity="0.2" d="M91.7789 61.9436C91.4901 61.9436 91.2734 61.7278 91.2734 61.44V46.259C91.2734 45.9712 91.4901 45.7554 91.7789 45.7554C92.0678 45.7554 92.2844 45.9712 92.2844 46.259V61.368C92.2844 61.7278 92.0678 61.9436 91.7789 61.9436Z" fill="#BC6060"/>
<path opacity="0.2" d="M136.261 45.7554C136.55 45.7554 136.767 45.9712 136.767 46.259V61.368C136.767 61.6558 136.55 61.8717 136.261 61.8717C135.972 61.8717 135.756 61.6558 135.756 61.368V46.259C135.756 45.9712 136.045 45.7554 136.261 45.7554Z" fill="#BC6060"/>
<path opacity="0.2" d="M132.578 45.7554C132.867 45.7554 133.083 45.9712 133.083 46.259V61.368C133.083 61.6558 132.867 61.8717 132.578 61.8717C132.289 61.8717 132.072 61.6558 132.072 61.368V46.259C132.072 45.9712 132.289 45.7554 132.578 45.7554Z" fill="#BC6060"/>
<path opacity="0.2" d="M127.162 45.7554C127.451 45.7554 127.667 45.9712 127.667 46.259V61.368C127.667 61.6558 127.451 61.8717 127.162 61.8717C126.873 61.8717 126.656 61.6558 126.656 61.368V46.259C126.656 45.9712 126.873 45.7554 127.162 45.7554Z" fill="#BC6060"/>
<path opacity="0.2" d="M121.17 45.7554C121.458 45.7554 121.675 45.9712 121.675 46.259V61.368C121.675 61.6558 121.458 61.8717 121.17 61.8717C120.881 61.8717 120.664 61.6558 120.664 61.368V46.259C120.664 45.9712 120.881 45.7554 121.17 45.7554Z" fill="#BC6060"/>
<path opacity="0.2" d="M114.67 45.7554C114.958 45.7554 115.175 45.9712 115.175 46.259V61.368C115.175 61.6558 114.958 61.8717 114.67 61.8717C114.381 61.8717 114.164 61.6558 114.164 61.368V46.259C114.164 45.9712 114.381 45.7554 114.67 45.7554Z" fill="#BC6060"/>
<path opacity="0.2" d="M107.593 45.7554C107.882 45.7554 108.099 45.9712 108.099 46.259V61.368C108.099 61.6558 107.882 61.8717 107.593 61.8717C107.305 61.8717 107.088 61.6558 107.088 61.368V46.259C107.088 45.9712 107.305 45.7554 107.593 45.7554Z" fill="#BC6060"/>
<path opacity="0.2" d="M138.5 46.4029V61.44C138.5 62.3033 137.778 63.0948 136.839 63.0948H62.4617C61.7396 63.0948 61.0897 62.5911 60.9453 62.0155H101.6V45.7554H108.46V61.8716H110.482V45.7554H115.537V61.8716H116.187V45.7554H121.603V61.8716H122.036V45.7554H138.283C138.428 45.9712 138.5 46.1871 138.5 46.4029Z" fill="#BC6060"/>
<path opacity="0.2" d="M136.839 44.748H62.4616C61.5951 44.748 60.8008 45.4675 60.8008 46.4028V61.4399C60.8008 61.5838 60.8008 61.7996 60.873 61.9435H62.4616V45.7553H63.4004V61.8716H65.7111V45.7553H67.1554V61.8716H70.9826V45.7553H73.0767V61.8716H76.254V45.7553H78.4925V61.8716H81.6698V45.7553H85.1359V61.8716H86.7246V45.7553H91.996V61.8716H92.7903V45.7553H138.067C138.139 45.1797 137.489 44.748 136.839 44.748Z" fill="white"/>
<path d="M141.099 44.9639H67.7328C66.5774 44.9639 65.6387 44.0286 65.6387 42.8774V28.7757C65.6387 27.6245 66.5774 26.6892 67.7328 26.6892H141.099C142.255 26.6892 143.193 27.6245 143.193 28.7757V42.8774C143.266 44.0286 142.327 44.9639 141.099 44.9639Z" fill="#FFD200"/>
<path opacity="0.2" d="M104.416 43.8128C104.127 43.8128 103.91 43.597 103.91 43.3092V28.2002C103.91 27.9124 104.127 27.6965 104.416 27.6965C104.704 27.6965 104.921 27.9124 104.921 28.2002V43.3092C104.921 43.597 104.704 43.8128 104.416 43.8128Z" fill="#BC6060"/>
<path opacity="0.2" d="M67.8043 43.8128C67.5155 43.8128 67.2988 43.597 67.2988 43.3092V28.2002C67.2988 27.9124 67.5155 27.6965 67.8043 27.6965C68.0932 27.6965 68.3098 27.9124 68.3098 28.2002V43.3092C68.3098 43.597 68.0932 43.8128 67.8043 43.8128Z" fill="#BC6060"/>
<path opacity="0.2" d="M71.5602 43.8128C71.2713 43.8128 71.0547 43.597 71.0547 43.3092V28.2002C71.0547 27.9124 71.2713 27.6965 71.5602 27.6965C71.849 27.6965 72.0657 27.9124 72.0657 28.2002V43.3092C72.0657 43.597 71.7768 43.8128 71.5602 43.8128Z" fill="#BC6060"/>
<path opacity="0.2" d="M76.9742 43.8128C76.6854 43.8128 76.4688 43.597 76.4688 43.3092V28.2002C76.4688 27.9124 76.6854 27.6965 76.9742 27.6965C77.2631 27.6965 77.4797 27.9124 77.4797 28.2002V43.3092C77.4797 43.597 77.1909 43.8128 76.9742 43.8128Z" fill="#BC6060"/>
<path opacity="0.2" d="M82.8961 43.8128C82.6073 43.8128 82.3906 43.597 82.3906 43.3092V28.2002C82.3906 27.9124 82.6073 27.6965 82.8961 27.6965C83.185 27.6965 83.4016 27.9124 83.4016 28.2002V43.3092C83.4016 43.597 83.185 43.8128 82.8961 43.8128Z" fill="#BC6060"/>
<path opacity="0.2" d="M89.4684 43.8128C89.1795 43.8128 88.9629 43.597 88.9629 43.3092V28.2002C88.9629 27.9124 89.1795 27.6965 89.4684 27.6965C89.7572 27.6965 89.9739 27.9124 89.9739 28.2002V43.3092C89.9739 43.597 89.685 43.8128 89.4684 43.8128Z" fill="#BC6060"/>
<path opacity="0.2" d="M96.5445 43.8128C96.2557 43.8128 96.0391 43.597 96.0391 43.3092V28.2002C96.0391 27.9124 96.2557 27.6965 96.5445 27.6965C96.8334 27.6965 97.05 27.9124 97.05 28.2002V43.3092C97.05 43.597 96.8334 43.8128 96.5445 43.8128Z" fill="#BC6060"/>
<path opacity="0.2" d="M141.099 27.6965C141.388 27.6965 141.605 27.9124 141.605 28.2002V43.3092C141.605 43.597 141.388 43.8128 141.099 43.8128C140.81 43.8128 140.594 43.597 140.594 43.3092V28.2002C140.594 27.9124 140.81 27.6965 141.099 27.6965Z" fill="#BC6060"/>
<path opacity="0.2" d="M137.343 27.6965C137.632 27.6965 137.849 27.9124 137.849 28.2002V43.3092C137.849 43.597 137.632 43.8128 137.343 43.8128C137.055 43.8128 136.838 43.597 136.838 43.3092V28.2002C136.838 27.9124 137.055 27.6965 137.343 27.6965Z" fill="#BC6060"/>
<path opacity="0.2" d="M131.927 27.6965C132.216 27.6965 132.433 27.9124 132.433 28.2002V43.3092C132.433 43.597 132.216 43.8128 131.927 43.8128C131.639 43.8128 131.422 43.597 131.422 43.3092V28.2002C131.422 27.9124 131.639 27.6965 131.927 27.6965Z" fill="#BC6060"/>
<path opacity="0.2" d="M125.935 27.6965C126.224 27.6965 126.441 27.9124 126.441 28.2002V43.3092C126.441 43.597 126.224 43.8128 125.935 43.8128C125.646 43.8128 125.43 43.597 125.43 43.3092V28.2002C125.43 27.9124 125.646 27.6965 125.935 27.6965Z" fill="#BC6060"/>
<path opacity="0.2" d="M119.435 27.6965C119.724 27.6965 119.941 27.9124 119.941 28.2002V43.3092C119.941 43.597 119.724 43.8128 119.435 43.8128C119.146 43.8128 118.93 43.597 118.93 43.3092V28.2002C118.93 27.9124 119.146 27.6965 119.435 27.6965Z" fill="#BC6060"/>
<path opacity="0.2" d="M112.359 27.6965C112.648 27.6965 112.864 27.9124 112.864 28.2002V43.3092C112.864 43.597 112.648 43.8128 112.359 43.8128C112.07 43.8128 111.854 43.597 111.854 43.3092V28.2002C111.854 27.9124 112.07 27.6965 112.359 27.6965Z" fill="#BC6060"/>
<path opacity="0.2" d="M143.266 28.2721V43.3092C143.266 44.1725 142.544 44.964 141.605 44.964H67.2274C66.5053 44.964 65.8554 44.4603 65.7109 43.8848H106.366V27.6965H113.226V43.8128H115.248V27.6965H120.303V43.8128H120.952V27.6965H126.368V43.8128H126.802V27.6965H143.049C143.194 27.8404 143.266 28.0563 143.266 28.2721Z" fill="#BC6060"/>
<path opacity="0.2" d="M141.605 26.6892H67.2273C66.3607 26.6892 65.5664 27.4087 65.5664 28.344V43.3811C65.5664 43.525 65.5664 43.7408 65.6386 43.8847H67.2273V27.6965H68.166V43.8128H70.4768V27.6965H71.921V43.8128H75.7482V27.6965H77.8423V43.8128H81.0196V27.6965H83.2581V43.8128H86.4354V27.6965H89.9016V43.8128H91.4902V27.6965H96.7616V43.8128H97.5559V27.6965H142.832C142.905 27.0489 142.327 26.6892 141.605 26.6892Z" fill="white"/>
<path d="M100.229 18.3433L64.9181 24.0271L27.6571 29.9988C26.574 30.2146 25.4908 29.4232 25.2742 28.2721L23.9021 19.8542L22.9634 14.2423C22.7468 13.163 23.5411 12.0838 24.6965 11.868L97.2687 0.284408C98.3518 0.0685653 99.435 0.85999 99.6516 1.93921L101.89 15.969C102.107 17.1202 101.313 18.1994 100.229 18.3433Z" fill="#FFD200"/>
<path opacity="0.2" d="M63.7625 23.0918C63.4736 23.1637 63.257 22.9479 63.1848 22.6601L60.8018 7.69499C60.6574 7.4072 60.874 7.19136 61.1629 7.11941C61.4517 7.04747 61.6684 7.26331 61.7406 7.5511L64.1236 22.5162C64.1958 22.804 63.9791 23.0198 63.7625 23.0918Z" fill="#BC6060"/>
<path opacity="0.2" d="M27.5859 28.8475C27.2971 28.9194 27.0804 28.7036 27.0082 28.4158L24.5531 13.5226C24.4808 13.2348 24.6975 13.019 24.9863 12.9471C25.2752 12.8751 25.4918 13.0909 25.564 13.3787L27.947 28.2719C28.0192 28.5597 27.8026 28.8475 27.5859 28.8475Z" fill="#BC6060"/>
<path opacity="0.2" d="M31.2696 28.272C30.9807 28.3439 30.7641 28.1281 30.6919 27.8403L28.3089 12.8752C28.2367 12.5874 28.4533 12.3715 28.7422 12.2996C29.031 12.2276 29.2477 12.4435 29.3199 12.7313L31.7028 27.6964C31.7028 27.9842 31.5584 28.272 31.2696 28.272Z" fill="#BC6060"/>
<path opacity="0.2" d="M36.6114 27.4087C36.3225 27.4806 36.1059 27.2648 36.0337 26.977L33.6507 12.0119C33.5785 11.7241 33.7951 11.5083 34.084 11.4363C34.3728 11.3644 34.5895 11.5802 34.6617 11.868L36.9724 26.8331C37.0446 27.1209 36.828 27.4087 36.6114 27.4087Z" fill="#BC6060"/>
<path opacity="0.2" d="M42.461 26.4734C42.1721 26.5453 41.9555 26.3295 41.8833 26.0417L39.5003 11.0766C39.4281 10.7888 39.6447 10.573 39.9336 10.501C40.2224 10.4291 40.4391 10.6449 40.5113 10.9327L42.8943 25.8978C42.9665 26.1856 42.7498 26.4734 42.461 26.4734Z" fill="#BC6060"/>
<path opacity="0.2" d="M48.961 25.4661C48.6721 25.538 48.4555 25.3222 48.3833 25.0344L46.0003 10.0693C45.9281 9.78147 46.1447 9.56563 46.4336 9.49368C46.7224 9.42173 46.9391 9.63758 47.0113 9.92537L49.3942 24.8905C49.3942 25.1783 49.1776 25.3941 48.961 25.4661Z" fill="#BC6060"/>
<path opacity="0.2" d="M55.9649 24.3149C55.676 24.3869 55.4594 24.171 55.3872 23.8833L53.0042 8.91814C52.932 8.63035 53.1487 8.41451 53.4375 8.34256C53.7263 8.27061 53.943 8.48645 54.0152 8.77424L56.3259 23.7394C56.3982 24.0272 56.1815 24.3149 55.9649 24.3149Z" fill="#BC6060"/>
<path opacity="0.2" d="M97.3418 1.36355C97.6306 1.29161 97.8473 1.50745 97.9195 1.79524L100.302 16.7604C100.375 17.0481 100.158 17.264 99.8692 17.3359C99.5803 17.4079 99.3637 17.192 99.2915 16.9043L96.9085 1.93914C96.8363 1.65134 97.053 1.36355 97.3418 1.36355Z" fill="#BC6060"/>
<path opacity="0.2" d="M93.6582 1.93924C93.947 1.86729 94.1637 2.08313 94.2359 2.37092L96.6189 17.336C96.6911 17.6238 96.4744 17.8397 96.1856 17.9116C95.8967 17.9836 95.6801 17.7677 95.6079 17.4799L93.2249 2.51482C93.1527 2.22703 93.3693 1.93924 93.6582 1.93924Z" fill="#BC6060"/>
<path opacity="0.2" d="M88.3164 2.80252C88.6053 2.73057 88.8219 2.94641 88.8941 3.2342L91.2771 18.1993C91.3493 18.4871 91.1326 18.703 90.8438 18.7749C90.5549 18.8468 90.3383 18.631 90.2661 18.3432L87.8831 3.3781C87.8109 3.09031 88.0276 2.80252 88.3164 2.80252Z" fill="#BC6060"/>
<path opacity="0.2" d="M82.3942 3.73782C82.683 3.66587 82.8997 3.88172 82.9719 4.16951L85.3549 19.1346C85.4271 19.4224 85.2104 19.6383 84.9216 19.7102C84.6327 19.7822 84.4161 19.5663 84.3439 19.2785L81.9609 4.3134C81.9609 4.02561 82.1054 3.73782 82.3942 3.73782Z" fill="#BC6060"/>
<path opacity="0.2" d="M75.9668 4.74515C76.2556 4.6732 76.4723 4.88904 76.5445 5.17683L78.9274 20.1419C78.9997 20.4297 78.783 20.6456 78.4942 20.7175C78.2053 20.7895 77.9887 20.5736 77.9165 20.2858L75.5335 5.32073C75.4613 5.03294 75.6779 4.81709 75.9668 4.74515Z" fill="#BC6060"/>
<path opacity="0.2" d="M68.9629 5.89627C69.2517 5.82432 69.4684 6.04016 69.5406 6.32795L71.9235 21.2931C71.9958 21.5809 71.7791 21.7967 71.4903 21.8687C71.2014 21.9406 70.9848 21.7248 70.9126 21.437L68.5296 6.47185C68.4574 6.18406 68.674 5.89627 68.9629 5.89627Z" fill="#BC6060"/>
<path opacity="0.2" d="M99.5789 1.57949L101.962 16.4007C102.106 17.2641 101.529 18.1275 100.59 18.2713L27.2233 30.0708C26.5012 30.2147 25.8513 29.8549 25.4902 29.2074L65.6396 22.7321L63.1123 6.83167L69.9001 5.75245L72.4997 21.7248L74.4494 21.437L71.8498 5.39271L76.9046 4.60129L79.5042 20.5737L80.1541 20.5017L77.4823 4.52934L82.8259 3.66597L85.4255 19.6384L85.8588 19.5664L83.2592 3.59402L99.3623 1.00391C99.4345 1.1478 99.5067 1.36364 99.5789 1.57949Z" fill="#BC6060"/>
<path opacity="0.2" d="M97.702 0.212434L24.2633 12.0119C23.3967 12.1557 22.7468 13.0191 22.8912 13.8825L25.2742 28.7037C25.2742 28.8476 25.3464 29.0634 25.4186 29.2073L27.0073 28.9196L24.4077 12.9472L25.3464 12.8033L27.946 28.7757L30.2568 28.4159L27.6572 12.4435L29.1014 12.2277L31.7732 28.2001L35.6004 27.6245L33.0008 11.6521L35.0949 11.2924L37.6945 27.2648L40.8718 26.7611L38.2722 10.7887L40.5108 10.429L43.1104 26.4014L46.2877 25.8978L43.6881 9.92537L47.1542 9.34979L49.7538 25.3222L51.3424 25.0344L48.7428 9.062L54.0143 8.19863L56.6139 24.171L57.4082 24.0271L54.8086 8.05473L99.5073 0.859963C99.0018 0.428277 98.3519 0.140487 97.702 0.212434Z" fill="white"/>
<path opacity="0.2" d="M64.846 24.0272L27.5851 29.9988C26.5019 30.2147 25.4187 29.4232 25.2021 28.2721L23.8301 19.8542C45.4212 11.5802 59.2858 19.4945 64.846 24.0272Z" fill="#BC6060"/>
<path d="M65.4942 46.3308L18.1237 94.0321L13.791 98.421C12.9967 99.2124 11.6969 99.2124 10.9026 98.421L0.793008 88.4202C-0.00131504 87.6288 -0.00131504 86.3337 0.793008 85.5423L13.5022 72.7356L52.424 33.4522C53.2183 32.6608 54.5181 32.6608 55.3124 33.4522L65.422 43.4529C66.2885 44.2444 66.2885 45.5394 65.4942 46.3308Z" fill="#FFD200"/>
<path opacity="0.2" d="M38.8491 71.5845C38.6324 71.8004 38.3436 71.8004 38.127 71.5845L27.2953 60.9363C27.0787 60.7204 27.0787 60.4327 27.2953 60.2168C27.5119 60.001 27.8008 60.001 28.0174 60.2168L38.8491 70.8651C39.0657 71.0809 39.0657 71.3687 38.8491 71.5845Z" fill="#BC6060"/>
<path opacity="0.2" d="M13.142 97.5575C12.9254 97.7733 12.6366 97.7733 12.4199 97.5575L1.58826 86.9092C1.37162 86.6933 1.37162 86.4056 1.58826 86.1897C1.80489 85.9739 2.09373 85.9739 2.31037 86.1897L13.142 96.838C13.2865 97.0538 13.2865 97.3416 13.142 97.5575Z" fill="#BC6060"/>
<path opacity="0.2" d="M15.7416 94.8953C15.525 95.1112 15.2362 95.1112 15.0195 94.8953L4.18787 84.2471C3.97123 84.0312 3.97123 83.7434 4.18787 83.5276C4.4045 83.3118 4.69334 83.3118 4.90998 83.5276L15.7416 94.1759C15.9583 94.3917 15.9583 94.7514 15.7416 94.8953Z" fill="#BC6060"/>
<path opacity="0.2" d="M19.5698 91.0821C19.3531 91.298 19.0643 91.298 18.8477 91.0821L8.01599 80.4338C7.79936 80.218 7.79936 79.9302 8.01599 79.7144C8.23262 79.4985 8.52147 79.4985 8.7381 79.7144L19.5698 90.3626C19.7142 90.5785 19.7142 90.8663 19.5698 91.0821Z" fill="#BC6060"/>
<path opacity="0.2" d="M23.7573 86.8372C23.5406 87.0531 23.2518 87.0531 23.0352 86.8372L12.2035 76.189C11.9869 75.9731 11.9869 75.6853 12.2035 75.4695C12.4201 75.2537 12.709 75.2537 12.9256 75.4695L23.7573 86.1178C23.9017 86.3336 23.9017 86.6214 23.7573 86.8372Z" fill="#BC6060"/>
<path opacity="0.2" d="M28.3061 82.2325C28.0895 82.4483 27.8006 82.4483 27.584 82.2325L16.7523 71.5842C16.5357 71.3684 16.5357 71.0806 16.7523 70.8648C16.969 70.6489 17.2578 70.6489 17.4744 70.8648L28.3061 81.513C28.5227 81.7289 28.5227 82.0167 28.3061 82.2325Z" fill="#BC6060"/>
<path opacity="0.2" d="M33.2885 77.1964C33.0719 77.4122 32.783 77.4122 32.5664 77.1964L21.7347 66.5481C21.5181 66.3323 21.5181 66.0445 21.7347 65.8286C21.9514 65.6128 22.2402 65.6128 22.4569 65.8286L33.2885 76.4769C33.5052 76.6927 33.5052 76.9805 33.2885 77.1964Z" fill="#BC6060"/>
<path opacity="0.2" d="M53.0751 34.3154C53.2917 34.0996 53.5806 34.0996 53.7972 34.3154L64.6289 44.9637C64.8455 45.1795 64.8455 45.4673 64.6289 45.6832C64.4123 45.899 64.1234 45.899 63.9068 45.6832L53.0751 35.0349C52.9307 34.8191 52.9307 34.4593 53.0751 34.3154Z" fill="#BC6060"/>
<path opacity="0.2" d="M50.475 36.9055C50.6916 36.6897 50.9805 36.6897 51.1971 36.9055L62.0288 47.5538C62.2454 47.7696 62.2454 48.0574 62.0288 48.2733C61.8121 48.4891 61.5233 48.4891 61.3066 48.2733L50.475 37.625C50.2583 37.4811 50.2583 37.1214 50.475 36.9055Z" fill="#BC6060"/>
<path opacity="0.2" d="M46.6474 40.7908C46.864 40.5749 47.1529 40.5749 47.3695 40.7908L58.2012 51.439C58.4178 51.6549 58.4178 51.9427 58.2012 52.1585C57.9845 52.3744 57.6957 52.3744 57.4791 52.1585L46.6474 41.5103C46.503 41.2944 46.503 40.9347 46.6474 40.7908Z" fill="#BC6060"/>
<path opacity="0.2" d="M42.4594 44.9636C42.676 44.7478 42.9648 44.7478 43.1815 44.9636L54.0131 55.6119C54.2298 55.8277 54.2298 56.1155 54.0131 56.3314C53.7965 56.5472 53.5077 56.5472 53.291 56.3314L42.4594 45.6831C42.2427 45.5392 42.2427 45.1795 42.4594 44.9636Z" fill="#BC6060"/>
<path opacity="0.2" d="M37.9105 49.6404C38.1272 49.4246 38.416 49.4246 38.6326 49.6404L49.4643 60.2887C49.6809 60.5045 49.6809 60.7923 49.4643 61.0081C49.2477 61.224 48.9588 61.224 48.7422 61.0081L37.9105 50.3599C37.6939 50.144 37.6939 49.7843 37.9105 49.6404Z" fill="#BC6060"/>
<path opacity="0.2" d="M32.9281 54.6765C33.1447 54.4607 33.4336 54.4607 33.6502 54.6765L44.4819 65.3248C44.6985 65.5406 44.6985 65.8284 44.4819 66.0443C44.2653 66.2601 43.9764 66.2601 43.7598 66.0443L32.9281 55.396C32.7115 55.1802 32.7115 54.8204 32.9281 54.6765Z" fill="#BC6060"/>
<path opacity="0.2" d="M55.0239 33.1643L65.7834 43.7406C66.4333 44.3881 66.4333 45.3954 65.7834 46.0429L13.5025 98.7086C12.997 99.2122 12.2027 99.3561 11.625 98.9964L40.2206 70.1454L28.6668 58.7776L33.505 53.8852L45.0588 65.2529L46.4308 63.814L34.877 52.4462L38.4875 48.8488L50.0413 60.2166L50.4746 59.7129L38.993 48.4891L42.8202 44.6759L54.374 56.0436L54.6628 55.7558L43.1091 44.3881L54.5906 32.8765C54.7351 32.8765 54.8795 33.0204 55.0239 33.1643Z" fill="#BC6060"/>
<path opacity="0.2" d="M52.7137 33.1644L0.505003 85.902C-0.144897 86.5495 -0.144897 87.5568 0.505003 88.2043L11.2645 98.7806C11.4089 98.9245 11.5533 98.9965 11.6977 99.0684L12.8531 97.9173L1.22712 86.5495L1.87702 85.902L13.4308 97.2697L15.0917 95.615L3.53787 84.2472L4.54883 83.24L16.1026 94.6077L18.7744 91.8737L7.22064 80.5059L8.66487 78.995L20.2187 90.3628L22.4572 88.0604L10.9034 76.6927L12.4921 75.1099L24.0458 86.4776L26.2844 84.1753L14.7306 72.8075L17.1858 70.3613L28.7396 81.729L29.8949 80.5779L18.4134 69.2821L22.1684 65.5408L33.7221 76.9086L34.2998 76.333L22.6738 64.9652L54.519 32.8766C53.9413 32.5888 53.2192 32.6607 52.7137 33.1644Z" fill="white"/>
<path opacity="0.2" d="M65.4959 46.3308L18.1254 94.0321C14.8759 86.1179 13.7927 78.4914 13.4316 72.7356L52.3535 33.4522C53.1478 32.6608 54.4476 32.6608 55.2419 33.4522L65.3515 43.4529C66.2902 44.2444 66.2902 45.5394 65.4959 46.3308Z" fill="#BC6060"/>
<path opacity="0.2" d="M101.6 81.1536H100.156C100.156 81.1536 100.228 92.8091 97.3397 98.9966L96.4731 99.1405H67.6609C66.5055 99.1405 65.639 98.2052 65.639 97.126V82.9523C65.639 81.8011 66.5777 80.9377 67.6609 80.9377H68.5996C67.8775 80.578 67.4443 79.9305 67.4443 79.0671V64.8934C67.4443 64.102 67.9497 63.3825 68.5996 63.0228H62.895C61.7396 63.0228 60.873 62.0875 60.873 61.0082V46.7626C60.873 45.6114 61.8118 44.7481 62.895 44.7481H66.7944C66.0722 44.3883 65.639 43.7408 65.639 42.8774V28.7037C65.639 27.5526 66.5777 26.6892 67.6609 26.6892H72.7879C72.7879 26.6892 89.1076 33.3803 95.6788 45.0359H92.2127C92.2127 45.0359 98.8561 53.7415 98.5673 62.8789H101.6C101.6 62.8069 103.983 71.5126 101.6 81.1536Z" fill="#BC6060"/>
<path d="M83.3306 60.0728C83.3306 60.2167 83.3306 60.4326 83.3306 60.5764C83.3306 61.0801 83.3306 61.5837 83.3306 62.0154C83.2584 63.886 83.114 65.6847 82.8251 67.4834C82.7529 67.8432 82.7529 68.2029 82.6807 68.4907C82.6807 68.6346 82.6085 68.7785 82.6085 68.9224C82.4641 69.5699 82.3919 70.2894 82.1752 70.9369C81.8864 72.232 81.5975 73.4551 81.2365 74.6782C81.1643 75.0379 81.0198 75.3977 80.9476 75.6855C80.8754 75.8293 80.8754 75.9732 80.8032 76.0452C80.731 76.261 80.6588 76.4769 80.5866 76.6927C80.0089 78.2756 79.4312 79.7865 78.7091 81.1535C78.5647 81.5132 78.4202 81.801 78.2036 82.0888V82.1607C78.1314 82.3046 78.0592 82.4485 77.987 82.5205C77.1204 84.1753 76.1817 85.6862 75.0985 87.1251C74.8819 87.4849 74.5931 87.8446 74.3042 88.1324C73.0044 89.7872 71.6324 91.2262 70.116 92.5932C69.6827 92.9529 69.3216 93.3126 68.8884 93.6004C67.5164 94.6796 66.1443 95.543 64.7001 96.3344C63.978 96.6942 63.2559 97.0539 62.4616 97.3417C59.7898 98.4209 56.9013 98.9965 53.9407 98.9965C50.5467 98.9965 47.2972 98.2051 44.2644 96.8381C32.7828 91.5139 24.4785 76.9805 24.4785 59.9289C24.4785 42.8054 32.7106 28.2719 44.2644 23.0198C45.1309 22.5881 45.9974 22.3003 46.864 22.0125C49.1025 21.293 51.4855 20.8613 53.8685 20.8613C56.8291 20.8613 59.7176 21.4369 62.3894 22.5161C62.3894 22.5161 62.3894 22.5161 62.4616 22.5161C63.1837 22.8039 63.8336 23.0917 64.4835 23.4514C64.5557 23.4514 64.5557 23.5234 64.5557 23.5234C65.7833 24.1709 67.0109 24.9623 68.1663 25.8257C68.3829 25.9696 68.5995 26.1135 68.7439 26.2574C69.1772 26.5452 69.5383 26.9049 69.9715 27.2647C71.2713 28.4158 72.4989 29.7109 73.7265 31.1498C73.8709 31.3657 74.0154 31.5096 74.1598 31.7254C74.4486 32.0852 74.6653 32.373 74.9541 32.7327C75.0985 32.8766 75.243 33.0924 75.3152 33.2363C76.0373 34.2436 76.7594 35.3228 77.3371 36.474C77.5537 36.9057 77.7703 37.2654 77.987 37.6971C78.1314 38.0568 78.348 38.3446 78.4925 38.7044C78.9979 39.7836 79.5034 40.8628 79.9367 41.942C80.2255 42.7334 80.5144 43.4529 80.8032 44.2443C80.9476 44.6041 81.0198 44.8918 81.0921 45.2516C81.0921 45.3235 81.0921 45.3955 81.1643 45.3955C81.3087 45.8991 81.4531 46.4747 81.5975 46.9783C81.9586 48.4173 82.2474 49.8562 82.5363 51.2952C82.6085 51.6549 82.6085 51.9427 82.6807 52.3025C82.7529 52.5903 82.7529 52.8061 82.7529 53.0939C83.0418 55.1084 83.1862 57.123 83.1862 59.2814C83.3306 59.785 83.3306 59.9289 83.3306 60.0728Z" fill="#FFD200"/>
<path d="M83.3299 60.0727C83.3299 60.2166 83.3299 60.4324 83.3299 60.5763C83.3299 61.08 83.3299 61.5836 83.3299 62.0153C83.2577 63.8859 83.1133 65.6846 82.8244 67.4833C82.7522 67.8431 82.7522 68.2028 82.68 68.4906C82.68 68.6345 82.6078 68.7784 82.6078 68.9223C82.4634 69.5698 82.3912 70.2893 82.1745 70.9368C81.8857 72.2319 81.5968 73.455 81.2358 74.6781C81.1636 75.0378 81.0191 75.3976 80.9469 75.6854C80.8747 75.8292 80.8747 75.9731 80.8025 76.0451C80.7303 76.2609 80.6581 76.4768 80.5859 76.6926C80.0082 78.2755 79.4305 79.7864 78.7084 81.1534C78.564 81.5131 78.4196 81.8009 78.2029 82.0887V82.1606C78.1307 82.3045 78.0585 82.4484 77.9863 82.5204C77.1198 84.1752 76.181 85.6861 75.0978 87.125C74.8812 87.4848 74.5924 87.8445 74.3035 88.1323C73.0037 89.7871 71.6317 91.226 70.1153 92.593C69.682 92.9528 69.3209 93.3125 68.8877 93.6003C67.5157 94.6795 66.1437 95.5429 64.6994 96.3343C63.9773 96.6941 63.2552 97.0538 62.4609 97.3416C59.7891 98.4208 56.9006 98.9964 53.94 98.9964H46.069C45.2024 98.9964 44.4803 98.4208 44.3359 97.5574C44.3359 97.4135 44.2637 97.3416 44.2637 97.1977V22.8038C44.2637 22.6599 44.2637 22.588 44.3359 22.4441C44.3359 22.4441 44.3359 22.4441 44.3359 22.3721C44.5525 21.5807 45.2024 21.0051 46.069 21.0051H53.94C56.9006 21.0051 59.7891 21.5807 62.4609 22.6599C62.4609 22.6599 62.4609 22.6599 62.5331 22.6599C63.2552 22.9477 63.9051 23.2355 64.555 23.5952C64.6272 23.5952 64.6272 23.6672 64.6272 23.6672C65.8548 24.3147 67.0824 25.1061 68.2378 25.9695C68.4544 26.1134 68.671 26.2573 68.8155 26.4012C69.2487 26.689 69.6098 27.0487 70.0431 27.4085C71.3429 28.5596 72.5704 29.8547 73.798 31.2936C73.9425 31.5095 74.0869 31.6534 74.2313 31.8692C74.5201 32.229 74.7368 32.5168 75.0256 32.8765C75.17 33.0204 75.3145 33.2362 75.3867 33.3801C76.1088 34.3874 76.8309 35.4666 77.4086 36.6178C77.6252 37.0495 77.8419 37.4092 78.0585 37.8409C78.2029 38.2006 78.4196 38.4884 78.564 38.8481C79.0695 39.9274 79.5749 41.0066 80.0082 42.0858C80.297 42.8772 80.5859 43.5967 80.8747 44.3881C81.0192 44.7479 81.0914 45.0356 81.1636 45.3954C81.1636 45.4673 81.1636 45.5393 81.2358 45.5393C81.3802 46.0429 81.5246 46.6185 81.6691 47.1221C82.0301 48.5611 82.319 50 82.6078 51.439C82.68 51.7987 82.68 52.0865 82.7522 52.4463C82.8244 52.734 82.8244 52.9499 82.8244 53.2377C83.1133 55.2522 83.2577 57.2668 83.2577 59.4252C83.3299 59.7849 83.3299 59.9288 83.3299 60.0727Z" fill="#FFD200"/>
<path opacity="0.2" d="M83.33 60.0727C83.33 60.2166 83.33 60.4325 83.33 60.5764H47.441C47.1522 60.5764 46.9355 60.3605 46.9355 60.0727C46.9355 59.7849 47.1522 59.5691 47.441 59.5691H83.33C83.33 59.7849 83.33 59.9288 83.33 60.0727Z" fill="#BC6060"/>
<path opacity="0.2" d="M64.6273 23.6672H47.441C47.3688 23.6672 47.2966 23.6672 47.2244 23.5952C47.08 23.5233 46.9355 23.3794 46.9355 23.1635C46.9355 22.9477 47.08 22.7319 47.2966 22.6599C47.3688 22.6599 47.3688 22.6599 47.441 22.6599H62.4609C62.4609 22.6599 62.4609 22.6599 62.5332 22.6599C63.2553 22.9477 63.9052 23.2355 64.5551 23.5952C64.5551 23.6672 64.6273 23.6672 64.6273 23.6672Z" fill="#BC6060"/>
<path opacity="0.2" d="M70.1153 27.4804H47.441C47.1522 27.4804 46.9355 27.2646 46.9355 26.9768C46.9355 26.689 47.1522 26.4731 47.441 26.4731H68.8877C69.321 26.7609 69.6821 27.1207 70.1153 27.4804Z" fill="#BC6060"/>
<path opacity="0.2" d="M75.0257 32.9484H47.441C47.1522 32.9484 46.9355 32.7326 46.9355 32.4448C46.9355 32.157 47.1522 31.9412 47.441 31.9412H74.3036C74.5202 32.229 74.8091 32.5887 75.0257 32.9484Z" fill="#BC6060"/>
<path opacity="0.2" d="M78.6362 38.9201H47.441C47.1522 38.9201 46.9355 38.7043 46.9355 38.4165C46.9355 38.1287 47.1522 37.9128 47.441 37.9128H78.1308C78.2752 38.2726 78.4918 38.5604 78.6362 38.9201Z" fill="#BC6060"/>
<path opacity="0.2" d="M81.2358 45.5393H47.441C47.1522 45.5393 46.9355 45.3234 46.9355 45.0356C46.9355 44.7478 47.1522 44.532 47.441 44.532H80.8748C81.0192 44.8198 81.0914 45.1795 81.2358 45.5393Z" fill="#BC6060"/>
<path opacity="0.2" d="M82.7522 52.6621H47.3688C47.2965 52.6621 47.2965 52.6621 47.2243 52.6621C47.0077 52.5901 46.8633 52.4462 46.8633 52.1584C46.8633 51.8706 47.0799 51.6548 47.3688 51.6548H82.6078C82.68 51.9426 82.7522 52.3023 82.7522 52.6621Z" fill="#BC6060"/>
<path opacity="0.2" d="M64.6273 96.4783C63.9052 96.838 63.1831 97.1977 62.3887 97.4855H47.441C47.1522 97.4855 46.9355 97.2697 46.9355 96.9819C46.9355 96.6941 47.1522 96.4783 47.441 96.4783H64.6273Z" fill="#BC6060"/>
<path opacity="0.2" d="M70.1153 92.7371C69.6821 93.0968 69.321 93.4565 68.8877 93.7443H47.441C47.1522 93.7443 46.9355 93.5285 46.9355 93.2407C46.9355 92.9529 47.1522 92.7371 47.441 92.7371H70.1153Z" fill="#BC6060"/>
<path opacity="0.2" d="M75.0257 87.269C74.8091 87.6288 74.5202 87.9885 74.2314 88.2763H47.441C47.1522 88.2763 46.9355 88.0605 46.9355 87.7727C46.9355 87.4849 47.1522 87.269 47.441 87.269H75.0257Z" fill="#BC6060"/>
<path opacity="0.2" d="M78.6362 81.2974C78.4918 81.6571 78.3474 81.9449 78.1308 82.2327V82.3046H47.441C47.3688 82.3046 47.2966 82.3046 47.2244 82.2327C47.08 82.1607 46.9355 81.9449 46.9355 81.801C46.9355 81.5132 47.1522 81.2974 47.441 81.2974H78.6362Z" fill="#BC6060"/>
<path opacity="0.2" d="M81.2358 74.678C81.1636 75.0377 81.0192 75.3975 80.947 75.6852H47.441C47.1522 75.6852 46.9355 75.4694 46.9355 75.1816C46.9355 74.8938 47.1522 74.678 47.441 74.678H81.2358Z" fill="#BC6060"/>
<path opacity="0.2" d="M82.7523 67.5552C82.6801 67.9149 82.6801 68.2747 82.6079 68.5624H47.441C47.1522 68.5624 46.9355 68.3466 46.9355 68.0588C46.9355 67.771 47.1522 67.5552 47.441 67.5552H82.7523Z" fill="#BC6060"/>
<path opacity="0.2" d="M46.9355 22.7319V21.0771C47.2966 21.0051 47.7299 21.0051 48.1631 21.0051H53.94C56.9007 21.0051 59.7891 21.5807 62.4609 22.6599C62.4609 22.6599 62.4609 22.6599 62.5332 22.6599H46.9355V22.7319Z" fill="white"/>
<path opacity="0.2" d="M68.3101 25.9695H46.9355V23.5952H64.5551C64.6273 23.5952 64.6273 23.6672 64.6273 23.6672C65.9271 24.3147 67.0825 25.1061 68.3101 25.9695Z" fill="white"/>
<path opacity="0.2" d="M73.7981 31.3656H46.9355V27.4805H70.1153C71.4151 28.6316 72.6427 29.9267 73.7981 31.3656Z" fill="white"/>
<path opacity="0.2" d="M77.4809 36.6898H46.9355V33.4521H75.459C76.1089 34.4594 76.831 35.5386 77.4809 36.6898Z" fill="white"/>
<path opacity="0.2" d="M80.0805 42.1578H46.9355V38.9202H78.6362C79.1417 39.9994 79.6472 41.0786 80.0805 42.1578Z" fill="white"/>
<path opacity="0.2" d="M81.6691 47.266H46.9355V45.6831H81.308C81.3803 46.1867 81.5247 46.7623 81.6691 47.266Z" fill="white"/>
<path opacity="0.2" d="M82.8967 53.4535H46.9355V52.6621H82.8245C82.8245 52.878 82.8245 53.1657 82.8967 53.4535Z" fill="white"/>
<path opacity="0.2" d="M83.1133 64.3896C83.1133 64.1737 83.1133 64.0298 83.1855 63.814C83.2577 63.2384 83.2577 62.7348 83.2577 62.1592V62.0872C83.2577 61.4397 83.3299 60.7922 83.3299 60.1447C83.3299 38.5604 70.1875 21.0051 53.94 21.0051C53.7233 21.0051 53.5067 21.0051 53.3623 21.0051C69.3209 21.4368 82.1745 38.7762 82.1745 60.0727C82.1745 60.7202 82.1745 61.3678 82.1023 62.0153H46.9355V21.0771C45.6357 21.2929 44.5525 21.7246 44.3359 22.3721C44.3359 22.3721 44.3359 22.3721 44.3359 22.4441C44.3359 22.516 44.2637 22.588 44.2637 22.6599V97.5574C44.2637 97.6294 44.2637 97.7013 44.3359 97.7733C44.6247 98.5647 46.2134 99.2122 48.1631 99.2122H53.94C54.3732 99.2122 54.8787 99.2122 55.312 99.1403C55.4564 99.1403 55.6008 99.1403 55.673 99.1403C56.0341 99.1403 56.3229 99.0683 56.684 99.0683C56.8284 99.0683 56.9006 99.0684 57.045 98.9964C57.4783 98.9245 57.9116 98.8525 58.3449 98.7806C58.4171 98.7806 58.4893 98.7086 58.5615 98.7086C58.9225 98.6367 59.2836 98.5647 59.6446 98.4928C59.7891 98.4928 59.9335 98.4208 60.0779 98.3489C60.439 98.2769 60.7278 98.133 61.0889 98.0611C61.1611 98.0611 61.3055 97.9891 61.3777 97.9891C61.7388 97.8452 62.0998 97.7013 62.4609 97.5574C62.5331 97.5574 62.5331 97.5574 62.6053 97.4855C62.7497 97.4136 62.8941 97.3416 62.9664 97.3416C63.2552 97.1977 63.5441 97.0538 63.8329 96.9819C63.9773 96.9099 64.1217 96.838 64.2662 96.766C64.4106 96.6941 64.555 96.6221 64.6994 96.5502C64.8439 96.4782 64.9883 96.4063 65.1327 96.2624C65.2771 96.1904 65.4215 96.1185 65.4938 96.0465C65.7826 95.9026 66.0714 95.6868 66.3603 95.471C66.4325 95.399 66.5769 95.3271 66.6491 95.2551C67.0102 95.0393 67.4435 94.7515 67.8045 94.4637C67.9489 94.3917 68.0211 94.2479 68.1656 94.1759C68.3822 94.032 68.5988 93.8881 68.8155 93.6723L68.8877 93.6003C69.1765 93.3845 69.4654 93.1686 69.7542 92.8809C69.8264 92.8089 69.9708 92.737 70.0431 92.665L70.1153 92.5931C70.3319 92.3772 70.5485 92.2333 70.693 92.0175C70.9096 91.8736 71.054 91.6577 71.2706 91.5138C71.4151 91.3699 71.5595 91.2261 71.7039 91.0822C71.9205 90.8663 72.1372 90.6505 72.3538 90.3627C72.4982 90.2188 72.6427 90.0749 72.7149 89.931C72.9315 89.6432 73.1481 89.4274 73.3648 89.1396C73.5092 88.9957 73.5814 88.8518 73.7258 88.7079C73.8702 88.564 74.0147 88.4201 74.1591 88.2043C74.2313 88.0604 74.3757 87.9165 74.4479 87.8445C74.5201 87.7006 74.6646 87.5567 74.7368 87.4128C74.809 87.3409 74.8812 87.2689 74.8812 87.197C75.0256 87.0531 75.0978 86.8372 75.2423 86.6933C75.3145 86.5495 75.4589 86.4056 75.5311 86.2617C75.8199 85.83 76.1088 85.3983 76.3976 84.9666L76.4698 84.8947C76.7587 84.463 76.9753 84.0313 77.2642 83.5996C77.3364 83.5277 77.3364 83.3838 77.4086 83.3118C77.553 83.096 77.6252 82.8801 77.7696 82.6643C77.8419 82.5204 77.9141 82.3765 77.9863 82.2326C77.9863 82.2326 77.9863 82.1606 78.0585 82.1606C78.1307 82.0168 78.2029 81.8729 78.2751 81.729C78.3473 81.5851 78.4195 81.4412 78.4918 81.2973C78.564 81.2253 78.564 81.0814 78.6362 81.0095C78.8528 80.5059 79.1417 80.0022 79.3583 79.4266C79.4305 79.2827 79.5027 79.1388 79.5749 78.923C79.8638 78.2035 80.1526 77.556 80.3693 76.8365C80.3693 76.8365 80.3693 76.8365 80.3693 76.7646C80.4415 76.5487 80.5137 76.3329 80.5859 76.117C80.6581 75.9731 80.6581 75.8293 80.7303 75.7573C80.7303 75.6854 80.8025 75.6134 80.8025 75.6134C80.8747 75.4695 80.9469 75.2537 80.9469 75.1098C80.9469 75.0378 81.0191 74.8939 81.0191 74.822C81.0914 74.6781 81.0914 74.5342 81.1636 74.3903C81.2358 74.0306 81.3802 73.6708 81.4524 73.3111C81.5246 73.0233 81.5968 72.7355 81.6691 72.5197C81.7413 72.088 81.8857 71.7282 81.9579 71.2966C81.9579 71.2246 81.9579 71.1526 82.0301 71.1526C82.1745 70.5051 82.319 69.7856 82.3912 69.1381C82.3912 68.9942 82.4634 68.8503 82.4634 68.7064C82.4634 68.5625 82.5356 68.4186 82.5356 68.2747C82.5356 68.1308 82.6078 68.0589 82.6078 67.915C82.6078 67.8431 82.6078 67.7711 82.68 67.6272C82.7522 67.1955 82.8244 66.6919 82.8966 66.1883C82.8966 66.0444 82.8966 65.9724 82.9689 65.8285C83.0411 65.3249 83.1133 64.8932 83.1133 64.3896ZM76.6865 82.6643H46.9355V82.2326H76.9753C76.8309 82.3765 76.7587 82.5204 76.6865 82.6643ZM79.2861 76.7646H46.9355V76.117H79.5749C79.4305 76.3329 79.3583 76.5487 79.2861 76.7646ZM80.9469 71.0088H46.9355V68.9942H81.3802C81.2358 69.6418 81.0914 70.3612 80.9469 71.0088Z" fill="#BC6060"/>
<path d="M45.9974 99.1403C62.229 99.1403 75.3873 81.6491 75.3873 60.0727C75.3873 38.4963 62.229 21.0051 45.9974 21.0051C29.7657 21.0051 16.6074 38.4963 16.6074 60.0727C16.6074 81.6491 29.7657 99.1403 45.9974 99.1403Z" fill="#FFD200"/>
<path opacity="0.2" d="M45.997 92.8809C59.6363 92.8809 70.6932 78.1922 70.6932 60.0728C70.6932 41.9534 59.6363 27.2646 45.997 27.2646C32.3577 27.2646 21.3008 41.9534 21.3008 60.0728C21.3008 78.1922 32.3577 92.8809 45.997 92.8809Z" fill="#BC6060"/>
<path opacity="0.2" d="M74.5208 50.5756C71.3435 33.596 59.7897 21.0051 45.9974 21.0051C29.7499 21.0051 16.6074 38.4884 16.6074 60.0727C16.6074 67.1955 18.0516 73.8147 20.5068 79.5705C25.5616 91.298 35.0935 99.1403 45.9974 99.1403C62.2449 99.1403 75.3873 81.657 75.3873 60.0727C75.4595 56.8351 75.0985 53.6694 74.5208 50.5756ZM45.9974 97.9172C36.3211 97.9172 27.7279 91.4419 22.6009 81.5851C19.4237 75.4695 17.6184 68.1309 17.6184 60.1447C17.6184 39.2798 30.3275 22.3721 46.0696 22.3721C60.1507 22.3721 71.9212 36.0422 74.0875 54.0291C74.3041 56.0436 74.4486 58.1301 74.4486 60.2166C74.4486 81.0095 61.7394 97.9172 45.9974 97.9172Z" fill="#BC6060"/>
<path opacity="0.2" d="M68.3103 46.043C64.1943 35.5386 55.9622 28.4158 46.4303 28.4158C32.7824 28.4158 21.7341 43.0931 21.7341 61.224C21.7341 66.2603 22.6006 71.0088 24.1171 75.3257C22.384 70.721 21.373 65.6128 21.373 60.0728C21.373 41.942 32.4214 27.2646 46.0693 27.2646C55.89 27.2646 64.4109 34.9631 68.3103 46.043Z" fill="#BC6060"/>
<path opacity="0.2" d="M75.4586 60.0728C75.4586 81.6571 62.3162 99.1404 46.0687 99.1404C35.1648 99.1404 25.6329 91.2261 20.5781 79.5706C21.228 80.2181 21.9501 80.8657 22.6722 81.5132C27.7992 91.37 36.3924 97.8453 46.0687 97.8453C61.7385 97.8453 74.5199 80.9376 74.5199 60.0728C74.5199 57.9863 74.3754 55.8998 74.1588 53.8853C74.3754 52.7341 74.5199 51.583 74.6643 50.5757C75.0975 53.6694 75.4586 56.8351 75.4586 60.0728Z" fill="#BC6060"/>
<g opacity="0.2">
<path opacity="0.2" d="M48.1643 77.8438V83.2399H45.2036L44.3371 82.1607L45.2036 77.9877C41.6653 77.6999 37.4048 75.0379 35.5273 72.8794L37.9825 69.1381C39.7156 71.0807 42.4596 72.4477 45.2036 72.8075V63.0945C42.8207 62.3031 38.3436 60.0727 37.1882 57.2668C37.1882 57.2668 36.8994 56.0437 36.8994 53.3816C36.8994 48.4892 39.5712 44.2443 45.2036 43.5248L47.2978 36.9775L48.1643 38.0568V43.3809C50.6195 43.5248 54.6633 45.1796 54.6633 45.1796L55.5298 46.2588L54.0856 51.0793C52.2081 49.5684 50.1862 48.777 48.2365 48.4892V58.2021C50.7639 58.9935 53.869 60.7203 53.869 60.7203C55.5298 62.5909 56.613 65.3249 56.613 67.8431C56.5408 72.8075 53.7968 77.0524 48.1643 77.8438ZM45.2036 57.3387V48.777C42.6762 49.2806 41.5931 51.0073 41.5931 53.1658C41.5931 55.4681 43.1095 56.4754 45.2036 57.3387ZM51.9193 68.3467C51.9193 65.9724 50.3306 64.8932 48.1643 64.1018V72.5916C50.7639 72.088 51.9193 70.4332 51.9193 68.3467Z" fill="#BC6060"/>
</g>
<path d="M47.2978 76.6927V82.0888H44.3371V76.7647C40.7988 76.4769 37.4048 74.966 35.5273 72.8076L37.116 67.9871C38.8491 69.9296 41.5931 71.2967 44.3371 71.6564V62.0154C40.3655 60.7203 36.0328 58.9936 36.0328 52.3025C36.0328 47.41 38.7046 43.1651 44.3371 42.4456V37.0496H47.2978V42.3737C49.9696 42.5895 52.6414 43.5968 54.5911 45.3235L53.1469 50.144C51.2694 48.6331 49.2475 47.8417 47.2978 47.5539V57.2669C51.2694 58.5619 55.6742 60.2167 55.6742 66.9078C55.6742 71.7283 53.0024 75.9733 47.2978 76.6927ZM44.3371 56.1876V47.6259C41.8097 48.1295 40.7265 49.8562 40.7265 52.0147C40.7265 54.317 42.243 55.3962 44.3371 56.1876ZM51.0527 67.2676C51.0527 64.8933 49.4641 63.8141 47.2978 63.0227V71.5125C49.9696 70.9369 51.0527 69.3541 51.0527 67.2676Z" fill="#FFD200"/>
<path opacity="0.1" d="M75.4596 60.0727C75.4596 73.5989 70.2604 85.5422 62.3894 92.5931L19.3516 43.5967C24.0453 30.2144 34.2271 21.0051 45.9975 21.0051C62.245 21.0051 75.4596 38.4884 75.4596 60.0727Z" fill="white"/>
</g>
<defs>
<clipPath id="clip0_1175_9018">
<rect width="145" height="99" fill="white" transform="translate(0 0.212402)"/>
</clipPath>
</defs>
</svg>
