<svg width="13" height="12" viewBox="0 0 13 12" fill="none" xmlns="http://www.w3.org/2000/svg">
<g clip-path="url(#clip0_739_37)">
<path d="M1.89062 0.744141C1.29062 0.744141 0.890625 1.14414 0.890625 1.74414C0.890625 2.34414 1.29062 2.74414 1.89062 2.74414H3.89062V6.74414C3.89062 7.34414 4.29063 7.74414 4.89062 7.74414H9.89062C10.4906 7.74414 10.6906 7.24414 10.8906 6.74414L12.8906 1.74414C12.9906 1.34414 12.6906 0.744141 12.0906 0.744141H4.89062H1.89062Z" fill="#70BB55"/>
<path d="M4.39062 11.7441C5.21905 11.7441 5.89062 11.0726 5.89062 10.2441C5.89062 9.41571 5.21905 8.74414 4.39062 8.74414C3.5622 8.74414 2.89062 9.41571 2.89062 10.2441C2.89062 11.0726 3.5622 11.7441 4.39062 11.7441Z" fill="#70BB55"/>
<path d="M8.39062 11.7441C9.21905 11.7441 9.89062 11.0726 9.89062 10.2441C9.89062 9.41571 9.21905 8.74414 8.39062 8.74414C7.5622 8.74414 6.89062 9.41571 6.89062 10.2441C6.89062 11.0726 7.5622 11.7441 8.39062 11.7441Z" fill="#70BB55"/>
</g>
<defs>
<clipPath id="clip0_739_37">
<rect width="12" height="11" fill="white" transform="translate(0.890625 0.744141)"/>
</clipPath>
</defs>
</svg>
