<svg width="11" height="8" viewBox="0 0 11 8" fill="none" xmlns="http://www.w3.org/2000/svg">
<path d="M4.03078 8C3.986 7.99071 3.94121 7.98142 3.90538 7.97212C3.75311 7.93496 3.61876 7.86063 3.51127 7.73984C2.64244 6.83856 1.78257 5.94657 0.9227 5.0453C0.591291 4.70151 0.600248 4.18118 0.9227 3.8374C1.01227 3.74448 1.10184 3.65157 1.20037 3.54936C1.53178 3.21487 2.03337 3.20557 2.36478 3.54936C2.92907 4.13473 3.49336 4.72009 4.05765 5.30546C4.06661 5.31475 4.08452 5.33333 4.09348 5.35192C4.11139 5.33333 4.12931 5.31475 4.14722 5.30546C5.74157 3.64228 7.34487 1.97909 8.93922 0.315912C9.10045 0.148664 9.27959 0.0278746 9.51247 0.00929152C9.52142 0.00929152 9.52143 0.00929152 9.52143 0C9.5483 0 9.58412 0 9.611 0C9.62891 0 9.63787 0.00929152 9.65578 0.00929152C9.83492 0.0278746 9.98719 0.102207 10.1215 0.222997C10.238 0.334495 10.3544 0.455285 10.4619 0.576074C10.5963 0.724739 10.6679 0.910569 10.6769 1.12427C10.6858 1.37515 10.5963 1.58885 10.4171 1.76539C9.12732 3.09408 7.84647 4.43206 6.56561 5.76074C5.93862 6.41115 5.31163 7.06156 4.68464 7.71196C4.5682 7.83275 4.43385 7.91638 4.27262 7.95354C4.22783 7.96283 4.19201 7.97213 4.14722 7.98142C4.11139 8 4.07557 8 4.03078 8Z" fill="black"/>
</svg>
