<svg width="16" height="12" viewBox="0 0 16 12" fill="none" xmlns="http://www.w3.org/2000/svg">
<path d="M8.13884 11.4631C4.63484 11.4631 1.83884 9.3361 0.506836 6.12708C1.85084 2.91807 4.64684 0.791016 8.13884 0.791016C11.6308 0.791016 14.4388 2.91807 15.7828 6.12708C14.4388 9.3361 11.6308 11.4631 8.13884 11.4631ZM8.13884 10.1845C10.9108 10.1845 13.2988 8.52462 14.4148 6.12708C13.2988 3.72954 10.9108 2.0697 8.13884 2.0697C5.37884 2.0697 2.99084 3.72954 1.87484 6.12708C2.97884 8.52462 5.36684 10.1845 8.13884 10.1845ZM5.23484 6.12708C5.23484 4.47954 6.53084 3.15167 8.12684 3.15167C9.73484 3.15167 11.0308 4.49184 11.0308 6.12708C11.0308 7.77462 9.72284 9.10249 8.12684 9.10249C6.53084 9.10249 5.23484 7.76233 5.23484 6.12708ZM8.30684 5.37708C8.30684 5.89348 8.70284 6.31151 9.21884 6.31151C9.71084 6.31151 10.1188 5.89348 10.1188 5.37708C10.1188 4.87298 9.72284 4.45495 9.21884 4.45495C8.71484 4.45495 8.30684 4.86069 8.30684 5.37708Z" fill="#727BB0"/>
</svg>
