<svg width="14" height="12" viewBox="0 0 14 12" fill="none" xmlns="http://www.w3.org/2000/svg">
<g clip-path="url(#clip0_739_42)">
<path d="M8.75977 0.244141C8.55977 0.244141 8.45977 0.344141 8.35977 0.444141L4.55977 4.54414C4.35977 4.74414 4.25977 5.04414 4.25977 5.34414V9.84414C4.25977 10.5441 4.85977 11.1441 5.55977 11.1441H10.7598L13.2598 7.54414V5.34414C13.2598 4.64414 12.6598 4.04414 11.9598 4.04414H8.65977L9.35977 1.04414C9.35977 1.04414 9.45977 0.844141 9.45977 0.744141C9.45977 0.544141 9.15977 0.244141 8.75977 0.244141Z" fill="#70BB55"/>
<path d="M1.25977 4.14404C0.659766 4.14404 0.259766 4.54404 0.259766 5.14404V10.144C0.259766 10.744 0.659766 11.144 1.25977 11.144H2.25977C2.85977 11.144 3.25977 10.744 3.25977 10.144V5.14404C3.25977 4.54404 2.85977 4.14404 2.25977 4.14404H1.25977Z" fill="#70BB55"/>
</g>
<defs>
<clipPath id="clip0_739_42">
<rect width="13" height="10.9" fill="white" transform="translate(0.259766 0.244141)"/>
</clipPath>
</defs>
</svg>
