<svg width="22" height="17" viewBox="0 0 22 17" fill="none" xmlns="http://www.w3.org/2000/svg">
<path d="M18.4199 0.625H2.66992C1.22027 0.625 0.0449219 1.80034 0.0449219 3.25V13.75C0.0449219 15.1997 1.22027 16.375 2.66992 16.375H18.4199C19.8696 16.375 21.0449 15.1997 21.0449 13.75V3.25C21.0449 1.80034 19.8696 0.625 18.4199 0.625ZM14.0992 7.62969L19.6555 2.86802C19.694 2.99107 19.7324 3.11412 19.7324 3.25V13.75C19.7324 13.841 19.6978 13.9218 19.6799 14.0076L14.0992 7.62969ZM18.4199 1.9375C18.5071 1.9375 18.584 1.97085 18.666 1.9875L10.5449 8.94863L2.42383 1.9875C2.50586 1.97085 2.58276 1.9375 2.66992 1.9375H18.4199ZM1.40935 14.0063C1.39138 13.9205 1.35742 13.841 1.35742 13.75V3.25C1.35742 3.11412 1.39651 2.99107 1.43498 2.86802L6.9894 7.62842L1.40935 14.0063ZM2.66992 15.0625C2.53728 15.0625 2.41677 15.024 2.29565 14.9869L7.98657 8.48331L10.1181 10.3098C10.2405 10.4162 10.393 10.4688 10.5449 10.4688C10.6968 10.4688 10.8493 10.4162 10.9717 10.3098L13.1033 8.48335L18.7942 14.9869C18.6737 15.024 18.5532 15.0625 18.4199 15.0625H2.66992Z" fill="#4D74F5"/>
</svg>
