<svg width="30" height="28" viewBox="0 0 30 28" fill="none" xmlns="http://www.w3.org/2000/svg">
<path d="M23.3008 28C22.9508 27.8435 22.5878 27.7131 22.2637 27.5175C20.1247 26.2524 17.9987 24.9874 15.8727 23.6833C15.4838 23.4485 15.1986 23.4616 14.8226 23.6833C12.6447 25.0135 10.4539 26.3177 8.27602 27.6218C7.70562 27.9609 7.09633 28.0782 6.51297 27.674C5.91664 27.2566 5.72219 26.6828 5.87775 25.9655C5.98146 25.496 6.05924 25.0265 6.16295 24.5701C6.64261 22.4574 7.10929 20.3577 7.61487 18.258C7.70562 17.8929 7.62784 17.6973 7.38153 17.4755C5.48885 15.8193 3.62209 14.15 1.72941 12.5068C1.14604 12.0112 0.718246 11.4634 0.925663 10.6679C1.13308 9.83326 1.74237 9.5333 2.57204 9.46809C5.09994 9.24639 7.6408 8.97252 10.1687 8.75081C10.5576 8.71169 10.7132 8.56823 10.8558 8.2422C11.7632 6.01211 12.7225 3.78202 13.6689 1.56497C13.7207 1.4476 13.7726 1.31719 13.8244 1.19981C14.1226 0.521658 14.5374 0 15.3541 0C16.1708 0 16.5986 0.521658 16.8838 1.19981C17.4542 2.53004 18.0246 3.87331 18.595 5.20354C19.0358 6.23381 19.4506 7.27713 19.9173 8.30741C20.0081 8.50303 20.2803 8.71169 20.5007 8.73777C23.0934 9.01164 25.6861 9.27247 28.2918 9.50722C29.0437 9.57243 29.5622 9.9115 29.7956 10.6288C30.0289 11.3461 29.7048 11.9068 29.1863 12.3633C27.3843 13.9544 25.5954 15.5585 23.7675 17.1104C23.1971 17.5929 23.0027 18.0233 23.2101 18.7927C23.8064 21.088 24.299 23.4224 24.8046 25.7308C25.0768 27.0219 24.4416 27.9609 23.3008 28Z" fill="#FFD200"/>
</svg>
