<svg width="25" height="25" viewBox="0 0 25 25" fill="none" xmlns="http://www.w3.org/2000/svg">
<path d="M12.8502 11.4417C13.1914 13.765 13.5324 16.0436 13.866 18.3291C14.1065 19.9809 14.3396 21.6397 14.5875 23.2846C14.7038 24.0617 15.3243 24.4862 15.8809 24.1447C16.0887 24.025 16.2285 23.7437 16.3164 23.4961C17.6437 19.969 18.9486 16.4329 20.2609 12.9048C21.5953 9.31111 22.9296 5.71737 24.2564 2.11564C24.3151 1.97048 24.4111 1.82047 24.4028 1.67805C24.3861 1.37827 24.3987 0.976031 24.2264 0.807114C24.0317 0.614217 23.5916 0.501071 23.3314 0.564835C22.3497 0.794225 21.3835 1.11429 20.4171 1.40447C13.9868 3.33246 7.55657 5.26045 1.1263 7.18844C0.977655 7.23768 0.791537 7.24695 0.70275 7.3452C0.525174 7.54171 0.258458 7.77672 0.267262 8.00876C0.276239 8.27067 0.508804 8.56329 0.718624 8.78711C0.846015 8.923 1.10681 8.94885 1.31558 8.99344C5.1405 9.79318 8.9655 10.6079 12.8502 11.4417Z" fill="#AA7CD9"/>
</svg>
