<svg width="13" height="14" viewBox="0 0 13 14" fill="none" xmlns="http://www.w3.org/2000/svg">
<path d="M11.953 2.24996C11.953 3.25964 11.1345 4.07815 10.1249 4.07815C9.11519 4.07815 8.29678 3.25964 8.29678 2.24996C8.29678 1.24039 9.11519 0.421875 10.1249 0.421875C11.1345 0.421875 11.953 1.24039 11.953 2.24996V2.24996Z" fill="black"/>
<path d="M10.1249 4.50002C8.88397 4.50002 7.87491 3.49086 7.87491 2.24996C7.87491 1.00916 8.88397 0 10.1249 0C11.3658 0 12.3748 1.00916 12.3748 2.24996C12.3748 3.49086 11.3658 4.50002 10.1249 4.50002ZM10.1249 0.843748C9.3492 0.843748 8.71866 1.47491 8.71866 2.24996C8.71866 3.02511 9.3492 3.65628 10.1249 3.65628C10.9005 3.65628 11.5311 3.02511 11.5311 2.24996C11.5311 1.47491 10.9005 0.843748 10.1249 0.843748Z" fill="black"/>
<path d="M11.953 11.25C11.953 12.2596 11.1345 13.0781 10.1249 13.0781C9.11519 13.0781 8.29678 12.2596 8.29678 11.25C8.29678 10.2404 9.11519 9.42184 10.1249 9.42184C11.1345 9.42184 11.953 10.2404 11.953 11.25V11.25Z" fill="black"/>
<path d="M10.1249 13.5C8.88397 13.5 7.87491 12.4908 7.87491 11.25C7.87491 10.0091 8.88397 8.99997 10.1249 8.99997C11.3658 8.99997 12.3748 10.0091 12.3748 11.25C12.3748 12.4908 11.3658 13.5 10.1249 13.5ZM10.1249 9.84372C9.3492 9.84372 8.71866 10.4749 8.71866 11.25C8.71866 12.0251 9.3492 12.6562 10.1249 12.6562C10.9005 12.6562 11.5311 12.0251 11.5311 11.25C11.5311 10.4749 10.9005 9.84372 10.1249 9.84372V9.84372Z" fill="black"/>
<path d="M4.07809 6.74996C4.07809 7.75964 3.25958 8.57805 2.2499 8.57805C1.24033 8.57805 0.421814 7.75964 0.421814 6.74996C0.421814 5.74029 1.24033 4.92188 2.2499 4.92188C3.25958 4.92188 4.07809 5.74029 4.07809 6.74996Z" fill="black"/>
<path d="M2.2499 8.99992C1.0091 8.99992 -6.10352e-05 7.99086 -6.10352e-05 6.74996C-6.10352e-05 5.50906 1.0091 4.5 2.2499 4.5C3.4908 4.5 4.49996 5.50906 4.49996 6.74996C4.49996 7.99086 3.4908 8.99992 2.2499 8.99992ZM2.2499 5.34375C1.47423 5.34375 0.843687 5.97481 0.843687 6.74996C0.843687 7.52511 1.47423 8.15617 2.2499 8.15617C3.02567 8.15617 3.65621 7.52511 3.65621 6.74996C3.65621 5.97481 3.02567 5.34375 2.2499 5.34375Z" fill="black"/>
<path d="M3.57804 6.47996C3.38225 6.47996 3.19212 6.3781 3.0886 6.1959C2.93504 5.92646 3.02959 5.58276 3.29903 5.42857L8.51838 2.453C8.78782 2.2983 9.13151 2.39285 9.2857 2.66332C9.43927 2.93276 9.34472 3.27646 9.07528 3.43064L3.85583 6.40622C3.76807 6.45627 3.67249 6.47996 3.57804 6.47996V6.47996Z" fill="black"/>
<path d="M8.79686 11.1207C8.70231 11.1207 8.60673 11.097 8.51898 11.0469L3.29953 8.07134C3.03009 7.91777 2.93564 7.57407 3.08921 7.30402C3.24216 7.03406 3.58637 6.939 3.85643 7.0937L9.07588 10.0693C9.34532 10.2228 9.43977 10.5665 9.2862 10.8366C9.18217 11.0188 8.99204 11.1207 8.79686 11.1207V11.1207Z" fill="black"/>
</svg>
