<svg width="17" height="20" viewBox="0 0 17 20" fill="none" xmlns="http://www.w3.org/2000/svg">
<path d="M16.3758 13.5304C15.1662 12.508 14.4726 11.0136 14.4726 9.4304V7.2C14.4726 4.3848 12.3814 2.0544 9.67256 1.664V0.8C9.67256 0.3576 9.31416 0 8.87256 0C8.43096 0 8.07256 0.3576 8.07256 0.8V1.664C5.36296 2.0544 3.27256 4.3848 3.27256 7.2V9.4304C3.27256 11.0136 2.57896 12.508 1.36216 13.5368C1.05096 13.8032 0.872559 14.1904 0.872559 14.6C0.872559 15.372 1.50056 16 2.27256 16H15.4726C16.2446 16 16.8726 15.372 16.8726 14.6C16.8726 14.1904 16.6942 13.8032 16.3758 13.5304Z" fill="black"/>
<path d="M8.87255 19.2C10.3213 19.2 11.5333 18.1672 11.8117 16.8H5.93335C6.21175 18.1672 7.42375 19.2 8.87255 19.2Z" fill="black"/>
</svg>
