<svg width="17" height="20" viewBox="0 0 17 20" fill="none" xmlns="http://www.w3.org/2000/svg">
<path d="M15.6789 13.5304C14.4693 12.508 13.7757 11.0136 13.7757 9.4304V7.2C13.7757 4.3848 11.6845 2.0544 8.97566 1.664V0.8C8.97566 0.3576 8.61726 0 8.17566 0C7.73406 0 7.37566 0.3576 7.37566 0.8V1.664C4.66606 2.0544 2.57566 4.3848 2.57566 7.2V9.4304C2.57566 11.0136 1.88206 12.508 0.665259 13.5368C0.354059 13.8032 0.175659 14.1904 0.175659 14.6C0.175659 15.372 0.803659 16 1.57566 16H14.7757C15.5477 16 16.1757 15.372 16.1757 14.6C16.1757 14.1904 15.9973 13.8032 15.6789 13.5304Z" fill="#C4C8DF"/>
<path d="M8.17565 19.2C9.62445 19.2 10.8364 18.1672 11.1148 16.8H5.23645C5.51485 18.1672 6.72685 19.2 8.17565 19.2Z" fill="#C4C8DF"/>
</svg>
