<svg width="21" height="19" viewBox="0 0 21 19" fill="none" xmlns="http://www.w3.org/2000/svg">
<path d="M10.5641 0C5.26081 0 0.940891 4.2646 0.940891 9.5C0.940891 10.7135 1.17503 11.8577 1.59649 12.9209L0.226757 17.0931C-0.0190917 17.8558 0.65992 18.6071 1.456 18.4337L5.49495 17.5785C6.97005 18.4799 8.7027 19 10.5524 19C15.8557 19 20.1757 14.7354 20.1757 9.5C20.1757 4.2646 15.8674 0 10.5641 0ZM10.5641 17.1509C9.89682 17.1509 9.25293 17.07 8.63246 16.9082C7.62564 16.6539 6.70078 16.2032 5.89299 15.6022L3.63352 16.0876L2.45111 16.3418L2.83744 15.163L3.5984 12.8516C3.1067 11.8461 2.82573 10.7135 2.82573 9.52312C2.82573 9.40754 2.82573 9.29197 2.83744 9.1764C3.01305 5.09672 6.40811 1.84915 10.5641 1.84915C14.8372 1.84915 18.3142 5.28163 18.3142 9.5C18.3142 13.7184 14.8372 17.1509 10.5641 17.1509Z" fill="#C4C8DF"/>
<g clip-path="url(#clip0_547_142)">
<path d="M8.17567 9.49999C8.17567 8.9477 7.72796 8.49998 7.17567 8.49998C6.62338 8.49998 6.17566 8.9477 6.17566 9.49999C6.17566 10.0523 6.62338 10.5 7.17567 10.5C7.72796 10.5 8.17567 10.0523 8.17567 9.49999Z" fill="#B0B5D1"/>
<path d="M11.6757 9.49999C11.6757 8.9477 11.228 8.49998 10.6757 8.49998C10.1234 8.49998 9.67566 8.9477 9.67566 9.49999C9.67566 10.0523 10.1234 10.5 10.6757 10.5C11.228 10.5 11.6757 10.0523 11.6757 9.49999Z" fill="#B0B5D1"/>
<path d="M15.1757 9.49999C15.1757 8.9477 14.728 8.49998 14.1757 8.49998C13.6234 8.49998 13.1757 8.9477 13.1757 9.49999C13.1757 10.0523 13.6234 10.5 14.1757 10.5C14.728 10.5 15.1757 10.0523 15.1757 9.49999Z" fill="#B0B5D1"/>
</g>
<defs>
<clipPath id="clip0_547_142">
<rect width="9" height="9" fill="white" transform="translate(6.17566 14) rotate(-90)"/>
</clipPath>
</defs>
</svg>
