<svg width="22" height="21" viewBox="0 0 22 21" fill="none" xmlns="http://www.w3.org/2000/svg">
<path d="M7.09972 14.4061H8.67905V15.7707C8.67905 15.8362 8.70068 15.8908 8.74395 15.9345C8.78722 15.9782 8.84131 16 8.90621 16H10.0745C10.1394 16 10.1935 15.9782 10.2367 15.9345C10.28 15.8908 10.3016 15.8362 10.3016 15.7707V14.4061H13.8497C13.9146 14.4061 13.9687 14.3843 14.012 14.3406C14.0553 14.2969 14.0769 14.2424 14.0769 14.1769V13.2707C14.0769 13.2052 14.0553 13.1507 14.012 13.107C13.9687 13.0633 13.9146 13.0415 13.8497 13.0415H10.3016V12.2009H12.6923C13.6334 12.2009 14.3906 11.917 14.9855 11.3384C15.5805 10.7598 15.8726 10.0175 15.8726 9.10044C15.8726 8.18341 15.5805 7.44105 14.9855 6.86245C14.3906 6.28384 13.6334 6 12.6923 6H8.90621C8.84131 6 8.78722 6.02183 8.74395 6.0655C8.70068 6.10917 8.67905 6.16376 8.67905 6.22926V10.6943H7.09972C7.03482 10.6943 6.98073 10.7162 6.93746 10.7598C6.89419 10.8035 6.87256 10.8581 6.87256 10.9236V11.9825C6.87256 12.048 6.89419 12.1026 6.93746 12.1463C6.98073 12.19 7.03482 12.2118 7.09972 12.2118H8.67905V13.0524H7.09972C7.03482 13.0524 6.98073 13.0742 6.93746 13.1179C6.89419 13.1616 6.87256 13.2162 6.87256 13.2817V14.1878C6.87256 14.2533 6.89419 14.3079 6.93746 14.3515C6.98073 14.3843 7.03482 14.4061 7.09972 14.4061ZM10.3016 7.51747H12.5516C13.0492 7.51747 13.4495 7.65939 13.7524 7.95415C14.0553 8.24891 14.2067 8.631 14.2067 9.10044C14.2067 9.56987 14.0553 9.95197 13.7524 10.2467C13.4495 10.5415 13.0492 10.6834 12.5516 10.6834H10.3016V7.51747Z" fill="black"/>
<path d="M11.3726 21C5.58606 21 0.872559 16.2865 0.872559 10.5C0.872559 4.7135 5.58606 0 11.3726 0C17.1591 0 21.8726 4.7135 21.8726 10.5C21.8726 16.2865 17.1591 21 11.3726 21ZM11.3726 2.0438C6.71015 2.0438 2.91635 5.83759 2.91635 10.5C2.91635 15.1624 6.71015 18.9562 11.3726 18.9562C16.035 18.9562 19.8288 15.1624 19.8288 10.5C19.8288 5.83759 16.035 2.0438 11.3726 2.0438Z" fill="black"/>
</svg>
