<svg width="17" height="16" viewBox="0 0 17 16" fill="none" xmlns="http://www.w3.org/2000/svg">
<g clip-path="url(#clip0_522_37)">
<path d="M8.64738 14.656C6.80369 14.6346 4.95287 14.6417 3.10919 14.6417C2.40887 14.6417 2.1802 14.4058 2.1802 13.6909C2.1802 9.90177 2.1802 6.11267 2.1802 2.32357C2.1802 1.56575 2.40887 1.33698 3.14492 1.33698C4.98145 1.33698 6.81084 1.33698 8.64738 1.33698C8.96895 1.33698 9.27623 1.27978 9.43344 0.958067C9.67641 0.457621 9.32625 6.91624e-05 8.68311 -0.00708008C6.80369 6.91624e-05 4.92428 -0.00708008 3.04487 0.0143676C1.76573 0.0215169 0.886763 0.83653 0.879617 2.04475C0.865324 6.00543 0.872471 9.97326 0.886763 13.9411C0.886763 14.7633 1.2798 15.4067 2.03728 15.7713C2.2731 15.8857 2.55179 15.9286 2.80905 16.0001C4.83138 16.0001 6.86086 16.0001 8.8832 16.0001C9.49776 15.7498 9.71214 15.328 9.36198 14.942C9.20477 14.7704 8.89034 14.656 8.64738 14.656Z" fill="black"/>
<path d="M16.5438 7.39964C16.0365 6.89204 15.5291 6.39159 15.0217 5.89115C14.2571 5.14048 13.4996 4.38266 12.735 3.63199C12.2919 3.20303 11.7417 3.28882 11.5559 3.81072C11.4487 4.13243 11.5988 4.36121 11.8131 4.56854C12.6278 5.36925 13.4353 6.17712 14.2499 6.97783C14.35 7.07792 14.45 7.18516 14.6001 7.34244C12.9922 7.34244 11.4701 7.34244 9.94802 7.34244C8.93328 7.34244 7.92568 7.33529 6.91094 7.34244C6.44645 7.34244 6.16775 7.66416 6.22492 8.10026C6.27495 8.44342 6.53935 8.63645 6.98955 8.63645C8.92613 8.63645 10.8699 8.63645 12.8064 8.63645C13.3781 8.63645 13.9427 8.63645 14.5143 8.63645C14.5286 8.66505 14.5429 8.69365 14.5572 8.72224C14.4286 8.84378 14.2928 8.95817 14.1642 9.07971C13.3781 9.85897 12.5849 10.6311 11.806 11.4175C11.4201 11.8036 11.4273 12.254 11.8131 12.5113C12.1204 12.7115 12.4134 12.6686 12.735 12.3469C14.007 11.0958 15.279 9.83753 16.5438 8.57926C16.9869 8.15031 16.9797 7.83574 16.5438 7.39964Z" fill="black"/>
</g>
<defs>
<clipPath id="clip0_522_37">
<rect width="16" height="16" fill="white" transform="translate(0.872559)"/>
</clipPath>
</defs>
</svg>
