<svg width="20" height="19" viewBox="0 0 20 19" fill="none" xmlns="http://www.w3.org/2000/svg">
<path d="M10.3885 0C5.08515 0 0.765231 4.2646 0.765231 9.5C0.765231 10.7135 0.999374 11.8577 1.42083 12.9209L0.0510982 17.0931C-0.194751 17.8558 0.484261 18.6071 1.28034 18.4337L5.31929 17.5785C6.79439 18.4799 8.52704 19 10.3768 19C15.6801 19 20 14.7354 20 9.5C20 4.2646 15.6918 0 10.3885 0ZM10.3885 17.1509C9.72116 17.1509 9.07727 17.07 8.4568 16.9082C7.44999 16.6539 6.52513 16.2032 5.71734 15.6022L3.45786 16.0876L2.27545 16.3418L2.66178 15.163L3.42274 12.8516C2.93105 11.8461 2.65007 10.7135 2.65007 9.52312C2.65007 9.40754 2.65007 9.29197 2.66178 9.1764C2.83739 5.09672 6.23245 1.84915 10.3885 1.84915C14.6616 1.84915 18.1386 5.28163 18.1386 9.5C18.1386 13.7184 14.6616 17.1509 10.3885 17.1509Z" fill="#4D74F5"/>
<g clip-path="url(#clip0_542_1080)">
<path d="M8.00002 9.49999C8.00002 8.9477 7.5523 8.49998 7.00001 8.49998C6.44772 8.49998 6 8.9477 6 9.49999C6 10.0523 6.44772 10.5 7.00001 10.5C7.5523 10.5 8.00002 10.0523 8.00002 9.49999Z" fill="#4D74F5"/>
<path d="M11.5 9.49999C11.5 8.9477 11.0523 8.49998 10.5 8.49998C9.94772 8.49998 9.5 8.9477 9.5 9.49999C9.5 10.0523 9.94772 10.5 10.5 10.5C11.0523 10.5 11.5 10.0523 11.5 9.49999Z" fill="#4D74F5"/>
<path d="M15 9.49999C15 8.9477 14.5523 8.49998 14 8.49998C13.4477 8.49998 13 8.9477 13 9.49999C13 10.0523 13.4477 10.5 14 10.5C14.5523 10.5 15 10.0523 15 9.49999Z" fill="#4D74F5"/>
</g>
<defs>
<clipPath id="clip0_542_1080">
<rect width="9" height="9" fill="white" transform="translate(6 14) rotate(-90)"/>
</clipPath>
</defs>
</svg>
