<svg width="21" height="19" viewBox="0 0 21 19" fill="none" xmlns="http://www.w3.org/2000/svg">
<path d="M11.261 0C5.95771 0 1.63779 4.2646 1.63779 9.5C1.63779 10.7135 1.87193 11.8577 2.29339 12.9209L0.923657 17.0931C0.677808 17.8558 1.35682 18.6071 2.1529 18.4337L6.19185 17.5785C7.66695 18.4799 9.3996 19 11.2493 19C16.5526 19 20.8726 14.7354 20.8726 9.5C20.8726 4.2646 16.5643 0 11.261 0ZM11.261 17.1509C10.5937 17.1509 9.94983 17.07 9.32936 16.9082C8.32254 16.6539 7.39768 16.2032 6.58989 15.6022L4.33042 16.0876L3.14801 16.3418L3.53434 15.163L4.2953 12.8516C3.8036 11.8461 3.52263 10.7135 3.52263 9.52312C3.52263 9.40754 3.52263 9.29197 3.53434 9.1764C3.70995 5.09672 7.10501 1.84915 11.261 1.84915C15.5341 1.84915 19.0111 5.28163 19.0111 9.5C19.0111 13.7184 15.5341 17.1509 11.261 17.1509Z" fill="black"/>
<g clip-path="url(#clip0_522_34)">
<path d="M8.87257 9.49999C8.87257 8.9477 8.42486 8.49998 7.87257 8.49998C7.32028 8.49998 6.87256 8.9477 6.87256 9.49999C6.87256 10.0523 7.32028 10.5 7.87257 10.5C8.42486 10.5 8.87257 10.0523 8.87257 9.49999Z" fill="black"/>
<path d="M12.3726 9.49999C12.3726 8.9477 11.9249 8.49998 11.3726 8.49998C10.8203 8.49998 10.3726 8.9477 10.3726 9.49999C10.3726 10.0523 10.8203 10.5 11.3726 10.5C11.9249 10.5 12.3726 10.0523 12.3726 9.49999Z" fill="black"/>
<path d="M15.8726 9.49999C15.8726 8.9477 15.4249 8.49998 14.8726 8.49998C14.3203 8.49998 13.8726 8.9477 13.8726 9.49999C13.8726 10.0523 14.3203 10.5 14.8726 10.5C15.4249 10.5 15.8726 10.0523 15.8726 9.49999Z" fill="black"/>
</g>
<defs>
<clipPath id="clip0_522_34">
<rect width="9" height="9" fill="white" transform="translate(6.87256 14) rotate(-90)"/>
</clipPath>
</defs>
</svg>
