<svg width="17" height="16" viewBox="0 0 17 16" fill="none" xmlns="http://www.w3.org/2000/svg">
<g clip-path="url(#clip0_547_78)">
<path d="M7.9506 14.6559C6.10692 14.6344 4.25609 14.6416 2.41241 14.6416C1.71209 14.6416 1.48342 14.4057 1.48342 13.6907C1.48342 9.90165 1.48342 6.11255 1.48342 2.32345C1.48342 1.56563 1.71209 1.33686 2.44814 1.33686C4.28467 1.33686 6.11406 1.33686 7.9506 1.33686C8.27217 1.33686 8.57945 1.27966 8.73666 0.957945C8.97963 0.457498 8.62947 -5.2908e-05 7.98633 -0.00720215C6.10692 -5.2908e-05 4.22751 -0.00720215 2.34809 0.0142456C1.06895 0.0213948 0.189985 0.836408 0.182839 2.04463C0.168547 6.00531 0.175693 9.97314 0.189985 13.941C0.189985 14.7631 0.583018 15.4066 1.3405 15.7712C1.57632 15.8856 1.85502 15.9285 2.11227 15.9999C4.13461 15.9999 6.16409 15.9999 8.18642 15.9999C8.80098 15.7497 9.01536 15.3279 8.6652 14.9419C8.50799 14.7703 8.19356 14.6559 7.9506 14.6559Z" fill="#4D74F5"/>
<path d="M15.8471 7.39939C15.3397 6.8918 14.8323 6.39135 14.3249 5.8909C13.5603 5.14023 12.8028 4.38241 12.0382 3.63174C11.5951 3.20279 11.0449 3.28858 10.8591 3.81047C10.7519 4.13219 10.902 4.36096 11.1164 4.56829C11.931 5.36901 12.7385 6.17687 13.5532 6.97759C13.6532 7.07768 13.7533 7.18491 13.9033 7.3422C12.2955 7.3422 10.7734 7.3422 9.25124 7.3422C8.2365 7.3422 7.22891 7.33505 6.21417 7.3422C5.74967 7.3422 5.47098 7.66391 5.52815 8.10002C5.57817 8.44318 5.84257 8.63621 6.29277 8.63621C8.22935 8.63621 10.1731 8.63621 12.1097 8.63621C12.6813 8.63621 13.2459 8.63621 13.8176 8.63621C13.8319 8.66481 13.8462 8.6934 13.8604 8.722C13.7318 8.84354 13.596 8.95793 13.4674 9.07946C12.6813 9.85873 11.8881 10.6308 11.1092 11.4173C10.7233 11.8033 10.7305 12.2537 11.1164 12.5111C11.4236 12.7113 11.7166 12.6684 12.0382 12.3467C13.3102 11.0955 14.5822 9.83728 15.8471 8.57902C16.2901 8.15006 16.283 7.8355 15.8471 7.39939Z" fill="#4D74F5"/>
</g>
<defs>
<clipPath id="clip0_547_78">
<rect width="16" height="16" fill="white" transform="translate(0.175781)"/>
</clipPath>
</defs>
</svg>
