<svg width="21" height="19" viewBox="0 0 21 19" fill="none" xmlns="http://www.w3.org/2000/svg">
<path d="M10.5641 0C5.26081 0 0.940891 4.2646 0.940891 9.5C0.940891 10.7135 1.17503 11.8577 1.59649 12.9209L0.226757 17.0931C-0.0190917 17.8558 0.65992 18.6071 1.456 18.4337L5.49495 17.5785C6.97005 18.4799 8.7027 19 10.5524 19C15.8557 19 20.1757 14.7354 20.1757 9.5C20.1757 4.2646 15.8674 0 10.5641 0ZM10.5641 17.1509C9.89682 17.1509 9.25293 17.07 8.63246 16.9082C7.62564 16.6539 6.70078 16.2032 5.89299 15.6022L3.63352 16.0876L2.45111 16.3418L2.83744 15.163L3.5984 12.8516C3.1067 11.8461 2.82573 10.7135 2.82573 9.52312C2.82573 9.40754 2.82573 9.29197 2.83744 9.1764C3.01305 5.09672 6.40811 1.84915 10.5641 1.84915C14.8372 1.84915 18.3142 5.28163 18.3142 9.5C18.3142 13.7184 14.8372 17.1509 10.5641 17.1509Z" fill="#C4C8DF"/>
<path d="M9.77566 11.5C9.77566 9.5 12.2201 9.16667 12.2201 7.75C12.2201 7.08333 11.5979 6.58333 10.7979 6.58333C9.95344 6.58333 9.24233 7.16667 9.24233 7.16667L8.17566 6C8.17566 6 9.19788 5 10.9312 5C12.5757 5 14.1757 5.95833 14.1757 7.58333C14.1757 9.875 11.5979 10.125 11.5979 11.625V12.1667H9.8201V11.5H9.77566ZM9.77566 13.375H11.5534V15H9.77566V13.375V13.375Z" fill="#B0B5D1"/>
</svg>
