<svg width="19" height="18" viewBox="0 0 19 18" fill="none" xmlns="http://www.w3.org/2000/svg">
<path d="M9.17566 0C4.2051 0 0.175659 4.02944 0.175659 9C0.175659 13.9706 4.2051 18 9.17566 18C14.1462 18 18.1757 13.9706 18.1757 9C18.1665 4.02944 14.1371 0 9.17566 0ZM14.0183 6.80711C12.7026 8.11371 11.396 9.42944 10.0894 10.736C9.44977 11.3756 8.81018 12.0152 8.17058 12.6548C8.0518 12.7736 7.91475 12.8558 7.75028 12.8924C7.70459 12.9015 7.66805 12.9107 7.62236 12.9198C7.57667 12.9198 7.54013 12.9198 7.49444 12.9198C7.44876 12.9107 7.40307 12.9015 7.36652 12.8924C7.21119 12.8558 7.07414 12.7827 6.96449 12.664C6.0782 11.7777 5.20104 10.9005 4.32388 10.0142C3.98581 9.67614 3.99495 9.16447 4.32388 8.8264C4.41525 8.73503 4.50662 8.64365 4.60713 8.54315C4.9452 8.21421 5.45688 8.20508 5.79495 8.54315C6.37058 9.11878 6.94622 9.69442 7.52185 10.2701C7.53099 10.2792 7.54926 10.2975 7.5584 10.3157C7.57667 10.2975 7.59495 10.2792 7.61322 10.2701C9.24876 8.63452 10.8843 6.99898 12.5107 5.36345C12.6752 5.19898 12.8579 5.0802 13.0955 5.06193C13.1046 5.06193 13.1046 5.06193 13.1046 5.05279C13.132 5.05279 13.1686 5.05279 13.196 5.05279C13.2142 5.05279 13.2234 5.06193 13.2416 5.06193C13.4244 5.0802 13.5797 5.1533 13.7168 5.27208C13.8356 5.38173 13.9543 5.50051 14.064 5.61929C14.201 5.76548 14.2741 5.94822 14.2833 6.15838C14.2833 6.42335 14.1919 6.6335 14.0183 6.80711Z" fill="#C4C8DF"/>
</svg>
