<svg width="51" height="51" viewBox="0 0 51 51" fill="none" xmlns="http://www.w3.org/2000/svg">
<rect x="0.480469" y="0.141235" width="50" height="50" rx="10" fill="#E8EAF4"/>
<path d="M24.5869 31.0829C22.3921 30.854 20.4132 30.3135 18.719 28.9884C18.5088 28.8235 18.2917 28.6646 18.0999 28.4805C17.3583 27.7683 17.2836 26.9526 17.8704 26.112C18.3724 25.3926 19.2151 25.2002 20.0909 25.6132C20.2605 25.6933 20.4221 25.7932 20.5769 25.9005C23.7344 28.0701 28.072 28.13 31.2414 25.9981C31.5554 25.7573 31.8911 25.561 32.2801 25.4608C33.0365 25.2666 33.7419 25.5444 34.1478 26.2062C34.6115 26.962 34.6056 27.6998 34.0342 28.2865C33.1577 29.1862 32.1037 29.837 30.9325 30.2912C29.825 30.7206 28.612 30.9367 27.4114 31.0802C27.5926 31.2774 27.678 31.3744 27.7912 31.4882C29.4215 33.1261 31.0588 34.7572 32.6836 36.4002C33.2372 36.96 33.3529 37.6541 33.048 38.3053C32.7148 39.0169 31.9688 39.4851 31.2373 39.4349C30.7738 39.4029 30.4124 39.1722 30.0913 38.8488C28.8611 37.6108 27.6077 36.3957 26.4024 35.1344C26.0516 34.7676 25.8829 34.837 25.5734 35.1554C24.3357 36.4295 23.078 37.6841 21.8128 38.9315C21.2446 39.4916 20.5686 39.5924 19.9098 39.2725C19.2094 38.933 18.7638 38.2181 18.7982 37.4996C18.8219 37.0137 19.0609 36.6424 19.3944 36.3095C21.0077 34.6985 22.6166 33.0835 24.226 31.4699C24.3325 31.3625 24.4318 31.2487 24.5869 31.0829Z" fill="#B0B5D1"/>
<path d="M25.9228 25.4712C22.0075 25.4579 18.7969 22.212 18.8197 18.2904C18.8422 14.3255 22.0549 11.1303 26.0088 11.1413C29.9708 11.1519 33.1508 14.3931 33.131 18.3992C33.1108 22.3128 29.878 25.4848 25.9228 25.4712ZM29.4812 18.2999C29.4744 16.3527 27.9237 14.8025 25.9804 14.8008C24.0207 14.7987 22.4561 16.377 22.4712 18.342C22.4857 20.2817 24.0498 21.8209 25.9985 21.8138C27.9412 21.807 29.4878 20.2467 29.4812 18.2999Z" fill="#B0B5D1"/>
</svg>
