<svg width="51" height="51" viewBox="0 0 51 51" fill="none" xmlns="http://www.w3.org/2000/svg">
<rect x="0.480469" y="0.141235" width="50" height="50" rx="10" fill="#E8EAF4"/>
<path d="M40.4805 16.0269C39.3648 16.5162 38.1761 16.8406 36.9367 16.9981C38.2117 16.2369 39.1848 15.0406 39.6423 13.5987C38.4536 14.3075 37.1411 14.8081 35.7423 15.0875C34.6136 13.8856 33.0048 13.1412 31.2498 13.1412C27.8448 13.1412 25.1036 15.905 25.1036 19.2931C25.1036 19.7806 25.1448 20.2494 25.2461 20.6956C20.133 20.4462 15.6086 17.9956 12.5692 14.2625C12.0386 15.1831 11.7273 16.2369 11.7273 17.3712C11.7273 19.5012 12.8242 21.3894 14.4592 22.4825C13.4711 22.4637 12.5017 22.1769 11.6805 21.725C11.6805 21.7437 11.6805 21.7681 11.6805 21.7925C11.6805 24.7812 13.8123 27.2637 16.608 27.8356C16.1073 27.9725 15.5617 28.0381 14.9955 28.0381C14.6017 28.0381 14.2042 28.0156 13.8311 27.9331C14.628 30.3687 16.8892 32.1594 19.578 32.2175C17.4855 33.8544 14.8286 34.8406 11.9523 34.8406C11.448 34.8406 10.9642 34.8181 10.4805 34.7562C13.2048 36.5131 16.4336 37.5162 19.9155 37.5162C31.233 37.5162 37.4205 28.1412 37.4205 20.015C37.4205 19.7431 37.4111 19.4806 37.398 19.22C38.6186 18.3537 39.6442 17.2719 40.4805 16.0269Z" fill="#B0B5D1"/>
</svg>
