<svg width="51" height="51" viewBox="0 0 51 51" fill="none" xmlns="http://www.w3.org/2000/svg">
<rect x="0.980469" y="0.783325" width="50" height="50" rx="10" fill="#F71514"/>
<path d="M31.6489 11.7833H27.8127C23.9262 11.7833 20.0046 14.6533 20.0046 21.0649C20.0046 24.386 21.4122 26.9726 23.9924 28.4436L19.2698 36.9914C19.0459 37.3956 19.0401 37.8538 19.2542 38.2169C19.4632 38.5715 19.8452 38.7833 20.2761 38.7833H22.6649C23.2076 38.7833 23.6308 38.521 23.8336 38.0615L28.2615 29.4008H28.5847V37.7039C28.5847 38.2891 29.0785 38.7833 29.6628 38.7833H31.7498C32.4052 38.7833 32.8628 38.3257 32.8628 37.6704V12.9647C32.8629 12.2692 32.3638 11.7833 31.6489 11.7833ZM28.5848 25.5537H28.0147C25.8044 25.5537 24.4847 23.7494 24.4847 20.7272C24.4847 16.9694 26.1517 15.6306 27.7118 15.6306H28.5848V25.5537Z" fill="white"/>
</svg>
