<svg width="51" height="51" viewBox="0 0 51 51" fill="none" xmlns="http://www.w3.org/2000/svg">
<rect x="0.855469" y="0.0333252" width="50" height="50" rx="10" fill="#2F66A2"/>
<path d="M36.2395 26.9285C35.706 26.2635 35.8587 25.9676 36.2395 25.3732C36.2464 25.3664 40.6507 19.3597 41.1045 17.3226L41.1072 17.3213C41.3327 16.5789 41.1072 16.0333 40.0168 16.0333H36.4087C35.4901 16.0333 35.0666 16.5015 34.8397 17.0254C34.8397 17.0254 33.0027 21.3655 30.4038 24.1789C29.5651 24.9918 29.1773 25.2524 28.7194 25.2524C28.4939 25.2524 28.1433 24.9918 28.1433 24.2495V17.3213C28.1433 16.431 27.8861 16.0333 27.1257 16.0333H21.4523C20.8761 16.0333 20.5337 16.4486 20.5337 16.8354C20.5337 17.6795 21.8332 17.8736 21.9679 20.2486V25.4017C21.9679 26.5308 21.7603 26.7385 21.2997 26.7385C20.0731 26.7385 17.0961 22.3807 15.3319 17.3932C14.9758 16.4255 14.6279 16.0347 13.7025 16.0347H10.093C9.0631 16.0347 8.85547 16.5029 8.85547 17.0268C8.85547 17.9523 10.082 22.5544 14.5592 28.6344C17.543 32.7845 21.7452 35.0333 25.5678 35.0333C27.8655 35.0333 28.146 34.5339 28.146 33.6748C28.146 29.7093 27.9384 29.3347 29.0893 29.3347C29.6228 29.3347 30.5413 29.5953 32.6864 31.597C35.1381 33.9707 35.541 35.0333 36.9133 35.0333H40.5214C41.55 35.0333 42.0711 34.5339 41.7714 33.5486C41.0852 31.4763 36.4486 27.2135 36.2395 26.9285V26.9285Z" fill="white"/>
</svg>
