<svg width="51" height="51" viewBox="0 0 51 51" fill="none" xmlns="http://www.w3.org/2000/svg">
<rect x="0.480469" y="0.783325" width="50" height="50" rx="10" fill="#FF8811"/>
<path d="M24.5869 31.725C22.3921 31.4961 20.4132 30.9556 18.719 29.6305C18.5088 29.4656 18.2917 29.3067 18.0999 29.1226C17.3583 28.4103 17.2836 27.5946 17.8704 26.754C18.3724 26.0347 19.2151 25.8423 20.0909 26.2553C20.2605 26.3354 20.4221 26.4353 20.5769 26.5426C23.7344 28.7122 28.072 28.7721 31.2414 26.6402C31.5554 26.3994 31.8911 26.2031 32.2801 26.1029C33.0365 25.9087 33.7419 26.1865 34.1478 26.8483C34.6115 27.6041 34.6056 28.3418 34.0342 28.9286C33.1577 29.8282 32.1037 30.4791 30.9325 30.9333C29.825 31.3627 28.612 31.5788 27.4114 31.7223C27.5926 31.9195 27.678 32.0165 27.7912 32.1303C29.4215 33.7682 31.0588 35.3993 32.6836 37.0423C33.2372 37.6021 33.3529 38.2962 33.048 38.9473C32.7148 39.659 31.9688 40.1271 31.2373 40.077C30.7738 40.045 30.4124 39.8143 30.0913 39.4908C28.8611 38.2529 27.6077 37.0378 26.4024 35.7765C26.0516 35.4097 25.8829 35.4791 25.5734 35.7975C24.3357 37.0716 23.078 38.3262 21.8128 39.5736C21.2446 40.1337 20.5686 40.2345 19.9098 39.9146C19.2094 39.5751 18.7638 38.8602 18.7982 38.1417C18.8219 37.6558 19.0609 37.2845 19.3944 36.9515C21.0077 35.3406 22.6166 33.7255 24.226 32.1119C24.3325 32.0046 24.4318 31.8907 24.5869 31.725Z" fill="white"/>
<path d="M25.9228 26.1133C22.0075 26.0999 18.7969 22.8541 18.8197 18.9325C18.8422 14.9676 22.0549 11.7724 26.0088 11.7834C29.9708 11.794 33.1508 15.0352 33.131 19.0413C33.1108 22.9549 29.878 26.1269 25.9228 26.1133ZM29.4812 18.9419C29.4744 16.9948 27.9237 15.4446 25.9804 15.4429C24.0207 15.4408 22.4561 17.0191 22.4712 18.984C22.4857 20.9238 24.0498 22.463 25.9985 22.4559C27.9412 22.449 29.4878 20.8888 29.4812 18.9419Z" fill="white"/>
</svg>
