<svg width="51" height="51" viewBox="0 0 51 51" fill="none" xmlns="http://www.w3.org/2000/svg">
<rect x="0.480469" y="0.783325" width="50" height="50" rx="10" fill="#1335A6"/>
<path d="M17.6302 12.9484C15.7741 12.9484 14.5605 14.1672 14.5605 15.7691C14.5605 17.3357 15.738 18.5893 17.559 18.5893H17.5942C19.4866 18.5893 20.6643 17.3357 20.6643 15.7691C20.629 14.1672 19.4866 12.9484 17.6302 12.9484V12.9484Z" fill="white"/>
<path d="M14.8813 20.8182H20.3075V37.1431H14.8813V20.8182Z" fill="white"/>
<path d="M33.626 20.4351C30.6988 20.4351 28.7359 23.1857 28.7359 23.1857V20.8182H23.3096V37.1431H28.7356V28.0266C28.7356 27.5386 28.771 27.0513 28.9143 26.7023C29.3066 25.7278 30.1993 24.7181 31.6984 24.7181C33.6618 24.7181 34.4471 26.2152 34.4471 28.4098V37.1431H39.8729V27.7827C39.8729 22.7684 37.1958 20.4351 33.626 20.4351V20.4351Z" fill="white"/>
</svg>
