<svg width="51" height="51" viewBox="0 0 51 51" fill="none" xmlns="http://www.w3.org/2000/svg">
<rect x="0.480469" y="0.141235" width="50" height="50" rx="10" fill="#E8EAF4"/>
<path d="M17.6302 11.9465C15.7741 11.9465 14.5605 13.1653 14.5605 14.7673C14.5605 16.3339 15.738 17.5875 17.559 17.5875H17.5942C19.4866 17.5875 20.6643 16.3339 20.6643 14.7673C20.629 13.1653 19.4866 11.9465 17.6302 11.9465V11.9465Z" fill="#B0B5D1"/>
<path d="M14.8813 19.8163H20.3075V36.1412H14.8813V19.8163Z" fill="#B0B5D1"/>
<path d="M33.626 19.4332C30.6988 19.4332 28.7359 22.1839 28.7359 22.1839V19.8164H23.3096V36.1413H28.7356V27.0248C28.7356 26.5368 28.771 26.0495 28.9143 25.7005C29.3066 24.7259 30.1993 23.7163 31.6984 23.7163C33.6618 23.7163 34.4471 25.2134 34.4471 27.408V36.1413H39.8729V26.7809C39.8729 21.7666 37.1958 19.4332 33.626 19.4332V19.4332Z" fill="#B0B5D1"/>
</svg>
