<svg width="24" height="24" viewBox="0 0 24 24" fill="none" xmlns="http://www.w3.org/2000/svg">
<circle cx="12" cy="12" r="12" fill="#E3F4EE"/>
<path d="M12.5062 8.49488C13.0402 7.8761 13.6031 7.36229 14.3866 7.14682C16.4411 6.58328 18.4201 7.77665 18.8902 9.79323C19.2558 11.3678 18.6696 12.6662 17.6134 13.8209C16.412 15.1413 14.9437 16.1965 13.5799 17.3457C13.4 17.5004 13.2143 17.6441 13.0286 17.7932C12.6978 18.0584 12.3031 18.0639 11.9781 17.7932C10.6723 16.6993 9.3549 15.622 8.07231 14.5004C7.19017 13.7325 6.46473 12.8374 6.14553 11.7048C5.6174 9.85952 6.5866 7.89267 8.35089 7.22416C9.74955 6.69378 11.2933 7.09157 12.2857 8.24074C12.3495 8.32361 12.4192 8.39543 12.5062 8.49488ZM12.5062 17.3015C13.5393 16.4452 14.5375 15.622 15.5357 14.7877C16.2786 14.1689 16.9924 13.5225 17.5495 12.738C18.1821 11.8485 18.4143 10.8871 18.1299 9.8319C17.7178 8.29599 16.2263 7.41753 14.6594 7.82637C13.9049 8.01974 13.3826 8.52803 12.9589 9.13024C12.6687 9.53908 12.3495 9.52803 12.042 9.14129C11.8098 8.84847 11.5661 8.55566 11.2817 8.31256C10.7362 7.84847 10.0687 7.6551 9.3491 7.72693C7.81115 7.88162 6.81294 9.13024 6.7549 10.5612C6.70848 11.7048 7.21919 12.6496 8.02589 13.4231C9.01249 14.3678 10.0687 15.2463 11.1018 16.1468C11.5545 16.5336 12.0245 16.9037 12.5062 17.3015Z" fill="#44B759"/>
</svg>
