<svg width="24" height="24" viewBox="0 0 24 24" fill="none" xmlns="http://www.w3.org/2000/svg">
<circle cx="12" cy="12" r="12" fill="#FFE4E3"/>
<path d="M9.32795 15.9606C10.2001 15.0864 11.083 14.2015 11.9731 13.3094C12.8811 14.2194 13.7676 15.1115 14.6505 16C15.1099 15.5343 15.5406 15.0972 15.9821 14.6458C15.1135 13.7824 14.2198 12.8974 13.3226 12.0054C14.2306 11.1026 15.1207 10.2212 16 9.34707C15.5478 8.89924 15.1099 8.46932 14.6685 8.03224C13.8071 8.89566 12.9206 9.78773 12.0162 10.6941C11.1045 9.77698 10.2144 8.88491 9.33513 8C8.89009 8.44783 8.4594 8.87774 8.0323 9.30766C8.90803 10.1782 9.8017 11.0631 10.7026 11.9588C9.78017 12.8795 8.8865 13.7644 8.00359 14.6458C8.45581 15.0936 8.8865 15.5199 9.32795 15.9606Z" fill="#F71514"/>
</svg>
