<svg width="24" height="24" viewBox="0 0 24 24" fill="none" xmlns="http://www.w3.org/2000/svg">
<circle cx="12" cy="12" r="12" fill="#F5ECFE"/>
<path d="M19.6787 11.4237C18.7632 10.3212 17.7261 9.34507 16.5316 8.53748C15.1584 7.62456 13.6707 7.02765 11.9827 6.99956C11.1316 6.98552 10.3233 7.16108 9.54372 7.46305C7.33362 8.31277 5.61703 9.80153 4.16509 11.6133C3.94336 11.8872 3.95051 12.1189 4.16509 12.3928C5.30232 13.8324 6.63983 15.0473 8.25628 15.9532C10.5951 17.2664 12.984 17.3718 15.4016 16.1218C17.1396 15.2229 18.5558 13.9588 19.7645 12.456C20.1079 12.0347 20.0793 11.9153 19.6787 11.4237ZM17.2683 13.5656C16.3099 14.4223 15.2657 15.1386 14.0426 15.5951C12.562 16.1498 11.1029 16.0937 9.66531 15.4897C7.8629 14.7313 6.46102 13.4602 5.16643 12.0066C6.31082 10.7004 7.54819 9.57681 9.06451 8.79029C10.9957 7.7931 12.934 7.77203 14.8723 8.76923C16.36 9.52765 17.5688 10.6302 18.6845 11.8451C18.7203 11.8872 18.7489 11.9364 18.8276 12.0417C18.3126 12.5543 17.8119 13.081 17.2683 13.5656Z" fill="#AA7CD9"/>
<path d="M12.018 8.91018C10.2585 8.90316 8.84947 10.2655 8.84231 11.979C8.83516 13.7136 10.2227 15.09 11.9679 15.097C13.7346 15.097 15.1365 13.7416 15.1436 12.0282C15.1436 10.2936 13.7632 8.91721 12.018 8.91018ZM12.0108 14.0857C10.8808 14.1209 9.90803 13.1939 9.86511 12.0352C9.8222 10.9186 10.8164 9.92844 11.9822 9.92142C13.1338 9.9144 14.0922 10.8484 14.1065 11.993C14.128 13.1096 13.191 14.0506 12.0108 14.0857Z" fill="#AA7CD9"/>
</svg>
