<svg width="13" height="13" viewBox="0 0 13 13" fill="none" xmlns="http://www.w3.org/2000/svg">
<path d="M6.12597 12.252C9.50383 12.252 12.2519 9.5039 12.2519 6.12604C12.2519 2.74815 9.50383 0 6.12597 0C2.74811 0 0 2.74815 0 6.12604C0 9.5039 2.74811 12.252 6.12597 12.252ZM2.13191 9.15049C2.61731 8.95958 3.22846 8.80744 3.91539 8.70318C4.00865 9.2631 4.13243 9.78217 4.28502 10.2401C4.36496 10.4799 4.44912 10.6915 4.53608 10.8796C3.57066 10.5558 2.73556 9.94568 2.13191 9.15049ZM1.11381 6.12604C1.11381 5.39297 1.27205 4.69617 1.55603 4.06798C2.15835 4.32583 2.91919 4.52531 3.77631 4.6541C3.73458 5.12974 3.71271 5.62323 3.71271 6.12604C3.71271 6.62882 3.73458 7.12235 3.77631 7.59795C2.91919 7.72678 2.15831 7.92626 1.55607 8.18411C1.27205 7.55592 1.11381 6.85912 1.11381 6.12604ZM6.12597 1.11381C6.24589 1.11381 6.5954 1.41941 6.91032 2.36418C7.03974 2.75253 7.14618 3.19297 7.22831 3.66986C6.87029 3.69489 6.5011 3.70811 6.12582 3.70811C5.75065 3.70811 5.38157 3.69493 5.02363 3.66986C5.10575 3.19297 5.2122 2.75257 5.34166 2.36422C5.65657 1.41941 6.00605 1.11381 6.12597 1.11381ZM6.12582 4.82192C6.55007 4.82192 6.96597 4.80632 7.3688 4.77659C7.406 5.21116 7.42542 5.66359 7.42542 6.12604C7.42542 6.5885 7.406 7.04086 7.36884 7.47543C6.96601 7.44569 6.55018 7.4301 6.12597 7.4301C5.70176 7.4301 5.28593 7.44569 4.88314 7.47543C4.84594 7.04086 4.82652 6.58846 4.82652 6.12604C4.82652 5.66359 4.84594 5.2112 4.88314 4.77659C5.28589 4.80632 5.70168 4.82192 6.12582 4.82192ZM11.1381 6.12604C11.1381 6.85908 10.9799 7.55585 10.6959 8.18404C10.0936 7.92619 9.33275 7.72674 8.47563 7.59795C8.51736 7.12235 8.53923 6.62886 8.53923 6.12604C8.53923 5.62319 8.51736 5.1297 8.47563 4.65407C9.33275 4.52527 10.0936 4.32575 10.6958 4.06787C10.9799 4.69609 11.1381 5.39293 11.1381 6.12604ZM6.12597 11.1382C6.00605 11.1382 5.65657 10.8326 5.3417 9.88783C5.21223 9.49945 5.10579 9.05905 5.02363 8.58215C5.38165 8.55709 5.75073 8.54391 6.12597 8.54391C6.50121 8.54391 6.87033 8.55709 7.22831 8.58215C7.14618 9.05905 7.03974 9.49949 6.91032 9.88783C6.5954 10.8326 6.24593 11.1382 6.12597 11.1382ZM7.71594 10.8796C7.80285 10.6915 7.88702 10.4799 7.96695 10.2401C8.11958 9.78217 8.24336 9.2631 8.33663 8.70318C9.02348 8.80744 9.63463 8.95955 10.12 9.15045C9.51642 9.9456 8.68135 10.5558 7.71594 10.8796ZM10.12 3.10149C9.63463 3.29239 9.02348 3.44458 8.33659 3.54879C8.24333 2.98892 8.11958 2.46981 7.96695 2.01195C7.88706 1.77215 7.80285 1.56049 7.7159 1.3724C8.68128 1.69623 9.51634 2.30633 10.12 3.10149ZM4.53608 1.37244C4.44912 1.56045 4.36499 1.77215 4.28502 2.01195C4.13243 2.46988 4.00865 2.98895 3.91539 3.54887C3.22846 3.44461 2.61731 3.29247 2.13191 3.1016C2.73552 2.30641 3.57062 1.69619 4.53608 1.37244Z" fill="black"/>
</svg>
